<?xml version="1.0" encoding="UTF-8"?>
<svg id="Layer_2" data-name="Layer 2" xmlns="http://www.w3.org/2000/svg" xmlns:xlink="http://www.w3.org/1999/xlink" viewBox="0 0 680 162.18">
  <defs>
    <style>
      .cls-1 {
        fill: url(#linear-gradient);
      }

      .cls-1, .cls-2 {
        stroke-width: 0px;
      }

      .cls-2 {
        fill: #fff;
      }
    </style>
    <linearGradient id="linear-gradient" x1="340" y1="-6.03" x2="340" y2="217.67" gradientUnits="userSpaceOnUse">
      <stop offset="0" stop-color="#ff5713"/>
      <stop offset="1" stop-color="#ff9431"/>
    </linearGradient>
  </defs>
  <g id="Caracteristicas_da_linguagem" data-name="Caracteristicas da linguagem">
    <g>
      <rect class="cls-1" y="0" width="680" height="162.18" rx="79.27" ry="79.27"/>
      <g>
        <path class="cls-2" d="M168.63,55.57c0,1.03-.25,2.14-.76,3.33-.5,1.19-1.3,2.37-2.38,3.52-1.08,1.15-2.47,2.08-4.15,2.8s-3.65,1.08-5.89,1.08c-1.7,0-3.24-.16-4.64-.48s-2.66-.82-3.79-1.51c-1.14-.68-2.18-1.58-3.13-2.69-.85-1.01-1.57-2.14-2.18-3.39-.6-1.25-1.05-2.59-1.35-4.01s-.45-2.93-.45-4.53c0-2.59.38-4.91,1.13-6.97.75-2.05,1.83-3.8,3.24-5.26,1.41-1.46,3.05-2.57,4.94-3.33s3.9-1.14,6.04-1.14c2.61,0,4.93.52,6.97,1.56s3.6,2.33,4.68,3.86,1.63,2.98,1.63,4.34c0,.75-.26,1.41-.79,1.98s-1.16.86-1.91.86c-.83,0-1.46-.2-1.88-.59-.42-.4-.88-1.08-1.4-2.04-.85-1.6-1.85-2.79-3-3.58s-2.57-1.19-4.25-1.19c-2.68,0-4.82,1.02-6.4,3.05-1.59,2.04-2.38,4.93-2.38,8.68,0,2.5.35,4.59,1.05,6.25s1.7,2.9,2.99,3.72,2.8,1.23,4.53,1.23c1.88,0,3.46-.46,4.76-1.4,1.3-.93,2.27-2.3,2.93-4.1.28-.85.62-1.54,1.03-2.08.41-.53,1.07-.8,1.98-.8.78,0,1.44.27,2,.81s.83,1.22.83,2.02Z"/>
        <path class="cls-2" d="M189.24,62.91c-1.45,1.13-2.85,1.97-4.21,2.54-1.36.56-2.88.85-4.56.85-1.54,0-2.89-.3-4.05-.91-1.17-.61-2.06-1.43-2.69-2.47s-.94-2.17-.94-3.38c0-1.64.52-3.04,1.56-4.2s2.47-1.93,4.28-2.33c.38-.09,1.33-.29,2.83-.59s2.8-.59,3.88-.85c1.08-.26,2.24-.57,3.5-.93-.07-1.58-.39-2.74-.96-3.48-.56-.74-1.73-1.11-3.5-1.11-1.52,0-2.67.21-3.44.64-.77.42-1.43,1.06-1.98,1.91-.55.85-.94,1.41-1.17,1.68s-.71.41-1.46.41c-.67,0-1.26-.22-1.75-.65-.49-.43-.74-.98-.74-1.66,0-1.05.37-2.08,1.12-3.08s1.91-1.82,3.49-2.46,3.55-.97,5.91-.97c2.64,0,4.71.31,6.22.93s2.57,1.61,3.2,2.96.93,3.13.93,5.36c0,1.41,0,2.6-.01,3.58s-.02,2.07-.03,3.27c0,1.13.19,2.3.56,3.53.37,1.22.56,2.01.56,2.36,0,.62-.29,1.18-.87,1.68-.58.51-1.23.76-1.97.76-.62,0-1.22-.29-1.82-.87-.6-.58-1.24-1.42-1.91-2.52ZM188.84,54.23c-.88.32-2.16.66-3.83,1.02-1.68.36-2.84.62-3.48.79-.64.17-1.26.5-1.85.99s-.88,1.18-.88,2.05.34,1.68,1.03,2.32c.69.64,1.59.96,2.7.96,1.19,0,2.28-.26,3.29-.78,1-.52,1.74-1.19,2.21-2.01.54-.91.81-2.4.81-4.48v-.86Z"/>
        <path class="cls-2" d="M206.77,57.64v5.01c0,1.22-.29,2.13-.86,2.74-.57.61-1.3.91-2.18.91s-1.57-.31-2.13-.92-.83-1.52-.83-2.72v-16.7c0-2.7.97-4.04,2.92-4.04,1,0,1.71.31,2.15.94s.68,1.56.73,2.79c.72-1.23,1.45-2.16,2.21-2.79.75-.63,1.76-.94,3.02-.94s2.48.31,3.67.94,1.78,1.46,1.78,2.5c0,.73-.25,1.34-.76,1.81-.5.48-1.05.71-1.64.71-.22,0-.75-.14-1.59-.41-.84-.27-1.59-.41-2.23-.41-.88,0-1.6.23-2.15.69-.56.46-.99,1.15-1.3,2.05s-.52,1.99-.64,3.24c-.12,1.25-.18,2.78-.18,4.58Z"/>
        <path class="cls-2" d="M234.57,62.91c-1.45,1.13-2.85,1.97-4.21,2.54-1.36.56-2.88.85-4.56.85-1.54,0-2.89-.3-4.05-.91-1.17-.61-2.06-1.43-2.69-2.47s-.94-2.17-.94-3.38c0-1.64.52-3.04,1.56-4.2s2.47-1.93,4.28-2.33c.38-.09,1.33-.29,2.83-.59s2.8-.59,3.88-.85c1.08-.26,2.24-.57,3.5-.93-.07-1.58-.39-2.74-.96-3.48-.56-.74-1.73-1.11-3.5-1.11-1.52,0-2.67.21-3.44.64-.77.42-1.43,1.06-1.98,1.91-.55.85-.94,1.41-1.17,1.68s-.71.41-1.46.41c-.67,0-1.26-.22-1.75-.65-.49-.43-.74-.98-.74-1.66,0-1.05.37-2.08,1.12-3.08s1.91-1.82,3.49-2.46,3.55-.97,5.91-.97c2.64,0,4.71.31,6.22.93s2.57,1.61,3.2,2.96.93,3.13.93,5.36c0,1.41,0,2.6-.01,3.58s-.02,2.07-.03,3.27c0,1.13.19,2.3.56,3.53.37,1.22.56,2.01.56,2.36,0,.62-.29,1.18-.87,1.68-.58.51-1.23.76-1.97.76-.62,0-1.22-.29-1.82-.87-.6-.58-1.24-1.42-1.91-2.52ZM234.17,54.23c-.88.32-2.16.66-3.83,1.02-1.68.36-2.84.62-3.48.79-.64.17-1.26.5-1.85.99s-.88,1.18-.88,2.05.34,1.68,1.03,2.32c.69.64,1.59.96,2.7.96,1.19,0,2.28-.26,3.29-.78,1-.52,1.74-1.19,2.21-2.01.54-.91.81-2.4.81-4.48v-.86Z"/>
        <path class="cls-2" d="M267.66,58.87c0,.75-.22,1.55-.67,2.4s-1.13,1.66-2.04,2.43c-.92.77-2.07,1.39-3.46,1.86-1.39.47-2.96.7-4.7.7-3.71,0-6.6-1.08-8.68-3.24s-3.12-5.06-3.12-8.69c0-2.46.48-4.64,1.43-6.53s2.33-3.35,4.13-4.38c1.8-1.03,3.95-1.55,6.46-1.55,1.55,0,2.98.23,4.27.68s2.39,1.04,3.3,1.76c.9.72,1.59,1.48,2.06,2.3.48.81.71,1.57.71,2.27s-.27,1.33-.8,1.82-1.18.75-1.95.75c-.5,0-.91-.13-1.24-.38s-.7-.67-1.11-1.24c-.73-1.11-1.5-1.95-2.3-2.5s-1.81-.83-3.04-.83c-1.77,0-3.2.69-4.29,2.08-1.08,1.38-1.63,3.28-1.63,5.68,0,1.13.14,2.16.42,3.11.28.94.68,1.75,1.21,2.42s1.16,1.17,1.91,1.52c.75.34,1.57.52,2.46.52,1.2,0,2.23-.28,3.09-.83.86-.56,1.61-1.41,2.27-2.55.37-.67.76-1.2,1.19-1.58.43-.38.95-.57,1.56-.57.73,0,1.34.28,1.82.83.48.56.72,1.15.72,1.78Z"/>
        <path class="cls-2" d="M273.21,42.43h.66v-3.6c0-.97.03-1.73.08-2.27.05-.55.19-1.02.43-1.42.23-.41.57-.74,1.01-1s.93-.38,1.47-.38c.76,0,1.45.29,2.07.86.41.38.67.85.78,1.4.11.55.17,1.33.17,2.34v4.09h2.2c.85,0,1.5.2,1.94.6.45.4.67.92.67,1.55,0,.81-.32,1.37-.96,1.69-.64.32-1.55.48-2.74.48h-1.12v11.03c0,.94.03,1.66.1,2.16.07.51.24.92.53,1.23.29.32.75.47,1.4.47.35,0,.83-.06,1.43-.19s1.07-.19,1.41-.19c.48,0,.92.19,1.31.58.39.39.58.87.58,1.44,0,.97-.53,1.71-1.58,2.22s-2.57.77-4.55.77-3.3-.31-4.26-.94-1.6-1.5-1.9-2.61c-.3-1.11-.45-2.6-.45-4.46v-11.51h-.79c-.86,0-1.52-.21-1.98-.62s-.68-.93-.68-1.56.24-1.15.71-1.55c.48-.4,1.17-.6,2.08-.6Z"/>
        <path class="cls-2" d="M305.56,55.57h-11.73c.01,1.36.29,2.56.82,3.6.54,1.04,1.25,1.82,2.13,2.35.89.53,1.86.79,2.93.79.72,0,1.37-.08,1.97-.25.59-.17,1.17-.43,1.72-.79.56-.36,1.07-.74,1.54-1.15.47-.41,1.08-.97,1.82-1.67.31-.26.75-.4,1.32-.4.62,0,1.11.17,1.49.51s.57.81.57,1.43c0,.54-.21,1.18-.64,1.9-.43.73-1.07,1.42-1.92,2.09-.86.67-1.93,1.22-3.23,1.66-1.3.44-2.79.66-4.47.66-3.85,0-6.85-1.1-8.99-3.3s-3.21-5.18-3.21-8.94c0-1.77.26-3.42.79-4.93.53-1.52,1.3-2.82,2.31-3.9,1.01-1.08,2.25-1.92,3.73-2.49,1.48-.58,3.12-.87,4.92-.87,2.34,0,4.35.49,6.03,1.48,1.68.99,2.93,2.27,3.77,3.83.83,1.57,1.25,3.16,1.25,4.79,0,1.51-.43,2.49-1.3,2.93-.86.45-2.08.67-3.65.67ZM293.82,52.17h10.88c-.15-2.05-.7-3.58-1.66-4.6-.96-1.02-2.22-1.53-3.79-1.53s-2.72.52-3.68,1.55c-.96,1.03-1.54,2.56-1.75,4.58Z"/>
        <path class="cls-2" d="M321.51,57.64v5.01c0,1.22-.29,2.13-.86,2.74-.57.61-1.3.91-2.17.91s-1.58-.31-2.13-.92-.83-1.52-.83-2.72v-16.7c0-2.7.97-4.04,2.92-4.04,1,0,1.71.31,2.15.94s.68,1.56.73,2.79c.72-1.23,1.45-2.16,2.21-2.79.75-.63,1.76-.94,3.02-.94s2.48.31,3.67.94,1.78,1.46,1.78,2.5c0,.73-.25,1.34-.76,1.81-.5.48-1.05.71-1.64.71-.22,0-.75-.14-1.59-.41-.84-.27-1.59-.41-2.23-.41-.88,0-1.6.23-2.15.69-.56.46-.99,1.15-1.3,2.05-.31.91-.52,1.99-.64,3.24-.12,1.25-.18,2.78-.18,4.58Z"/>
        <path class="cls-2" d="M340.23,33.29h2.97c.75,0,1.12.11,1.12.33,0,.12-.41.59-1.23,1.43s-1.65,1.63-2.48,2.4-1.41,1.22-1.74,1.38c-.83.42-1.73.64-2.68.64-.63,0-.95-.18-.95-.55,0-.25.19-.68.57-1.3l.99-1.85c.57-1.07,1.07-1.75,1.49-2.04.42-.29,1.07-.44,1.93-.44ZM341.26,45.31v17.34c0,1.2-.29,2.11-.86,2.72-.57.62-1.3.92-2.18.92s-1.59-.31-2.14-.94c-.55-.63-.82-1.53-.82-2.7v-17.16c0-1.19.28-2.08.82-2.68.55-.6,1.26-.9,2.14-.9s1.6.3,2.18.9c.57.6.86,1.44.86,2.5Z"/>
        <path class="cls-2" d="M366.77,58.45c0,1.66-.4,3.07-1.21,4.25s-2,2.07-3.57,2.68c-1.57.61-3.49.91-5.75.91s-4-.33-5.54-.99c-1.54-.66-2.67-1.48-3.41-2.47-.73-.99-1.1-1.98-1.1-2.98,0-.66.23-1.22.7-1.69s1.06-.7,1.78-.7c.63,0,1.11.15,1.45.46.34.31.66.74.97,1.3.62,1.07,1.35,1.87,2.21,2.4.86.53,2.02.79,3.5.79,1.2,0,2.19-.27,2.96-.8.77-.53,1.15-1.15,1.15-1.83,0-1.05-.4-1.82-1.2-2.31-.8-.48-2.11-.94-3.94-1.38-2.07-.51-3.75-1.05-5.04-1.62-1.3-.56-2.33-1.31-3.11-2.23s-1.16-2.06-1.16-3.41c0-1.2.36-2.34,1.08-3.41s1.78-1.92,3.18-2.56c1.4-.64,3.09-.96,5.06-.96,1.55,0,2.95.16,4.19.48,1.24.32,2.27.75,3.1,1.3.83.54,1.46,1.14,1.89,1.8.43.66.65,1.3.65,1.93,0,.69-.23,1.25-.69,1.69-.46.44-1.12.66-1.97.66-.62,0-1.14-.18-1.57-.53-.43-.35-.93-.88-1.48-1.58-.46-.59-.99-1.05-1.6-1.41s-1.45-.53-2.5-.53-1.99.23-2.7.69c-.72.46-1.08,1.04-1.08,1.73,0,.63.26,1.15.79,1.55s1.24.74,2.13,1,2.12.59,3.69.97c1.86.45,3.38,1,4.56,1.63,1.18.63,2.07,1.37,2.68,2.23.61.86.91,1.83.91,2.93Z"/>
        <path class="cls-2" d="M372.18,42.43h.66v-3.6c0-.97.03-1.73.08-2.27.05-.55.19-1.02.43-1.42.23-.41.57-.74,1.01-1s.93-.38,1.47-.38c.76,0,1.45.29,2.07.86.41.38.67.85.78,1.4.11.55.17,1.33.17,2.34v4.09h2.2c.85,0,1.5.2,1.94.6.45.4.67.92.67,1.55,0,.81-.32,1.37-.96,1.69-.64.32-1.55.48-2.74.48h-1.12v11.03c0,.94.03,1.66.1,2.16.07.51.24.92.53,1.23.29.32.75.47,1.4.47.35,0,.83-.06,1.43-.19s1.07-.19,1.41-.19c.48,0,.92.19,1.31.58.39.39.58.87.58,1.44,0,.97-.53,1.71-1.58,2.22s-2.57.77-4.55.77-3.3-.31-4.26-.94-1.6-1.5-1.9-2.61c-.3-1.11-.45-2.6-.45-4.46v-11.51h-.79c-.86,0-1.52-.21-1.98-.62s-.68-.93-.68-1.56.24-1.15.71-1.55c.48-.4,1.17-.6,2.08-.6Z"/>
        <path class="cls-2" d="M390.81,39.11c-.84,0-1.55-.26-2.14-.77-.59-.51-.89-1.24-.89-2.18,0-.85.3-1.55.91-2.1.61-.55,1.31-.82,2.12-.82s1.46.25,2.06.75.9,1.22.9,2.18-.29,1.64-.88,2.16c-.59.52-1.28.78-2.09.78ZM393.78,45.31v17.34c0,1.2-.29,2.11-.86,2.72-.57.62-1.3.92-2.18.92s-1.59-.31-2.14-.94c-.55-.63-.82-1.53-.82-2.7v-17.16c0-1.19.28-2.08.82-2.68.55-.6,1.26-.9,2.14-.9s1.6.3,2.18.9c.57.6.86,1.44.86,2.5Z"/>
        <path class="cls-2" d="M421.49,58.87c0,.75-.22,1.55-.67,2.4-.45.85-1.13,1.66-2.04,2.43-.92.77-2.07,1.39-3.46,1.86-1.39.47-2.96.7-4.7.7-3.71,0-6.6-1.08-8.68-3.24s-3.12-5.06-3.12-8.69c0-2.46.48-4.64,1.43-6.53s2.33-3.35,4.13-4.38c1.8-1.03,3.96-1.55,6.46-1.55,1.55,0,2.98.23,4.27.68,1.3.45,2.39,1.04,3.3,1.76.9.72,1.59,1.48,2.07,2.3.48.81.71,1.57.71,2.27s-.27,1.33-.8,1.82c-.54.5-1.18.75-1.95.75-.5,0-.91-.13-1.24-.38-.33-.26-.7-.67-1.11-1.24-.73-1.11-1.5-1.95-2.3-2.5-.8-.56-1.81-.83-3.04-.83-1.77,0-3.2.69-4.29,2.08-1.08,1.38-1.63,3.28-1.63,5.68,0,1.13.14,2.16.42,3.11.28.94.68,1.75,1.21,2.42s1.16,1.17,1.91,1.52c.75.34,1.57.52,2.46.52,1.2,0,2.23-.28,3.09-.83.86-.56,1.61-1.41,2.27-2.55.37-.67.76-1.2,1.19-1.58s.95-.57,1.56-.57c.73,0,1.34.28,1.82.83.48.56.72,1.15.72,1.78Z"/>
        <path class="cls-2" d="M441.88,62.91c-1.45,1.13-2.85,1.97-4.21,2.54-1.36.56-2.88.85-4.56.85-1.54,0-2.89-.3-4.05-.91-1.17-.61-2.06-1.43-2.69-2.47s-.94-2.17-.94-3.38c0-1.64.52-3.04,1.56-4.2s2.47-1.93,4.29-2.33c.38-.09,1.33-.29,2.83-.59s2.8-.59,3.88-.85c1.08-.26,2.24-.57,3.5-.93-.07-1.58-.39-2.74-.96-3.48-.56-.74-1.73-1.11-3.5-1.11-1.52,0-2.67.21-3.44.64-.77.42-1.43,1.06-1.98,1.91-.55.85-.94,1.41-1.17,1.68-.23.27-.71.41-1.46.41-.67,0-1.26-.22-1.75-.65-.49-.43-.74-.98-.74-1.66,0-1.05.37-2.08,1.12-3.08s1.91-1.82,3.49-2.46,3.55-.97,5.91-.97c2.64,0,4.71.31,6.22.93s2.58,1.61,3.2,2.96c.62,1.35.93,3.13.93,5.36,0,1.41,0,2.6-.01,3.58,0,.98-.02,2.07-.03,3.27,0,1.13.19,2.3.56,3.53.37,1.22.56,2.01.56,2.36,0,.62-.29,1.18-.87,1.68-.58.51-1.23.76-1.97.76-.62,0-1.22-.29-1.82-.87-.6-.58-1.24-1.42-1.91-2.52ZM441.48,54.23c-.88.32-2.16.66-3.83,1.02-1.68.36-2.84.62-3.48.79-.64.17-1.26.5-1.85.99s-.88,1.18-.88,2.05.34,1.68,1.03,2.32c.69.64,1.59.96,2.7.96,1.19,0,2.28-.26,3.29-.78,1-.52,1.74-1.19,2.21-2.01.54-.91.81-2.4.81-4.48v-.86Z"/>
        <path class="cls-2" d="M472.77,58.45c0,1.66-.4,3.07-1.21,4.25s-2,2.07-3.57,2.68c-1.57.61-3.49.91-5.75.91s-4-.33-5.54-.99c-1.54-.66-2.67-1.48-3.41-2.47-.73-.99-1.1-1.98-1.1-2.98,0-.66.23-1.22.7-1.69s1.06-.7,1.78-.7c.63,0,1.11.15,1.45.46.34.31.66.74.97,1.3.62,1.07,1.35,1.87,2.21,2.4.86.53,2.02.79,3.5.79,1.2,0,2.19-.27,2.96-.8.77-.53,1.15-1.15,1.15-1.83,0-1.05-.4-1.82-1.2-2.31-.8-.48-2.11-.94-3.94-1.38-2.07-.51-3.75-1.05-5.04-1.62-1.3-.56-2.33-1.31-3.11-2.23s-1.16-2.06-1.16-3.41c0-1.2.36-2.34,1.08-3.41s1.78-1.92,3.18-2.56c1.4-.64,3.09-.96,5.06-.96,1.55,0,2.95.16,4.19.48,1.24.32,2.27.75,3.1,1.3.83.54,1.46,1.14,1.89,1.8.43.66.65,1.3.65,1.93,0,.69-.23,1.25-.69,1.69-.46.44-1.12.66-1.97.66-.62,0-1.14-.18-1.57-.53-.43-.35-.93-.88-1.48-1.58-.46-.59-.99-1.05-1.6-1.41s-1.45-.53-2.5-.53-1.99.23-2.7.69c-.72.46-1.08,1.04-1.08,1.73,0,.63.26,1.15.79,1.55s1.24.74,2.13,1,2.12.59,3.69.97c1.86.45,3.38,1,4.56,1.63,1.18.63,2.07,1.37,2.68,2.23.61.86.91,1.83.91,2.93Z"/>
        <path class="cls-2" d="M505.53,62.87v-.59c-.81.92-1.6,1.67-2.38,2.25-.78.58-1.63,1.02-2.55,1.32-.92.3-1.92.45-3,.45-1.44,0-2.76-.3-3.99-.91-1.22-.61-2.28-1.48-3.17-2.6s-1.57-2.45-2.03-3.98c-.46-1.52-.69-3.17-.69-4.94,0-3.75.92-6.67,2.75-8.77,1.83-2.09,4.24-3.14,7.23-3.14,1.73,0,3.19.3,4.37.89s2.34,1.5,3.47,2.74v-8.85c0-1.23.25-2.16.74-2.79.49-.63,1.19-.94,2.1-.94s1.61.29,2.1.87c.49.58.74,1.43.74,2.56v26.46c0,1.14-.26,2-.79,2.57s-1.21.86-2.04.86-1.5-.3-2.03-.89c-.54-.59-.8-1.44-.8-2.54ZM493.73,54.06c0,1.63.25,3.01.76,4.15.51,1.14,1.2,2,2.08,2.58.88.58,1.84.87,2.88.87s2.02-.27,2.89-.82c.87-.55,1.57-1.39,2.09-2.53.52-1.14.78-2.55.78-4.25,0-1.6-.26-2.97-.78-4.12-.52-1.15-1.22-2.03-2.11-2.64-.89-.61-1.86-.91-2.91-.91s-2.08.31-2.94.93-1.53,1.52-2.01,2.68c-.48,1.16-.71,2.52-.71,4.05Z"/>
        <path class="cls-2" d="M532.38,62.91c-1.45,1.13-2.85,1.97-4.21,2.54-1.36.56-2.88.85-4.56.85-1.54,0-2.89-.3-4.05-.91-1.17-.61-2.06-1.43-2.69-2.47s-.94-2.17-.94-3.38c0-1.64.52-3.04,1.56-4.2s2.47-1.93,4.29-2.33c.38-.09,1.33-.29,2.83-.59s2.8-.59,3.88-.85c1.08-.26,2.24-.57,3.5-.93-.07-1.58-.39-2.74-.96-3.48-.56-.74-1.73-1.11-3.5-1.11-1.52,0-2.67.21-3.44.64-.77.42-1.43,1.06-1.98,1.91-.55.85-.94,1.41-1.17,1.68-.23.27-.71.41-1.46.41-.67,0-1.26-.22-1.75-.65-.49-.43-.74-.98-.74-1.66,0-1.05.37-2.08,1.12-3.08s1.91-1.82,3.49-2.46,3.55-.97,5.91-.97c2.64,0,4.71.31,6.22.93s2.58,1.61,3.2,2.96c.62,1.35.93,3.13.93,5.36,0,1.41,0,2.6-.01,3.58,0,.98-.02,2.07-.03,3.27,0,1.13.19,2.3.56,3.53.37,1.22.56,2.01.56,2.36,0,.62-.29,1.18-.87,1.68-.58.51-1.23.76-1.97.76-.62,0-1.22-.29-1.82-.87-.6-.58-1.24-1.42-1.91-2.52ZM531.99,54.23c-.88.32-2.16.66-3.83,1.02-1.68.36-2.84.62-3.48.79-.64.17-1.26.5-1.85.99s-.88,1.18-.88,2.05.34,1.68,1.03,2.32c.69.64,1.59.96,2.7.96,1.19,0,2.28-.26,3.29-.78,1-.52,1.74-1.19,2.21-2.01.54-.91.81-2.4.81-4.48v-.86Z"/>
        <path class="cls-2" d="M20.93,116.65v-26.02c0-1.2.27-2.11.8-2.72.53-.62,1.26-.92,2.16-.92s1.64.3,2.2.91c.56.61.83,1.52.83,2.74v26.02c0,1.22-.28,2.13-.85,2.74-.56.61-1.29.91-2.19.91s-1.59-.31-2.14-.94c-.55-.63-.82-1.53-.82-2.7Z"/>
        <path class="cls-2" d="M36.15,93.11c-.83,0-1.55-.26-2.14-.77-.59-.51-.89-1.24-.89-2.18,0-.85.3-1.55.91-2.1.61-.55,1.31-.82,2.12-.82s1.46.25,2.07.75.9,1.22.9,2.18-.29,1.64-.88,2.16c-.59.52-1.28.78-2.09.78ZM39.12,99.31v17.34c0,1.2-.29,2.11-.86,2.72s-1.3.92-2.18.92-1.59-.31-2.14-.94c-.55-.63-.82-1.53-.82-2.7v-17.16c0-1.19.27-2.08.82-2.68.55-.6,1.26-.9,2.14-.9s1.6.3,2.18.9.86,1.44.86,2.5Z"/>
        <path class="cls-2" d="M50.76,99.22v.73c1.05-1.39,2.21-2.41,3.46-3.06,1.25-.65,2.69-.98,4.32-.98s3,.34,4.24,1.03,2.18,1.66,2.79,2.92c.4.73.65,1.52.77,2.37s.18,1.93.18,3.25v11.16c0,1.2-.27,2.11-.82,2.72-.55.62-1.26.92-2.14.92s-1.62-.31-2.18-.94-.83-1.53-.83-2.7v-10c0-1.98-.27-3.49-.82-4.54-.55-1.05-1.64-1.57-3.28-1.57-1.07,0-2.04.32-2.92.96-.88.64-1.52,1.51-1.93,2.63-.29.89-.44,2.56-.44,5.01v7.51c0,1.22-.28,2.13-.85,2.74-.56.61-1.29.91-2.19.91s-1.57-.31-2.13-.94-.83-1.53-.83-2.7v-17.34c0-1.14.25-2,.75-2.56s1.18-.85,2.04-.85c.53,0,1,.12,1.43.37s.77.62,1.02,1.12c.26.5.38,1.11.38,1.82Z"/>
        <path class="cls-2" d="M94.56,100.3v17.42c0,1.99-.21,3.71-.64,5.14s-1.11,2.62-2.04,3.56-2.16,1.63-3.68,2.09c-1.52.45-3.4.68-5.66.68-2.07,0-3.91-.29-5.54-.87s-2.88-1.33-3.76-2.24-1.32-1.86-1.32-2.82c0-.73.25-1.33.75-1.79.5-.46,1.1-.69,1.8-.69.88,0,1.65.39,2.31,1.16.32.4.66.79,1,1.2.34.4.72.75,1.14,1.03.42.29.92.5,1.5.64s1.26.21,2.02.21c1.55,0,2.76-.22,3.61-.65.86-.43,1.46-1.04,1.8-1.81s.55-1.61.6-2.49c.06-.89.1-2.31.13-4.27-.92,1.29-1.99,2.27-3.2,2.94-1.21.67-2.65,1.01-4.32,1.01-2.01,0-3.76-.51-5.26-1.54s-2.65-2.46-3.46-4.31-1.21-3.98-1.21-6.39c0-1.8.25-3.43.74-4.88.49-1.45,1.19-2.67,2.1-3.67s1.96-1.75,3.14-2.25c1.19-.51,2.49-.76,3.91-.76,1.7,0,3.17.33,4.42.98s2.4,1.67,3.47,3.06v-.81c0-1.04.26-1.85.77-2.42s1.17-.86,1.98-.86c1.16,0,1.93.38,2.31,1.13.38.75.57,1.84.57,3.26ZM77.18,107.9c0,2.43.53,4.27,1.59,5.52s2.44,1.87,4.12,1.87c1,0,1.94-.27,2.82-.8.89-.53,1.61-1.34,2.16-2.42.56-1.08.83-2.38.83-3.92,0-2.45-.54-4.35-1.61-5.71-1.08-1.36-2.49-2.04-4.25-2.04s-3.09.65-4.12,1.96c-1.03,1.3-1.55,3.16-1.55,5.56Z"/>
        <path class="cls-2" d="M116.2,116.91v-.77c-.72.91-1.47,1.67-2.26,2.29s-1.66,1.07-2.59,1.37c-.94.3-2.01.45-3.21.45-1.45,0-2.75-.3-3.9-.9-1.15-.6-2.04-1.43-2.67-2.48-.75-1.27-1.12-3.11-1.12-5.49v-11.89c0-1.2.27-2.1.81-2.69.54-.59,1.26-.89,2.15-.89s1.64.3,2.2.9.83,1.49.83,2.68v9.6c0,1.39.12,2.56.35,3.5.23.95.66,1.69,1.26,2.22.61.53,1.43.8,2.47.8s1.96-.3,2.86-.9,1.55-1.38,1.96-2.35c.34-.85.51-2.71.51-5.58v-7.29c0-1.19.28-2.08.83-2.68s1.28-.9,2.18-.9,1.61.3,2.15.89c.54.59.81,1.49.81,2.69v17.38c0,1.14-.26,2-.78,2.57s-1.19.86-2.01.86-1.5-.3-2.03-.89c-.53-.59-.8-1.42-.8-2.49Z"/>
        <path class="cls-2" d="M142.96,116.91c-1.45,1.13-2.85,1.97-4.21,2.54-1.36.56-2.88.85-4.56.85-1.54,0-2.89-.3-4.05-.91-1.17-.61-2.06-1.43-2.69-2.47s-.94-2.17-.94-3.38c0-1.64.52-3.04,1.56-4.2s2.47-1.93,4.28-2.33c.38-.09,1.33-.29,2.83-.59s2.8-.59,3.88-.85c1.08-.26,2.24-.57,3.5-.93-.07-1.58-.39-2.74-.96-3.48-.56-.74-1.73-1.11-3.5-1.11-1.52,0-2.67.21-3.44.64-.77.42-1.43,1.06-1.98,1.91-.55.85-.94,1.41-1.17,1.68s-.71.41-1.46.41c-.67,0-1.26-.22-1.75-.65-.49-.43-.74-.98-.74-1.66,0-1.05.37-2.08,1.12-3.08s1.91-1.82,3.49-2.46,3.55-.97,5.91-.97c2.64,0,4.71.31,6.22.93s2.57,1.61,3.2,2.96.93,3.13.93,5.36c0,1.41,0,2.6-.01,3.58s-.02,2.07-.03,3.27c0,1.13.19,2.3.56,3.53.37,1.22.56,2.01.56,2.36,0,.62-.29,1.18-.87,1.68-.58.51-1.23.76-1.97.76-.62,0-1.22-.29-1.82-.87-.6-.58-1.24-1.42-1.91-2.52ZM142.57,108.23c-.88.32-2.16.66-3.83,1.02-1.68.36-2.84.62-3.48.79-.64.17-1.26.5-1.85.99s-.88,1.18-.88,2.05.34,1.68,1.03,2.32c.69.64,1.59.96,2.7.96,1.19,0,2.28-.26,3.29-.78,1-.52,1.74-1.19,2.21-2.01.54-.91.81-2.4.81-4.48v-.86Z"/>
        <path class="cls-2" d="M176.01,100.3v17.42c0,1.99-.21,3.71-.64,5.14s-1.11,2.62-2.04,3.56-2.16,1.63-3.68,2.09c-1.52.45-3.4.68-5.66.68-2.07,0-3.91-.29-5.54-.87s-2.88-1.33-3.76-2.24-1.32-1.86-1.32-2.82c0-.73.25-1.33.75-1.79.5-.46,1.1-.69,1.8-.69.88,0,1.65.39,2.31,1.16.32.4.66.79,1,1.2.34.4.72.75,1.14,1.03.42.29.92.5,1.5.64s1.26.21,2.02.21c1.55,0,2.76-.22,3.61-.65.86-.43,1.46-1.04,1.8-1.81s.55-1.61.6-2.49c.06-.89.1-2.31.13-4.27-.92,1.29-1.99,2.27-3.2,2.94-1.21.67-2.65,1.01-4.32,1.01-2.01,0-3.76-.51-5.26-1.54s-2.65-2.46-3.46-4.31-1.21-3.98-1.21-6.39c0-1.8.25-3.43.74-4.88.49-1.45,1.19-2.67,2.1-3.67s1.96-1.75,3.14-2.25c1.19-.51,2.49-.76,3.91-.76,1.7,0,3.17.33,4.42.98s2.4,1.67,3.47,3.06v-.81c0-1.04.26-1.85.77-2.42s1.17-.86,1.98-.86c1.16,0,1.93.38,2.31,1.13.38.75.57,1.84.57,3.26ZM158.63,107.9c0,2.43.53,4.27,1.59,5.52s2.44,1.87,4.12,1.87c1,0,1.94-.27,2.82-.8.89-.53,1.61-1.34,2.16-2.42.56-1.08.83-2.38.83-3.92,0-2.45-.54-4.35-1.61-5.71-1.08-1.36-2.49-2.04-4.25-2.04s-3.09.65-4.12,1.96c-1.03,1.3-1.55,3.16-1.55,5.56Z"/>
        <path class="cls-2" d="M197.7,109.57h-11.73c.01,1.36.29,2.56.82,3.6s1.25,1.82,2.13,2.35c.89.53,1.86.79,2.93.79.72,0,1.37-.08,1.97-.25.59-.17,1.17-.43,1.73-.79.56-.36,1.07-.74,1.54-1.15s1.08-.97,1.82-1.67c.31-.26.75-.4,1.32-.4.62,0,1.11.17,1.49.51s.57.81.57,1.43c0,.54-.21,1.18-.64,1.9-.42.73-1.07,1.42-1.92,2.09-.86.67-1.93,1.22-3.23,1.66-1.3.44-2.79.66-4.47.66-3.85,0-6.85-1.1-8.99-3.3s-3.21-5.18-3.21-8.94c0-1.77.26-3.42.79-4.93.53-1.52,1.3-2.82,2.31-3.9s2.26-1.92,3.74-2.49c1.48-.58,3.12-.87,4.92-.87,2.34,0,4.35.49,6.03,1.48,1.68.99,2.93,2.27,3.77,3.83s1.25,3.16,1.25,4.79c0,1.51-.43,2.49-1.3,2.93-.86.45-2.08.67-3.65.67ZM185.96,106.17h10.88c-.15-2.05-.7-3.58-1.66-4.6-.96-1.02-2.22-1.53-3.79-1.53s-2.72.52-3.68,1.55c-.96,1.03-1.54,2.56-1.75,4.58Z"/>
        <path class="cls-2" d="M227.64,108.54v7.98c0,1.26-.29,2.2-.86,2.83s-1.33.94-2.26.94-1.64-.31-2.21-.94-.85-1.57-.85-2.83v-9.56c0-1.51-.05-2.68-.15-3.52s-.38-1.52-.83-2.05c-.45-.53-1.17-.8-2.15-.8-1.96,0-3.26.67-3.88,2.02s-.93,3.28-.93,5.8v8.11c0,1.25-.28,2.19-.85,2.82-.56.64-1.31.96-2.23.96s-1.65-.32-2.23-.96c-.58-.64-.87-1.58-.87-2.82v-17.16c0-1.13.26-1.98.78-2.57s1.21-.88,2.05-.88,1.5.27,2.05.82c.55.55.82,1.31.82,2.27v.57c1.04-1.25,2.15-2.16,3.34-2.75s2.5-.88,3.96-.88,2.81.3,3.89.9,1.98,1.51,2.68,2.72c1.01-1.23,2.09-2.14,3.25-2.74,1.16-.59,2.44-.89,3.85-.89,1.64,0,3.05.32,4.24.97s2.07,1.57,2.66,2.77c.51,1.08.77,2.79.77,5.12v11.71c0,1.26-.29,2.2-.86,2.83s-1.33.94-2.26.94-1.65-.32-2.23-.96c-.58-.64-.87-1.58-.87-2.82v-10.09c0-1.29-.06-2.32-.16-3.1-.11-.78-.41-1.43-.89-1.96s-1.22-.79-2.2-.79c-.79,0-1.54.23-2.25.7s-1.26,1.1-1.66,1.89c-.44,1.01-.66,2.8-.66,5.36Z"/>
        <path class="cls-2" d="M275.19,116.87v-.59c-.81.92-1.6,1.67-2.38,2.25-.78.58-1.63,1.02-2.55,1.32-.92.3-1.92.45-3,.45-1.44,0-2.76-.3-3.99-.91-1.22-.61-2.28-1.48-3.17-2.6s-1.57-2.45-2.03-3.98c-.46-1.52-.69-3.17-.69-4.94,0-3.75.92-6.67,2.75-8.77,1.83-2.09,4.24-3.14,7.23-3.14,1.73,0,3.19.3,4.37.89s2.34,1.5,3.47,2.74v-8.85c0-1.23.25-2.16.74-2.79.49-.63,1.19-.94,2.1-.94s1.61.29,2.1.87c.49.58.74,1.43.74,2.56v26.46c0,1.14-.26,2-.79,2.57s-1.21.86-2.04.86-1.5-.3-2.03-.89c-.54-.59-.8-1.44-.8-2.54ZM263.39,108.06c0,1.63.25,3.01.76,4.15.51,1.14,1.2,2,2.08,2.58.88.58,1.84.87,2.88.87s2.02-.27,2.89-.82c.87-.55,1.57-1.39,2.09-2.53.52-1.14.78-2.55.78-4.25,0-1.6-.26-2.97-.78-4.12-.52-1.15-1.22-2.03-2.11-2.64-.89-.61-1.86-.91-2.91-.91s-2.08.31-2.94.93-1.53,1.52-2.01,2.68c-.48,1.16-.71,2.52-.71,4.05Z"/>
        <path class="cls-2" d="M309.34,108.1c0,1.79-.28,3.44-.84,4.94s-1.36,2.81-2.42,3.89-2.32,1.92-3.78,2.49c-1.47.58-3.11.87-4.94.87s-3.45-.29-4.9-.88c-1.45-.59-2.71-1.42-3.77-2.52-1.06-1.09-1.87-2.38-2.42-3.87-.55-1.49-.82-3.13-.82-4.93s.28-3.48.83-4.99,1.35-2.8,2.4-3.87c1.04-1.07,2.3-1.89,3.78-2.47,1.48-.58,3.11-.87,4.9-.87s3.46.29,4.94.88c1.48.59,2.75,1.42,3.8,2.5s1.86,2.37,2.41,3.87c.55,1.49.82,3.14.82,4.94ZM303.32,108.1c0-2.45-.54-4.35-1.61-5.71-1.08-1.36-2.52-2.04-4.34-2.04-1.17,0-2.21.3-3.1.91-.89.61-1.58,1.51-2.06,2.69-.48,1.19-.73,2.57-.73,4.15s.24,2.94.71,4.11c.48,1.17,1.16,2.07,2.04,2.69.89.62,1.93.93,3.13.93,1.82,0,3.26-.68,4.34-2.05,1.08-1.37,1.61-3.26,1.61-5.68Z"/>
        <path class="cls-2" d="M325.64,96.43h.66v-3.6c0-.97.03-1.73.08-2.27.05-.55.19-1.02.43-1.42.23-.41.57-.74,1.01-1s.93-.38,1.47-.38c.76,0,1.45.29,2.07.86.41.38.67.85.78,1.4.11.55.17,1.33.17,2.34v4.09h2.2c.85,0,1.5.2,1.94.6.45.4.67.92.67,1.55,0,.81-.32,1.37-.96,1.69-.64.32-1.55.48-2.74.48h-1.12v11.03c0,.94.03,1.66.1,2.16.07.51.24.92.53,1.23.29.32.75.47,1.4.47.35,0,.83-.06,1.43-.19s1.07-.19,1.41-.19c.48,0,.92.19,1.31.58.39.39.58.87.58,1.44,0,.97-.53,1.71-1.58,2.22s-2.57.77-4.55.77-3.3-.31-4.26-.94-1.6-1.5-1.9-2.61c-.3-1.11-.45-2.6-.45-4.46v-11.51h-.79c-.86,0-1.52-.21-1.98-.62s-.68-.93-.68-1.56.24-1.15.71-1.55c.48-.4,1.17-.6,2.08-.6Z"/>
        <path class="cls-2" d="M357.99,109.57h-11.73c.01,1.36.29,2.56.82,3.6.54,1.04,1.25,1.82,2.13,2.35.89.53,1.86.79,2.93.79.72,0,1.37-.08,1.97-.25.59-.17,1.17-.43,1.72-.79.56-.36,1.07-.74,1.54-1.15.47-.41,1.08-.97,1.82-1.67.31-.26.75-.4,1.32-.4.62,0,1.11.17,1.49.51s.57.81.57,1.43c0,.54-.21,1.18-.64,1.9-.43.73-1.07,1.42-1.92,2.09-.86.67-1.93,1.22-3.23,1.66-1.3.44-2.79.66-4.47.66-3.85,0-6.85-1.1-8.99-3.3s-3.21-5.18-3.21-8.94c0-1.77.26-3.42.79-4.93.53-1.52,1.3-2.82,2.31-3.9,1.01-1.08,2.25-1.92,3.73-2.49,1.48-.58,3.12-.87,4.92-.87,2.34,0,4.35.49,6.03,1.48,1.68.99,2.93,2.27,3.77,3.83.83,1.57,1.25,3.16,1.25,4.79,0,1.51-.43,2.49-1.3,2.93-.86.45-2.08.67-3.65.67ZM346.25,106.17h10.88c-.15-2.05-.7-3.58-1.66-4.6-.96-1.02-2.22-1.53-3.79-1.53s-2.72.52-3.68,1.55c-.96,1.03-1.54,2.56-1.75,4.58Z"/>
        <path class="cls-2" d="M380.4,117.81l-4.35-6.39-4.46,6.39c-.64.89-1.19,1.53-1.64,1.91-.45.38-1.01.57-1.7.57-.76,0-1.41-.24-1.94-.71-.54-.48-.8-1.02-.8-1.64s.41-1.53,1.23-2.7l5.43-7.78-4.81-6.48c-.84-1.07-1.25-2-1.25-2.79,0-.62.25-1.15.75-1.6s1.15-.68,1.96-.68c.7,0,1.29.2,1.75.59.46.4,1,1.02,1.62,1.87l3.89,5.32,3.78-5.32c.63-.88,1.17-1.51,1.64-1.89.46-.38,1.04-.57,1.72-.57.79,0,1.45.22,1.97.67.52.45.78.98.78,1.61,0,.45-.11.89-.32,1.31-.21.42-.54.91-.98,1.48l-4.81,6.48,5.43,7.78c.85,1.22,1.27,2.13,1.27,2.75s-.26,1.17-.79,1.63-1.18.68-1.96.68c-.69,0-1.27-.2-1.75-.59-.48-.4-1.02-1.03-1.64-1.89Z"/>
        <path class="cls-2" d="M391.16,96.43h.66v-3.6c0-.97.03-1.73.08-2.27.05-.55.19-1.02.43-1.42.23-.41.57-.74,1.01-1s.93-.38,1.47-.38c.76,0,1.45.29,2.07.86.41.38.67.85.78,1.4.11.55.17,1.33.17,2.34v4.09h2.2c.85,0,1.5.2,1.94.6.45.4.67.92.67,1.55,0,.81-.32,1.37-.96,1.69-.64.32-1.55.48-2.74.48h-1.12v11.03c0,.94.03,1.66.1,2.16.07.51.24.92.53,1.23.29.32.75.47,1.4.47.35,0,.83-.06,1.43-.19s1.07-.19,1.41-.19c.48,0,.92.19,1.31.58.39.39.58.87.58,1.44,0,.97-.53,1.71-1.58,2.22s-2.57.77-4.55.77-3.3-.31-4.26-.94-1.6-1.5-1.9-2.61c-.3-1.11-.45-2.6-.45-4.46v-11.51h-.79c-.86,0-1.52-.21-1.98-.62s-.68-.93-.68-1.56.24-1.15.71-1.55c.48-.4,1.17-.6,2.08-.6Z"/>
        <path class="cls-2" d="M429.22,108.1c0,1.79-.28,3.44-.84,4.94s-1.36,2.81-2.42,3.89-2.32,1.92-3.78,2.49c-1.47.58-3.11.87-4.94.87s-3.45-.29-4.9-.88c-1.45-.59-2.71-1.42-3.77-2.52-1.06-1.09-1.87-2.38-2.42-3.87-.55-1.49-.82-3.13-.82-4.93s.28-3.48.83-4.99,1.35-2.8,2.4-3.87c1.04-1.07,2.3-1.89,3.78-2.47,1.48-.58,3.11-.87,4.9-.87s3.46.29,4.94.88c1.48.59,2.75,1.42,3.8,2.5s1.86,2.37,2.41,3.87c.55,1.49.82,3.14.82,4.94ZM423.2,108.1c0-2.45-.54-4.35-1.61-5.71-1.08-1.36-2.52-2.04-4.34-2.04-1.17,0-2.21.3-3.1.91-.89.61-1.58,1.51-2.06,2.69-.48,1.19-.73,2.57-.73,4.15s.24,2.94.71,4.11c.48,1.17,1.16,2.07,2.04,2.69.89.62,1.93.93,3.13.93,1.82,0,3.26-.68,4.34-2.05,1.08-1.37,1.61-3.26,1.61-5.68Z"/>
        <path class="cls-2" d="M450.64,99.22v.73c1.05-1.39,2.21-2.41,3.46-3.06,1.25-.65,2.69-.98,4.32-.98s3,.34,4.24,1.03,2.18,1.66,2.79,2.92c.39.73.65,1.52.77,2.37s.18,1.93.18,3.25v11.16c0,1.2-.27,2.11-.82,2.72-.55.62-1.26.92-2.14.92s-1.62-.31-2.18-.94-.83-1.53-.83-2.7v-10c0-1.98-.27-3.49-.82-4.54-.55-1.05-1.64-1.57-3.28-1.57-1.07,0-2.04.32-2.92.96-.88.64-1.52,1.51-1.93,2.63-.29.89-.44,2.56-.44,5.01v7.51c0,1.22-.28,2.13-.85,2.74-.56.61-1.29.91-2.19.91s-1.58-.31-2.13-.94c-.56-.63-.84-1.53-.84-2.7v-17.34c0-1.14.25-2,.75-2.56.5-.56,1.18-.85,2.04-.85.53,0,1,.12,1.43.37s.77.62,1.02,1.12c.26.5.38,1.11.38,1.82Z"/>
        <path class="cls-2" d="M494.83,108.1c0,1.79-.28,3.44-.84,4.94s-1.36,2.81-2.42,3.89-2.32,1.92-3.78,2.49c-1.47.58-3.11.87-4.94.87s-3.45-.29-4.9-.88c-1.45-.59-2.71-1.42-3.77-2.52-1.06-1.09-1.87-2.38-2.42-3.87-.55-1.49-.82-3.13-.82-4.93s.28-3.48.83-4.99,1.35-2.8,2.4-3.87c1.04-1.07,2.3-1.89,3.78-2.47,1.48-.58,3.11-.87,4.9-.87s3.46.29,4.94.88c1.48.59,2.75,1.42,3.8,2.5s1.86,2.37,2.41,3.87c.55,1.49.82,3.14.82,4.94ZM488.81,108.1c0-2.45-.54-4.35-1.61-5.71-1.08-1.36-2.52-2.04-4.34-2.04-1.17,0-2.21.3-3.1.91-.89.61-1.58,1.51-2.06,2.69-.48,1.19-.73,2.57-.73,4.15s.24,2.94.71,4.11c.48,1.17,1.16,2.07,2.04,2.69.89.62,1.93.93,3.13.93,1.82,0,3.26-.68,4.34-2.05,1.08-1.37,1.61-3.26,1.61-5.68Z"/>
        <path class="cls-2" d="M505.51,111.64v5.01c0,1.22-.29,2.13-.86,2.74-.57.61-1.3.91-2.17.91s-1.58-.31-2.13-.92-.83-1.52-.83-2.72v-16.7c0-2.7.97-4.04,2.92-4.04,1,0,1.71.31,2.15.94s.68,1.56.73,2.79c.72-1.23,1.45-2.16,2.21-2.79.75-.63,1.76-.94,3.02-.94s2.48.31,3.67.94,1.78,1.46,1.78,2.5c0,.73-.25,1.34-.76,1.81-.5.48-1.05.71-1.64.71-.22,0-.75-.14-1.59-.41-.84-.27-1.59-.41-2.23-.41-.88,0-1.6.23-2.15.69-.56.46-.99,1.15-1.3,2.05-.31.91-.52,1.99-.64,3.24-.12,1.25-.18,2.78-.18,4.58Z"/>
        <path class="cls-2" d="M539.21,108.54v7.98c0,1.26-.29,2.2-.86,2.83s-1.33.94-2.26.94-1.64-.31-2.21-.94c-.56-.63-.85-1.57-.85-2.83v-9.56c0-1.51-.05-2.68-.15-3.52s-.38-1.52-.83-2.05c-.46-.53-1.17-.8-2.15-.8-1.96,0-3.25.67-3.88,2.02-.62,1.35-.93,3.28-.93,5.8v8.11c0,1.25-.28,2.19-.85,2.82-.56.64-1.31.96-2.23.96s-1.65-.32-2.23-.96c-.58-.64-.87-1.58-.87-2.82v-17.16c0-1.13.26-1.98.78-2.57.52-.59,1.21-.88,2.05-.88s1.5.27,2.05.82c.55.55.82,1.31.82,2.27v.57c1.04-1.25,2.15-2.16,3.34-2.75,1.19-.59,2.51-.88,3.96-.88s2.81.3,3.89.9,1.98,1.51,2.68,2.72c1.01-1.23,2.09-2.14,3.25-2.74,1.16-.59,2.44-.89,3.85-.89,1.64,0,3.05.32,4.24.97s2.07,1.57,2.66,2.77c.51,1.08.77,2.79.77,5.12v11.71c0,1.26-.29,2.2-.86,2.83-.57.63-1.33.94-2.26.94s-1.65-.32-2.23-.96c-.58-.64-.87-1.58-.87-2.82v-10.09c0-1.29-.05-2.32-.16-3.1-.11-.78-.41-1.43-.89-1.96-.48-.53-1.22-.79-2.2-.79-.79,0-1.54.23-2.25.7-.71.47-1.26,1.1-1.66,1.89-.44,1.01-.66,2.8-.66,5.36Z"/>
        <path class="cls-2" d="M574.24,116.91c-1.45,1.13-2.85,1.97-4.21,2.54-1.36.56-2.88.85-4.56.85-1.54,0-2.89-.3-4.05-.91-1.17-.61-2.06-1.43-2.69-2.47s-.94-2.17-.94-3.38c0-1.64.52-3.04,1.56-4.2s2.47-1.93,4.29-2.33c.38-.09,1.33-.29,2.83-.59s2.8-.59,3.88-.85c1.08-.26,2.24-.57,3.5-.93-.07-1.58-.39-2.74-.96-3.48-.56-.74-1.73-1.11-3.5-1.11-1.52,0-2.67.21-3.44.64-.77.42-1.43,1.06-1.98,1.91-.55.85-.94,1.41-1.17,1.68-.23.27-.71.41-1.46.41-.67,0-1.26-.22-1.75-.65-.49-.43-.74-.98-.74-1.66,0-1.05.37-2.08,1.12-3.08s1.91-1.82,3.49-2.46,3.55-.97,5.91-.97c2.64,0,4.71.31,6.22.93s2.58,1.61,3.2,2.96c.62,1.35.93,3.13.93,5.36,0,1.41,0,2.6-.01,3.58,0,.98-.02,2.07-.03,3.27,0,1.13.19,2.3.56,3.53.37,1.22.56,2.01.56,2.36,0,.62-.29,1.18-.87,1.68-.58.51-1.23.76-1.97.76-.62,0-1.22-.29-1.82-.87-.6-.58-1.24-1.42-1.91-2.52ZM573.84,108.23c-.88.32-2.16.66-3.83,1.02-1.68.36-2.84.62-3.48.79-.64.17-1.26.5-1.85.99s-.88,1.18-.88,2.05.34,1.68,1.03,2.32c.69.64,1.59.96,2.7.96,1.19,0,2.28-.26,3.29-.78,1-.52,1.74-1.19,2.21-2.01.54-.91.81-2.4.81-4.48v-.86Z"/>
        <path class="cls-2" d="M585.03,96.43h.66v-3.6c0-.97.03-1.73.08-2.27.05-.55.19-1.02.43-1.42.23-.41.57-.74,1.01-1s.93-.38,1.47-.38c.76,0,1.45.29,2.07.86.41.38.67.85.78,1.4.11.55.17,1.33.17,2.34v4.09h2.2c.85,0,1.5.2,1.94.6.45.4.67.92.67,1.55,0,.81-.32,1.37-.96,1.69-.64.32-1.55.48-2.74.48h-1.12v11.03c0,.94.03,1.66.1,2.16.07.51.24.92.53,1.23.29.32.75.47,1.4.47.35,0,.83-.06,1.43-.19s1.07-.19,1.41-.19c.48,0,.92.19,1.31.58.39.39.58.87.58,1.44,0,.97-.53,1.71-1.58,2.22s-2.57.77-4.55.77-3.3-.31-4.26-.94-1.6-1.5-1.9-2.61c-.3-1.11-.45-2.6-.45-4.46v-11.51h-.79c-.86,0-1.52-.21-1.98-.62s-.68-.93-.68-1.56.24-1.15.71-1.55c.48-.4,1.17-.6,2.08-.6Z"/>
        <path class="cls-2" d="M603.66,93.11c-.84,0-1.55-.26-2.14-.77-.59-.51-.89-1.24-.89-2.18,0-.85.3-1.55.91-2.1.61-.55,1.31-.82,2.12-.82s1.46.25,2.06.75.9,1.22.9,2.18-.29,1.64-.88,2.16c-.59.52-1.28.78-2.09.78ZM606.62,99.31v17.34c0,1.2-.29,2.11-.86,2.72-.57.62-1.3.92-2.18.92s-1.59-.31-2.14-.94c-.55-.63-.82-1.53-.82-2.7v-17.16c0-1.19.28-2.08.82-2.68.55-.6,1.26-.9,2.14-.9s1.6.3,2.18.9c.57.6.86,1.44.86,2.5Z"/>
        <path class="cls-2" d="M617.06,99.64l4.86,13.62,5.23-14.22c.41-1.14.81-1.95,1.21-2.43s1-.71,1.8-.71c.76,0,1.41.26,1.94.77.54.51.8,1.11.8,1.78,0,.26-.05.57-.14.92-.09.35-.21.68-.33.99-.12.31-.27.66-.43,1.05l-5.76,14.28c-.16.41-.37.93-.63,1.56-.26.63-.54,1.17-.86,1.61-.31.45-.7.79-1.16,1.04-.46.25-1.02.37-1.68.37-.85,0-1.53-.19-2.03-.58-.5-.39-.88-.81-1.12-1.27-.24-.46-.65-1.37-1.22-2.74l-5.71-14.13c-.13-.35-.27-.7-.41-1.05-.14-.35-.26-.71-.35-1.08-.1-.37-.14-.68-.14-.94,0-.41.12-.82.37-1.22s.59-.73,1.03-.99c.44-.26.92-.38,1.43-.38,1,0,1.68.29,2.05.86.37.57.79,1.53,1.24,2.88Z"/>
        <path class="cls-2" d="M659.07,108.1c0,1.79-.28,3.44-.84,4.94s-1.36,2.81-2.42,3.89-2.32,1.92-3.78,2.49c-1.47.58-3.11.87-4.94.87s-3.45-.29-4.9-.88c-1.45-.59-2.71-1.42-3.77-2.52-1.06-1.09-1.87-2.38-2.42-3.87-.55-1.49-.82-3.13-.82-4.93s.28-3.48.83-4.99,1.35-2.8,2.4-3.87c1.04-1.07,2.3-1.89,3.78-2.47,1.48-.58,3.11-.87,4.9-.87s3.46.29,4.94.88c1.48.59,2.75,1.42,3.8,2.5s1.86,2.37,2.41,3.87c.55,1.49.82,3.14.82,4.94ZM653.05,108.1c0-2.45-.54-4.35-1.61-5.71-1.08-1.36-2.52-2.04-4.34-2.04-1.17,0-2.21.3-3.1.91-.89.61-1.58,1.51-2.06,2.69-.48,1.19-.73,2.57-.73,4.15s.24,2.94.71,4.11c.48,1.17,1.16,2.07,2.04,2.69.89.62,1.93.93,3.13.93,1.82,0,3.26-.68,4.34-2.05,1.08-1.37,1.61-3.26,1.61-5.68Z"/>
      </g>
    </g>
  </g>
</svg>