<?xml version="1.0" encoding="UTF-8"?>
<svg id="Layer_2" data-name="Layer 2" xmlns="http://www.w3.org/2000/svg" xmlns:xlink="http://www.w3.org/1999/xlink" viewBox="0 0 1025 92.8">
  <defs>
    <style>
      .cls-1 {
        fill: url(#linear-gradient);
      }

      .cls-1, .cls-2, .cls-3, .cls-4, .cls-5, .cls-6, .cls-7, .cls-8 {
        stroke-width: 0px;
      }

      .cls-2 {
        fill: #ff6700;
      }

      .cls-3 {
        fill: url(#linear-gradient-6);
      }

      .cls-4 {
        fill: url(#linear-gradient-5);
      }

      .cls-5 {
        fill: #fff;
      }

      .cls-6 {
        fill: url(#linear-gradient-2);
      }

      .cls-7 {
        fill: url(#linear-gradient-3);
      }

      .cls-8 {
        fill: url(#linear-gradient-4);
      }
    </style>
    <linearGradient id="linear-gradient" x1="-8077.63" y1="-12763.46" x2="-8185.78" y2="-12767.02" gradientTransform="translate(-7166 12787.54) rotate(-180) scale(1 -1)" gradientUnits="userSpaceOnUse">
      <stop offset="0" stop-color="#7699ff"/>
      <stop offset="1" stop-color="#6100ff"/>
    </linearGradient>
    <linearGradient id="linear-gradient-2" x1="-8078.72" y1="-12730.29" x2="-8186.87" y2="-12733.85" xlink:href="#linear-gradient"/>
    <linearGradient id="linear-gradient-3" x1="-8077.76" y1="-12759.65" x2="-8185.9" y2="-12763.2" xlink:href="#linear-gradient"/>
    <linearGradient id="linear-gradient-4" x1="-7747.16" y1="-13075.93" x2="-7811.67" y2="-13078.05" gradientTransform="translate(-7374.86 12787.14) rotate(-177.6) scale(1 -1)" xlink:href="#linear-gradient"/>
    <linearGradient id="linear-gradient-5" x1="1000.24" y1="57.93" x2="1022.07" y2="57.93" gradientTransform="matrix(1,0,0,1,0,0)" xlink:href="#linear-gradient"/>
    <linearGradient id="linear-gradient-6" x1="0" y1="56.89" x2="534.83" y2="56.89" gradientUnits="userSpaceOnUse">
      <stop offset="0" stop-color="#fff" stop-opacity="0"/>
      <stop offset=".28" stop-color="#ffcca9" stop-opacity=".34"/>
      <stop offset=".54" stop-color="#ffa060" stop-opacity=".62"/>
      <stop offset=".75" stop-color="#ff812c" stop-opacity=".83"/>
      <stop offset=".91" stop-color="#ff6e0c" stop-opacity=".95"/>
      <stop offset="1" stop-color="#ff6700"/>
    </linearGradient>
  </defs>
  <g id="Imperatividade">
    <g>
      <g>
        <path class="cls-2" d="M1025,79.86V22.98h-454.18c-3.02,0-5.83.89-8.21,2.4-.39.16-.77.37-1.15.64l-17.08,12.6-17.08,12.6c-.62.46-1.15,1.03-1.58,1.67-1.5,2.24-1.83,5.38-.96,8,.47,1.47,1.32,2.77,2.54,3.67l17.08,12.6,17.08,12.6c.38.28.76.48,1.15.64,2.38,1.51,5.19,2.4,8.21,2.4h454.18v-12.94Z"/>
        <g>
          <path class="cls-1" d="M965.24,18.31c-2.55,1.51-2.5,5.21.08,6.66l15.18,8.53,15.18,8.53c2.58,1.45,5.76-.44,5.73-3.4l-.21-17.41-.21-17.41c-.04-2.96-3.26-4.77-5.81-3.26l-14.97,8.88-14.97,8.88Z"/>
          <path class="cls-6" d="M954.9,52.77c-2.85,1.7-2.69,5.26.3,6.69l9.47,4.52,8.37,4c3.25,1.55,7.32-.54,7.18-3.68l-.42-9.31-.42-9.31c-.14-3.14-4.39-4.85-7.48-3.01l-7.98,4.74-9.02,5.36Z"/>
          <path class="cls-7" d="M933.31,25.25c-1.56.98-1.46,3.28.17,4.12l6.68,3.43,6.77,3.48c1.62.83,3.53-.39,3.45-2.21l-.31-7.46-.31-7.46c-.08-1.82-2.08-2.88-3.63-1.91l-6.46,4.03-6.37,3.98Z"/>
          <path class="cls-8" d="M925.52,45.76c-.95.54-.95,1.92,0,2.46l3.9,2.21,3.95,2.24c.94.54,2.11-.15,2.11-1.23v-4.46s0-4.46,0-4.46c0-1.08-1.17-1.77-2.11-1.23l-3.95,2.24-3.9,2.21Z"/>
        </g>
        <path class="cls-4" d="M1025,36.01v43.85l-25.26-14.58c-5.65-3.26-5.65-11.43,0-14.69l25.26-14.58Z"/>
        <g>
          <path class="cls-5" d="M683.89,42.81c-.43-.46-.99-.69-1.69-.69s-1.22.23-1.64.7c-.43.46-.64,1.16-.64,2.09v17.95c0,.93.21,1.63.64,2.1s.98.71,1.64.71c.7,0,1.26-.23,1.69-.7.43-.47.64-1.17.64-2.11v-17.95c0-.94-.21-1.64-.64-2.1Z"/>
          <path class="cls-5" d="M712.89,51.1c-.42-.85-1.04-1.51-1.88-1.96-.84-.46-1.84-.68-3-.68-1,0-1.9.2-2.72.62s-1.58,1.07-2.3,1.94c-.5-.86-1.13-1.5-1.89-1.93-.77-.42-1.69-.63-2.75-.63s-1.96.2-2.8.62c-.84.41-1.63,1.06-2.36,1.94v-.41c0-.68-.2-1.21-.58-1.6-.39-.39-.88-.59-1.46-.59s-1.08.21-1.45.63c-.37.41-.55,1.02-.55,1.81v12.14c0,.88.2,1.54.61,1.99.41.45.94.68,1.58.68s1.18-.23,1.58-.68c.39-.45.59-1.11.59-1.99v-5.74c0-1.78.22-3.14.66-4.1.44-.95,1.36-1.43,2.75-1.43.69,0,1.2.19,1.52.57.32.38.52.86.59,1.45.07.59.11,1.42.11,2.49v6.76c0,.89.2,1.56.6,2,.39.45.92.67,1.56.67s1.19-.22,1.6-.67c.4-.44.6-1.11.6-2v-5.64c0-1.81.16-3.08.47-3.79.28-.56.67-1.01,1.17-1.34.51-.33,1.04-.5,1.6-.5.69,0,1.21.19,1.55.56.34.38.55.84.63,1.39.08.54.11,1.27.11,2.19v7.13c0,.88.21,1.54.62,1.99.41.45.93.68,1.58.68s1.19-.22,1.6-.67c.4-.44.6-1.11.6-2v-8.28c0-1.65-.18-2.86-.54-3.62Z"/>
          <path class="cls-5" d="M733.08,52.42c-.64-1.3-1.51-2.28-2.61-2.95-1.09-.68-2.29-1.01-3.6-1.01-1.09,0-2.06.23-2.92.69s-1.69,1.18-2.49,2.16v-.51c0-.77-.19-1.35-.56-1.76-.38-.41-.87-.62-1.47-.62s-1.09.2-1.45.6c-.35.4-.52,1-.52,1.81v18.3c0,.93.12,1.63.38,2.11.26.48.79.72,1.59.72,1.36,0,2.03-.93,2.03-2.8v-6.36c.75.94,1.53,1.65,2.36,2.14.82.49,1.84.73,3.05.73,1.01,0,1.94-.2,2.82-.6.88-.4,1.63-.97,2.28-1.71.64-.74,1.14-1.66,1.51-2.75s.55-2.29.55-3.59c0-1.78-.32-3.31-.95-4.6ZM729.23,59.94c-.36.81-.84,1.43-1.44,1.84-.6.41-1.26.61-1.96.61-1.18,0-2.17-.47-2.97-1.41-.8-.93-1.19-2.25-1.19-3.93,0-1.8.4-3.15,1.2-4.07.8-.93,1.79-1.39,2.96-1.39.73,0,1.41.22,2.01.65.61.43,1.08,1.04,1.42,1.85.34.8.52,1.76.52,2.88s-.19,2.15-.55,2.97Z"/>
          <path class="cls-5" d="M751.06,59.84c-.4,0-.71.1-.93.28-.53.5-.96.89-1.29,1.18-.33.29-.7.57-1.09.82s-.8.44-1.22.56c-.42.12-.88.18-1.39.18-.76,0-1.45-.19-2.07-.56-.63-.37-1.13-.93-1.51-1.66-.38-.74-.57-1.59-.58-2.55h8.29c1.11,0,1.97-.16,2.58-.48.61-.31.92-1,.92-2.07,0-1.15-.3-2.28-.89-3.39-.59-1.11-1.48-2.01-2.66-2.71-1.19-.7-2.61-1.05-4.26-1.05-1.28,0-2.44.21-3.49.62-1.04.41-1.92.99-2.64,1.76-.71.77-1.25,1.69-1.63,2.76-.37,1.07-.56,2.23-.56,3.49,0,2.66.76,4.76,2.27,6.32,1.51,1.55,3.63,2.33,6.36,2.33,1.19,0,2.24-.16,3.16-.47.91-.31,1.68-.7,2.28-1.17.61-.47,1.06-.96,1.36-1.48.3-.51.45-.96.45-1.34,0-.44-.13-.77-.4-1.01-.27-.24-.62-.36-1.06-.36ZM742.21,52.44c.68-.73,1.55-1.09,2.6-1.09,1.11,0,2.01.35,2.68,1.07.68.73,1.07,1.81,1.18,3.26h-7.69c.14-1.43.55-2.51,1.23-3.24Z"/>
          <path class="cls-5" d="M766.71,49.09c-.84-.44-1.71-.67-2.6-.67s-1.6.23-2.14.67c-.53.45-1.05,1.1-1.56,1.97-.03-.87-.2-1.52-.51-1.97-.31-.44-.82-.67-1.52-.67-1.38,0-2.07.96-2.07,2.86v11.81c0,.85.2,1.49.59,1.93.4.43.9.65,1.51.65s1.13-.22,1.54-.65c.4-.42.6-1.07.6-1.93v-3.54c0-1.28.04-2.36.13-3.24.08-.89.23-1.65.45-2.29.22-.65.52-1.13.91-1.46.4-.32.91-.49,1.53-.49.45,0,.98.1,1.57.29.6.19.98.29,1.13.29.41,0,.8-.17,1.16-.5.36-.34.53-.77.53-1.29,0-.73-.42-1.32-1.25-1.77Z"/>
          <path class="cls-5" d="M784.46,62.27c-.27-.86-.4-1.69-.4-2.49.01-.85.02-1.62.02-2.31.01-.7.01-1.54.01-2.54,0-1.57-.22-2.83-.66-3.79-.44-.95-1.19-1.65-2.26-2.09s-2.53-.66-4.4-.66c-1.66,0-3.06.23-4.18.69-1.11.45-1.94,1.03-2.47,1.74-.52.7-.79,1.43-.79,2.17,0,.48.17.87.52,1.17.35.31.76.46,1.24.46.53,0,.87-.09,1.03-.28.16-.2.43-.59.82-1.19s.86-1.05,1.4-1.35c.55-.31,1.36-.45,2.43-.45,1.26,0,2.08.26,2.48.78s.63,1.34.68,2.46c-.89.26-1.72.48-2.48.66s-1.68.38-2.74.6c-1.07.22-1.74.36-2.01.42-1.28.28-2.29.83-3.03,1.65-.73.81-1.1,1.8-1.1,2.96,0,.86.22,1.66.67,2.4.44.73,1.08,1.32,1.9,1.74.82.43,1.78.65,2.87.65,1.19,0,2.26-.2,3.22-.6.96-.4,1.95-1,2.98-1.79.47.77.92,1.37,1.35,1.78.42.4.85.61,1.29.61.52,0,.98-.18,1.39-.54.41-.35.61-.75.61-1.19,0-.24-.13-.8-.39-1.67ZM779.93,57.75c0,1.47-.19,2.52-.58,3.17-.33.58-.85,1.05-1.56,1.42-.71.36-1.48.55-2.32.55-.79,0-1.43-.23-1.91-.68-.49-.45-.73-.99-.73-1.64s.2-1.1.62-1.45c.41-.35.85-.58,1.3-.7.46-.12,1.28-.3,2.47-.56,1.18-.25,2.09-.49,2.71-.72v.61Z"/>
          <path class="cls-5" d="M796.9,62.54c-.27-.28-.58-.41-.92-.41-.24,0-.57.04-1,.13-.42.09-.76.13-1.01.13-.45,0-.78-.11-.98-.33-.21-.23-.33-.52-.38-.87-.04-.36-.07-.87-.07-1.53v-7.8h.79c.84,0,1.49-.12,1.94-.34.45-.23.67-.63.67-1.2,0-.45-.15-.81-.47-1.1-.32-.28-.77-.42-1.37-.42h-1.56v-2.89c0-.72-.04-1.27-.11-1.66-.08-.39-.27-.71-.56-.98-.43-.41-.92-.61-1.46-.61-.38,0-.73.09-1.04.27-.31.18-.55.42-.71.71-.17.28-.27.61-.3,1-.04.39-.06.92-.06,1.61v2.55h-.47c-.64,0-1.13.14-1.46.42-.34.29-.51.65-.51,1.1s.16.81.48,1.1c.32.29.79.44,1.4.44h.56v8.14c0,1.31.11,2.37.32,3.15.21.79.66,1.41,1.34,1.85.69.45,1.69.67,3.02.67,1.4,0,2.47-.18,3.21-.54.75-.37,1.12-.89,1.12-1.57,0-.41-.14-.75-.41-1.02Z"/>
          <path class="cls-5" d="M802.47,42.83c-.43-.35-.91-.53-1.46-.53s-1.07.2-1.5.59c-.43.38-.64.88-.64,1.48,0,.66.21,1.17.62,1.54.42.36.93.54,1.52.54s1.06-.18,1.48-.55c.41-.37.62-.88.62-1.53s-.22-1.19-.64-1.54ZM802.5,49.06c-.4-.42-.92-.64-1.54-.64s-1.12.22-1.51.64c-.39.43-.58,1.06-.58,1.9v12.13c0,.83.19,1.47.58,1.91.39.45.89.67,1.51.67s1.14-.22,1.54-.65c.41-.44.61-1.08.61-1.93v-12.26c0-.75-.2-1.34-.61-1.77Z"/>
          <path class="cls-5" d="M821.12,48.97c-.38-.37-.84-.55-1.37-.55-.57,0-1,.17-1.28.51-.28.34-.56.91-.85,1.72l-3.7,10.05-3.43-9.64c-.32-.95-.62-1.63-.88-2.03-.27-.4-.75-.61-1.45-.61-.37,0-.7.1-1.01.28-.32.18-.56.41-.73.7-.18.28-.27.57-.27.86,0,.18.03.41.1.67.07.25.15.51.25.76s.2.49.29.74l4.04,9.99c.4.97.69,1.61.86,1.94.17.32.43.62.79.9.36.27.84.41,1.44.41.47,0,.86-.09,1.19-.27.32-.17.6-.42.82-.73.22-.32.43-.7.61-1.15.18-.44.33-.81.44-1.1l4.07-10.1c.11-.28.22-.52.3-.74.09-.22.17-.45.24-.7.06-.25.1-.47.1-.65,0-.48-.19-.9-.57-1.26Z"/>
          <path class="cls-5" d="M828.34,42.83c-.43-.35-.91-.53-1.46-.53s-1.07.2-1.5.59c-.43.38-.65.88-.65,1.48,0,.66.21,1.17.63,1.54.42.36.93.54,1.52.54s1.06-.18,1.47-.55c.42-.37.62-.88.62-1.53s-.21-1.19-.63-1.54ZM828.37,49.06c-.41-.42-.92-.64-1.54-.64s-1.13.22-1.51.64c-.39.43-.59,1.06-.59,1.9v12.13c0,.83.2,1.47.59,1.91.38.45.89.67,1.51.67s1.13-.22,1.54-.65c.4-.44.6-1.08.6-1.93v-12.26c0-.75-.2-1.34-.6-1.77Z"/>
          <path class="cls-5" d="M848.46,42.73c-.34-.41-.84-.61-1.48-.61s-1.14.22-1.48.66c-.35.45-.52,1.11-.52,1.98v6.26c-.8-.87-1.62-1.52-2.46-1.94-.84-.42-1.87-.62-3.09-.62-2.11,0-3.82.74-5.11,2.22-1.3,1.48-1.94,3.54-1.94,6.2,0,1.25.16,2.41.49,3.49.32,1.08.8,2.02,1.43,2.81.63.8,1.38,1.42,2.25,1.84.86.43,1.8.65,2.82.65.76,0,1.47-.11,2.12-.32.65-.21,1.25-.52,1.8-.93.55-.41,1.12-.94,1.69-1.59v.42c0,.77.19,1.37.56,1.79.38.42.86.63,1.44.63s1.07-.2,1.45-.61c.37-.4.56-1.01.56-1.81v-18.71c0-.8-.18-1.4-.53-1.81ZM844.19,60.02c-.37.8-.86,1.4-1.47,1.79-.62.39-1.3.58-2.05.58s-1.41-.2-2.03-.61c-.62-.41-1.11-1.02-1.47-1.83-.36-.81-.54-1.78-.54-2.93,0-1.09.17-2.05.51-2.87.34-.82.81-1.46,1.42-1.9s1.31-.66,2.08-.66,1.43.22,2.06.65c.63.43,1.12,1.05,1.49,1.86.37.82.55,1.79.55,2.92,0,1.2-.18,2.2-.55,3Z"/>
          <path class="cls-5" d="M868.21,62.27c-.26-.86-.4-1.69-.4-2.49.01-.85.02-1.62.03-2.31,0-.7,0-1.54,0-2.54,0-1.57-.23-2.83-.66-3.79-.44-.95-1.2-1.65-2.27-2.09-1.06-.44-2.53-.66-4.39-.66-1.67,0-3.06.23-4.18.69-1.12.45-1.94,1.03-2.47,1.74-.53.7-.79,1.43-.79,2.17,0,.48.17.87.52,1.17.34.31.76.46,1.23.46.53,0,.87-.09,1.04-.28.16-.2.43-.59.82-1.19s.85-1.05,1.4-1.35c.54-.31,1.35-.45,2.43-.45,1.25,0,2.08.26,2.48.78.39.52.62,1.34.67,2.46-.89.26-1.72.48-2.48.66s-1.67.38-2.74.6c-1.07.22-1.73.36-2,.42-1.29.28-2.3.83-3.03,1.65-.74.81-1.1,1.8-1.1,2.96,0,.86.22,1.66.66,2.4.45.73,1.08,1.32,1.91,1.74.82.43,1.77.65,2.86.65,1.19,0,2.27-.2,3.23-.6.95-.4,1.95-1,2.97-1.79.48.77.93,1.37,1.35,1.78.43.4.86.61,1.29.61.52,0,.98-.18,1.39-.54.41-.35.62-.75.62-1.19,0-.24-.14-.8-.4-1.67ZM863.68,57.75c0,1.47-.19,2.52-.57,3.17-.33.58-.86,1.05-1.56,1.42-.71.36-1.49.55-2.33.55-.78,0-1.42-.23-1.91-.68-.48-.45-.73-.99-.73-1.64s.21-1.1.62-1.45c.42-.35.85-.58,1.31-.7.45-.12,1.27-.3,2.46-.56,1.19-.25,2.09-.49,2.71-.72v.61Z"/>
          <path class="cls-5" d="M887.26,42.73c-.35-.41-.84-.61-1.49-.61s-1.13.22-1.48.66c-.35.45-.52,1.11-.52,1.98v6.26c-.8-.87-1.62-1.52-2.46-1.94-.83-.42-1.86-.62-3.09-.62-2.11,0-3.81.74-5.11,2.22-1.29,1.48-1.94,3.54-1.94,6.2,0,1.25.16,2.41.49,3.49.33,1.08.8,2.02,1.44,2.81.63.8,1.38,1.42,2.24,1.84.87.43,1.81.65,2.82.65.77,0,1.47-.11,2.12-.32.65-.21,1.25-.52,1.8-.93.56-.41,1.12-.94,1.69-1.59v.42c0,.77.19,1.37.57,1.79.37.42.85.63,1.43.63s1.08-.2,1.45-.61c.37-.4.56-1.01.56-1.81v-18.71c0-.8-.18-1.4-.52-1.81ZM882.99,60.02c-.37.8-.87,1.4-1.48,1.79-.62.39-1.3.58-2.04.58s-1.42-.2-2.04-.61c-.62-.41-1.11-1.02-1.47-1.83-.35-.81-.53-1.78-.53-2.93,0-1.09.16-2.05.5-2.87.34-.82.81-1.46,1.42-1.9.61-.44,1.31-.66,2.08-.66s1.44.22,2.06.65c.63.43,1.13,1.05,1.5,1.86.36.82.55,1.79.55,2.92,0,1.2-.19,2.2-.55,3Z"/>
          <path class="cls-5" d="M905.66,59.84c-.4,0-.71.1-.93.28-.53.5-.96.89-1.29,1.18s-.69.57-1.09.82c-.39.25-.8.44-1.22.56-.42.12-.88.18-1.39.18-.75,0-1.45-.19-2.07-.56-.63-.37-1.13-.93-1.51-1.66-.38-.74-.57-1.59-.58-2.55h8.29c1.11,0,1.97-.16,2.58-.48.61-.31.92-1,.92-2.07,0-1.15-.3-2.28-.89-3.39-.59-1.11-1.48-2.01-2.66-2.71-1.19-.7-2.61-1.05-4.27-1.05-1.27,0-2.43.21-3.47.62-1.05.41-1.93.99-2.65,1.76-.71.77-1.26,1.69-1.63,2.76-.37,1.07-.56,2.23-.56,3.49,0,2.66.76,4.76,2.27,6.32,1.51,1.55,3.63,2.33,6.36,2.33,1.19,0,2.24-.16,3.16-.47.91-.31,1.68-.7,2.28-1.17.61-.47,1.06-.96,1.36-1.48.3-.51.45-.96.45-1.34,0-.44-.13-.77-.4-1.01-.27-.24-.62-.36-1.06-.36ZM896.81,52.44c.68-.73,1.55-1.09,2.61-1.09s2,.35,2.67,1.07c.68.73,1.07,1.81,1.18,3.26h-7.69c.14-1.43.55-2.51,1.23-3.24Z"/>
        </g>
      </g>
      <rect class="cls-3" y="52.89" width="534.83" height="8"/>
    </g>
  </g>
</svg>