<?xml version="1.0" encoding="UTF-8"?>
<svg id="Layer_2" data-name="Layer 2" xmlns="http://www.w3.org/2000/svg" xmlns:xlink="http://www.w3.org/1999/xlink" viewBox="0 0 2393 97.04">
  <defs>
    <style>
      .cls-1 {
        fill: url(#linear-gradient);
      }

      .cls-1, .cls-2, .cls-3, .cls-4, .cls-5, .cls-6, .cls-7, .cls-8 {
        stroke-width: 0px;
      }

      .cls-2 {
        fill: #ff6700;
      }

      .cls-3 {
        fill: url(#linear-gradient-6);
      }

      .cls-4 {
        fill: url(#linear-gradient-5);
      }

      .cls-5 {
        fill: #fff;
      }

      .cls-6 {
        fill: url(#linear-gradient-2);
      }

      .cls-7 {
        fill: url(#linear-gradient-3);
      }

      .cls-8 {
        fill: url(#linear-gradient-4);
      }
    </style>
    <linearGradient id="linear-gradient" x1="-7395.13" y1="-10365.46" x2="-7503.28" y2="-10369.02" gradientTransform="translate(8191 10389.54)" gradientUnits="userSpaceOnUse">
      <stop offset="0" stop-color="#7699ff"/>
      <stop offset="1" stop-color="#6100ff"/>
    </linearGradient>
    <linearGradient id="linear-gradient-2" x1="-7396.22" y1="-10332.29" x2="-7504.37" y2="-10335.85" xlink:href="#linear-gradient"/>
    <linearGradient id="linear-gradient-3" x1="-7395.26" y1="-10361.65" x2="-7503.4" y2="-10365.2" xlink:href="#linear-gradient"/>
    <linearGradient id="linear-gradient-4" x1="-7047.3" y1="-10571.54" x2="-7111.8" y2="-10573.67" gradientTransform="translate(8278.33 10314.23) rotate(-2.4)" xlink:href="#linear-gradient"/>
    <linearGradient id="linear-gradient-5" x1="-8076.6" y1="-10331.61" x2="-7549.67" y2="-10331.61" xlink:href="#linear-gradient"/>
    <linearGradient id="linear-gradient-6" x1="-3906" y1="-185.02" x2="-2673" y2="-185.02" gradientTransform="translate(-1513 -128.05) rotate(-180)" gradientUnits="userSpaceOnUse">
      <stop offset="0" stop-color="#fff" stop-opacity="0"/>
      <stop offset=".28" stop-color="#ffcca9" stop-opacity=".34"/>
      <stop offset=".54" stop-color="#ffa060" stop-opacity=".62"/>
      <stop offset=".75" stop-color="#ff812c" stop-opacity=".83"/>
      <stop offset=".91" stop-color="#ff6e0c" stop-opacity=".95"/>
      <stop offset="1" stop-color="#ff6700"/>
    </linearGradient>
  </defs>
  <g id="Impessoalidade">
    <g>
      <g>
        <path class="cls-2" d="M1180.2,51.22l-17.08-12.6-17.08-12.6c-.38-.28-.76-.48-1.15-.64-2.37-1.51-5.19-2.4-8.21-2.4h-486.68s0,69.82,0,69.82h486.68c3.02,0,5.84-.89,8.21-2.4.39-.16.78-.37,1.15-.64l17.08-12.6,17.08-12.6c4.02-2.96,4.02-10.37,0-13.34Z"/>
        <g>
          <path class="cls-1" d="M742.26,18.31c2.55,1.51,2.5,5.21-.08,6.66l-15.18,8.53-15.18,8.53c-2.58,1.45-5.76-.44-5.73-3.4l.21-17.41.21-17.41c.04-2.96,3.26-4.77,5.81-3.26l14.97,8.88,14.97,8.88Z"/>
          <path class="cls-6" d="M752.6,52.77c2.85,1.7,2.69,5.26-.3,6.69l-9.47,4.52-8.37,4c-3.25,1.55-7.32-.54-7.18-3.68l.42-9.31.42-9.31c.14-3.14,4.39-4.85,7.48-3.01l7.98,4.74,9.02,5.36Z"/>
          <path class="cls-7" d="M774.19,25.25c1.56.98,1.46,3.28-.17,4.12l-6.68,3.43-6.77,3.48c-1.62.83-3.53-.39-3.45-2.21l.31-7.46.31-7.46c.08-1.82,2.08-2.88,3.63-1.91l6.46,4.03,6.37,3.98Z"/>
          <path class="cls-8" d="M781.99,45.76c.95.54.95,1.92,0,2.46l-3.9,2.21-3.95,2.24c-.94.54-2.11-.15-2.11-1.23v-4.46s0-4.46,0-4.46c0-1.08,1.17-1.77,2.11-1.23l3.95,2.24,3.9,2.21Z"/>
        </g>
        <path class="cls-4" d="M707.76,50.59l-26.52-15.31-26.52-15.31c-1.8-1.04-3.75-1.33-5.57-1.03H0s0,78,0,78h649.15c1.82.3,3.76,0,5.57-1.03l26.52-15.31,26.52-15.31c5.65-3.26,5.65-11.43,0-14.69Z"/>
        <g>
          <path class="cls-5" d="M821.26,64.85v-17.94c0-.93.21-1.63.64-2.1.42-.47.97-.7,1.65-.7s1.26.23,1.69.69.65,1.16.65,2.1v17.94c0,.94-.22,1.65-.65,2.11s-.99.7-1.69.7-1.21-.24-1.64-.71c-.43-.47-.64-1.17-.64-2.11Z"/>
          <path class="cls-5" d="M844.85,59.35v5.64c0,.89-.2,1.56-.61,2s-.94.67-1.6.67-1.16-.22-1.56-.67-.6-1.11-.6-2v-6.76c0-1.07-.04-1.9-.11-2.49-.07-.59-.27-1.08-.59-1.45-.32-.38-.83-.57-1.52-.57-1.39,0-2.3.48-2.74,1.43-.44.95-.66,2.32-.66,4.1v5.73c0,.88-.2,1.55-.6,2-.4.45-.92.68-1.58.68s-1.17-.23-1.58-.68c-.41-.45-.61-1.12-.61-2v-12.13c0-.8.18-1.4.55-1.82.37-.41.85-.62,1.45-.62s1.06.19,1.45.58c.39.39.58.92.58,1.61v.4c.74-.88,1.52-1.53,2.36-1.94s1.77-.62,2.8-.62,1.98.21,2.75.64,1.4,1.07,1.9,1.93c.71-.87,1.48-1.52,2.3-1.93.82-.42,1.72-.63,2.72-.63,1.16,0,2.16.23,3,.68.84.46,1.47,1.11,1.88,1.96.36.77.54,1.97.54,3.62v8.28c0,.89-.2,1.56-.61,2s-.94.67-1.6.67-1.17-.23-1.58-.68c-.41-.45-.61-1.12-.61-2v-7.13c0-.91-.04-1.64-.12-2.19s-.29-1.01-.63-1.38-.86-.56-1.55-.56c-.56,0-1.09.17-1.59.5-.5.33-.89.78-1.17,1.34-.31.71-.47,1.98-.47,3.79Z"/>
          <path class="cls-5" d="M862.81,52.8v.51c.8-.98,1.63-1.71,2.49-2.17.86-.46,1.83-.69,2.92-.69,1.31,0,2.51.34,3.6,1.01,1.1.67,1.97,1.66,2.6,2.95.64,1.29.96,2.83.96,4.6,0,1.31-.18,2.5-.55,3.6-.37,1.09-.87,2.01-1.52,2.75-.64.74-1.4,1.31-2.28,1.71-.88.4-1.82.6-2.82.6-1.21,0-2.23-.24-3.05-.73s-1.61-1.2-2.35-2.14v6.37c0,1.86-.68,2.8-2.04,2.8-.8,0-1.33-.24-1.58-.72-.26-.48-.39-1.18-.39-2.11v-18.3c0-.81.18-1.41.53-1.81.35-.4.83-.6,1.44-.6s1.09.2,1.47.61.57,1,.57,1.76ZM871.12,58.96c0-1.12-.17-2.08-.51-2.88s-.82-1.42-1.42-1.85c-.61-.43-1.28-.64-2.01-.64-1.17,0-2.16.46-2.96,1.38s-1.2,2.28-1.2,4.07c0,1.69.4,3,1.2,3.94.8.94,1.79,1.41,2.97,1.41.7,0,1.36-.2,1.96-.61s1.08-1.02,1.45-1.84c.36-.82.54-1.81.54-2.97Z"/>
          <path class="cls-5" d="M890.62,60.08h-8.3c.01.96.2,1.81.58,2.55.38.74.88,1.29,1.51,1.66.63.37,1.32.56,2.07.56.51,0,.97-.06,1.39-.18s.83-.3,1.22-.56c.39-.25.76-.53,1.09-.82.33-.29.76-.68,1.29-1.18.22-.19.53-.28.93-.28.44,0,.79.12,1.06.36s.4.57.4,1.01c0,.38-.15.83-.45,1.34s-.75,1-1.36,1.48c-.61.47-1.37.86-2.28,1.17-.92.31-1.97.47-3.16.47-2.72,0-4.84-.78-6.35-2.33s-2.27-3.66-2.27-6.32c0-1.25.19-2.42.56-3.49s.92-1.99,1.63-2.76,1.59-1.35,2.64-1.76c1.05-.41,2.21-.61,3.48-.61,1.66,0,3.08.35,4.26,1.05s2.07,1.6,2.67,2.71c.59,1.11.88,2.24.88,3.39,0,1.07-.31,1.76-.92,2.07-.61.32-1.47.47-2.58.47ZM882.32,57.67h7.69c-.1-1.45-.49-2.53-1.17-3.25-.68-.72-1.57-1.08-2.68-1.08s-1.92.36-2.6,1.09-1.09,1.81-1.23,3.24Z"/>
          <path class="cls-5" d="M911.34,62.12c0,1.17-.29,2.17-.85,3.01-.57.83-1.41,1.47-2.52,1.9-1.11.43-2.47.64-4.06.64s-2.83-.23-3.92-.7c-1.09-.47-1.89-1.05-2.41-1.75-.52-.7-.78-1.4-.78-2.11,0-.47.17-.86.5-1.2.33-.33.75-.5,1.26-.5.45,0,.79.11,1.03.33.24.22.47.52.68.92.44.76.96,1.32,1.56,1.69.61.37,1.43.56,2.48.56.85,0,1.55-.19,2.09-.57s.82-.81.82-1.3c0-.75-.28-1.29-.85-1.63s-1.49-.67-2.79-.98c-1.46-.36-2.65-.74-3.57-1.14-.92-.4-1.65-.92-2.2-1.58s-.82-1.46-.82-2.41c0-.85.25-1.65.76-2.41.51-.76,1.26-1.36,2.25-1.81.99-.45,2.18-.68,3.58-.68,1.1,0,2.08.11,2.96.34s1.61.53,2.19.92c.58.38,1.03.81,1.34,1.27.3.47.46.92.46,1.37,0,.49-.16.89-.49,1.2s-.79.47-1.39.47c-.43,0-.81-.12-1.11-.37-.31-.25-.66-.62-1.05-1.12-.32-.41-.7-.75-1.13-.99-.43-.25-1.03-.37-1.77-.37s-1.4.16-1.91.49c-.51.33-.76.73-.76,1.22,0,.45.19.81.56,1.09.37.29.88.52,1.51.71s1.5.42,2.61.68c1.32.32,2.39.71,3.22,1.15s1.47.97,1.9,1.58c.43.61.64,1.3.64,2.07Z"/>
          <path class="cls-5" d="M928.59,62.12c0,1.17-.29,2.17-.85,3.01-.57.83-1.41,1.47-2.52,1.9-1.11.43-2.47.64-4.06.64s-2.83-.23-3.92-.7c-1.09-.47-1.89-1.05-2.41-1.75-.52-.7-.78-1.4-.78-2.11,0-.47.17-.86.5-1.2.33-.33.75-.5,1.26-.5.45,0,.79.11,1.03.33.24.22.47.52.68.92.44.76.96,1.32,1.56,1.69.61.37,1.43.56,2.48.56.85,0,1.55-.19,2.09-.57s.82-.81.82-1.3c0-.75-.28-1.29-.85-1.63s-1.49-.67-2.79-.98c-1.46-.36-2.65-.74-3.57-1.14-.92-.4-1.65-.92-2.2-1.58s-.82-1.46-.82-2.41c0-.85.25-1.65.76-2.41.51-.76,1.26-1.36,2.25-1.81.99-.45,2.18-.68,3.58-.68,1.1,0,2.08.11,2.96.34s1.61.53,2.19.92c.58.38,1.03.81,1.34,1.27.3.47.46.92.46,1.37,0,.49-.16.89-.49,1.2s-.79.47-1.39.47c-.43,0-.81-.12-1.11-.37-.31-.25-.66-.62-1.05-1.12-.32-.41-.7-.75-1.13-.99-.43-.25-1.03-.37-1.77-.37s-1.4.16-1.91.49c-.51.33-.76.73-.76,1.22,0,.45.19.81.56,1.09.37.29.88.52,1.51.71s1.5.42,2.61.68c1.32.32,2.39.71,3.22,1.15s1.47.97,1.9,1.58c.43.61.64,1.3.64,2.07Z"/>
          <path class="cls-5" d="M948.05,59.04c0,1.26-.2,2.43-.59,3.5-.39,1.07-.96,1.98-1.71,2.75-.75.77-1.64,1.35-2.67,1.76-1.04.41-2.2.61-3.5.61s-2.44-.21-3.46-.62-1.91-1.01-2.66-1.78-1.32-1.68-1.71-2.73c-.39-1.05-.58-2.21-.58-3.49s.2-2.46.59-3.53c.39-1.07.96-1.98,1.69-2.73s1.63-1.34,2.67-1.75,2.2-.61,3.46-.61,2.45.21,3.5.62,1.94,1,2.69,1.77c.75.77,1.31,1.68,1.7,2.73.39,1.06.58,2.22.58,3.5ZM943.8,59.04c0-1.73-.38-3.08-1.14-4.04-.76-.96-1.78-1.45-3.07-1.45-.83,0-1.56.22-2.19.65-.63.43-1.12,1.06-1.46,1.9-.34.84-.51,1.82-.51,2.94s.17,2.08.5,2.91c.34.83.82,1.46,1.45,1.9.63.44,1.36.66,2.21.66,1.28,0,2.31-.48,3.07-1.45.76-.97,1.14-2.31,1.14-4.02Z"/>
          <path class="cls-5" d="M962.11,65.27c-1.03.8-2.02,1.4-2.97,1.79s-2.03.6-3.22.6c-1.09,0-2.04-.22-2.87-.64-.82-.43-1.46-1.01-1.9-1.75-.45-.74-.67-1.53-.67-2.39,0-1.16.37-2.15,1.1-2.97s1.75-1.37,3.03-1.65c.27-.06.94-.2,2-.42,1.07-.22,1.98-.42,2.74-.6.76-.18,1.59-.4,2.48-.66-.05-1.12-.28-1.94-.68-2.46-.4-.52-1.22-.78-2.48-.78-1.08,0-1.89.15-2.43.45s-1.01.75-1.4,1.35-.66,1-.82,1.19c-.16.19-.5.29-1.03.29-.48,0-.89-.15-1.24-.46s-.52-.7-.52-1.17c0-.75.26-1.47.79-2.17.53-.7,1.35-1.28,2.47-1.74s2.51-.68,4.18-.68c1.87,0,3.33.22,4.4.66,1.07.44,1.82,1.14,2.26,2.09.44.95.66,2.22.66,3.79,0,.99,0,1.84,0,2.53,0,.69-.01,1.47-.02,2.31,0,.8.13,1.63.4,2.49.26.86.4,1.42.4,1.67,0,.43-.2.83-.61,1.19s-.87.54-1.39.54c-.44,0-.87-.21-1.29-.61s-.88-1-1.35-1.78ZM961.83,59.14c-.62.23-1.53.47-2.71.72-1.19.25-2.01.44-2.46.56s-.89.35-1.3.7c-.41.35-.62.83-.62,1.45s.24,1.19.73,1.64c.49.45,1.12.68,1.91.68.84,0,1.61-.18,2.32-.55.71-.37,1.23-.84,1.56-1.42.38-.64.58-1.7.58-3.17v-.61Z"/>
          <path class="cls-5" d="M970.3,65.09v-18.39c0-.85.19-1.49.57-1.93.38-.44.89-.65,1.53-.65s1.16.21,1.55.64.59,1.07.59,1.93v18.39c0,.86-.2,1.5-.6,1.93-.4.43-.91.64-1.55.64s-1.13-.22-1.51-.67c-.39-.45-.58-1.08-.58-1.91Z"/>
          <path class="cls-5" d="M981.07,48.45c-.59,0-1.1-.18-1.52-.54-.42-.36-.63-.88-.63-1.54,0-.6.21-1.09.64-1.48s.93-.58,1.5-.58,1.04.18,1.46.53c.42.35.64.87.64,1.54s-.21,1.16-.62,1.53c-.41.37-.91.55-1.48.55ZM983.17,52.83v12.26c0,.85-.2,1.49-.61,1.93-.4.43-.92.65-1.54.65s-1.13-.22-1.51-.67c-.39-.45-.58-1.08-.58-1.91v-12.13c0-.84.19-1.47.58-1.9.39-.42.89-.64,1.51-.64s1.13.21,1.54.64.61,1.02.61,1.77Z"/>
          <path class="cls-5" d="M999.17,65.24v-.42c-.57.65-1.13,1.18-1.69,1.59-.55.41-1.16.72-1.8.93-.65.21-1.35.32-2.12.32-1.02,0-1.96-.22-2.82-.64-.86-.43-1.61-1.04-2.24-1.84-.63-.8-1.11-1.73-1.44-2.81s-.49-2.24-.49-3.5c0-2.65.65-4.72,1.94-6.2,1.29-1.48,3-2.22,5.11-2.22,1.22,0,2.25.21,3.09.63.84.42,1.66,1.06,2.46,1.93v-6.26c0-.87.17-1.53.52-1.97s.84-.67,1.48-.67,1.14.2,1.48.61c.35.41.52,1.01.52,1.81v18.71c0,.81-.19,1.41-.56,1.82-.37.4-.85.61-1.45.61s-1.06-.21-1.44-.63c-.38-.42-.57-1.02-.57-1.79ZM990.82,59.01c0,1.15.18,2.13.54,2.94s.85,1.42,1.47,1.83c.62.41,1.3.61,2.04.61s1.43-.19,2.04-.58c.62-.39,1.11-.98,1.48-1.79.37-.8.55-1.8.55-3.01,0-1.13-.18-2.1-.55-2.91-.37-.81-.87-1.43-1.49-1.86-.63-.43-1.31-.64-2.06-.64s-1.47.22-2.08.66c-.61.44-1.08,1.07-1.42,1.9s-.5,1.78-.5,2.87Z"/>
          <path class="cls-5" d="M1018.15,65.27c-1.03.8-2.02,1.4-2.97,1.79s-2.03.6-3.22.6c-1.09,0-2.04-.22-2.87-.64-.82-.43-1.46-1.01-1.9-1.75-.45-.74-.67-1.53-.67-2.39,0-1.16.37-2.15,1.1-2.97s1.75-1.37,3.03-1.65c.27-.06.94-.2,2-.42,1.07-.22,1.98-.42,2.74-.6.76-.18,1.59-.4,2.48-.66-.05-1.12-.28-1.94-.68-2.46-.4-.52-1.22-.78-2.48-.78-1.08,0-1.89.15-2.43.45s-1.01.75-1.4,1.35-.66,1-.82,1.19c-.16.19-.5.29-1.03.29-.48,0-.89-.15-1.24-.46s-.52-.7-.52-1.17c0-.75.26-1.47.79-2.17.53-.7,1.35-1.28,2.47-1.74s2.51-.68,4.18-.68c1.87,0,3.33.22,4.4.66,1.07.44,1.82,1.14,2.26,2.09.44.95.66,2.22.66,3.79,0,.99,0,1.84,0,2.53,0,.69-.01,1.47-.02,2.31,0,.8.13,1.63.4,2.49.26.86.4,1.42.4,1.67,0,.43-.2.83-.61,1.19s-.87.54-1.39.54c-.44,0-.87-.21-1.29-.61s-.88-1-1.35-1.78ZM1017.87,59.14c-.62.23-1.53.47-2.71.72-1.19.25-2.01.44-2.46.56s-.89.35-1.3.7c-.41.35-.62.83-.62,1.45s.24,1.19.73,1.64c.49.45,1.12.68,1.91.68.84,0,1.61-.18,2.32-.55.71-.37,1.23-.84,1.56-1.42.38-.64.58-1.7.58-3.17v-.61Z"/>
          <path class="cls-5" d="M1037.96,65.24v-.42c-.57.65-1.13,1.18-1.69,1.59-.55.41-1.16.72-1.8.93-.65.21-1.35.32-2.12.32-1.02,0-1.96-.22-2.82-.64-.86-.43-1.61-1.04-2.24-1.84-.63-.8-1.11-1.73-1.44-2.81s-.49-2.24-.49-3.5c0-2.65.65-4.72,1.94-6.2,1.29-1.48,3-2.22,5.11-2.22,1.22,0,2.25.21,3.09.63.84.42,1.66,1.06,2.46,1.93v-6.26c0-.87.17-1.53.52-1.97s.84-.67,1.48-.67,1.14.2,1.48.61c.35.41.52,1.01.52,1.81v18.71c0,.81-.19,1.41-.56,1.82-.37.4-.85.61-1.45.61s-1.06-.21-1.44-.63c-.38-.42-.57-1.02-.57-1.79ZM1029.62,59.01c0,1.15.18,2.13.54,2.94s.85,1.42,1.47,1.83c.62.41,1.3.61,2.04.61s1.43-.19,2.04-.58c.62-.39,1.11-.98,1.48-1.79.37-.8.55-1.8.55-3.01,0-1.13-.18-2.1-.55-2.91-.37-.81-.87-1.43-1.49-1.86-.63-.43-1.31-.64-2.06-.64s-1.47.22-2.08.66c-.61.44-1.08,1.07-1.42,1.9s-.5,1.78-.5,2.87Z"/>
          <path class="cls-5" d="M1058.07,60.08h-8.3c.01.96.21,1.81.58,2.55s.88,1.29,1.51,1.66c.63.37,1.32.56,2.07.56.51,0,.97-.06,1.39-.18.42-.12.83-.3,1.22-.56s.76-.53,1.09-.82c.33-.29.76-.68,1.29-1.18.22-.19.53-.28.93-.28.44,0,.79.12,1.06.36s.4.57.4,1.01c0,.38-.15.83-.45,1.34-.3.51-.75,1-1.36,1.48-.61.47-1.37.86-2.28,1.17-.92.31-1.97.47-3.16.47-2.72,0-4.84-.78-6.35-2.33-1.51-1.55-2.27-3.66-2.27-6.32,0-1.25.19-2.42.56-3.49.37-1.07.92-1.99,1.63-2.76s1.59-1.35,2.64-1.76c1.05-.41,2.21-.61,3.48-.61,1.66,0,3.08.35,4.26,1.05s2.07,1.6,2.67,2.71c.59,1.11.88,2.24.88,3.39,0,1.07-.31,1.76-.92,2.07-.61.32-1.47.47-2.58.47ZM1049.77,57.67h7.69c-.1-1.45-.49-2.53-1.17-3.25-.68-.72-1.57-1.08-2.68-1.08s-1.92.36-2.6,1.09-1.09,1.81-1.24,3.24Z"/>
        </g>
      </g>
      <rect class="cls-3" x="1160" y="52.98" width="1233" height="8"/>
    </g>
  </g>
</svg>