<?xml version="1.0" encoding="UTF-8"?>
<svg id="Layer_2" data-name="Layer 2" xmlns="http://www.w3.org/2000/svg" xmlns:xlink="http://www.w3.org/1999/xlink" viewBox="0 0 2390 97.04">
  <defs>
    <style>
      .cls-1 {
        fill: url(#linear-gradient);
      }

      .cls-1, .cls-2, .cls-3, .cls-4, .cls-5, .cls-6, .cls-7, .cls-8 {
        stroke-width: 0px;
      }

      .cls-2 {
        fill: #ff6700;
      }

      .cls-3 {
        fill: url(#linear-gradient-6);
      }

      .cls-4 {
        fill: url(#linear-gradient-5);
      }

      .cls-5 {
        fill: #fff;
      }

      .cls-6 {
        fill: url(#linear-gradient-2);
      }

      .cls-7 {
        fill: url(#linear-gradient-3);
      }

      .cls-8 {
        fill: url(#linear-gradient-4);
      }
    </style>
    <linearGradient id="linear-gradient" x1="-12941.13" y1="-11145.47" x2="-13049.28" y2="-11149.02" gradientTransform="translate(-11347 11169.54) rotate(-180) scale(1 -1)" gradientUnits="userSpaceOnUse">
      <stop offset="0" stop-color="#7699ff"/>
      <stop offset="1" stop-color="#6100ff"/>
    </linearGradient>
    <linearGradient id="linear-gradient-2" x1="-12942.22" y1="-11112.29" x2="-13050.37" y2="-11115.85" xlink:href="#linear-gradient"/>
    <linearGradient id="linear-gradient-3" x1="-12941.26" y1="-11141.65" x2="-13049.4" y2="-11145.2" xlink:href="#linear-gradient"/>
    <linearGradient id="linear-gradient-4" x1="-12595.22" y1="-11573.68" x2="-12659.73" y2="-11575.8" gradientTransform="translate(-11473.32 11083.37) rotate(-177.6) scale(1 -1)" xlink:href="#linear-gradient"/>
    <linearGradient id="linear-gradient-5" x1="-13622.6" y1="-11111.61" x2="-13095.67" y2="-11111.61" xlink:href="#linear-gradient"/>
    <linearGradient id="linear-gradient-6" x1="0" y1="56.89" x2="1217.33" y2="56.89" gradientUnits="userSpaceOnUse">
      <stop offset="0" stop-color="#fff" stop-opacity="0"/>
      <stop offset=".28" stop-color="#ffcca9" stop-opacity=".34"/>
      <stop offset=".54" stop-color="#ffa060" stop-opacity=".62"/>
      <stop offset=".75" stop-color="#ff812c" stop-opacity=".83"/>
      <stop offset=".91" stop-color="#ff6e0c" stop-opacity=".95"/>
      <stop offset="1" stop-color="#ff6700"/>
    </linearGradient>
  </defs>
  <g id="Clareza">
    <g>
      <g>
        <path class="cls-2" d="M1209.8,51.22l17.08-12.6,17.08-12.6c.38-.28.76-.48,1.15-.64,2.37-1.51,5.19-2.4,8.21-2.4h486.68v69.82h-486.68c-3.02,0-5.84-.89-8.21-2.4-.39-.16-.78-.37-1.15-.64l-17.08-12.6-17.08-12.6c-4.02-2.96-4.02-10.37,0-13.34Z"/>
        <g>
          <path class="cls-1" d="M1647.74,18.31c-2.55,1.51-2.5,5.21.08,6.66l15.18,8.53,15.18,8.53c2.58,1.45,5.76-.44,5.73-3.4l-.21-17.41-.21-17.41c-.04-2.96-3.26-4.77-5.81-3.26l-14.97,8.88-14.97,8.88Z"/>
          <path class="cls-6" d="M1637.4,52.77c-2.85,1.7-2.69,5.26.3,6.69l9.47,4.52,8.37,4c3.25,1.55,7.32-.54,7.18-3.68l-.42-9.31-.42-9.31c-.14-3.14-4.39-4.85-7.48-3.01l-7.98,4.74-9.02,5.36Z"/>
          <path class="cls-7" d="M1615.81,25.25c-1.56.98-1.46,3.28.17,4.12l6.68,3.43,6.77,3.48c1.62.83,3.53-.39,3.45-2.21l-.31-7.46-.31-7.46c-.08-1.82-2.08-2.88-3.63-1.91l-6.46,4.03-6.37,3.98Z"/>
          <path class="cls-8" d="M1608.02,45.76c-.95.54-.95,1.92,0,2.46l3.9,2.21,3.95,2.24c.94.54,2.11-.15,2.11-1.23v-4.46s0-4.46,0-4.46c0-1.08-1.17-1.77-2.11-1.23l-3.95,2.24-3.9,2.21Z"/>
        </g>
        <path class="cls-4" d="M1682.24,50.59l26.52-15.31,26.52-15.31c1.8-1.04,3.75-1.33,5.57-1.03h649.15v78h-649.15c-1.82.3-3.76,0-5.57-1.03l-26.52-15.31-26.52-15.31c-5.65-3.26-5.65-11.43,0-14.69Z"/>
        <g>
          <path class="cls-5" d="M1438.29,62.08c0,.73-.18,1.51-.54,2.35-.36.84-.92,1.67-1.69,2.49-.77.81-1.75,1.47-2.94,1.98-1.19.51-2.58.76-4.16.76-1.2,0-2.29-.11-3.28-.34-.98-.23-1.88-.58-2.68-1.06s-1.54-1.12-2.21-1.9c-.6-.71-1.11-1.51-1.54-2.4s-.74-1.83-.96-2.83c-.21-1-.32-2.07-.32-3.2,0-1.83.27-3.48.8-4.93.53-1.45,1.3-2.69,2.29-3.72,1-1.03,2.16-1.81,3.5-2.35,1.34-.54,2.76-.81,4.27-.81,1.84,0,3.49.37,4.92,1.1s2.54,1.64,3.31,2.73c.77,1.08,1.15,2.11,1.15,3.07,0,.53-.19.99-.56,1.4s-.82.61-1.35.61c-.59,0-1.03-.14-1.33-.42s-.62-.76-.99-1.45c-.6-1.13-1.31-1.97-2.12-2.53-.81-.56-1.82-.84-3.01-.84-1.9,0-3.41.72-4.53,2.16-1.12,1.44-1.69,3.49-1.69,6.14,0,1.77.25,3.24.75,4.42s1.2,2.05,2.11,2.63c.91.58,1.98.87,3.2.87,1.33,0,2.45-.33,3.36-.99.92-.66,1.61-1.62,2.07-2.9.2-.6.44-1.09.73-1.47s.76-.57,1.4-.57c.55,0,1.02.19,1.41.57.39.38.59.86.59,1.43Z"/>
          <path class="cls-5" d="M1442.14,67.08v-18.39c0-.85.19-1.49.57-1.93.38-.44.89-.65,1.53-.65s1.16.21,1.55.64c.39.43.59,1.07.59,1.93v18.39c0,.86-.2,1.5-.6,1.93-.4.43-.92.64-1.55.64s-1.13-.22-1.51-.67c-.39-.45-.58-1.08-.58-1.91Z"/>
          <path class="cls-5" d="M1461.49,67.27c-1.03.8-2.02,1.4-2.98,1.79s-2.03.6-3.22.6c-1.09,0-2.04-.22-2.87-.64-.82-.43-1.46-1.01-1.9-1.75s-.67-1.53-.67-2.39c0-1.16.37-2.15,1.1-2.97s1.75-1.37,3.03-1.65c.27-.06.94-.2,2-.42,1.07-.22,1.98-.42,2.74-.6.76-.18,1.59-.4,2.48-.66-.05-1.12-.28-1.94-.68-2.46-.4-.52-1.22-.78-2.48-.78-1.08,0-1.89.15-2.43.45s-1.01.75-1.4,1.35-.66,1-.82,1.19c-.16.19-.5.29-1.03.29-.48,0-.89-.15-1.24-.46-.35-.31-.52-.7-.52-1.17,0-.75.26-1.47.79-2.17s1.35-1.28,2.47-1.74c1.12-.46,2.51-.68,4.18-.68,1.86,0,3.33.22,4.4.66,1.07.44,1.82,1.14,2.26,2.09.44.95.66,2.22.66,3.79,0,.99,0,1.84,0,2.53,0,.69-.01,1.47-.02,2.31,0,.8.13,1.63.4,2.49.26.86.4,1.42.4,1.67,0,.43-.2.83-.61,1.19s-.87.54-1.39.54c-.43,0-.87-.21-1.29-.61-.42-.41-.88-1-1.35-1.78ZM1461.21,61.13c-.62.23-1.53.47-2.71.72-1.19.25-2.01.44-2.46.56-.46.12-.89.35-1.31.7-.41.35-.62.83-.62,1.45s.24,1.19.73,1.64c.49.45,1.12.68,1.91.68.84,0,1.61-.18,2.32-.55.71-.37,1.23-.84,1.56-1.42.38-.64.57-1.7.57-3.17v-.61Z"/>
          <path class="cls-5" d="M1473.88,63.54v3.54c0,.86-.2,1.5-.61,1.93-.4.43-.92.64-1.54.64s-1.11-.22-1.51-.65c-.39-.44-.59-1.08-.59-1.93v-11.81c0-1.91.69-2.86,2.07-2.86.7,0,1.21.22,1.52.67s.48,1.1.51,1.97c.51-.87,1.03-1.53,1.56-1.97s1.25-.67,2.14-.67,1.76.22,2.59.67,1.26,1.04,1.26,1.77c0,.52-.18.95-.54,1.28s-.74.5-1.16.5c-.16,0-.53-.1-1.13-.29s-1.12-.29-1.58-.29c-.62,0-1.13.16-1.52.49-.39.33-.7.81-.92,1.45s-.37,1.41-.45,2.29c-.08.88-.12,1.96-.12,3.24Z"/>
          <path class="cls-5" d="M1494.66,62.08h-8.3c.01.96.21,1.81.58,2.55s.88,1.29,1.51,1.66c.63.37,1.32.56,2.07.56.51,0,.97-.06,1.39-.18.42-.12.83-.3,1.22-.56s.76-.53,1.09-.82c.33-.29.76-.68,1.29-1.18.22-.19.53-.28.93-.28.44,0,.79.12,1.06.36s.4.57.4,1.01c0,.38-.15.83-.45,1.34-.3.51-.75,1-1.36,1.48-.61.47-1.37.86-2.28,1.17-.92.31-1.97.47-3.16.47-2.72,0-4.84-.78-6.35-2.33-1.51-1.55-2.27-3.66-2.27-6.32,0-1.25.19-2.42.56-3.49s.92-1.99,1.63-2.76,1.59-1.35,2.64-1.76c1.05-.41,2.21-.61,3.48-.61,1.66,0,3.08.35,4.26,1.05s2.07,1.6,2.67,2.71c.59,1.11.88,2.24.88,3.39,0,1.07-.31,1.76-.92,2.07-.61.32-1.47.47-2.58.47ZM1486.36,59.67h7.69c-.1-1.45-.49-2.53-1.17-3.25-.68-.72-1.57-1.08-2.68-1.08s-1.92.36-2.6,1.09-1.09,1.81-1.24,3.24Z"/>
          <path class="cls-5" d="M1512.83,57.28l-7.77,8.68h8.31c.67,0,1.18.16,1.52.47.34.32.51.72.51,1.22s-.17.87-.5,1.17c-.34.3-.85.45-1.53.45h-11.5c-.81,0-1.41-.18-1.81-.53-.4-.35-.6-.83-.6-1.44,0-.36.14-.73.42-1.1.28-.37.86-1.04,1.74-2.03.93-1.04,1.78-1.97,2.54-2.81.76-.84,1.47-1.62,2.12-2.35s1.19-1.35,1.62-1.86.77-.94,1.03-1.3h-6.31c-.87,0-1.53-.08-1.97-.23s-.67-.56-.67-1.23c0-.49.17-.88.5-1.17.34-.29.82-.43,1.44-.43h9.74c.9,0,1.59.13,2.07.4.48.26.72.74.72,1.42,0,.23-.05.46-.14.71-.09.24-.2.44-.31.6-.11.16-.27.34-.47.57-.2.22-.44.49-.73.8Z"/>
          <path class="cls-5" d="M1528.6,67.27c-1.03.8-2.02,1.4-2.97,1.79s-2.03.6-3.22.6c-1.09,0-2.04-.22-2.87-.64-.82-.43-1.46-1.01-1.9-1.75-.45-.74-.67-1.53-.67-2.39,0-1.16.37-2.15,1.1-2.97s1.75-1.37,3.03-1.65c.27-.06.94-.2,2-.42,1.07-.22,1.98-.42,2.74-.6.76-.18,1.59-.4,2.48-.66-.05-1.12-.28-1.94-.68-2.46-.4-.52-1.22-.78-2.48-.78-1.08,0-1.89.15-2.43.45s-1.01.75-1.4,1.35-.66,1-.82,1.19c-.16.19-.5.29-1.03.29-.48,0-.89-.15-1.24-.46s-.52-.7-.52-1.17c0-.75.26-1.47.79-2.17.53-.7,1.35-1.28,2.47-1.74s2.51-.68,4.18-.68c1.87,0,3.33.22,4.4.66,1.07.44,1.82,1.14,2.26,2.09.44.95.66,2.22.66,3.79,0,.99,0,1.84,0,2.53,0,.69-.01,1.47-.02,2.31,0,.8.13,1.63.4,2.49.26.86.4,1.42.4,1.67,0,.43-.2.83-.61,1.19s-.87.54-1.39.54c-.44,0-.87-.21-1.29-.61s-.88-1-1.35-1.78ZM1528.32,61.13c-.62.23-1.53.47-2.71.72-1.19.25-2.01.44-2.46.56s-.89.35-1.3.7c-.41.35-.62.83-.62,1.45s.24,1.19.73,1.64c.49.45,1.12.68,1.91.68.84,0,1.61-.18,2.32-.55.71-.37,1.23-.84,1.56-1.42.38-.64.58-1.7.58-3.17v-.61Z"/>
        </g>
      </g>
      <rect class="cls-3" y="52.89" width="1217.33" height="8"/>
    </g>
  </g>
</svg>