<?xml version="1.0" encoding="UTF-8"?>
<svg id="Layer_2" data-name="Layer 2" xmlns="http://www.w3.org/2000/svg" xmlns:xlink="http://www.w3.org/1999/xlink" viewBox="0 0 2385.33 97.04">
  <defs>
    <style>
      .cls-1 {
        fill: url(#linear-gradient);
      }

      .cls-1, .cls-2, .cls-3, .cls-4, .cls-5, .cls-6, .cls-7, .cls-8 {
        stroke-width: 0px;
      }

      .cls-2 {
        fill: #ff6700;
      }

      .cls-3 {
        fill: url(#linear-gradient-6);
      }

      .cls-4 {
        fill: url(#linear-gradient-5);
      }

      .cls-5 {
        fill: #fff;
      }

      .cls-6 {
        fill: url(#linear-gradient-2);
      }

      .cls-7 {
        fill: url(#linear-gradient-3);
      }

      .cls-8 {
        fill: url(#linear-gradient-4);
      }
    </style>
    <linearGradient id="linear-gradient" x1="795.87" y1="24.08" x2="687.72" y2="20.52" gradientUnits="userSpaceOnUse">
      <stop offset="0" stop-color="#7699ff"/>
      <stop offset="1" stop-color="#6100ff"/>
    </linearGradient>
    <linearGradient id="linear-gradient-2" x1="794.78" y1="57.25" x2="686.63" y2="53.7" xlink:href="#linear-gradient"/>
    <linearGradient id="linear-gradient-3" x1="795.74" y1="27.9" x2="687.6" y2="24.34" xlink:href="#linear-gradient"/>
    <linearGradient id="linear-gradient-4" x1="791.02" y1="154.35" x2="726.51" y2="152.23" gradientTransform="translate(-1.89 -74.33) rotate(-2.4)" xlink:href="#linear-gradient"/>
    <linearGradient id="linear-gradient-5" x1="114.4" y1="57.93" x2="641.33" y2="57.93" xlink:href="#linear-gradient"/>
    <linearGradient id="linear-gradient-6" x1="-3940" y1="59.89" x2="-2722.67" y2="59.89" gradientTransform="translate(-1554.67 117.77) rotate(-180)" gradientUnits="userSpaceOnUse">
      <stop offset="0" stop-color="#fff" stop-opacity="0"/>
      <stop offset=".28" stop-color="#ffcca9" stop-opacity=".34"/>
      <stop offset=".54" stop-color="#ffa060" stop-opacity=".62"/>
      <stop offset=".75" stop-color="#ff812c" stop-opacity=".83"/>
      <stop offset=".91" stop-color="#ff6e0c" stop-opacity=".95"/>
      <stop offset="1" stop-color="#ff6700"/>
    </linearGradient>
  </defs>
  <g id="Vocabulário_Técnico" data-name="Vocabulário Técnico">
    <g>
      <g>
        <path class="cls-2" d="M1180.2,51.22l-17.08-12.6-17.08-12.6c-.38-.28-.76-.48-1.15-.64-2.37-1.51-5.19-2.4-8.21-2.4h-486.68v69.82h486.68c3.02,0,5.84-.89,8.21-2.4.39-.16.78-.37,1.15-.64l17.08-12.6,17.08-12.6c4.02-2.96,4.02-10.37,0-13.34Z"/>
        <g>
          <path class="cls-1" d="M742.26,18.31c2.55,1.51,2.5,5.21-.08,6.66l-15.18,8.53-15.18,8.53c-2.58,1.45-5.76-.44-5.73-3.4l.21-17.41.21-17.41c.04-2.96,3.26-4.77,5.81-3.26l14.97,8.88,14.97,8.88Z"/>
          <path class="cls-6" d="M752.6,52.77c2.85,1.7,2.69,5.26-.3,6.69l-9.47,4.52-8.37,4c-3.25,1.55-7.32-.54-7.18-3.68l.42-9.31.42-9.31c.14-3.14,4.39-4.85,7.48-3.01l7.98,4.74,9.02,5.36Z"/>
          <path class="cls-7" d="M774.19,25.25c1.56.98,1.46,3.28-.17,4.12l-6.68,3.43-6.77,3.48c-1.62.83-3.53-.39-3.45-2.21l.31-7.46.31-7.46c.08-1.82,2.08-2.88,3.63-1.91l6.46,4.03,6.37,3.98Z"/>
          <path class="cls-8" d="M781.99,45.76c.95.54.95,1.92,0,2.46l-3.9,2.21-3.95,2.24c-.94.54-2.11-.15-2.11-1.23v-4.46s0-4.46,0-4.46c0-1.08,1.17-1.77,2.11-1.23l3.95,2.24,3.9,2.21Z"/>
        </g>
        <path class="cls-4" d="M707.76,50.59l-26.52-15.31-26.52-15.31c-1.8-1.04-3.75-1.33-5.57-1.03H0v78h649.15c1.82.3,3.76,0,5.57-1.03l26.52-15.31,26.52-15.31c5.65-3.26,5.65-11.43,0-14.69Z"/>
        <g>
          <path class="cls-5" d="M801.51,48.14l5.16,15.27,5.17-15.38c.27-.81.47-1.37.61-1.69.13-.32.36-.6.67-.85.31-.25.74-.38,1.27-.38.39,0,.76.1,1.1.29.34.2.6.46.79.78.19.33.29.66.29.99,0,.23-.03.47-.09.74-.06.26-.14.52-.23.78s-.19.51-.28.78l-5.52,14.88c-.2.57-.39,1.11-.59,1.62-.2.51-.42.96-.68,1.35-.26.39-.6.71-1.03.96-.43.25-.96.37-1.58.37s-1.15-.12-1.58-.37c-.43-.24-.78-.56-1.04-.96-.26-.4-.49-.85-.69-1.36-.2-.51-.39-1.05-.59-1.62l-5.42-14.76c-.09-.27-.19-.53-.29-.79-.1-.26-.18-.54-.25-.84-.07-.3-.1-.55-.1-.76,0-.53.21-1.01.64-1.44.42-.44.96-.65,1.6-.65.79,0,1.34.24,1.67.72.33.48.66,1.25,1,2.31Z"/>
          <path class="cls-5" d="M834.03,60.04c0,1.26-.2,2.43-.59,3.5-.39,1.07-.96,1.98-1.71,2.75-.75.77-1.64,1.35-2.67,1.76-1.04.41-2.2.61-3.5.61s-2.44-.21-3.46-.62-1.91-1.01-2.66-1.78-1.32-1.68-1.71-2.73c-.39-1.05-.58-2.21-.58-3.49s.2-2.46.59-3.53.96-1.98,1.69-2.73,1.63-1.34,2.67-1.75c1.05-.41,2.2-.61,3.46-.61s2.45.21,3.5.62c1.05.41,1.94,1,2.69,1.77s1.31,1.68,1.7,2.73c.39,1.06.58,2.22.58,3.5ZM829.77,60.04c0-1.73-.38-3.08-1.14-4.04s-1.78-1.45-3.07-1.45c-.83,0-1.56.22-2.19.65s-1.12,1.06-1.46,1.9c-.34.84-.51,1.82-.51,2.94s.17,2.08.5,2.91c.34.83.82,1.46,1.44,1.9.63.44,1.36.66,2.21.66,1.28,0,2.31-.48,3.07-1.45s1.14-2.31,1.14-4.02Z"/>
          <path class="cls-5" d="M852.58,63.41c0,.53-.16,1.09-.47,1.69-.32.6-.8,1.17-1.44,1.72-.65.54-1.46.98-2.45,1.31s-2.09.5-3.32.5c-2.62,0-4.67-.76-6.14-2.29-1.47-1.53-2.21-3.58-2.21-6.14,0-1.74.34-3.28,1.01-4.61.67-1.34,1.65-2.37,2.92-3.1,1.27-.73,2.8-1.09,4.57-1.09,1.1,0,2.11.16,3.02.48s1.69.74,2.33,1.24c.64.51,1.12,1.05,1.46,1.62.34.58.5,1.11.5,1.61s-.19.94-.57,1.29c-.38.35-.84.53-1.38.53-.35,0-.64-.09-.88-.27-.23-.18-.49-.47-.78-.88-.52-.79-1.06-1.38-1.62-1.77-.56-.39-1.28-.59-2.15-.59-1.25,0-2.26.49-3.03,1.47-.77.98-1.15,2.32-1.15,4.02,0,.8.1,1.53.3,2.2.2.67.48,1.24.85,1.71.37.47.82.83,1.35,1.07.53.24,1.11.36,1.74.36.85,0,1.58-.2,2.18-.59s1.14-.99,1.61-1.8c.26-.48.54-.85.84-1.12s.67-.4,1.1-.4c.52,0,.95.2,1.29.59s.51.81.51,1.26Z"/>
          <path class="cls-5" d="M867,66.27c-1.03.8-2.02,1.4-2.97,1.79-.96.4-2.03.6-3.22.6-1.09,0-2.04-.22-2.87-.64-.82-.43-1.46-1.01-1.9-1.75s-.67-1.53-.67-2.39c0-1.16.37-2.15,1.1-2.97s1.75-1.37,3.03-1.65c.27-.06.94-.2,2-.42,1.07-.22,1.98-.42,2.74-.6.76-.18,1.59-.4,2.48-.66-.05-1.12-.28-1.94-.68-2.46-.4-.52-1.22-.78-2.48-.78-1.08,0-1.89.15-2.43.45-.54.3-1.01.75-1.4,1.35-.39.6-.66,1-.82,1.19s-.5.29-1.03.29c-.48,0-.89-.15-1.24-.46s-.52-.7-.52-1.17c0-.75.26-1.47.79-2.17s1.35-1.28,2.47-1.74,2.51-.68,4.18-.68c1.87,0,3.33.22,4.4.66,1.07.44,1.82,1.14,2.26,2.09.44.95.66,2.22.66,3.79,0,.99,0,1.84,0,2.53,0,.69-.01,1.47-.02,2.31,0,.8.13,1.63.4,2.49.26.86.4,1.42.4,1.67,0,.43-.2.83-.61,1.19s-.87.54-1.39.54c-.44,0-.87-.21-1.29-.61s-.88-1-1.35-1.78ZM866.72,60.14c-.62.23-1.53.47-2.71.72-1.19.25-2.01.44-2.46.56-.46.12-.89.35-1.31.7-.41.35-.62.83-.62,1.45s.24,1.19.73,1.64c.49.45,1.12.68,1.91.68.84,0,1.61-.18,2.32-.55.71-.37,1.23-.84,1.56-1.42.38-.64.58-1.7.58-3.17v-.61Z"/>
          <path class="cls-5" d="M878.68,47.54v6.48c.8-.83,1.61-1.46,2.44-1.9.83-.44,1.85-.66,3.08-.66,1.41,0,2.64.33,3.71,1s1.88,1.64,2.47,2.91c.58,1.27.88,2.77.88,4.51,0,1.28-.16,2.46-.49,3.54-.33,1.07-.8,2-1.42,2.79-.62.79-1.38,1.4-2.26,1.83-.89.43-1.86.64-2.93.64-.65,0-1.27-.08-1.84-.23s-1.06-.36-1.47-.61c-.4-.25-.75-.52-1.03-.79-.29-.27-.66-.67-1.13-1.21v.42c0,.8-.19,1.4-.57,1.81-.38.41-.87.61-1.46.61s-1.08-.21-1.44-.61c-.36-.41-.54-1.01-.54-1.81v-18.52c0-.86.17-1.51.52-1.95.35-.44.83-.66,1.45-.66.65,0,1.16.21,1.51.63.35.42.53,1.02.53,1.79ZM878.89,60.14c0,1.69.39,2.99,1.16,3.89s1.78,1.36,3.04,1.36c1.07,0,1.99-.46,2.76-1.39s1.16-2.25,1.16-3.99c0-1.12-.16-2.08-.48-2.89-.32-.81-.78-1.43-1.37-1.87-.59-.44-1.28-.66-2.07-.66s-1.53.22-2.16.66c-.63.44-1.13,1.08-1.49,1.91-.36.83-.54,1.83-.54,2.98Z"/>
          <path class="cls-5" d="M905.25,66.27v-.54c-.51.64-1.04,1.18-1.6,1.62-.56.44-1.17.76-1.83.97-.66.21-1.42.32-2.27.32-1.03,0-1.94-.21-2.76-.64-.81-.42-1.44-1.01-1.89-1.76-.53-.9-.79-2.2-.79-3.88v-8.41c0-.85.19-1.48.58-1.9.38-.42.89-.63,1.52-.63s1.16.21,1.55.64c.39.42.59,1.06.59,1.9v6.79c0,.98.08,1.81.25,2.48.17.67.46,1.19.89,1.57.43.38,1.01.57,1.75.57s1.39-.21,2.02-.64,1.09-.98,1.38-1.66c.24-.6.36-1.92.36-3.95v-5.16c0-.84.2-1.47.59-1.9.39-.42.91-.64,1.54-.64s1.14.21,1.52.63c.38.42.57,1.05.57,1.9v12.29c0,.81-.18,1.41-.55,1.82-.37.4-.84.61-1.42.61s-1.06-.21-1.44-.63c-.38-.42-.57-1.01-.57-1.76Z"/>
          <path class="cls-5" d="M913.45,66.09v-18.39c0-.85.19-1.49.57-1.93.38-.44.89-.65,1.53-.65s1.16.21,1.55.64.59,1.07.59,1.93v18.39c0,.86-.2,1.5-.6,1.93-.4.43-.91.64-1.55.64s-1.13-.22-1.51-.67c-.39-.45-.58-1.08-.58-1.91Z"/>
          <path class="cls-5" d="M932.79,66.27c-1.03.8-2.02,1.4-2.97,1.79s-2.03.6-3.22.6c-1.09,0-2.04-.22-2.87-.64-.82-.43-1.46-1.01-1.9-1.75-.45-.74-.67-1.53-.67-2.39,0-1.16.37-2.15,1.1-2.97s1.75-1.37,3.03-1.65c.27-.06.94-.2,2-.42,1.07-.22,1.98-.42,2.74-.6.76-.18,1.59-.4,2.48-.66-.05-1.12-.28-1.94-.68-2.46-.4-.52-1.22-.78-2.48-.78-1.08,0-1.89.15-2.43.45s-1.01.75-1.4,1.35-.66,1-.82,1.19c-.16.19-.5.29-1.03.29-.48,0-.89-.15-1.24-.46s-.52-.7-.52-1.17c0-.75.26-1.47.79-2.17.53-.7,1.35-1.28,2.47-1.74s2.51-.68,4.18-.68c1.87,0,3.33.22,4.4.66,1.07.44,1.82,1.14,2.26,2.09.44.95.66,2.22.66,3.79,0,.99,0,1.84,0,2.53,0,.69-.01,1.47-.02,2.31,0,.8.13,1.63.4,2.49.26.86.4,1.42.4,1.67,0,.43-.2.83-.61,1.19s-.87.54-1.39.54c-.44,0-.87-.21-1.29-.61s-.88-1-1.35-1.78ZM932.52,60.14c-.62.23-1.53.47-2.71.72-1.19.25-2.01.44-2.46.56s-.89.35-1.3.7c-.41.35-.62.83-.62,1.45s.24,1.19.73,1.64c.49.45,1.12.68,1.91.68.84,0,1.61-.18,2.32-.55.71-.37,1.23-.84,1.56-1.42.38-.64.58-1.7.58-3.17v-.61ZM929.97,45.33h2.1c.53,0,.79.08.79.23,0,.08-.29.42-.87,1.01-.58.59-1.17,1.16-1.76,1.69-.59.54-1,.87-1.23.98-.59.3-1.22.45-1.9.45-.45,0-.67-.13-.67-.39,0-.18.13-.48.4-.92l.7-1.3c.4-.76.76-1.24,1.06-1.44.3-.21.76-.31,1.37-.31Z"/>
          <path class="cls-5" d="M945.19,62.54v3.54c0,.86-.2,1.5-.61,1.93-.4.43-.92.64-1.54.64s-1.11-.22-1.51-.65c-.39-.44-.59-1.08-.59-1.93v-11.81c0-1.91.69-2.86,2.07-2.86.7,0,1.21.22,1.52.67.31.45.48,1.1.51,1.97.51-.87,1.03-1.53,1.56-1.97s1.25-.67,2.14-.67,1.75.22,2.59.67c.84.45,1.26,1.04,1.26,1.77,0,.52-.18.95-.54,1.28s-.74.5-1.16.5c-.16,0-.53-.1-1.13-.29-.6-.19-1.12-.29-1.58-.29-.62,0-1.13.16-1.52.49-.39.33-.7.81-.92,1.45s-.37,1.41-.45,2.29c-.08.88-.12,1.96-.12,3.24Z"/>
          <path class="cls-5" d="M957.06,49.45c-.59,0-1.1-.18-1.52-.54-.42-.36-.63-.88-.63-1.54,0-.6.21-1.09.64-1.48s.93-.58,1.5-.58,1.04.18,1.46.53c.42.35.64.87.64,1.54s-.21,1.16-.62,1.53c-.41.37-.91.55-1.48.55ZM959.16,53.83v12.26c0,.85-.2,1.49-.61,1.93-.4.43-.92.65-1.54.65s-1.13-.22-1.51-.67c-.39-.45-.58-1.08-.58-1.91v-12.13c0-.84.19-1.47.58-1.9.39-.42.89-.64,1.51-.64s1.13.21,1.54.64.61,1.02.61,1.77Z"/>
          <path class="cls-5" d="M979.42,60.04c0,1.26-.2,2.43-.59,3.5-.39,1.07-.96,1.98-1.71,2.75-.75.77-1.64,1.35-2.67,1.76-1.04.41-2.2.61-3.5.61s-2.44-.21-3.46-.62-1.91-1.01-2.66-1.78-1.32-1.68-1.71-2.73c-.39-1.05-.58-2.21-.58-3.49s.2-2.46.59-3.53c.39-1.07.96-1.98,1.69-2.73s1.63-1.34,2.67-1.75,2.2-.61,3.46-.61,2.45.21,3.5.62,1.94,1,2.69,1.77c.75.77,1.31,1.68,1.7,2.73.39,1.06.58,2.22.58,3.5ZM975.16,60.04c0-1.73-.38-3.08-1.14-4.04-.76-.96-1.78-1.45-3.07-1.45-.83,0-1.56.22-2.19.65-.63.43-1.12,1.06-1.46,1.9-.34.84-.51,1.82-.51,2.94s.17,2.08.5,2.91c.34.83.82,1.46,1.45,1.9.63.44,1.36.66,2.21.66,1.28,0,2.31-.48,3.07-1.45.76-.97,1.14-2.31,1.14-4.02Z"/>
          <path class="cls-5" d="M990.95,51.79h.47v-2.55c0-.68.02-1.22.05-1.61.04-.39.14-.72.3-1,.17-.29.4-.53.71-.71s.66-.27,1.04-.27c.54,0,1.03.2,1.46.61.29.27.47.6.55.99.08.39.12.94.12,1.65v2.89h1.55c.6,0,1.06.14,1.38.43.32.29.47.65.47,1.1,0,.57-.22.97-.68,1.2-.45.23-1.09.34-1.93.34h-.79v7.8c0,.66.02,1.17.07,1.53s.17.65.37.87c.2.22.53.33.99.33.25,0,.58-.04,1.01-.13s.76-.13.99-.13c.34,0,.65.14.92.41s.41.61.41,1.02c0,.68-.37,1.21-1.12,1.57-.75.36-1.82.54-3.22.54-1.33,0-2.33-.22-3.01-.67s-1.13-1.06-1.34-1.85c-.21-.79-.32-1.84-.32-3.15v-8.14h-.56c-.61,0-1.08-.15-1.4-.44-.32-.29-.48-.66-.48-1.1s.17-.81.5-1.1c.34-.29.83-.43,1.47-.43Z"/>
          <path class="cls-5" d="M1013.82,61.08h-8.3c.01.96.21,1.81.58,2.55s.88,1.29,1.51,1.66c.63.37,1.32.56,2.07.56.51,0,.97-.06,1.39-.18.42-.12.83-.3,1.22-.56s.76-.53,1.09-.82c.33-.29.76-.68,1.29-1.18.22-.19.53-.28.93-.28.44,0,.79.12,1.06.36s.4.57.4,1.01c0,.38-.15.83-.45,1.34-.3.51-.75,1-1.36,1.48-.61.47-1.37.86-2.28,1.17-.92.31-1.97.47-3.16.47-2.72,0-4.84-.78-6.35-2.33-1.51-1.55-2.27-3.66-2.27-6.32,0-1.25.19-2.42.56-3.49.37-1.07.92-1.99,1.63-2.76s1.59-1.35,2.64-1.76c1.05-.41,2.21-.61,3.48-.61,1.66,0,3.08.35,4.26,1.05s2.07,1.6,2.67,2.71c.59,1.11.88,2.24.88,3.39,0,1.07-.31,1.76-.92,2.07-.61.32-1.47.47-2.58.47ZM1005.52,58.68h7.69c-.1-1.45-.49-2.53-1.17-3.25-.68-.72-1.57-1.08-2.68-1.08s-1.92.36-2.6,1.09-1.09,1.81-1.24,3.24ZM1009.87,45.33h2.1c.53,0,.79.08.79.23,0,.08-.29.42-.87,1.01-.58.59-1.17,1.16-1.76,1.69-.59.54-1,.87-1.23.98-.59.3-1.22.45-1.9.45-.45,0-.67-.13-.67-.39,0-.18.13-.48.4-.92l.7-1.3c.4-.76.76-1.24,1.06-1.44.3-.21.76-.31,1.37-.31Z"/>
          <path class="cls-5" d="M1036.1,63.41c0,.53-.16,1.09-.47,1.69-.32.6-.8,1.17-1.45,1.72-.65.54-1.46.98-2.45,1.31-.98.33-2.09.5-3.33.5-2.62,0-4.67-.76-6.14-2.29-1.47-1.53-2.21-3.58-2.21-6.14,0-1.74.34-3.28,1.01-4.61.67-1.34,1.65-2.37,2.92-3.1,1.27-.73,2.8-1.09,4.57-1.09,1.1,0,2.11.16,3.02.48.92.32,1.69.74,2.33,1.24s1.12,1.05,1.46,1.62c.34.58.5,1.11.5,1.61s-.19.94-.57,1.29c-.38.35-.84.53-1.38.53-.35,0-.64-.09-.88-.27s-.5-.47-.79-.88c-.52-.79-1.06-1.38-1.62-1.77-.56-.39-1.28-.59-2.15-.59-1.25,0-2.26.49-3.03,1.47s-1.15,2.32-1.15,4.02c0,.8.1,1.53.29,2.2.2.67.48,1.24.85,1.71.37.47.82.83,1.35,1.07.53.24,1.11.36,1.74.36.85,0,1.58-.2,2.18-.59.61-.39,1.14-.99,1.61-1.8.26-.48.54-.85.84-1.12s.67-.4,1.1-.4c.52,0,.95.2,1.29.59s.51.81.51,1.26Z"/>
          <path class="cls-5" d="M1043.65,53.77v.51c.75-.98,1.56-1.71,2.45-2.17s1.9-.69,3.05-.69,2.12.24,3,.73c.88.49,1.54,1.18,1.97,2.07.28.52.46,1.08.54,1.68s.12,1.37.12,2.3v7.89c0,.85-.19,1.49-.58,1.93-.39.43-.89.65-1.51.65s-1.14-.22-1.54-.67c-.39-.45-.59-1.08-.59-1.91v-7.07c0-1.4-.19-2.47-.58-3.21-.39-.74-1.16-1.11-2.32-1.11-.76,0-1.44.22-2.07.68-.62.45-1.08,1.07-1.37,1.86-.21.63-.31,1.81-.31,3.54v5.31c0,.86-.2,1.5-.6,1.93-.4.43-.92.64-1.55.64s-1.11-.22-1.51-.67-.59-1.08-.59-1.91v-12.26c0-.81.18-1.41.53-1.81.35-.4.83-.6,1.44-.6.37,0,.71.09,1.01.26.3.18.54.44.72.79.18.35.27.78.27,1.29Z"/>
          <path class="cls-5" d="M1061.15,49.45c-.59,0-1.1-.18-1.52-.54-.42-.36-.63-.88-.63-1.54,0-.6.21-1.09.64-1.48s.93-.58,1.5-.58,1.04.18,1.46.53c.42.35.64.87.64,1.54s-.21,1.16-.62,1.53c-.41.37-.91.55-1.48.55ZM1063.25,53.83v12.26c0,.85-.2,1.49-.61,1.93-.4.43-.92.65-1.54.65s-1.13-.22-1.51-.67c-.39-.45-.58-1.08-.58-1.91v-12.13c0-.84.19-1.47.58-1.9.39-.42.89-.64,1.51-.64s1.13.21,1.54.64.61,1.02.61,1.77Z"/>
          <path class="cls-5" d="M1082.84,63.41c0,.53-.16,1.09-.47,1.69-.32.6-.8,1.17-1.45,1.72-.65.54-1.46.98-2.45,1.31-.98.33-2.09.5-3.33.5-2.62,0-4.67-.76-6.14-2.29-1.47-1.53-2.21-3.58-2.21-6.14,0-1.74.34-3.28,1.01-4.61.67-1.34,1.65-2.37,2.92-3.1,1.27-.73,2.8-1.09,4.57-1.09,1.1,0,2.11.16,3.02.48.92.32,1.69.74,2.33,1.24s1.12,1.05,1.46,1.62c.34.58.5,1.11.5,1.61s-.19.94-.57,1.29c-.38.35-.84.53-1.38.53-.35,0-.64-.09-.88-.27s-.5-.47-.79-.88c-.52-.79-1.06-1.38-1.62-1.77-.56-.39-1.28-.59-2.15-.59-1.25,0-2.26.49-3.03,1.47s-1.15,2.32-1.15,4.02c0,.8.1,1.53.29,2.2.2.67.48,1.24.85,1.71.37.47.82.83,1.35,1.07.53.24,1.11.36,1.74.36.85,0,1.58-.2,2.18-.59.61-.39,1.14-.99,1.61-1.8.26-.48.54-.85.84-1.12s.67-.4,1.1-.4c.52,0,.95.2,1.29.59s.51.81.51,1.26Z"/>
          <path class="cls-5" d="M1102.42,60.04c0,1.26-.2,2.43-.59,3.5-.39,1.07-.96,1.98-1.71,2.75-.75.77-1.64,1.35-2.67,1.76-1.04.41-2.2.61-3.5.61s-2.44-.21-3.46-.62-1.91-1.01-2.66-1.78-1.32-1.68-1.71-2.73c-.39-1.05-.58-2.21-.58-3.49s.2-2.46.59-3.53c.39-1.07.96-1.98,1.69-2.73s1.63-1.34,2.67-1.75,2.2-.61,3.46-.61,2.45.21,3.5.62,1.94,1,2.69,1.77c.75.77,1.31,1.68,1.7,2.73.39,1.06.58,2.22.58,3.5ZM1098.16,60.04c0-1.73-.38-3.08-1.14-4.04-.76-.96-1.78-1.45-3.07-1.45-.83,0-1.56.22-2.19.65-.63.43-1.12,1.06-1.46,1.9-.34.84-.51,1.82-.51,2.94s.17,2.08.5,2.91c.34.83.82,1.46,1.45,1.9.63.44,1.36.66,2.21.66,1.28,0,2.31-.48,3.07-1.45.76-.97,1.14-2.31,1.14-4.02Z"/>
        </g>
      </g>
      <rect class="cls-3" x="1168" y="53.89" width="1217.33" height="8"/>
    </g>
  </g>
</svg>