<?xml version="1.0" encoding="UTF-8"?>
<svg id="Layer_2" data-name="Layer 2" xmlns="http://www.w3.org/2000/svg" xmlns:xlink="http://www.w3.org/1999/xlink" viewBox="0 0 1025 92.8">
  <defs>
    <style>
      .cls-1 {
        fill: url(#linear-gradient);
      }

      .cls-1, .cls-2, .cls-3, .cls-4, .cls-5, .cls-6, .cls-7, .cls-8 {
        stroke-width: 0px;
      }

      .cls-2 {
        fill: #ff6700;
      }

      .cls-3 {
        fill: url(#linear-gradient-6);
      }

      .cls-4 {
        fill: url(#linear-gradient-5);
      }

      .cls-5 {
        fill: #fff;
      }

      .cls-6 {
        fill: url(#linear-gradient-2);
      }

      .cls-7 {
        fill: url(#linear-gradient-3);
      }

      .cls-8 {
        fill: url(#linear-gradient-4);
      }
    </style>
    <linearGradient id="linear-gradient" x1="-8077.63" y1="-11145.47" x2="-8185.78" y2="-11149.02" gradientTransform="translate(-7166 11169.54) rotate(-180) scale(1 -1)" gradientUnits="userSpaceOnUse">
      <stop offset="0" stop-color="#7699ff"/>
      <stop offset="1" stop-color="#6100ff"/>
    </linearGradient>
    <linearGradient id="linear-gradient-2" x1="-8078.72" y1="-11112.29" x2="-8186.87" y2="-11115.85" xlink:href="#linear-gradient"/>
    <linearGradient id="linear-gradient-3" x1="-8077.76" y1="-11141.65" x2="-8185.9" y2="-11145.2" xlink:href="#linear-gradient"/>
    <linearGradient id="linear-gradient-4" x1="-7734.65" y1="-11457.67" x2="-7799.16" y2="-11459.79" gradientTransform="translate(-7294.66 11170.82) rotate(-177.6) scale(1 -1)" xlink:href="#linear-gradient"/>
    <linearGradient id="linear-gradient-5" x1="1000.24" y1="57.93" x2="1022.07" y2="57.93" gradientTransform="matrix(1,0,0,1,0,0)" xlink:href="#linear-gradient"/>
    <linearGradient id="linear-gradient-6" x1="0" y1="56.89" x2="534.83" y2="56.89" gradientUnits="userSpaceOnUse">
      <stop offset="0" stop-color="#fff" stop-opacity="0"/>
      <stop offset=".28" stop-color="#ffcca9" stop-opacity=".34"/>
      <stop offset=".54" stop-color="#ffa060" stop-opacity=".62"/>
      <stop offset=".75" stop-color="#ff812c" stop-opacity=".83"/>
      <stop offset=".91" stop-color="#ff6e0c" stop-opacity=".95"/>
      <stop offset="1" stop-color="#ff6700"/>
    </linearGradient>
  </defs>
  <g id="Clareza">
    <g>
      <g>
        <path class="cls-2" d="M1025,22.98v69.82h-454.18c-3.02,0-5.83-.89-8.21-2.4-.39-.16-.77-.36-1.15-.64l-17.08-12.6-17.08-12.6c-1.22-.9-2.07-2.2-2.54-3.67-.87-2.62-.54-5.76.96-8,.43-.64.96-1.21,1.58-1.67l17.08-12.6,17.08-12.6c.38-.27.76-.48,1.15-.64,2.38-1.51,5.19-2.4,8.21-2.4h454.18Z"/>
        <g>
          <path class="cls-1" d="M965.24,18.31c-2.55,1.51-2.5,5.21.08,6.66l15.18,8.53,15.18,8.53c2.58,1.45,5.76-.44,5.73-3.4l-.21-17.41-.21-17.41c-.04-2.96-3.26-4.77-5.81-3.26l-14.97,8.88-14.97,8.88Z"/>
          <path class="cls-6" d="M954.9,52.77c-2.85,1.7-2.69,5.26.3,6.69l9.47,4.52,8.37,4c3.25,1.55,7.32-.54,7.18-3.68l-.42-9.31-.42-9.31c-.14-3.14-4.39-4.85-7.48-3.01l-7.98,4.74-9.02,5.36Z"/>
          <path class="cls-7" d="M933.31,25.25c-1.56.98-1.46,3.28.17,4.12l6.68,3.43,6.77,3.48c1.62.83,3.53-.39,3.45-2.21l-.31-7.46-.31-7.46c-.08-1.82-2.08-2.88-3.63-1.91l-6.46,4.03-6.37,3.98Z"/>
          <path class="cls-8" d="M925.52,45.76c-.95.54-.95,1.92,0,2.46l3.9,2.21,3.95,2.24c.94.54,2.11-.15,2.11-1.23v-4.46s0-4.46,0-4.46c0-1.08-1.17-1.77-2.11-1.23l-3.95,2.24-3.9,2.21Z"/>
        </g>
        <path class="cls-4" d="M1025,36.01v43.85l-25.26-14.58c-5.65-3.26-5.65-11.42,0-14.69l25.26-14.58Z"/>
        <g>
          <path class="cls-5" d="M755.2,60.66c-.39-.39-.87-.58-1.41-.58-.65,0-1.11.19-1.4.57-.29.38-.54.87-.73,1.47-.47,1.27-1.16,2.24-2.08,2.89-.91.66-2.03.99-3.36.99-1.22,0-2.29-.29-3.2-.87-.91-.58-1.62-1.46-2.11-2.63-.5-1.18-.75-2.65-.75-4.42,0-2.65.56-4.7,1.69-6.14,1.12-1.44,2.63-2.16,4.53-2.16,1.19,0,2.19.28,3,.84.82.56,1.52,1.4,2.12,2.53.37.69.69,1.17.99,1.45.29.28.74.42,1.33.42.53,0,.98-.2,1.35-.61.37-.4.56-.87.56-1.4,0-.96-.39-1.98-1.15-3.07-.77-1.08-1.87-1.99-3.31-2.72-1.44-.74-3.08-1.1-4.93-1.1-1.51,0-2.93.26-4.27.8-1.33.54-2.5,1.33-3.49,2.36-1,1.03-1.76,2.27-2.29,3.72-.54,1.45-.81,3.09-.81,4.92,0,1.13.11,2.2.32,3.2.22,1.01.53,1.95.96,2.84.42.88.94,1.68,1.54,2.4.67.79,1.41,1.42,2.21,1.9s1.7.84,2.68,1.07c.98.22,2.08.34,3.28.34,1.58,0,2.97-.26,4.16-.76,1.19-.51,2.17-1.17,2.94-1.98.76-.82,1.33-1.65,1.68-2.49.36-.84.54-1.63.54-2.35,0-.57-.2-1.05-.59-1.43Z"/>
          <path class="cls-5" d="M763.29,46.76c-.39-.43-.91-.64-1.55-.64s-1.15.21-1.53.65c-.38.43-.57,1.07-.57,1.92v18.4c0,.83.2,1.46.59,1.91.38.45.89.67,1.51.67s1.15-.22,1.55-.65c.4-.43.59-1.07.59-1.93v-18.4c0-.86-.19-1.5-.59-1.93Z"/>
          <path class="cls-5" d="M783.24,66.27c-.27-.86-.4-1.69-.4-2.49,0-.85.02-1.62.02-2.32.01-.69.01-1.53.01-2.53,0-1.57-.22-2.84-.66-3.79s-1.19-1.65-2.26-2.09c-1.07-.44-2.53-.66-4.4-.66-1.67,0-3.06.23-4.18.68-1.12.46-1.94,1.04-2.47,1.75-.52.7-.79,1.42-.79,2.17,0,.48.17.87.52,1.17.35.31.76.46,1.24.46.52,0,.87-.09,1.03-.29.16-.19.43-.58.82-1.18.39-.61.86-1.06,1.4-1.36.55-.3,1.36-.45,2.43-.45,1.26,0,2.08.27,2.48.79.4.52.62,1.34.68,2.46-.89.26-1.72.48-2.48.66-.76.18-1.68.38-2.74.6-1.07.22-1.74.36-2.01.42-1.28.28-2.29.83-3.03,1.64-.73.82-1.1,1.81-1.1,2.97,0,.86.22,1.66.67,2.4.44.73,1.08,1.31,1.9,1.74.82.43,1.78.65,2.87.65,1.19,0,2.26-.2,3.22-.6.96-.4,1.95-1,2.98-1.79.47.77.92,1.36,1.35,1.77.42.41.85.62,1.29.62.51,0,.98-.18,1.39-.54.41-.36.61-.75.61-1.19,0-.25-.13-.8-.39-1.67ZM778.71,61.74c0,1.47-.2,2.53-.58,3.17-.33.58-.85,1.06-1.56,1.42-.71.37-1.48.56-2.32.56-.79,0-1.43-.23-1.91-.68-.49-.45-.73-1-.73-1.64s.2-1.1.62-1.45c.41-.35.85-.58,1.3-.7.46-.12,1.28-.31,2.47-.56,1.18-.25,2.08-.49,2.71-.72v.6Z"/>
          <path class="cls-5" d="M797.54,53.09c-.84-.44-1.71-.67-2.6-.67s-1.6.23-2.13.67c-.54.45-1.06,1.1-1.57,1.97-.03-.87-.2-1.52-.51-1.97-.31-.44-.82-.67-1.52-.67-1.38,0-2.07.96-2.07,2.86v11.81c0,.85.2,1.49.59,1.93.4.43.9.65,1.51.65s1.13-.22,1.54-.65c.4-.43.6-1.07.6-1.93v-3.54c0-1.28.05-2.36.13-3.24.08-.89.23-1.65.45-2.29.22-.65.52-1.13.92-1.46.39-.32.9-.49,1.52-.49.45,0,.98.1,1.57.29.6.19.98.29,1.13.29.42,0,.8-.17,1.16-.51.36-.33.53-.76.53-1.28,0-.73-.41-1.32-1.25-1.77Z"/>
          <path class="cls-5" d="M813.94,63.84c-.4,0-.71.09-.93.28-.53.5-.96.89-1.29,1.18-.33.29-.69.56-1.09.82-.39.25-.8.44-1.22.56-.42.12-.88.18-1.39.18-.75,0-1.44-.19-2.07-.56-.63-.38-1.13-.93-1.51-1.67-.38-.73-.57-1.58-.58-2.54h8.3c1.1,0,1.96-.16,2.58-.48.61-.31.91-1,.91-2.07,0-1.15-.29-2.28-.88-3.39-.59-1.11-1.48-2.01-2.67-2.71-1.18-.7-2.61-1.05-4.26-1.05-1.28,0-2.44.21-3.48.61-1.05.41-1.93,1-2.64,1.77-.72.76-1.26,1.68-1.64,2.76-.37,1.07-.55,2.23-.55,3.48,0,2.67.75,4.77,2.26,6.33,1.52,1.55,3.63,2.33,6.36,2.33,1.19,0,2.24-.16,3.16-.47.92-.31,1.68-.7,2.28-1.17.61-.47,1.06-.96,1.36-1.48.3-.51.45-.96.45-1.34,0-.44-.13-.77-.4-1.01s-.62-.36-1.06-.36ZM805.09,56.44c.68-.73,1.55-1.1,2.61-1.1s2,.36,2.68,1.08,1.07,1.81,1.17,3.26h-7.69c.14-1.43.56-2.51,1.23-3.24Z"/>
          <path class="cls-5" d="M832.4,66.44c-.34-.31-.85-.47-1.52-.47h-8.31l7.76-8.69c.29-.31.54-.57.73-.79.2-.23.36-.42.47-.57.11-.16.22-.36.31-.6.09-.24.14-.48.14-.71,0-.68-.24-1.15-.72-1.42-.48-.26-1.18-.39-2.08-.39h-9.74c-.62,0-1.1.14-1.43.43-.34.29-.51.68-.51,1.17,0,.66.22,1.07.67,1.22.44.16,1.1.24,1.97.24h6.31c-.26.36-.6.79-1.03,1.3s-.97,1.13-1.63,1.86c-.65.73-1.36,1.51-2.12,2.35-.76.84-1.61,1.78-2.54,2.81-.88.99-1.46,1.66-1.74,2.03-.28.37-.42.73-.42,1.1,0,.61.2,1.09.6,1.44.4.35,1,.53,1.81.53h11.5c.68,0,1.19-.15,1.53-.45.33-.3.5-.69.5-1.17s-.17-.9-.51-1.22Z"/>
          <path class="cls-5" d="M850.35,66.27c-.26-.86-.39-1.69-.39-2.49,0-.85,0-1.62.02-2.32,0-.69.01-1.53.01-2.53,0-1.57-.22-2.84-.66-3.79s-1.2-1.65-2.26-2.09c-1.07-.44-2.54-.66-4.4-.66-1.67,0-3.06.23-4.18.68-1.12.46-1.94,1.04-2.47,1.75-.53.7-.79,1.42-.79,2.17,0,.48.17.87.52,1.17.34.31.76.46,1.23.46.53,0,.87-.09,1.04-.29.16-.19.43-.58.82-1.18.39-.61.85-1.06,1.4-1.36.54-.3,1.35-.45,2.43-.45,1.25,0,2.08.27,2.48.79.39.52.62,1.34.67,2.46-.89.26-1.71.48-2.48.66-.76.18-1.67.38-2.74.6-1.06.22-1.73.36-2,.42-1.29.28-2.3.83-3.03,1.64-.74.82-1.1,1.81-1.1,2.97,0,.86.22,1.66.66,2.4.45.73,1.08,1.31,1.91,1.74.82.43,1.78.65,2.86.65,1.19,0,2.27-.2,3.23-.6.95-.4,1.95-1,2.97-1.79.48.77.93,1.36,1.35,1.77.43.41.86.62,1.29.62.52,0,.98-.18,1.39-.54.41-.36.62-.75.62-1.19,0-.25-.13-.8-.4-1.67ZM845.82,61.74c0,1.47-.19,2.53-.57,3.17-.33.58-.85,1.06-1.56,1.42-.71.37-1.49.56-2.33.56-.78,0-1.42-.23-1.91-.68-.48-.45-.73-1-.73-1.64s.21-1.1.62-1.45c.42-.35.85-.58,1.31-.7.45-.12,1.27-.31,2.46-.56s2.09-.49,2.71-.72v.6Z"/>
        </g>
      </g>
      <rect class="cls-3" y="52.89" width="534.83" height="8"/>
    </g>
  </g>
</svg>