<?xml version="1.0" encoding="UTF-8"?>
<svg id="Layer_2" data-name="Layer 2" xmlns="http://www.w3.org/2000/svg" xmlns:xlink="http://www.w3.org/1999/xlink" viewBox="0 0 1025 92.8">
  <defs>
    <style>
      .cls-1 {
        fill: url(#linear-gradient);
      }

      .cls-1, .cls-2, .cls-3, .cls-4, .cls-5, .cls-6, .cls-7, .cls-8 {
        stroke-width: 0px;
      }

      .cls-2 {
        fill: #ff6700;
      }

      .cls-3 {
        fill: url(#linear-gradient-6);
      }

      .cls-4 {
        fill: url(#linear-gradient-5);
      }

      .cls-5 {
        fill: #fff;
      }

      .cls-6 {
        fill: url(#linear-gradient-2);
      }

      .cls-7 {
        fill: url(#linear-gradient-3);
      }

      .cls-8 {
        fill: url(#linear-gradient-4);
      }
    </style>
    <linearGradient id="linear-gradient" x1="-8077.63" y1="-10365.46" x2="-8185.78" y2="-10369.02" gradientTransform="translate(8191 10389.54)" gradientUnits="userSpaceOnUse">
      <stop offset="0" stop-color="#7699ff"/>
      <stop offset="1" stop-color="#6100ff"/>
    </linearGradient>
    <linearGradient id="linear-gradient-2" x1="-8078.72" y1="-10332.29" x2="-8186.87" y2="-10335.85" xlink:href="#linear-gradient"/>
    <linearGradient id="linear-gradient-3" x1="-8077.76" y1="-10361.65" x2="-8185.9" y2="-10365.2" xlink:href="#linear-gradient"/>
    <linearGradient id="linear-gradient-4" x1="-7725.74" y1="-10677.49" x2="-7790.25" y2="-10679.61" gradientTransform="translate(8278.11 10391.69) rotate(-2.4)" xlink:href="#linear-gradient"/>
    <linearGradient id="linear-gradient-5" x1="4.74" y1="57.93" x2="26.57" y2="57.93" gradientTransform="matrix(1,0,0,1,0,0)" xlink:href="#linear-gradient"/>
    <linearGradient id="linear-gradient-6" x1="477.5" y1="56.98" x2="1025" y2="56.98" gradientTransform="translate(1502.5 113.95) rotate(-180)" gradientUnits="userSpaceOnUse">
      <stop offset="0" stop-color="#fff" stop-opacity="0"/>
      <stop offset=".28" stop-color="#ffcca9" stop-opacity=".34"/>
      <stop offset=".54" stop-color="#ffa060" stop-opacity=".62"/>
      <stop offset=".75" stop-color="#ff812c" stop-opacity=".83"/>
      <stop offset=".91" stop-color="#ff6e0c" stop-opacity=".95"/>
      <stop offset="1" stop-color="#ff6700"/>
    </linearGradient>
  </defs>
  <g id="Impessoalidade">
    <g>
      <g>
        <path class="cls-2" d="M500.21,60.98c-.48,1.43-1.32,2.7-2.51,3.58l-17.08,12.6-17.08,12.6c-.38.28-.76.48-1.15.64-2.38,1.51-5.19,2.4-8.21,2.4H0V22.98h454.18c3.02,0,5.83.89,8.21,2.4.39.16.77.37,1.15.64l17.08,12.6,17.08,12.6c.65.48,1.2,1.08,1.64,1.76,1.47,2.26,1.76,5.39.87,8Z"/>
        <g>
          <path class="cls-1" d="M59.76,18.31c2.55,1.51,2.5,5.21-.08,6.66l-15.18,8.53-15.18,8.53c-2.58,1.45-5.76-.44-5.73-3.4l.21-17.41.21-17.41c.04-2.96,3.26-4.77,5.81-3.26l14.97,8.88,14.97,8.88Z"/>
          <path class="cls-6" d="M70.1,52.77c2.85,1.7,2.69,5.26-.3,6.69l-9.47,4.52-8.37,4c-3.25,1.55-7.32-.54-7.18-3.68l.42-9.31.42-9.31c.14-3.14,4.39-4.85,7.48-3.01l7.98,4.74,9.02,5.36Z"/>
          <path class="cls-7" d="M91.69,25.25c1.56.98,1.46,3.28-.17,4.12l-6.68,3.43-6.77,3.48c-1.62.83-3.53-.39-3.45-2.21l.31-7.46.31-7.46c.08-1.82,2.08-2.88,3.63-1.91l6.46,4.03,6.37,3.98Z"/>
          <path class="cls-8" d="M99.49,45.76c.95.54.95,1.92,0,2.46l-3.9,2.21-3.95,2.24c-.94.54-2.11-.15-2.11-1.23v-4.46s0-4.46,0-4.46c0-1.08,1.17-1.77,2.11-1.23l3.95,2.24,3.9,2.21Z"/>
        </g>
        <path class="cls-4" d="M25.26,65.28L0,79.86v-43.85l25.26,14.58c5.65,3.27,5.65,11.43,0,14.69Z"/>
        <g>
          <path class="cls-5" d="M142.73,44.81c-.43-.46-.99-.69-1.68-.69s-1.22.23-1.65.7c-.42.46-.64,1.16-.64,2.09v17.95c0,.93.22,1.63.65,2.1.43.47.97.71,1.64.71s1.25-.23,1.68-.7.65-1.17.65-2.11v-17.95c0-.94-.22-1.64-.65-2.1Z"/>
          <path class="cls-5" d="M171.73,53.1c-.41-.85-1.04-1.51-1.88-1.96-.84-.46-1.84-.68-3-.68-.99,0-1.9.2-2.72.62-.81.42-1.58,1.07-2.3,1.94-.49-.86-1.12-1.5-1.89-1.93-.77-.42-1.68-.63-2.75-.63s-1.96.2-2.8.62c-.84.41-1.62,1.06-2.36,1.94v-.41c0-.68-.19-1.21-.58-1.6s-.87-.59-1.45-.59-1.09.21-1.46.63c-.36.41-.55,1.02-.55,1.81v12.14c0,.88.21,1.54.62,1.99.4.45.93.68,1.57.68s1.18-.23,1.58-.68c.4-.45.6-1.11.6-1.99v-5.74c0-1.78.22-3.14.66-4.1.44-.95,1.35-1.43,2.74-1.43.69,0,1.2.19,1.52.57.32.38.52.86.59,1.45.08.59.11,1.42.11,2.49v6.76c0,.89.2,1.56.6,2,.4.45.92.67,1.56.67s1.2-.22,1.6-.67c.41-.44.61-1.11.61-2v-5.64c0-1.81.15-3.08.46-3.79.28-.56.67-1.01,1.18-1.34.5-.33,1.03-.5,1.59-.5.69,0,1.21.19,1.55.56.34.38.55.84.63,1.39.08.54.12,1.27.12,2.19v7.13c0,.88.2,1.54.61,1.99.41.45.94.68,1.58.68s1.2-.22,1.6-.67c.4-.44.6-1.11.6-2v-8.28c0-1.65-.18-2.86-.54-3.62Z"/>
          <path class="cls-5" d="M191.92,54.42c-.64-1.3-1.5-2.28-2.6-2.95-1.1-.68-2.3-1.01-3.61-1.01-1.08,0-2.06.23-2.92.69-.86.46-1.69,1.18-2.48,2.16v-.51c0-.77-.19-1.35-.57-1.76-.38-.41-.87-.62-1.47-.62s-1.09.2-1.44.6c-.35.4-.53,1-.53,1.81v18.3c0,.93.13,1.63.39,2.11s.78.72,1.58.72c1.36,0,2.04-.93,2.04-2.8v-6.36c.74.94,1.53,1.65,2.35,2.14.82.49,1.84.73,3.05.73,1.01,0,1.95-.2,2.82-.6.88-.4,1.64-.97,2.28-1.71.64-.74,1.15-1.66,1.51-2.75.37-1.09.56-2.29.56-3.59,0-1.78-.32-3.31-.96-4.6ZM188.08,61.94c-.37.81-.85,1.43-1.45,1.84s-1.25.61-1.96.61c-1.18,0-2.17-.47-2.96-1.41-.8-.93-1.2-2.25-1.2-3.93,0-1.8.4-3.15,1.2-4.07.81-.93,1.79-1.39,2.96-1.39.74,0,1.41.22,2.02.65.6.43,1.07,1.04,1.42,1.85.34.8.51,1.76.51,2.88s-.18,2.15-.54,2.97Z"/>
          <path class="cls-5" d="M209.9,61.84c-.4,0-.71.1-.93.28-.53.5-.96.89-1.29,1.18-.33.29-.69.57-1.08.82-.4.25-.81.44-1.23.56-.42.12-.88.18-1.39.18-.75,0-1.44-.19-2.07-.56-.63-.37-1.13-.93-1.51-1.66-.38-.74-.57-1.59-.58-2.55h8.3c1.11,0,1.97-.16,2.58-.48.61-.31.91-1,.91-2.07,0-1.15-.29-2.28-.88-3.39-.59-1.11-1.48-2.01-2.67-2.71-1.18-.7-2.61-1.05-4.26-1.05-1.28,0-2.44.21-3.48.62-1.05.41-1.93.99-2.64,1.76-.72.77-1.26,1.69-1.63,2.76-.38,1.07-.56,2.23-.56,3.49,0,2.66.75,4.76,2.26,6.32,1.52,1.55,3.63,2.33,6.36,2.33,1.19,0,2.24-.16,3.16-.47.92-.31,1.68-.7,2.28-1.17.61-.47,1.06-.96,1.36-1.48.3-.51.45-.96.45-1.34,0-.44-.13-.77-.4-1.01-.27-.24-.62-.36-1.06-.36ZM201.06,54.44c.67-.73,1.54-1.09,2.6-1.09s2,.35,2.68,1.07c.68.73,1.07,1.81,1.17,3.26h-7.69c.15-1.43.56-2.51,1.24-3.24Z"/>
          <path class="cls-5" d="M228.2,60.05c-.43-.61-1.06-1.13-1.9-1.58-.83-.44-1.91-.83-3.22-1.15-1.11-.27-1.98-.5-2.61-.68-.63-.19-1.14-.42-1.51-.71-.37-.28-.56-.65-.56-1.09,0-.49.26-.9.76-1.22.51-.33,1.15-.49,1.91-.49s1.34.12,1.78.37c.43.25.81.58,1.13.99.39.5.74.87,1.05,1.12.3.25.67.38,1.11.38.6,0,1.06-.16,1.39-.47.33-.31.49-.71.49-1.2,0-.44-.15-.9-.46-1.36-.3-.47-.75-.89-1.33-1.28-.59-.38-1.32-.69-2.2-.91-.87-.23-1.86-.35-2.96-.35-1.39,0-2.59.23-3.58.68-.99.45-1.73,1.05-2.24,1.81s-.76,1.56-.76,2.41c0,.95.27,1.75.82,2.41.55.65,1.28,1.17,2.2,1.57.92.4,2.1.78,3.56,1.14,1.3.32,2.23.64,2.79.98.57.35.85.89.85,1.64,0,.48-.27.91-.82,1.29-.54.38-1.24.57-2.09.57-1.04,0-1.87-.19-2.47-.56-.61-.37-1.13-.94-1.56-1.69-.22-.4-.45-.7-.69-.92s-.58-.33-1.02-.33c-.51,0-.93.17-1.26.5s-.5.73-.5,1.2c0,.7.26,1.4.78,2.1.52.7,1.32,1.28,2.41,1.75,1.08.47,2.39.7,3.91.7,1.6,0,2.95-.22,4.06-.65,1.12-.42,1.96-1.06,2.53-1.89.57-.83.85-1.84.85-3.01,0-.77-.21-1.47-.64-2.07Z"/>
          <path class="cls-5" d="M245.44,60.05c-.43-.61-1.06-1.13-1.89-1.58-.84-.44-1.91-.83-3.23-1.15-1.1-.27-1.97-.5-2.61-.68-.63-.19-1.13-.42-1.5-.71-.38-.28-.56-.65-.56-1.09,0-.49.25-.9.76-1.22.51-.33,1.14-.49,1.91-.49s1.34.12,1.77.37c.44.25.81.58,1.14.99.39.5.74.87,1.04,1.12.31.25.68.38,1.11.38.6,0,1.07-.16,1.39-.47.33-.31.49-.71.49-1.2,0-.44-.15-.9-.45-1.36-.31-.47-.75-.89-1.34-1.28-.59-.38-1.32-.69-2.19-.91-.88-.23-1.86-.35-2.96-.35-1.4,0-2.59.23-3.58.68-.99.45-1.74,1.05-2.25,1.81-.5.76-.76,1.56-.76,2.41,0,.95.28,1.75.83,2.41.54.65,1.28,1.17,2.19,1.57.92.4,2.11.78,3.57,1.14,1.29.32,2.22.64,2.79.98.56.35.84.89.84,1.64,0,.48-.27.91-.81,1.29-.54.38-1.24.57-2.09.57-1.05,0-1.87-.19-2.48-.56-.6-.37-1.12-.94-1.56-1.69-.22-.4-.45-.7-.68-.92-.24-.22-.58-.33-1.03-.33-.51,0-.93.17-1.26.5-.33.33-.49.73-.49,1.2,0,.7.25,1.4.77,2.1s1.32,1.28,2.41,1.75c1.09.47,2.39.7,3.92.7s2.95-.22,4.06-.65c1.11-.42,1.95-1.06,2.52-1.89.57-.83.86-1.84.86-3.01,0-.77-.22-1.47-.65-2.07Z"/>
          <path class="cls-5" d="M264.97,55.55c-.39-1.06-.95-1.97-1.7-2.73-.75-.77-1.64-1.36-2.69-1.77-1.04-.42-2.21-.63-3.49-.63s-2.42.21-3.47.62c-1.04.41-1.93.99-2.67,1.75-.73.75-1.3,1.66-1.69,2.73-.4,1.07-.59,2.24-.59,3.53s.19,2.43.58,3.48c.39,1.06.96,1.97,1.71,2.74s1.64,1.36,2.66,1.78c1.03.41,2.18.62,3.47.62s2.46-.21,3.49-.61c1.04-.41,1.93-1,2.68-1.77.74-.76,1.31-1.68,1.7-2.75.4-1.06.59-2.23.59-3.49s-.19-2.44-.58-3.5ZM260.16,63.06c-.77.97-1.79,1.46-3.07,1.46-.85,0-1.59-.22-2.22-.66-.62-.45-1.1-1.08-1.44-1.91-.34-.83-.51-1.8-.51-2.9s.17-2.1.52-2.94c.34-.84.83-1.47,1.46-1.9s1.36-.65,2.19-.65c1.28,0,2.3.48,3.07,1.45.76.96,1.14,2.31,1.14,4.04s-.38,3.04-1.14,4.01Z"/>
          <path class="cls-5" d="M283.86,64.27c-.26-.86-.39-1.69-.39-2.49.01-.85.01-1.62.02-2.31.01-.7.01-1.54.01-2.54,0-1.57-.22-2.83-.66-3.79-.44-.95-1.2-1.65-2.26-2.09-1.07-.44-2.53-.66-4.4-.66-1.67,0-3.06.23-4.18.69-1.12.45-1.94,1.03-2.47,1.74-.53.7-.79,1.43-.79,2.17,0,.48.17.87.52,1.17.35.31.76.46,1.23.46.53,0,.88-.09,1.04-.28.16-.2.43-.59.82-1.19.39-.6.86-1.05,1.4-1.35.54-.31,1.35-.45,2.43-.45,1.25,0,2.08.26,2.48.78.4.52.62,1.34.67,2.46-.89.26-1.71.48-2.47.66-.76.18-1.68.38-2.75.6-1.06.22-1.73.36-2,.42-1.28.28-2.29.83-3.03,1.65-.73.81-1.1,1.8-1.1,2.96,0,.86.22,1.66.67,2.4.44.73,1.08,1.32,1.9,1.74.82.43,1.78.65,2.87.65,1.19,0,2.26-.2,3.22-.6.96-.4,1.95-1,2.97-1.79.48.77.93,1.37,1.36,1.78.42.4.85.61,1.29.61.51,0,.98-.18,1.39-.54.41-.35.61-.75.61-1.19,0-.24-.13-.8-.4-1.67ZM279.33,59.75c0,1.47-.19,2.52-.57,3.17-.33.58-.85,1.05-1.56,1.42-.71.36-1.49.55-2.32.55s-1.43-.23-1.92-.68c-.48-.45-.73-.99-.73-1.64s.21-1.1.63-1.45c.41-.35.84-.58,1.3-.7.46-.12,1.28-.3,2.46-.56,1.19-.25,2.09-.49,2.71-.72v.61Z"/>
          <path class="cls-5" d="M291.45,44.76c-.39-.43-.91-.64-1.55-.64s-1.15.21-1.53.65c-.38.43-.57,1.08-.57,1.93v18.39c0,.83.2,1.47.58,1.91.39.45.9.67,1.52.67s1.15-.22,1.54-.65c.4-.42.6-1.07.6-1.93v-18.39c0-.86-.19-1.51-.59-1.94Z"/>
          <path class="cls-5" d="M300.03,44.83c-.43-.35-.91-.53-1.46-.53s-1.07.2-1.5.59c-.43.38-.65.88-.65,1.48,0,.66.21,1.17.63,1.54.42.36.93.54,1.52.54s1.06-.18,1.47-.55c.42-.37.63-.88.63-1.53s-.22-1.19-.64-1.54ZM300.06,51.06c-.4-.42-.92-.64-1.54-.64s-1.12.22-1.51.64c-.39.43-.59,1.06-.59,1.9v12.13c0,.83.2,1.47.59,1.91.39.45.89.67,1.51.67s1.14-.22,1.54-.65c.4-.44.61-1.08.61-1.93v-12.26c0-.75-.21-1.34-.61-1.77Z"/>
          <path class="cls-5" d="M320.16,44.73c-.35-.41-.85-.61-1.49-.61s-1.14.22-1.48.66c-.35.45-.52,1.11-.52,1.98v6.26c-.8-.87-1.62-1.52-2.46-1.94-.84-.42-1.87-.62-3.09-.62-2.11,0-3.82.74-5.11,2.22-1.29,1.48-1.94,3.54-1.94,6.2,0,1.25.16,2.41.49,3.49.32,1.08.8,2.02,1.43,2.81.64.8,1.38,1.42,2.25,1.84.86.43,1.8.65,2.82.65.77,0,1.47-.11,2.12-.32.65-.21,1.25-.52,1.8-.93.56-.41,1.12-.94,1.69-1.59v.42c0,.77.19,1.37.56,1.79.38.42.86.63,1.44.63s1.07-.2,1.45-.61c.37-.4.56-1.01.56-1.81v-18.71c0-.8-.18-1.4-.52-1.81ZM315.88,62.02c-.36.8-.86,1.4-1.47,1.79-.62.39-1.3.58-2.05.58s-1.41-.2-2.03-.61-1.11-1.02-1.47-1.83-.54-1.78-.54-2.93c0-1.09.17-2.05.51-2.87.34-.82.81-1.46,1.42-1.9s1.31-.66,2.08-.66,1.44.22,2.06.65c.63.43,1.13,1.05,1.49,1.86.37.82.55,1.79.55,2.92,0,1.2-.18,2.2-.55,3Z"/>
          <path class="cls-5" d="M339.9,64.27c-.26-.86-.39-1.69-.39-2.49.01-.85.01-1.62.02-2.31,0-.7,0-1.54,0-2.54,0-1.57-.22-2.83-.66-3.79-.44-.95-1.2-1.65-2.26-2.09-1.07-.44-2.54-.66-4.4-.66-1.67,0-3.06.23-4.18.69-1.12.45-1.94,1.03-2.47,1.74-.53.7-.79,1.43-.79,2.17,0,.48.17.87.52,1.17.35.31.76.46,1.23.46.53,0,.88-.09,1.04-.28.16-.2.43-.59.82-1.19.39-.6.85-1.05,1.4-1.35.54-.31,1.35-.45,2.43-.45,1.25,0,2.08.26,2.48.78.4.52.62,1.34.67,2.46-.89.26-1.71.48-2.47.66-.77.18-1.68.38-2.75.6-1.06.22-1.73.36-2,.42-1.29.28-2.3.83-3.03,1.65-.74.81-1.1,1.8-1.1,2.96,0,.86.22,1.66.67,2.4.44.73,1.07,1.32,1.9,1.74.82.43,1.78.65,2.86.65,1.2,0,2.27-.2,3.23-.6.96-.4,1.95-1,2.97-1.79.48.77.93,1.37,1.35,1.78.43.4.86.61,1.29.61.52,0,.99-.18,1.4-.54.4-.35.61-.75.61-1.19,0-.24-.13-.8-.4-1.67ZM335.37,59.75c0,1.47-.19,2.52-.57,3.17-.33.58-.85,1.05-1.56,1.42-.71.36-1.49.55-2.33.55-.78,0-1.42-.23-1.91-.68-.48-.45-.73-.99-.73-1.64s.21-1.1.63-1.45c.41-.35.84-.58,1.3-.7.46-.12,1.28-.3,2.46-.56,1.19-.25,2.09-.49,2.71-.72v.61Z"/>
          <path class="cls-5" d="M358.95,44.73c-.35-.41-.84-.61-1.48-.61s-1.14.22-1.49.66c-.34.45-.52,1.11-.52,1.98v6.26c-.8-.87-1.61-1.52-2.45-1.94-.84-.42-1.87-.62-3.09-.62-2.12,0-3.82.74-5.12,2.22-1.29,1.48-1.94,3.54-1.94,6.2,0,1.25.16,2.41.49,3.49.33,1.08.81,2.02,1.44,2.81.63.8,1.38,1.42,2.24,1.84.87.43,1.81.65,2.82.65.77,0,1.48-.11,2.12-.32.65-.21,1.25-.52,1.81-.93.55-.41,1.11-.94,1.68-1.59v.42c0,.77.19,1.37.57,1.79.38.42.86.63,1.44.63s1.07-.2,1.44-.61c.37-.4.56-1.01.56-1.81v-18.71c0-.8-.17-1.4-.52-1.81ZM354.68,62.02c-.37.8-.86,1.4-1.48,1.79-.62.39-1.3.58-2.04.58s-1.42-.2-2.04-.61-1.11-1.02-1.47-1.83c-.35-.81-.53-1.78-.53-2.93,0-1.09.17-2.05.5-2.87.34-.82.81-1.46,1.43-1.9.61-.44,1.3-.66,2.08-.66.74,0,1.43.22,2.06.65.62.43,1.12,1.05,1.49,1.86.36.82.55,1.79.55,2.92,0,1.2-.19,2.2-.55,3Z"/>
          <path class="cls-5" d="M377.35,61.84c-.4,0-.71.1-.93.28-.53.5-.96.89-1.29,1.18-.33.29-.69.57-1.09.82-.39.25-.8.44-1.22.56-.42.12-.88.18-1.39.18-.75,0-1.44-.19-2.07-.56-.63-.37-1.13-.93-1.51-1.66-.38-.74-.57-1.59-.58-2.55h8.3c1.1,0,1.96-.16,2.58-.48.61-.31.91-1,.91-2.07,0-1.15-.29-2.28-.88-3.39-.59-1.11-1.48-2.01-2.67-2.71-1.18-.7-2.61-1.05-4.26-1.05-1.28,0-2.44.21-3.48.62-1.05.41-1.93.99-2.64,1.76-.72.77-1.26,1.69-1.64,2.76-.37,1.07-.55,2.23-.55,3.49,0,2.66.75,4.76,2.26,6.32,1.52,1.55,3.63,2.33,6.36,2.33,1.19,0,2.24-.16,3.16-.47.92-.31,1.68-.7,2.28-1.17.61-.47,1.06-.96,1.36-1.48.3-.51.45-.96.45-1.34,0-.44-.13-.77-.4-1.01-.27-.24-.62-.36-1.06-.36ZM368.5,54.44c.68-.73,1.55-1.09,2.61-1.09s2,.35,2.68,1.07c.68.73,1.07,1.81,1.17,3.26h-7.69c.14-1.43.56-2.51,1.23-3.24Z"/>
        </g>
      </g>
      <rect class="cls-3" x="477.5" y="52.98" width="547.5" height="8"/>
    </g>
  </g>
</svg>