<?xml version="1.0" encoding="UTF-8"?>
<svg id="Layer_2" data-name="Layer 2" xmlns="http://www.w3.org/2000/svg" xmlns:xlink="http://www.w3.org/1999/xlink" viewBox="0 0 1025 92.8">
  <defs>
    <style>
      .cls-1 {
        fill: url(#linear-gradient);
      }

      .cls-1, .cls-2, .cls-3, .cls-4, .cls-5, .cls-6, .cls-7, .cls-8 {
        stroke-width: 0px;
      }

      .cls-2 {
        fill: #ff6700;
      }

      .cls-3 {
        fill: url(#linear-gradient-6);
      }

      .cls-4 {
        fill: url(#linear-gradient-5);
      }

      .cls-5 {
        fill: #fff;
      }

      .cls-6 {
        fill: url(#linear-gradient-2);
      }

      .cls-7 {
        fill: url(#linear-gradient-3);
      }

      .cls-8 {
        fill: url(#linear-gradient-4);
      }
    </style>
    <linearGradient id="linear-gradient" x1="-8077.63" y1="-9555.47" x2="-8185.78" y2="-9559.02" gradientTransform="translate(-7166 9579.54) rotate(-180) scale(1 -1)" gradientUnits="userSpaceOnUse">
      <stop offset="0" stop-color="#7699ff"/>
      <stop offset="1" stop-color="#6100ff"/>
    </linearGradient>
    <linearGradient id="linear-gradient-2" x1="-8078.72" y1="-9522.29" x2="-8186.87" y2="-9525.85" xlink:href="#linear-gradient"/>
    <linearGradient id="linear-gradient-3" x1="-8077.76" y1="-9551.65" x2="-8185.9" y2="-9555.2" xlink:href="#linear-gradient"/>
    <linearGradient id="linear-gradient-4" x1="-7719.51" y1="-9867.36" x2="-7784.01" y2="-9869.48" gradientTransform="translate(-7212.98 9582.53) rotate(-177.6) scale(1 -1)" xlink:href="#linear-gradient"/>
    <linearGradient id="linear-gradient-5" x1="1000.24" y1="57.98" x2="1022.07" y2="57.98" gradientTransform="matrix(1,0,0,1,0,0)" xlink:href="#linear-gradient"/>
    <linearGradient id="linear-gradient-6" x1="0" y1="57.89" x2="534.83" y2="57.89" gradientUnits="userSpaceOnUse">
      <stop offset="0" stop-color="#fff" stop-opacity="0"/>
      <stop offset=".28" stop-color="#ffcca9" stop-opacity=".34"/>
      <stop offset=".54" stop-color="#ffa060" stop-opacity=".62"/>
      <stop offset=".75" stop-color="#ff812c" stop-opacity=".83"/>
      <stop offset=".91" stop-color="#ff6e0c" stop-opacity=".95"/>
      <stop offset="1" stop-color="#ff6700"/>
    </linearGradient>
  </defs>
  <g id="Formalidade">
    <g>
      <g>
        <path class="cls-2" d="M1025,79.91V22.98h-454.18c-3.02,0-5.83.89-8.21,2.4-.39.16-.77.37-1.15.64l-17.08,12.6-17.08,12.6c-.93.69-1.65,1.61-2.14,2.67-1.16,2.44-1.16,5.56,0,8,.49,1.06,1.21,1.98,2.14,2.67l17.08,12.6,17.08,12.6c.38.28.76.48,1.15.64,2.38,1.51,5.19,2.4,8.21,2.4h454.18v-12.89Z"/>
        <g>
          <path class="cls-1" d="M965.24,18.31c-2.55,1.51-2.5,5.21.08,6.66l15.18,8.53,15.18,8.53c2.58,1.45,5.76-.44,5.73-3.4l-.21-17.41-.21-17.41c-.04-2.96-3.26-4.77-5.81-3.26l-14.97,8.88-14.97,8.88Z"/>
          <path class="cls-6" d="M954.9,52.77c-2.85,1.7-2.69,5.26.3,6.69l9.47,4.52,8.37,4c3.25,1.55,7.32-.54,7.18-3.68l-.42-9.31-.42-9.31c-.14-3.14-4.39-4.85-7.48-3.01l-7.98,4.74-9.02,5.36Z"/>
          <path class="cls-7" d="M933.31,25.25c-1.56.98-1.46,3.28.17,4.12l6.68,3.43,6.77,3.48c1.62.83,3.53-.39,3.45-2.21l-.31-7.46-.31-7.46c-.08-1.82-2.08-2.88-3.63-1.91l-6.46,4.03-6.37,3.98Z"/>
          <path class="cls-8" d="M925.52,45.76c-.95.54-.95,1.92,0,2.46l3.9,2.21,3.95,2.24c.94.54,2.11-.15,2.11-1.23v-4.46s0-4.46,0-4.46c0-1.08-1.17-1.77-2.11-1.23l-3.95,2.24-3.9,2.21Z"/>
        </g>
        <path class="cls-4" d="M1025,36.05v43.86l-25.26-14.58c-5.65-3.27-5.65-11.43,0-14.7l25.26-14.58Z"/>
        <g>
          <path class="cls-5" d="M710.42,49.06c.74,0,1.28-.16,1.64-.49.36-.32.54-.76.54-1.29s-.18-.96-.54-1.29c-.36-.32-.9-.49-1.64-.49h-10.88c-.65,0-1.18.1-1.6.29s-.73.5-.93.92c-.19.42-.29.96-.29,1.62v17.53c0,.94.21,1.64.64,2.11s.99.7,1.67.7,1.23-.23,1.66-.69.64-1.17.64-2.12v-7.51h7.6c.69,0,1.22-.15,1.57-.46.35-.31.53-.73.53-1.26s-.18-.95-.52-1.27c-.35-.31-.88-.47-1.58-.47h-7.6v-5.83h9.09Z"/>
          <path class="cls-5" d="M729.82,56.55c-.39-1.06-.96-1.97-1.7-2.73-.75-.77-1.65-1.36-2.69-1.77-1.05-.42-2.21-.63-3.5-.63s-2.42.21-3.46.62c-1.05.41-1.94.99-2.67,1.75-.74.75-1.3,1.66-1.7,2.73-.39,1.07-.59,2.24-.59,3.53s.2,2.43.58,3.48c.39,1.06.96,1.97,1.71,2.74s1.64,1.36,2.67,1.78c1.02.41,2.18.62,3.46.62s2.46-.21,3.5-.61c1.03-.41,1.92-1,2.67-1.77.75-.76,1.32-1.68,1.71-2.75.39-1.06.59-2.23.59-3.49s-.19-2.44-.58-3.5ZM725,64.06c-.76.97-1.78,1.46-3.07,1.46-.85,0-1.58-.22-2.21-.66-.63-.45-1.11-1.08-1.45-1.91-.33-.83-.5-1.8-.5-2.9s.17-2.1.51-2.94c.34-.84.83-1.47,1.46-1.9s1.36-.65,2.19-.65c1.29,0,2.31.48,3.07,1.45.76.96,1.14,2.31,1.14,4.04s-.38,3.04-1.14,4.01Z"/>
          <path class="cls-5" d="M744.1,52.09c-.84-.44-1.7-.67-2.59-.67s-1.6.23-2.14.67c-.53.45-1.05,1.1-1.56,1.97-.03-.87-.2-1.52-.51-1.97-.31-.44-.82-.67-1.52-.67-1.38,0-2.07.96-2.07,2.86v11.81c0,.85.2,1.49.59,1.93.39.43.9.65,1.51.65s1.13-.22,1.53-.65c.41-.42.61-1.07.61-1.93v-3.54c0-1.28.04-2.36.13-3.24.08-.89.23-1.65.45-2.29.21-.65.52-1.13.91-1.46.39-.32.9-.49,1.52-.49.46,0,.99.1,1.58.29.6.19.97.29,1.13.29.41,0,.8-.17,1.16-.5.35-.34.53-.77.53-1.29,0-.73-.42-1.32-1.26-1.77Z"/>
          <path class="cls-5" d="M771.17,54.1c-.42-.85-1.04-1.51-1.88-1.96-.84-.46-1.84-.68-3-.68-1,0-1.9.2-2.72.62-.82.42-1.58,1.07-2.3,1.94-.5-.86-1.13-1.5-1.89-1.93-.77-.42-1.69-.63-2.76-.63s-1.95.2-2.79.62c-.84.41-1.63,1.06-2.36,1.94v-.41c0-.68-.2-1.21-.59-1.6-.38-.39-.87-.59-1.45-.59s-1.08.21-1.45.63c-.37.41-.55,1.02-.55,1.81v12.14c0,.88.2,1.54.61,1.99.41.45.94.68,1.58.68s1.18-.23,1.58-.68c.39-.45.59-1.11.59-1.99v-5.74c0-1.78.22-3.14.66-4.1.44-.95,1.36-1.43,2.75-1.43.69,0,1.2.19,1.52.57.32.38.52.86.59,1.45.07.59.11,1.42.11,2.49v6.76c0,.89.2,1.56.6,2,.39.45.91.67,1.56.67s1.19-.22,1.6-.67c.4-.44.6-1.11.6-2v-5.64c0-1.81.16-3.08.47-3.79.28-.56.67-1.01,1.17-1.34s1.04-.5,1.59-.5c.7,0,1.22.19,1.56.56.34.38.55.84.63,1.39.07.54.11,1.27.11,2.19v7.13c0,.88.21,1.54.62,1.99.41.45.93.68,1.57.68s1.2-.22,1.6-.67c.41-.44.61-1.11.61-2v-8.28c0-1.65-.18-2.86-.54-3.62Z"/>
          <path class="cls-5" d="M790.8,65.27c-.27-.86-.4-1.69-.4-2.49,0-.85.02-1.62.02-2.31.01-.7.01-1.54.01-2.54,0-1.57-.22-2.83-.66-3.79-.44-.95-1.19-1.65-2.26-2.09-1.07-.44-2.53-.66-4.4-.66-1.66,0-3.06.23-4.18.69-1.11.45-1.94,1.03-2.47,1.74-.52.7-.79,1.43-.79,2.17,0,.48.18.87.52,1.17.35.31.76.46,1.24.46.53,0,.87-.09,1.03-.28.16-.2.44-.59.82-1.19.39-.6.86-1.05,1.4-1.35.55-.31,1.36-.45,2.43-.45,1.26,0,2.08.26,2.48.78.4.52.63,1.34.68,2.46-.89.26-1.72.48-2.48.66-.76.18-1.68.38-2.74.6-1.07.22-1.74.36-2.01.42-1.28.28-2.29.83-3.03,1.65-.73.81-1.1,1.8-1.1,2.96,0,.86.22,1.66.67,2.4.44.73,1.08,1.32,1.9,1.74.83.43,1.78.65,2.87.65,1.19,0,2.26-.2,3.22-.6.96-.4,1.95-1,2.98-1.79.47.77.92,1.37,1.35,1.78.42.4.85.61,1.29.61.52,0,.98-.18,1.39-.54.41-.35.61-.75.61-1.19,0-.24-.13-.8-.39-1.67ZM786.27,60.75c0,1.47-.19,2.52-.58,3.17-.33.58-.85,1.05-1.56,1.42-.71.36-1.48.55-2.32.55-.79,0-1.43-.23-1.91-.68-.49-.45-.73-.99-.73-1.64s.21-1.1.62-1.45c.41-.35.85-.58,1.3-.7.46-.12,1.28-.3,2.47-.56,1.18-.25,2.09-.49,2.71-.72v.61Z"/>
          <path class="cls-5" d="M798.39,45.76c-.4-.43-.92-.64-1.56-.64s-1.15.21-1.53.65c-.38.43-.56,1.08-.56,1.93v18.39c0,.83.19,1.47.58,1.91.39.45.89.67,1.51.67s1.15-.22,1.55-.65c.4-.42.6-1.07.6-1.93v-18.39c0-.86-.2-1.51-.59-1.94Z"/>
          <path class="cls-5" d="M806.96,45.83c-.42-.35-.91-.53-1.46-.53s-1.07.2-1.5.59c-.43.38-.64.88-.64,1.48,0,.66.21,1.17.63,1.54.42.36.92.54,1.51.54s1.06-.18,1.48-.55c.41-.37.62-.88.62-1.53s-.21-1.19-.64-1.54ZM806.99,52.06c-.4-.42-.91-.64-1.53-.64s-1.13.22-1.52.64c-.39.43-.58,1.06-.58,1.9v12.13c0,.83.19,1.47.58,1.91.39.45.89.67,1.52.67s1.13-.22,1.53-.65c.41-.44.61-1.08.61-1.93v-12.26c0-.75-.2-1.34-.61-1.77Z"/>
          <path class="cls-5" d="M827.09,45.73c-.35-.41-.84-.61-1.48-.61s-1.14.22-1.49.66c-.34.45-.52,1.11-.52,1.98v6.26c-.8-.87-1.61-1.52-2.45-1.94-.84-.42-1.87-.62-3.09-.62-2.12,0-3.82.74-5.12,2.22-1.29,1.48-1.94,3.54-1.94,6.2,0,1.25.17,2.41.49,3.49.33,1.08.81,2.02,1.44,2.81.63.8,1.38,1.42,2.24,1.84.87.43,1.81.65,2.82.65.77,0,1.48-.11,2.12-.32.65-.21,1.25-.52,1.81-.93.55-.41,1.11-.94,1.68-1.59v.42c0,.77.19,1.37.57,1.79s.86.63,1.44.63,1.07-.2,1.44-.61c.37-.4.56-1.01.56-1.81v-18.71c0-.8-.17-1.4-.52-1.81ZM822.82,63.02c-.37.8-.86,1.4-1.48,1.79-.62.39-1.3.58-2.04.58s-1.42-.2-2.04-.61-1.11-1.02-1.47-1.83c-.35-.81-.53-1.78-.53-2.93,0-1.09.17-2.05.5-2.87.34-.82.81-1.46,1.43-1.9.61-.44,1.3-.66,2.08-.66.74,0,1.43.22,2.06.65.62.43,1.12,1.05,1.49,1.86.36.82.55,1.79.55,2.92,0,1.2-.19,2.2-.55,3Z"/>
          <path class="cls-5" d="M846.84,65.27c-.27-.86-.4-1.69-.4-2.49.01-.85.02-1.62.02-2.31,0-.7,0-1.54,0-2.54,0-1.57-.22-2.83-.66-3.79-.44-.95-1.19-1.65-2.26-2.09-1.07-.44-2.53-.66-4.4-.66-1.66,0-3.06.23-4.18.69-1.11.45-1.94,1.03-2.47,1.74-.52.7-.79,1.43-.79,2.17,0,.48.17.87.52,1.17.35.31.76.46,1.24.46.53,0,.87-.09,1.03-.28.16-.2.43-.59.82-1.19.39-.6.86-1.05,1.4-1.35.55-.31,1.36-.45,2.43-.45,1.26,0,2.08.26,2.48.78s.62,1.34.68,2.46c-.89.26-1.72.48-2.48.66-.76.18-1.68.38-2.74.6-1.07.22-1.74.36-2.01.42-1.28.28-2.29.83-3.03,1.65-.73.81-1.1,1.8-1.1,2.96,0,.86.22,1.66.67,2.4.44.73,1.08,1.32,1.9,1.74.82.43,1.78.65,2.87.65,1.19,0,2.26-.2,3.22-.6.96-.4,1.95-1,2.98-1.79.47.77.92,1.37,1.35,1.78.42.4.85.61,1.29.61.52,0,.98-.18,1.39-.54.41-.35.61-.75.61-1.19,0-.24-.13-.8-.39-1.67ZM842.31,60.75c0,1.47-.19,2.52-.58,3.17-.33.58-.85,1.05-1.56,1.42-.71.36-1.48.55-2.32.55-.79,0-1.43-.23-1.91-.68-.49-.45-.73-.99-.73-1.64s.2-1.1.62-1.45c.41-.35.85-.58,1.3-.7.46-.12,1.28-.3,2.47-.56,1.18-.25,2.09-.49,2.71-.72v.61Z"/>
          <path class="cls-5" d="M865.88,45.73c-.34-.41-.84-.61-1.48-.61s-1.14.22-1.48.66c-.35.45-.52,1.11-.52,1.98v6.26c-.8-.87-1.62-1.52-2.46-1.94-.84-.42-1.87-.62-3.09-.62-2.11,0-3.82.74-5.11,2.22-1.3,1.48-1.94,3.54-1.94,6.2,0,1.25.16,2.41.49,3.49.32,1.08.8,2.02,1.43,2.81.63.8,1.38,1.42,2.25,1.84.86.43,1.8.65,2.82.65.76,0,1.47-.11,2.12-.32.64-.21,1.25-.52,1.8-.93.55-.41,1.12-.94,1.69-1.59v.42c0,.77.18,1.37.56,1.79s.86.63,1.44.63,1.07-.2,1.44-.61c.38-.4.56-1.01.56-1.81v-18.71c0-.8-.17-1.4-.52-1.81ZM861.61,63.02c-.37.8-.86,1.4-1.48,1.79-.61.39-1.29.58-2.04.58s-1.41-.2-2.03-.61-1.11-1.02-1.47-1.83c-.36-.81-.54-1.78-.54-2.93,0-1.09.17-2.05.51-2.87.33-.82.81-1.46,1.42-1.9.61-.44,1.3-.66,2.08-.66s1.43.22,2.06.65,1.12,1.05,1.49,1.86c.37.82.55,1.79.55,2.92,0,1.2-.18,2.2-.55,3Z"/>
          <path class="cls-5" d="M884.29,62.84c-.41,0-.72.1-.94.28-.52.5-.95.89-1.29,1.18-.33.29-.69.57-1.08.82-.4.25-.8.44-1.22.56-.42.12-.89.18-1.39.18-.76,0-1.45-.19-2.08-.56-.62-.37-1.13-.93-1.5-1.66-.38-.74-.58-1.59-.59-2.55h8.3c1.11,0,1.97-.16,2.58-.48.61-.31.91-1,.91-2.07,0-1.15-.29-2.28-.88-3.39-.59-1.11-1.48-2.01-2.67-2.71-1.18-.7-2.6-1.05-4.26-1.05-1.27,0-2.43.21-3.48.62s-1.93.99-2.64,1.76c-.72.77-1.26,1.69-1.63,2.76-.38,1.07-.56,2.23-.56,3.49,0,2.66.75,4.76,2.27,6.32,1.51,1.55,3.63,2.33,6.35,2.33,1.19,0,2.25-.16,3.16-.47.92-.31,1.68-.7,2.29-1.17.6-.47,1.06-.96,1.35-1.48.31-.51.46-.96.46-1.34,0-.44-.14-.77-.41-1.01-.27-.24-.62-.36-1.05-.36ZM875.44,55.44c.68-.73,1.54-1.09,2.6-1.09s2,.35,2.68,1.07c.68.73,1.07,1.81,1.17,3.26h-7.69c.15-1.43.56-2.51,1.24-3.24Z"/>
        </g>
      </g>
      <rect class="cls-3" y="53.89" width="534.83" height="8"/>
    </g>
  </g>
</svg>