<?xml version="1.0" encoding="UTF-8"?>
<svg id="Layer_2" data-name="Layer 2" xmlns="http://www.w3.org/2000/svg" viewBox="0 0 853 193">
  <defs>
    <style>
      .cls-1 {
        fill: #ff6700;
      }

      .cls-1, .cls-2, .cls-3 {
        stroke-width: 0px;
      }

      .cls-2 {
        fill: #6045ff;
      }

      .cls-3 {
        fill: #fff;
      }
    </style>
  </defs>
  <g id="Vocabulário_Técnico" data-name="Vocabulário Técnico">
    <g>
      <rect class="cls-1" y="27" width="853" height="166" rx="22.5" ry="22.5"/>
      <g>
        <path class="cls-3" d="M61.58,82.37c-.81.63-1.58,1.1-2.34,1.41-.75.31-1.6.47-2.53.47-.85,0-1.61-.17-2.25-.51-.65-.34-1.15-.8-1.5-1.37-.35-.58-.52-1.21-.52-1.88,0-.91.29-1.69.87-2.33.58-.64,1.37-1.07,2.38-1.29.21-.05.74-.16,1.57-.33.84-.17,1.56-.33,2.15-.47.6-.14,1.25-.32,1.95-.52-.04-.88-.22-1.52-.53-1.93-.31-.41-.96-.62-1.95-.62-.85,0-1.48.12-1.91.35-.43.24-.79.59-1.1,1.06-.31.47-.52.78-.65.93-.13.15-.4.23-.81.23-.37,0-.7-.12-.97-.36-.27-.24-.41-.55-.41-.92,0-.59.21-1.16.62-1.71.42-.55,1.06-1.01,1.94-1.37.88-.36,1.97-.54,3.28-.54,1.46,0,2.62.17,3.45.52.84.35,1.43.89,1.78,1.64.35.75.52,1.74.52,2.98,0,.78,0,1.44,0,1.99,0,.55-.01,1.15-.02,1.82,0,.63.1,1.28.31,1.96.21.68.31,1.12.31,1.31,0,.34-.16.65-.48.93-.32.28-.69.42-1.09.42-.34,0-.68-.16-1.01-.48-.33-.32-.69-.79-1.06-1.4ZM61.36,77.55c-.49.18-1.2.37-2.13.57-.93.2-1.58.35-1.93.44-.36.09-.7.28-1.03.55-.33.27-.49.65-.49,1.14s.19.93.57,1.29c.38.35.88.53,1.5.53.66,0,1.27-.14,1.83-.43.56-.29.97-.66,1.23-1.12.3-.5.45-1.33.45-2.49v-.48Z"/>
        <path class="cls-3" d="M70.76,67.65v5.09c.63-.65,1.27-1.15,1.92-1.5.65-.35,1.46-.52,2.42-.52,1.11,0,2.08.26,2.91.79.83.52,1.48,1.29,1.94,2.28.46,1,.69,2.18.69,3.55,0,1.01-.13,1.93-.38,2.78-.26.84-.63,1.57-1.12,2.19s-1.08,1.1-1.78,1.43c-.7.34-1.46.51-2.3.51-.51,0-.99-.06-1.45-.18-.45-.12-.84-.28-1.15-.48-.32-.2-.59-.4-.81-.62-.22-.21-.52-.53-.89-.95v.33c0,.63-.15,1.1-.45,1.42-.3.32-.68.48-1.15.48s-.85-.16-1.13-.48c-.28-.32-.42-.8-.42-1.42v-14.55c0-.67.14-1.19.41-1.53.27-.35.65-.52,1.14-.52.51,0,.91.17,1.18.5.28.33.42.8.42,1.41ZM70.92,77.55c0,1.33.3,2.35.91,3.06.61.71,1.4,1.07,2.39,1.07.84,0,1.56-.36,2.17-1.09.61-.73.91-1.77.91-3.13,0-.88-.13-1.64-.38-2.27-.25-.63-.61-1.12-1.07-1.47s-1.01-.52-1.62-.52-1.2.17-1.7.52c-.5.35-.89.85-1.17,1.5-.29.66-.43,1.43-.43,2.34Z"/>
        <path class="cls-3" d="M91.73,82.37c-.81.63-1.58,1.1-2.34,1.41-.75.31-1.6.47-2.53.47-.85,0-1.61-.17-2.25-.51-.65-.34-1.15-.8-1.5-1.37-.35-.58-.52-1.21-.52-1.88,0-.91.29-1.69.87-2.33.58-.64,1.37-1.07,2.38-1.29.21-.05.74-.16,1.57-.33.84-.17,1.56-.33,2.15-.47.6-.14,1.25-.32,1.95-.52-.04-.88-.22-1.52-.53-1.93-.31-.41-.96-.62-1.95-.62-.85,0-1.48.12-1.91.35-.43.24-.79.59-1.1,1.06-.31.47-.52.78-.65.93-.13.15-.4.23-.81.23-.37,0-.7-.12-.97-.36-.27-.24-.41-.55-.41-.92,0-.59.21-1.16.62-1.71.42-.55,1.06-1.01,1.94-1.37.88-.36,1.97-.54,3.28-.54,1.46,0,2.62.17,3.45.52.84.35,1.43.89,1.78,1.64.35.75.52,1.74.52,2.98,0,.78,0,1.44,0,1.99,0,.55-.01,1.15-.02,1.82,0,.63.1,1.28.31,1.96.21.68.31,1.12.31,1.31,0,.34-.16.65-.48.93-.32.28-.69.42-1.09.42-.34,0-.68-.16-1.01-.48-.33-.32-.69-.79-1.06-1.4ZM91.51,77.55c-.49.18-1.2.37-2.13.57-.93.2-1.58.35-1.93.44-.36.09-.7.28-1.03.55-.33.27-.49.65-.49,1.14s.19.93.57,1.29c.38.35.88.53,1.5.53.66,0,1.27-.14,1.83-.43.56-.29.97-.66,1.23-1.12.3-.5.45-1.33.45-2.49v-.48Z"/>
        <path class="cls-3" d="M101.19,72.55v.4c.59-.77,1.23-1.34,1.92-1.7.7-.36,1.5-.54,2.4-.54s1.66.19,2.36.57c.69.38,1.21.92,1.55,1.62.22.41.36.85.43,1.32.06.47.1,1.07.1,1.81v6.2c0,.67-.15,1.17-.46,1.51-.3.34-.7.51-1.19.51s-.9-.17-1.21-.52c-.31-.35-.46-.85-.46-1.5v-5.55c0-1.1-.15-1.94-.46-2.52-.3-.58-.91-.87-1.82-.87-.59,0-1.14.18-1.62.53-.49.35-.85.84-1.07,1.46-.16.5-.24,1.42-.24,2.78v4.18c0,.67-.16,1.18-.47,1.52-.31.34-.72.51-1.21.51s-.88-.17-1.18-.52c-.31-.35-.46-.85-.46-1.5v-9.63c0-.63.14-1.11.42-1.42.28-.31.65-.47,1.14-.47.29,0,.56.07.79.21.24.14.43.35.57.62.14.28.21.61.21,1.01Z"/>
        <path class="cls-3" d="M122.39,82.35v-.33c-.45.51-.89.93-1.32,1.25-.44.32-.91.57-1.42.73-.51.17-1.06.25-1.67.25-.8,0-1.54-.17-2.22-.51-.68-.34-1.27-.82-1.76-1.45-.5-.63-.87-1.36-1.13-2.21-.26-.85-.38-1.76-.38-2.75,0-2.08.51-3.71,1.53-4.87,1.02-1.16,2.36-1.75,4.02-1.75.96,0,1.77.17,2.43.5.66.33,1.3.84,1.93,1.52v-4.92c0-.68.14-1.2.41-1.55.27-.35.66-.53,1.17-.53s.89.16,1.17.48c.27.32.41.8.41,1.42v14.7c0,.63-.15,1.11-.44,1.43s-.67.48-1.14.48-.83-.16-1.13-.49c-.3-.33-.45-.8-.45-1.41ZM115.84,77.45c0,.9.14,1.67.42,2.31.28.63.67,1.11,1.15,1.43.49.32,1.02.48,1.6.48s1.12-.15,1.61-.46c.48-.3.87-.77,1.16-1.4.29-.63.43-1.42.43-2.36,0-.89-.14-1.65-.43-2.29-.29-.64-.68-1.13-1.17-1.46-.49-.34-1.03-.51-1.62-.51s-1.16.17-1.64.52c-.48.35-.85.84-1.12,1.49-.26.65-.4,1.4-.4,2.25Z"/>
        <path class="cls-3" d="M141.36,77.48c0,.99-.15,1.91-.46,2.75-.31.84-.76,1.56-1.34,2.16s-1.29,1.06-2.1,1.39c-.81.32-1.73.48-2.75.48s-1.92-.16-2.72-.49c-.81-.33-1.5-.79-2.09-1.4-.59-.61-1.04-1.32-1.34-2.15-.31-.83-.46-1.74-.46-2.74s.15-1.93.46-2.77c.31-.84.75-1.55,1.33-2.15.58-.59,1.28-1.05,2.1-1.37.82-.32,1.73-.48,2.72-.48s1.92.16,2.75.49c.82.33,1.53.79,2.11,1.39.59.6,1.03,1.32,1.34,2.15.3.83.46,1.75.46,2.75ZM138.02,77.48c0-1.36-.3-2.42-.9-3.17-.6-.76-1.4-1.14-2.41-1.14-.65,0-1.23.17-1.72.51-.5.34-.88.84-1.15,1.5-.27.66-.4,1.43-.4,2.31s.13,1.63.4,2.28c.26.65.64,1.15,1.14,1.5.49.35,1.07.52,1.74.52,1.01,0,1.81-.38,2.41-1.14.6-.76.9-1.81.9-3.16Z"/>
        <path class="cls-3" d="M147.02,72.55v.4c.59-.77,1.23-1.34,1.92-1.7.7-.36,1.5-.54,2.4-.54s1.66.19,2.36.57c.69.38,1.21.92,1.55,1.62.22.41.36.85.43,1.32.06.47.1,1.07.1,1.81v6.2c0,.67-.15,1.17-.46,1.51-.3.34-.7.51-1.19.51s-.9-.17-1.21-.52c-.31-.35-.46-.85-.46-1.5v-5.55c0-1.1-.15-1.94-.46-2.52-.3-.58-.91-.87-1.82-.87-.59,0-1.14.18-1.62.53-.49.35-.85.84-1.07,1.46-.16.5-.24,1.42-.24,2.78v4.18c0,.67-.16,1.18-.47,1.52-.31.34-.72.51-1.21.51s-.88-.17-1.18-.52c-.31-.35-.46-.85-.46-1.5v-9.63c0-.63.14-1.11.42-1.42.28-.31.65-.47,1.14-.47.29,0,.56.07.79.21.24.14.43.35.57.62.14.28.21.61.21,1.01Z"/>
        <path class="cls-3" d="M171.56,77.48c0,.99-.15,1.91-.46,2.75-.31.84-.76,1.56-1.34,2.16s-1.29,1.06-2.1,1.39c-.81.32-1.73.48-2.75.48s-1.92-.16-2.72-.49c-.81-.33-1.5-.79-2.09-1.4-.59-.61-1.04-1.32-1.34-2.15-.31-.83-.46-1.74-.46-2.74s.15-1.93.46-2.77c.31-.84.75-1.55,1.33-2.15.58-.59,1.28-1.05,2.1-1.37.82-.32,1.73-.48,2.72-.48s1.92.16,2.75.49c.82.33,1.53.79,2.11,1.39.59.6,1.03,1.32,1.34,2.15.3.83.46,1.75.46,2.75ZM168.22,77.48c0-1.36-.3-2.42-.9-3.17-.6-.76-1.4-1.14-2.41-1.14-.65,0-1.23.17-1.72.51-.5.34-.88.84-1.15,1.5-.27.66-.4,1.43-.4,2.31s.13,1.63.4,2.28c.26.65.64,1.15,1.14,1.5.49.35,1.07.52,1.74.52,1.01,0,1.81-.38,2.41-1.14.6-.76.9-1.81.9-3.16Z"/>
        <path class="cls-3" d="M189.57,82.35v-.33c-.45.51-.89.93-1.32,1.25-.44.32-.91.57-1.42.73-.51.17-1.06.25-1.67.25-.8,0-1.54-.17-2.22-.51-.68-.34-1.27-.82-1.76-1.45-.5-.63-.87-1.36-1.13-2.21-.26-.85-.38-1.76-.38-2.75,0-2.08.51-3.71,1.53-4.87,1.02-1.16,2.36-1.75,4.02-1.75.96,0,1.77.17,2.43.5.66.33,1.3.84,1.93,1.52v-4.92c0-.68.14-1.2.41-1.55.27-.35.66-.53,1.17-.53s.89.16,1.17.48c.27.32.41.8.41,1.42v14.7c0,.63-.15,1.11-.44,1.43s-.67.48-1.14.48-.83-.16-1.13-.49c-.3-.33-.45-.8-.45-1.41ZM183.01,77.45c0,.9.14,1.67.42,2.31.28.63.67,1.11,1.15,1.43.49.32,1.02.48,1.6.48s1.12-.15,1.61-.46c.48-.3.87-.77,1.16-1.4.29-.63.43-1.42.43-2.36,0-.89-.14-1.65-.43-2.29-.29-.64-.68-1.13-1.17-1.46-.49-.34-1.03-.51-1.62-.51s-1.16.17-1.64.52c-.48.35-.85.84-1.12,1.49-.26.65-.4,1.4-.4,2.25Z"/>
        <path class="cls-3" d="M205.36,78.3h-6.52c0,.76.16,1.42.46,2,.3.58.69,1.01,1.18,1.31.49.29,1.04.44,1.63.44.4,0,.76-.05,1.09-.14.33-.09.65-.24.96-.44.31-.2.59-.41.85-.64.26-.23.6-.54,1.01-.93.17-.15.42-.22.73-.22.34,0,.62.09.83.28.21.19.32.45.32.79,0,.3-.12.65-.35,1.06-.24.4-.59.79-1.07,1.16-.48.37-1.07.68-1.79.92-.72.24-1.55.37-2.48.37-2.14,0-3.8-.61-4.99-1.83-1.19-1.22-1.78-2.88-1.78-4.97,0-.98.15-1.9.44-2.74.29-.84.72-1.56,1.28-2.17s1.25-1.06,2.08-1.39c.82-.32,1.73-.48,2.73-.48,1.3,0,2.42.28,3.35.82.93.55,1.63,1.26,2.09,2.13.46.87.7,1.76.7,2.66,0,.84-.24,1.38-.72,1.63-.48.25-1.16.37-2.03.37ZM198.85,76.4h6.04c-.08-1.14-.39-1.99-.92-2.56-.53-.57-1.23-.85-2.11-.85s-1.51.29-2.04.86c-.53.57-.86,1.42-.97,2.54Z"/>
        <path class="cls-3" d="M228.25,77.72v4.43c0,.7-.16,1.23-.48,1.58s-.74.52-1.26.52-.91-.17-1.23-.52c-.31-.35-.47-.88-.47-1.58v-5.31c0-.84-.03-1.49-.09-1.95-.06-.46-.21-.84-.46-1.14-.25-.3-.65-.45-1.2-.45-1.09,0-1.81.37-2.15,1.12-.35.75-.52,1.82-.52,3.22v4.5c0,.69-.16,1.21-.47,1.57-.31.35-.73.53-1.24.53s-.92-.18-1.24-.53c-.32-.35-.48-.88-.48-1.57v-9.53c0-.63.14-1.1.43-1.43.29-.33.67-.49,1.14-.49s.84.15,1.14.46c.3.31.46.73.46,1.26v.32c.58-.69,1.2-1.2,1.86-1.53.66-.33,1.39-.49,2.2-.49s1.56.17,2.16.5c.6.33,1.1.84,1.49,1.51.56-.68,1.16-1.19,1.81-1.52.64-.33,1.35-.5,2.14-.5.91,0,1.7.18,2.36.54.66.36,1.15.87,1.48,1.54.28.6.43,1.55.43,2.84v6.51c0,.7-.16,1.23-.48,1.58s-.74.52-1.26.52-.92-.18-1.24-.53c-.32-.35-.48-.88-.48-1.57v-5.6c0-.72-.03-1.29-.09-1.72-.06-.43-.23-.79-.49-1.09s-.68-.44-1.22-.44c-.44,0-.86.13-1.25.39-.39.26-.7.61-.92,1.05-.24.56-.37,1.55-.37,2.98Z"/>
        <path class="cls-3" d="M248.59,78.3h-6.52c0,.76.16,1.42.46,2,.3.58.69,1.01,1.18,1.31.49.29,1.04.44,1.63.44.4,0,.76-.05,1.09-.14.33-.09.65-.24.96-.44.31-.2.59-.41.85-.64.26-.23.6-.54,1.01-.93.17-.15.42-.22.73-.22.34,0,.62.09.83.28.21.19.32.45.32.79,0,.3-.12.65-.35,1.06-.24.4-.59.79-1.07,1.16-.48.37-1.07.68-1.79.92-.72.24-1.55.37-2.48.37-2.14,0-3.8-.61-4.99-1.83-1.19-1.22-1.78-2.88-1.78-4.97,0-.98.15-1.9.44-2.74.29-.84.72-1.56,1.28-2.17s1.25-1.06,2.08-1.39c.82-.32,1.73-.48,2.73-.48,1.3,0,2.42.28,3.35.82.93.55,1.63,1.26,2.09,2.13.46.87.7,1.76.7,2.66,0,.84-.24,1.38-.72,1.63-.48.25-1.16.37-2.03.37ZM242.07,76.4h6.04c-.08-1.14-.39-1.99-.92-2.56-.53-.57-1.23-.85-2.11-.85s-1.51.29-2.04.86c-.53.57-.86,1.42-.97,2.54Z"/>
        <path class="cls-3" d="M257.17,72.55v.4c.59-.77,1.23-1.34,1.92-1.7.7-.36,1.5-.54,2.4-.54s1.66.19,2.36.57c.69.38,1.21.92,1.55,1.62.22.41.36.85.43,1.32.06.47.1,1.07.1,1.81v6.2c0,.67-.15,1.17-.46,1.51-.3.34-.7.51-1.19.51s-.9-.17-1.21-.52c-.31-.35-.46-.85-.46-1.5v-5.55c0-1.1-.15-1.94-.46-2.52-.3-.58-.91-.87-1.82-.87-.59,0-1.14.18-1.62.53-.49.35-.85.84-1.07,1.46-.16.5-.24,1.42-.24,2.78v4.18c0,.67-.16,1.18-.47,1.52-.31.34-.72.51-1.21.51s-.88-.17-1.18-.52c-.31-.35-.46-.85-.46-1.5v-9.63c0-.63.14-1.11.42-1.42.28-.31.65-.47,1.14-.47.29,0,.56.07.79.21.24.14.43.35.57.62.14.28.21.61.21,1.01Z"/>
        <path class="cls-3" d="M281.72,77.48c0,.99-.15,1.91-.46,2.75-.31.84-.76,1.56-1.34,2.16s-1.29,1.06-2.1,1.39c-.81.32-1.73.48-2.75.48s-1.92-.16-2.72-.49c-.81-.33-1.5-.79-2.09-1.4-.59-.61-1.04-1.32-1.34-2.15-.31-.83-.46-1.74-.46-2.74s.15-1.93.46-2.77c.31-.84.75-1.55,1.33-2.15.58-.59,1.28-1.05,2.1-1.37.82-.32,1.73-.48,2.72-.48s1.92.16,2.75.49c.82.33,1.53.79,2.11,1.39.59.6,1.03,1.32,1.34,2.15.3.83.46,1.75.46,2.75ZM278.38,77.48c0-1.36-.3-2.42-.9-3.17-.6-.76-1.4-1.14-2.41-1.14-.65,0-1.23.17-1.72.51-.5.34-.88.84-1.15,1.5-.27.66-.4,1.43-.4,2.31s.13,1.63.4,2.28c.26.65.64,1.15,1.14,1.5.49.35,1.07.52,1.74.52,1.01,0,1.81-.38,2.41-1.14.6-.76.9-1.81.9-3.16Z"/>
        <path class="cls-3" d="M287.65,79.44v2.78c0,.67-.16,1.18-.48,1.52-.32.34-.72.51-1.21.51s-.88-.17-1.18-.51c-.31-.34-.46-.85-.46-1.51v-9.28c0-1.5.54-2.25,1.62-2.25.55,0,.95.17,1.2.52s.38.87.4,1.55c.4-.68.81-1.2,1.23-1.55.42-.35.98-.52,1.68-.52s1.38.17,2.04.52.99.81.99,1.39c0,.41-.14.74-.42,1.01-.28.26-.58.4-.91.4-.12,0-.42-.08-.88-.23-.47-.15-.88-.23-1.24-.23-.49,0-.89.13-1.2.38-.31.26-.55.64-.72,1.14-.17.5-.29,1.1-.35,1.8-.07.7-.1,1.54-.1,2.55Z"/>
        <path class="cls-3" d="M312.47,78.75h-12.79v-2.25h12.79v2.25Z"/>
        <path class="cls-3" d="M332.24,80.13c0,.41-.12.86-.37,1.33-.25.47-.63.92-1.14,1.35-.51.43-1.15.77-1.92,1.03-.77.26-1.64.39-2.61.39-2.06,0-3.67-.6-4.82-1.8-1.16-1.2-1.73-2.81-1.73-4.83,0-1.37.26-2.58.79-3.62.53-1.05,1.29-1.86,2.29-2.44,1-.57,2.2-.86,3.59-.86.86,0,1.65.13,2.37.38.72.25,1.33.58,1.83.98.5.4.88.82,1.15,1.28.26.45.4.87.4,1.26s-.15.74-.45,1.01c-.3.28-.66.41-1.08.41-.28,0-.51-.07-.69-.21-.18-.14-.39-.37-.62-.69-.41-.62-.83-1.08-1.28-1.39-.44-.31-1.01-.46-1.69-.46-.98,0-1.78.38-2.38,1.15-.6.77-.9,1.82-.9,3.16,0,.63.08,1.2.23,1.73.15.52.38.97.67,1.34s.65.65,1.06.84c.42.19.87.29,1.37.29.67,0,1.24-.15,1.72-.46.48-.31.9-.78,1.26-1.42.2-.37.42-.67.66-.88.24-.21.52-.32.87-.32.41,0,.74.15,1.01.46s.4.64.4.99Z"/>
        <path class="cls-3" d="M347.63,77.48c0,.99-.15,1.91-.46,2.75-.31.84-.76,1.56-1.34,2.16s-1.29,1.06-2.1,1.39c-.81.32-1.73.48-2.75.48s-1.92-.16-2.72-.49c-.81-.33-1.5-.79-2.09-1.4-.59-.61-1.04-1.32-1.34-2.15-.31-.83-.46-1.74-.46-2.74s.15-1.93.46-2.77c.31-.84.75-1.55,1.33-2.15.58-.59,1.28-1.05,2.1-1.37.82-.32,1.73-.48,2.72-.48s1.92.16,2.75.49c.82.33,1.53.79,2.11,1.39.59.6,1.03,1.32,1.34,2.15.3.83.46,1.75.46,2.75ZM344.28,77.48c0-1.36-.3-2.42-.9-3.17-.6-.76-1.4-1.14-2.41-1.14-.65,0-1.23.17-1.72.51-.5.34-.88.84-1.15,1.5-.27.66-.4,1.43-.4,2.31s.13,1.63.4,2.28c.26.65.64,1.15,1.14,1.5.49.35,1.07.52,1.74.52,1.01,0,1.81-.38,2.41-1.14.6-.76.9-1.81.9-3.16Z"/>
        <path class="cls-3" d="M361.33,77.72v4.43c0,.7-.16,1.23-.48,1.58s-.74.52-1.26.52-.91-.17-1.23-.52c-.31-.35-.47-.88-.47-1.58v-5.31c0-.84-.03-1.49-.09-1.95-.06-.46-.21-.84-.46-1.14-.25-.3-.65-.45-1.2-.45-1.09,0-1.81.37-2.15,1.12-.35.75-.52,1.82-.52,3.22v4.5c0,.69-.16,1.21-.47,1.57-.31.35-.73.53-1.24.53s-.92-.18-1.24-.53c-.32-.35-.48-.88-.48-1.57v-9.53c0-.63.14-1.1.43-1.43.29-.33.67-.49,1.14-.49s.84.15,1.14.46c.3.31.46.73.46,1.26v.32c.58-.69,1.2-1.2,1.86-1.53.66-.33,1.39-.49,2.2-.49s1.56.17,2.16.5c.6.33,1.1.84,1.49,1.51.56-.68,1.16-1.19,1.81-1.52.64-.33,1.35-.5,2.14-.5.91,0,1.7.18,2.36.54.66.36,1.15.87,1.48,1.54.28.6.43,1.55.43,2.84v6.51c0,.7-.16,1.23-.48,1.58s-.74.52-1.26.52-.92-.18-1.24-.53c-.32-.35-.48-.88-.48-1.57v-5.6c0-.72-.03-1.29-.09-1.72-.06-.43-.23-.79-.49-1.09s-.68-.44-1.22-.44c-.44,0-.86.13-1.25.39-.39.26-.7.61-.92,1.05-.24.56-.37,1.55-.37,2.98Z"/>
        <path class="cls-3" d="M380.79,82.37c-.81.63-1.58,1.1-2.34,1.41-.75.31-1.6.47-2.53.47-.85,0-1.61-.17-2.25-.51-.65-.34-1.15-.8-1.5-1.37-.35-.58-.52-1.21-.52-1.88,0-.91.29-1.69.87-2.33.58-.64,1.37-1.07,2.38-1.29.21-.05.74-.16,1.57-.33.84-.17,1.56-.33,2.15-.47.6-.14,1.25-.32,1.95-.52-.04-.88-.22-1.52-.53-1.93-.31-.41-.96-.62-1.95-.62-.85,0-1.48.12-1.91.35-.43.24-.79.59-1.1,1.06-.31.47-.52.78-.65.93-.13.15-.4.23-.81.23-.37,0-.7-.12-.97-.36-.27-.24-.41-.55-.41-.92,0-.59.21-1.16.62-1.71.42-.55,1.06-1.01,1.94-1.37.88-.36,1.97-.54,3.28-.54,1.46,0,2.62.17,3.45.52.84.35,1.43.89,1.78,1.64.35.75.52,1.74.52,2.98,0,.78,0,1.44,0,1.99,0,.55-.01,1.15-.02,1.82,0,.63.1,1.28.31,1.96.21.68.31,1.12.31,1.31,0,.34-.16.65-.48.93-.32.28-.69.42-1.09.42-.34,0-.68-.16-1.01-.48-.33-.32-.69-.79-1.06-1.4ZM380.57,77.55c-.49.18-1.2.37-2.13.57-.93.2-1.58.35-1.93.44-.36.09-.7.28-1.03.55-.33.27-.49.65-.49,1.14s.19.93.57,1.29c.38.35.88.53,1.5.53.66,0,1.27-.14,1.83-.43.56-.29.97-.66,1.23-1.12.3-.5.45-1.33.45-2.49v-.48Z"/>
        <path class="cls-3" d="M390.53,79.44v2.78c0,.67-.16,1.18-.48,1.52-.32.34-.72.51-1.21.51s-.88-.17-1.18-.51c-.31-.34-.46-.85-.46-1.51v-9.28c0-1.5.54-2.25,1.62-2.25.55,0,.95.17,1.2.52s.38.87.4,1.55c.4-.68.81-1.2,1.23-1.55.42-.35.98-.52,1.68-.52s1.38.17,2.04.52.99.81.99,1.39c0,.41-.14.74-.42,1.01-.28.26-.58.4-.91.4-.12,0-.42-.08-.88-.23-.47-.15-.88-.23-1.24-.23-.49,0-.89.13-1.2.38-.31.26-.55.64-.72,1.14-.17.5-.29,1.1-.35,1.8-.07.7-.1,1.54-.1,2.55Z"/>
        <path class="cls-3" d="M409.48,80.13c0,.41-.12.86-.37,1.33-.25.47-.63.92-1.14,1.35-.51.43-1.15.77-1.92,1.03-.77.26-1.64.39-2.61.39-2.06,0-3.67-.6-4.82-1.8-1.16-1.2-1.73-2.81-1.73-4.83,0-1.37.26-2.58.79-3.62.53-1.05,1.29-1.86,2.29-2.44,1-.57,2.2-.86,3.59-.86.86,0,1.65.13,2.37.38.72.25,1.33.58,1.83.98.5.4.88.82,1.15,1.28.26.45.4.87.4,1.26s-.15.74-.45,1.01c-.3.28-.66.41-1.08.41-.28,0-.51-.07-.69-.21-.18-.14-.39-.37-.62-.69-.41-.62-.83-1.08-1.28-1.39-.44-.31-1.01-.46-1.69-.46-.98,0-1.78.38-2.38,1.15-.6.77-.9,1.82-.9,3.16,0,.63.08,1.2.23,1.73.15.52.38.97.67,1.34s.65.65,1.06.84c.42.19.87.29,1.37.29.67,0,1.24-.15,1.72-.46.48-.31.9-.78,1.26-1.42.2-.37.42-.67.66-.88.24-.21.52-.32.87-.32.41,0,.74.15,1.01.46s.4.64.4.99Z"/>
        <path class="cls-3" d="M420.81,82.37c-.81.63-1.58,1.1-2.34,1.41-.75.31-1.6.47-2.53.47-.85,0-1.61-.17-2.25-.51-.65-.34-1.15-.8-1.5-1.37-.35-.58-.52-1.21-.52-1.88,0-.91.29-1.69.87-2.33.58-.64,1.37-1.07,2.38-1.29.21-.05.74-.16,1.57-.33.84-.17,1.56-.33,2.15-.47.6-.14,1.25-.32,1.95-.52-.04-.88-.22-1.52-.53-1.93-.31-.41-.96-.62-1.95-.62-.85,0-1.48.12-1.91.35-.43.24-.79.59-1.1,1.06-.31.47-.52.78-.65.93-.13.15-.4.23-.81.23-.37,0-.7-.12-.97-.36-.27-.24-.41-.55-.41-.92,0-.59.21-1.16.62-1.71.42-.55,1.06-1.01,1.94-1.37.88-.36,1.97-.54,3.28-.54,1.46,0,2.62.17,3.45.52.84.35,1.43.89,1.78,1.64.35.75.52,1.74.52,2.98,0,.78,0,1.44,0,1.99,0,.55-.01,1.15-.02,1.82,0,.63.1,1.28.31,1.96.21.68.31,1.12.31,1.31,0,.34-.16.65-.48.93-.32.28-.69.42-1.09.42-.34,0-.68-.16-1.01-.48-.33-.32-.69-.79-1.06-1.4ZM420.59,77.55c-.49.18-1.2.37-2.13.57-.93.2-1.58.35-1.93.44-.36.09-.7.28-1.03.55-.33.27-.49.65-.49,1.14s.19.93.57,1.29c.38.35.88.53,1.5.53.66,0,1.27-.14,1.83-.43.56-.29.97-.66,1.23-1.12.3-.5.45-1.33.45-2.49v-.48Z"/>
        <path class="cls-3" d="M444.42,78.75h-12.79v-2.25h12.79v2.25Z"/>
        <path class="cls-3" d="M451.97,71h.79v-1c0-1.04.13-1.87.4-2.48.26-.61.71-1.06,1.34-1.34.63-.28,1.5-.42,2.59-.42,1.94,0,2.92.48,2.92,1.43,0,.31-.1.57-.31.79-.2.22-.44.33-.72.33-.13,0-.35-.02-.67-.07-.32-.05-.59-.07-.81-.07-.6,0-.99.18-1.16.53-.17.35-.26.86-.26,1.52v.79h.82c1.27,0,1.9.38,1.9,1.15,0,.55-.17.89-.51,1.04-.34.15-.8.22-1.4.22h-.82v8.83c0,.66-.16,1.16-.47,1.51s-.72.52-1.21.52-.87-.17-1.18-.52-.47-.85-.47-1.51v-8.83h-.92c-.5,0-.88-.11-1.15-.34-.27-.22-.4-.51-.4-.87,0-.8.56-1.2,1.67-1.2Z"/>
        <path class="cls-3" d="M468.66,82.37c-.81.63-1.58,1.1-2.34,1.41-.75.31-1.6.47-2.53.47-.86,0-1.61-.17-2.25-.51-.65-.34-1.15-.8-1.5-1.37-.35-.58-.53-1.21-.53-1.88,0-.91.29-1.69.87-2.33s1.37-1.07,2.38-1.29c.21-.05.74-.16,1.57-.33.84-.17,1.56-.33,2.15-.47.6-.14,1.25-.32,1.95-.52-.04-.88-.22-1.52-.53-1.93-.31-.41-.96-.62-1.95-.62-.85,0-1.48.12-1.91.35s-.79.59-1.1,1.06c-.31.47-.52.78-.65.93-.12.15-.4.23-.81.23-.38,0-.7-.12-.97-.36-.27-.24-.41-.55-.41-.92,0-.59.21-1.16.62-1.71.42-.55,1.06-1.01,1.94-1.37.88-.36,1.97-.54,3.28-.54,1.46,0,2.62.17,3.46.52s1.43.89,1.78,1.64c.35.75.52,1.74.52,2.98,0,.78,0,1.44,0,1.99,0,.55-.01,1.15-.02,1.82,0,.63.1,1.28.31,1.96.21.68.31,1.12.31,1.31,0,.34-.16.65-.48.93-.32.28-.69.42-1.09.42-.34,0-.68-.16-1.01-.48s-.69-.79-1.06-1.4ZM468.44,77.55c-.49.18-1.2.37-2.13.57-.93.2-1.58.35-1.93.44-.36.09-.7.28-1.03.55-.33.27-.49.65-.49,1.14s.19.93.57,1.29c.38.35.88.53,1.5.53.66,0,1.27-.14,1.83-.43.56-.29.96-.66,1.23-1.12.3-.5.45-1.33.45-2.49v-.48Z"/>
        <path class="cls-3" d="M486.17,77.72v4.43c0,.7-.16,1.23-.48,1.58s-.74.52-1.26.52-.91-.17-1.23-.52-.47-.88-.47-1.58v-5.31c0-.84-.03-1.49-.09-1.95s-.21-.84-.46-1.14c-.25-.3-.65-.45-1.2-.45-1.09,0-1.81.37-2.15,1.12s-.52,1.82-.52,3.22v4.5c0,.69-.16,1.21-.47,1.57-.31.35-.73.53-1.24.53s-.92-.18-1.24-.53c-.32-.35-.48-.88-.48-1.57v-9.53c0-.63.14-1.1.43-1.43.29-.33.67-.49,1.14-.49s.84.15,1.14.46c.3.31.46.73.46,1.26v.32c.58-.69,1.2-1.2,1.86-1.53.66-.33,1.39-.49,2.2-.49s1.56.17,2.16.5,1.1.84,1.49,1.51c.56-.68,1.16-1.19,1.81-1.52.64-.33,1.36-.5,2.14-.5.91,0,1.7.18,2.36.54.66.36,1.15.87,1.48,1.54.29.6.43,1.55.43,2.84v6.51c0,.7-.16,1.23-.48,1.58-.32.35-.74.52-1.26.52s-.92-.18-1.24-.53c-.32-.35-.48-.88-.48-1.57v-5.6c0-.72-.03-1.29-.09-1.72-.06-.43-.23-.79-.5-1.09-.27-.29-.68-.44-1.22-.44-.44,0-.86.13-1.25.39-.39.26-.7.61-.92,1.05-.24.56-.37,1.55-.37,2.98Z"/>
        <path class="cls-3" d="M499.97,65.92h1.65c.42,0,.62.06.62.18,0,.07-.23.33-.68.79-.46.46-.92.91-1.38,1.33s-.79.68-.96.77c-.46.24-.96.35-1.49.35-.35,0-.53-.1-.53-.3,0-.14.11-.38.32-.72l.55-1.03c.32-.59.59-.97.83-1.13.24-.16.59-.24,1.07-.24ZM500.54,72.6v9.63c0,.67-.16,1.17-.48,1.51-.32.34-.72.51-1.21.51s-.88-.17-1.19-.52c-.3-.35-.46-.85-.46-1.5v-9.53c0-.66.15-1.16.46-1.49.31-.33.7-.5,1.19-.5s.89.17,1.21.5c.32.33.48.8.48,1.39Z"/>
        <path class="cls-3" d="M503.99,82.23v-14.45c0-.67.15-1.17.45-1.51s.7-.51,1.2-.51.91.17,1.22.51c.31.34.46.84.46,1.52v14.45c0,.67-.16,1.18-.47,1.52-.31.34-.72.51-1.21.51s-.88-.17-1.19-.52c-.3-.35-.46-.85-.46-1.5Z"/>
        <path class="cls-3" d="M512.44,69.15c-.46,0-.86-.14-1.19-.43-.33-.28-.49-.69-.49-1.21,0-.47.17-.86.51-1.17.34-.3.73-.46,1.18-.46s.81.14,1.15.42c.33.28.5.68.5,1.21s-.16.91-.49,1.2c-.33.29-.71.43-1.16.43ZM514.09,72.6v9.63c0,.67-.16,1.17-.48,1.51-.32.34-.72.51-1.21.51s-.88-.17-1.19-.52c-.3-.35-.46-.85-.46-1.5v-9.53c0-.66.15-1.16.46-1.49.31-.33.7-.5,1.19-.5s.89.17,1.21.5c.32.33.48.8.48,1.39Z"/>
        <path class="cls-3" d="M525.96,82.37c-.81.63-1.58,1.1-2.34,1.41-.75.31-1.6.47-2.53.47-.85,0-1.61-.17-2.25-.51-.65-.34-1.15-.8-1.5-1.37-.35-.58-.52-1.21-.52-1.88,0-.91.29-1.69.87-2.33.58-.64,1.37-1.07,2.38-1.29.21-.05.74-.16,1.58-.33.84-.17,1.56-.33,2.16-.47.6-.14,1.25-.32,1.95-.52-.04-.88-.22-1.52-.53-1.93-.31-.41-.96-.62-1.95-.62-.85,0-1.48.12-1.91.35-.43.24-.79.59-1.1,1.06-.3.47-.52.78-.65.93-.13.15-.4.23-.81.23-.37,0-.7-.12-.97-.36-.27-.24-.41-.55-.41-.92,0-.59.21-1.16.62-1.71.41-.55,1.06-1.01,1.94-1.37.88-.36,1.97-.54,3.28-.54,1.46,0,2.62.17,3.45.52.84.35,1.43.89,1.78,1.64s.52,1.74.52,2.98c0,.78,0,1.44,0,1.99,0,.55,0,1.15-.02,1.82,0,.63.1,1.28.31,1.96.21.68.31,1.12.31,1.31,0,.34-.16.65-.48.93-.32.28-.69.42-1.09.42-.34,0-.68-.16-1.01-.48-.33-.32-.69-.79-1.06-1.4ZM525.74,77.55c-.49.18-1.2.37-2.13.57-.93.2-1.58.35-1.94.44-.36.09-.7.28-1.03.55-.33.27-.49.65-.49,1.14s.19.93.57,1.29c.38.35.88.53,1.5.53.66,0,1.27-.14,1.82-.43.56-.29.97-.66,1.23-1.12.3-.5.45-1.33.45-2.49v-.48Z"/>
        <path class="cls-3" d="M549.37,79.9c0,.92-.22,1.71-.67,2.36-.45.66-1.11,1.15-1.98,1.49-.88.34-1.94.51-3.19.51s-2.22-.18-3.08-.55c-.86-.37-1.49-.82-1.89-1.37-.41-.55-.61-1.1-.61-1.65,0-.37.13-.68.39-.94.26-.26.59-.39.99-.39.35,0,.62.08.8.26s.37.41.54.72c.34.59.75,1.04,1.23,1.33.48.29,1.12.44,1.95.44.67,0,1.21-.15,1.64-.45.43-.3.64-.64.64-1.02,0-.59-.22-1.01-.67-1.28-.44-.27-1.17-.53-2.19-.77-1.15-.29-2.08-.58-2.8-.9-.72-.31-1.3-.73-1.73-1.24-.43-.51-.65-1.14-.65-1.89,0-.67.2-1.3.6-1.89.4-.59.99-1.07,1.76-1.42.78-.35,1.71-.53,2.81-.53.86,0,1.64.09,2.33.27.69.18,1.26.42,1.72.72s.81.63,1.05,1,.36.72.36,1.07c0,.38-.13.7-.38.94-.26.24-.62.37-1.09.37-.34,0-.63-.1-.87-.29s-.51-.49-.82-.88c-.25-.33-.55-.59-.89-.78s-.81-.29-1.39-.29-1.1.13-1.5.38c-.4.26-.6.58-.6.96,0,.35.15.64.44.86s.69.41,1.18.56c.5.15,1.18.33,2.05.54,1.03.25,1.88.55,2.53.9.66.35,1.15.76,1.49,1.24.34.48.51,1.02.51,1.63Z"/>
        <path class="cls-3" d="M560.85,82.37v-.43c-.4.5-.82.93-1.26,1.27s-.92.6-1.44.76c-.52.17-1.12.25-1.78.25-.81,0-1.53-.17-2.17-.5-.64-.33-1.13-.79-1.48-1.38-.42-.71-.62-1.72-.62-3.05v-6.6c0-.67.15-1.17.45-1.5.3-.33.7-.49,1.2-.49s.91.17,1.22.5c.31.33.46.83.46,1.49v5.33c0,.77.07,1.42.2,1.95.13.53.36.94.7,1.23s.79.45,1.37.45,1.09-.17,1.59-.5c.5-.33.86-.77,1.09-1.31.19-.47.28-1.51.28-3.1v-4.05c0-.66.15-1.16.46-1.49.31-.33.71-.5,1.21-.5s.89.16,1.2.49c.3.33.45.83.45,1.5v9.66c0,.63-.14,1.11-.43,1.43-.29.32-.66.48-1.12.48s-.83-.16-1.13-.49c-.3-.33-.45-.79-.45-1.38Z"/>
        <path class="cls-3" d="M570.37,67.65v5.09c.63-.65,1.26-1.15,1.92-1.5.65-.35,1.46-.52,2.42-.52,1.11,0,2.08.26,2.91.79.83.52,1.48,1.29,1.94,2.28.46,1,.69,2.18.69,3.55,0,1.01-.13,1.93-.38,2.78-.26.84-.63,1.57-1.12,2.19s-1.08,1.1-1.78,1.43c-.7.34-1.46.51-2.3.51-.51,0-1-.06-1.45-.18s-.84-.28-1.15-.48c-.32-.2-.59-.4-.81-.62-.22-.21-.52-.53-.89-.95v.33c0,.63-.15,1.1-.45,1.42s-.68.48-1.15.48-.85-.16-1.13-.48c-.28-.32-.42-.8-.42-1.42v-14.55c0-.67.14-1.19.41-1.53.27-.35.65-.52,1.14-.52s.91.17,1.18.5c.28.33.42.8.42,1.41ZM570.53,77.55c0,1.33.3,2.35.91,3.06.61.71,1.4,1.07,2.39,1.07.84,0,1.56-.36,2.17-1.09.61-.73.91-1.77.91-3.13,0-.88-.13-1.64-.38-2.27-.25-.63-.61-1.12-1.07-1.47s-1-.52-1.62-.52-1.2.17-1.7.52c-.5.35-.89.85-1.17,1.5-.29.66-.43,1.43-.43,2.34Z"/>
        <path class="cls-3" d="M593.65,79.9c0,.92-.22,1.71-.67,2.36-.45.66-1.11,1.15-1.98,1.49-.88.34-1.94.51-3.19.51s-2.22-.18-3.08-.55-1.49-.82-1.89-1.37c-.41-.55-.61-1.1-.61-1.65,0-.37.13-.68.39-.94s.59-.39.99-.39c.35,0,.62.08.81.26s.37.41.54.72c.34.59.75,1.04,1.23,1.33s1.12.44,1.95.44c.67,0,1.21-.15,1.64-.45.43-.3.64-.64.64-1.02,0-.59-.22-1.01-.67-1.28-.44-.27-1.17-.53-2.19-.77-1.15-.29-2.08-.58-2.8-.9-.72-.31-1.3-.73-1.73-1.24-.43-.51-.65-1.14-.65-1.89,0-.67.2-1.3.6-1.89.4-.59.99-1.07,1.76-1.42.78-.35,1.71-.53,2.81-.53.86,0,1.64.09,2.33.27.69.18,1.26.42,1.72.72.46.3.81.63,1.05,1,.24.37.36.72.36,1.07,0,.38-.13.7-.38.94s-.62.37-1.09.37c-.34,0-.63-.1-.87-.29s-.52-.49-.82-.88c-.25-.33-.55-.59-.89-.78s-.81-.29-1.39-.29-1.1.13-1.5.38c-.4.26-.6.58-.6.96,0,.35.15.64.44.86s.69.41,1.18.56c.5.15,1.18.33,2.05.54,1.03.25,1.88.55,2.53.9.66.35,1.15.76,1.49,1.24.34.48.51,1.02.51,1.63Z"/>
        <path class="cls-3" d="M596.65,71h.37v-2c0-.54.01-.96.04-1.26.03-.31.11-.57.24-.79.13-.23.32-.41.56-.56s.52-.21.82-.21c.42,0,.81.16,1.15.48.23.21.37.47.43.77.06.31.09.74.09,1.3v2.27h1.22c.47,0,.83.11,1.08.33.25.22.37.51.37.86,0,.45-.18.76-.53.94-.35.18-.86.27-1.52.27h-.62v6.13c0,.52.02.92.06,1.2.04.28.13.51.29.68.16.18.42.26.77.26.2,0,.46-.03.79-.1.33-.07.59-.1.78-.1.27,0,.51.11.73.32.21.22.32.48.32.8,0,.54-.29.95-.88,1.23s-1.43.43-2.53.43c-1.04,0-1.83-.17-2.37-.52s-.89-.83-1.06-1.45c-.17-.62-.25-1.45-.25-2.48v-6.4h-.44c-.48,0-.85-.11-1.1-.34-.25-.23-.38-.52-.38-.87s.13-.64.4-.86c.26-.22.65-.33,1.15-.33Z"/>
        <path class="cls-3" d="M607,69.15c-.46,0-.86-.14-1.19-.43-.33-.28-.5-.69-.5-1.21,0-.47.17-.86.51-1.17.34-.3.73-.46,1.18-.46s.81.14,1.15.42c.33.28.5.68.5,1.21s-.16.91-.49,1.2c-.33.29-.71.43-1.16.43ZM608.65,72.6v9.63c0,.67-.16,1.17-.48,1.51-.32.34-.72.51-1.21.51s-.88-.17-1.19-.52c-.3-.35-.46-.85-.46-1.5v-9.53c0-.66.15-1.16.46-1.49.31-.33.7-.5,1.19-.5s.89.17,1.21.5c.32.33.48.8.48,1.39Z"/>
        <path class="cls-3" d="M612.27,71h.37v-2c0-.54.01-.96.04-1.26.03-.31.11-.57.24-.79.13-.23.32-.41.56-.56s.52-.21.82-.21c.42,0,.81.16,1.15.48.23.21.37.47.43.77.06.31.09.74.09,1.3v2.27h1.22c.47,0,.83.11,1.08.33.25.22.37.51.37.86,0,.45-.18.76-.53.94-.35.18-.86.27-1.52.27h-.62v6.13c0,.52.02.92.06,1.2.04.28.13.51.29.68.16.18.42.26.77.26.2,0,.46-.03.79-.1.33-.07.59-.1.78-.1.27,0,.51.11.73.32.21.22.32.48.32.8,0,.54-.29.95-.88,1.23s-1.43.43-2.53.43c-1.04,0-1.83-.17-2.37-.52s-.89-.83-1.06-1.45c-.17-.62-.25-1.45-.25-2.48v-6.4h-.44c-.48,0-.85-.11-1.1-.34-.25-.23-.38-.52-.38-.87s.13-.64.4-.86c.26-.22.65-.33,1.15-.33Z"/>
        <path class="cls-3" d="M629.6,82.37v-.43c-.4.5-.82.93-1.26,1.27s-.92.6-1.44.76c-.52.17-1.12.25-1.78.25-.81,0-1.53-.17-2.17-.5-.64-.33-1.13-.79-1.48-1.38-.42-.71-.62-1.72-.62-3.05v-6.6c0-.67.15-1.17.45-1.5.3-.33.7-.49,1.2-.49s.91.17,1.22.5c.31.33.46.83.46,1.49v5.33c0,.77.07,1.42.2,1.95.13.53.36.94.7,1.23s.79.45,1.37.45,1.09-.17,1.59-.5c.5-.33.86-.77,1.09-1.31.19-.47.28-1.51.28-3.1v-4.05c0-.66.15-1.16.46-1.49.31-.33.71-.5,1.21-.5s.89.16,1.2.49c.3.33.45.83.45,1.5v9.66c0,.63-.14,1.11-.43,1.43-.29.32-.66.48-1.12.48s-.83-.16-1.13-.49c-.3-.33-.45-.79-.45-1.38Z"/>
        <path class="cls-3" d="M636.22,71h.37v-2c0-.54.01-.96.04-1.26.03-.31.11-.57.24-.79.13-.23.32-.41.56-.56s.52-.21.82-.21c.42,0,.8.16,1.15.48.23.21.37.47.43.77.06.31.09.74.09,1.3v2.27h1.22c.47,0,.83.11,1.08.33.25.22.37.51.37.86,0,.45-.18.76-.53.94s-.86.27-1.52.27h-.62v6.13c0,.52.02.92.05,1.2.04.28.13.51.29.68.16.18.42.26.78.26.2,0,.46-.03.79-.1s.59-.1.78-.1c.27,0,.51.11.73.32.22.22.32.48.32.8,0,.54-.29.95-.88,1.23s-1.43.43-2.53.43c-1.04,0-1.83-.17-2.37-.52s-.89-.83-1.06-1.45c-.17-.62-.25-1.45-.25-2.48v-6.4h-.44c-.48,0-.85-.11-1.1-.34s-.38-.52-.38-.87.13-.64.4-.86c.26-.22.65-.33,1.15-.33Z"/>
        <path class="cls-3" d="M653.31,82.37c-.8.63-1.58,1.1-2.34,1.41-.75.31-1.6.47-2.53.47-.85,0-1.61-.17-2.25-.51-.65-.34-1.15-.8-1.5-1.37-.35-.58-.53-1.21-.53-1.88,0-.91.29-1.69.87-2.33.58-.64,1.37-1.07,2.38-1.29.21-.05.74-.16,1.58-.33.84-.17,1.56-.33,2.15-.47.6-.14,1.25-.32,1.95-.52-.04-.88-.22-1.52-.53-1.93-.31-.41-.96-.62-1.95-.62-.85,0-1.48.12-1.91.35-.43.24-.79.59-1.1,1.06-.31.47-.52.78-.65.93-.13.15-.4.23-.81.23-.37,0-.7-.12-.97-.36-.27-.24-.41-.55-.41-.92,0-.59.21-1.16.62-1.71.42-.55,1.06-1.01,1.94-1.37.88-.36,1.97-.54,3.28-.54,1.46,0,2.62.17,3.46.52.84.35,1.43.89,1.78,1.64s.52,1.74.52,2.98c0,.78,0,1.44,0,1.99,0,.55-.01,1.15-.02,1.82,0,.63.1,1.28.31,1.96.21.68.31,1.12.31,1.31,0,.34-.16.65-.48.93-.32.28-.69.42-1.09.42-.34,0-.68-.16-1.01-.48s-.69-.79-1.06-1.4ZM653.09,77.55c-.49.18-1.2.37-2.13.57-.93.2-1.58.35-1.93.44-.36.09-.7.28-1.03.55s-.49.65-.49,1.14.19.93.57,1.29c.38.35.88.53,1.5.53.66,0,1.27-.14,1.83-.43.56-.29.97-.66,1.23-1.12.3-.5.45-1.33.45-2.49v-.48Z"/>
        <path class="cls-3" d="M676.92,78.75h-12.79v-2.25h12.79v2.25Z"/>
        <path class="cls-3" d="M694.05,78.3h-6.52c0,.76.16,1.42.46,2,.3.58.69,1.01,1.18,1.31.49.29,1.04.44,1.63.44.4,0,.76-.05,1.09-.14.33-.09.65-.24.96-.44.31-.2.59-.41.86-.64.26-.23.6-.54,1.01-.93.17-.15.42-.22.73-.22.34,0,.62.09.83.28.21.19.32.45.32.79,0,.3-.12.65-.35,1.06-.24.4-.59.79-1.07,1.16-.48.37-1.07.68-1.79.92-.72.24-1.55.37-2.48.37-2.14,0-3.8-.61-4.99-1.83s-1.78-2.88-1.78-4.97c0-.98.15-1.9.44-2.74.29-.84.72-1.56,1.28-2.17.56-.6,1.25-1.06,2.07-1.39.82-.32,1.73-.48,2.73-.48,1.3,0,2.42.28,3.35.82.93.55,1.63,1.26,2.09,2.13.46.87.7,1.76.7,2.66,0,.84-.24,1.38-.72,1.63-.48.25-1.16.37-2.03.37ZM687.53,76.4h6.04c-.08-1.14-.39-1.99-.92-2.56-.53-.57-1.23-.85-2.11-.85s-1.51.29-2.04.86c-.53.57-.86,1.42-.97,2.54Z"/>
        <path class="cls-3" d="M710.33,79.9c0,.92-.22,1.71-.67,2.36-.45.66-1.11,1.15-1.98,1.49-.88.34-1.94.51-3.19.51s-2.22-.18-3.08-.55c-.85-.37-1.48-.82-1.89-1.37-.41-.55-.61-1.1-.61-1.65,0-.37.13-.68.39-.94.26-.26.59-.39.99-.39.35,0,.62.08.81.26.19.17.37.41.54.72.34.59.75,1.04,1.23,1.33.48.29,1.12.44,1.95.44.67,0,1.21-.15,1.64-.45.43-.3.64-.64.64-1.02,0-.59-.22-1.01-.67-1.28-.44-.27-1.17-.53-2.19-.77-1.15-.29-2.08-.58-2.8-.9-.72-.31-1.3-.73-1.73-1.24-.43-.51-.65-1.14-.65-1.89,0-.67.2-1.3.6-1.89.4-.59.99-1.07,1.76-1.42.78-.35,1.71-.53,2.81-.53.86,0,1.64.09,2.33.27.69.18,1.26.42,1.72.72.46.3.81.63,1.05,1,.24.37.36.72.36,1.07,0,.38-.13.7-.38.94-.26.24-.62.37-1.09.37-.34,0-.63-.1-.87-.29s-.51-.49-.82-.88c-.25-.33-.55-.59-.89-.78s-.81-.29-1.39-.29-1.1.13-1.5.38c-.4.26-.6.58-.6.96,0,.35.15.64.44.86s.69.41,1.18.56c.5.15,1.18.33,2.05.54,1.03.25,1.88.55,2.53.9.66.35,1.15.76,1.49,1.24.34.48.51,1.02.51,1.63Z"/>
        <path class="cls-3" d="M713.34,71h.37v-2c0-.54.01-.96.04-1.26.03-.31.11-.57.24-.79.13-.23.32-.41.56-.56s.52-.21.82-.21c.42,0,.81.16,1.15.48.23.21.37.47.43.77.06.31.09.74.09,1.3v2.27h1.22c.47,0,.83.11,1.08.33.25.22.37.51.37.86,0,.45-.18.76-.53.94-.35.18-.86.27-1.52.27h-.62v6.13c0,.52.02.92.05,1.2.04.28.13.51.29.68.16.18.42.26.78.26.2,0,.46-.03.79-.1s.59-.1.78-.1c.27,0,.51.11.73.32.21.22.32.48.32.8,0,.54-.29.95-.88,1.23s-1.43.43-2.53.43-1.83-.17-2.37-.52-.89-.83-1.06-1.45c-.17-.62-.25-1.45-.25-2.48v-6.4h-.44c-.48,0-.85-.11-1.1-.34s-.38-.52-.38-.87.13-.64.4-.86c.26-.22.65-.33,1.15-.33Z"/>
        <path class="cls-3" d="M730.43,82.37c-.81.63-1.59,1.1-2.34,1.41-.75.31-1.6.47-2.53.47-.85,0-1.61-.17-2.25-.51-.65-.34-1.15-.8-1.5-1.37-.35-.58-.52-1.21-.52-1.88,0-.91.29-1.69.87-2.33.58-.64,1.37-1.07,2.38-1.29.21-.05.74-.16,1.57-.33.84-.17,1.56-.33,2.16-.47.6-.14,1.25-.32,1.95-.52-.04-.88-.22-1.52-.53-1.93-.31-.41-.96-.62-1.95-.62-.85,0-1.48.12-1.91.35-.43.24-.79.59-1.1,1.06-.31.47-.52.78-.65.93s-.4.23-.81.23c-.37,0-.7-.12-.97-.36-.27-.24-.41-.55-.41-.92,0-.59.21-1.16.62-1.71.42-.55,1.06-1.01,1.94-1.37.88-.36,1.97-.54,3.28-.54,1.46,0,2.62.17,3.45.52.84.35,1.43.89,1.78,1.64s.52,1.74.52,2.98c0,.78,0,1.44,0,1.99,0,.55,0,1.15-.02,1.82,0,.63.1,1.28.31,1.96.21.68.31,1.12.31,1.31,0,.34-.16.65-.48.93-.32.28-.69.42-1.09.42-.34,0-.68-.16-1.01-.48s-.69-.79-1.06-1.4ZM730.21,77.55c-.49.18-1.2.37-2.13.57-.93.2-1.58.35-1.93.44-.36.09-.7.28-1.03.55s-.49.65-.49,1.14.19.93.57,1.29c.38.35.88.53,1.5.53.66,0,1.27-.14,1.83-.43.56-.29.97-.66,1.23-1.12.3-.5.45-1.33.45-2.49v-.48Z"/>
        <path class="cls-3" d="M736.42,71h.37v-2c0-.54.01-.96.04-1.26.03-.31.11-.57.24-.79.13-.23.32-.41.56-.56s.52-.21.82-.21c.42,0,.81.16,1.15.48.23.21.37.47.43.77.06.31.09.74.09,1.3v2.27h1.22c.47,0,.83.11,1.08.33.25.22.37.51.37.86,0,.45-.18.76-.53.94-.35.18-.86.27-1.52.27h-.62v6.13c0,.52.02.92.05,1.2.04.28.13.51.29.68.16.18.42.26.78.26.2,0,.46-.03.79-.1s.59-.1.78-.1c.27,0,.51.11.73.32.21.22.32.48.32.8,0,.54-.29.95-.88,1.23s-1.43.43-2.53.43-1.83-.17-2.37-.52-.89-.83-1.06-1.45c-.17-.62-.25-1.45-.25-2.48v-6.4h-.44c-.48,0-.85-.11-1.1-.34s-.38-.52-.38-.87.13-.64.4-.86c.26-.22.65-.33,1.15-.33Z"/>
        <path class="cls-3" d="M753.74,82.37v-.43c-.4.5-.82.93-1.26,1.27s-.92.6-1.44.76c-.52.17-1.11.25-1.78.25-.81,0-1.53-.17-2.17-.5-.64-.33-1.13-.79-1.48-1.38-.42-.71-.62-1.72-.62-3.05v-6.6c0-.67.15-1.17.45-1.5.3-.33.7-.49,1.2-.49s.91.17,1.22.5.46.83.46,1.49v5.33c0,.77.07,1.42.2,1.95.13.53.36.94.7,1.23.34.3.79.45,1.37.45s1.09-.17,1.59-.5c.5-.33.86-.77,1.09-1.31.19-.47.28-1.51.28-3.1v-4.05c0-.66.15-1.16.46-1.49s.71-.5,1.21-.5.89.16,1.2.49c.3.33.45.83.45,1.5v9.66c0,.63-.14,1.11-.43,1.43s-.66.48-1.12.48-.83-.16-1.13-.49c-.3-.33-.45-.79-.45-1.38Z"/>
        <path class="cls-3" d="M760.37,71h.37v-2c0-.54.01-.96.04-1.26.03-.31.11-.57.24-.79.13-.23.32-.41.56-.56s.52-.21.82-.21c.42,0,.81.16,1.15.48.23.21.37.47.43.77.06.31.09.74.09,1.3v2.27h1.22c.47,0,.83.11,1.08.33.25.22.37.51.37.86,0,.45-.18.76-.53.94-.35.18-.86.27-1.52.27h-.62v6.13c0,.52.02.92.05,1.2.04.28.13.51.29.68.16.18.42.26.78.26.2,0,.46-.03.79-.1s.59-.1.78-.1c.27,0,.51.11.73.32.21.22.32.48.32.8,0,.54-.29.95-.88,1.23s-1.43.43-2.53.43-1.83-.17-2.37-.52-.89-.83-1.06-1.45c-.17-.62-.25-1.45-.25-2.48v-6.4h-.44c-.48,0-.85-.11-1.1-.34s-.38-.52-.38-.87.13-.64.4-.86c.26-.22.65-.33,1.15-.33Z"/>
        <path class="cls-3" d="M781.51,77.48c0,.99-.16,1.91-.46,2.75-.31.84-.76,1.56-1.34,2.16s-1.29,1.06-2.1,1.39c-.81.32-1.73.48-2.75.48s-1.92-.16-2.72-.49c-.81-.33-1.5-.79-2.09-1.4-.59-.61-1.04-1.32-1.34-2.15-.31-.83-.46-1.74-.46-2.74s.15-1.93.46-2.77c.31-.84.75-1.55,1.33-2.15.58-.59,1.28-1.05,2.1-1.37.82-.32,1.73-.48,2.72-.48s1.92.16,2.75.49c.82.33,1.53.79,2.11,1.39.59.6,1.03,1.32,1.34,2.15.3.83.46,1.75.46,2.75ZM778.17,77.48c0-1.36-.3-2.42-.9-3.17-.6-.76-1.4-1.14-2.41-1.14-.65,0-1.22.17-1.72.51-.5.34-.88.84-1.15,1.5-.27.66-.4,1.43-.4,2.31s.13,1.63.4,2.28c.26.65.64,1.15,1.14,1.5.49.35,1.07.52,1.74.52,1.01,0,1.81-.38,2.41-1.14.6-.76.9-1.81.9-3.16Z"/>
        <path class="cls-3" d="M801.31,78.75h-12.79v-2.25h12.79v2.25Z"/>
        <path class="cls-3" d="M38.32,118.95l3.74-17.9h2.21l-1.43,6.87c.82-.8,1.59-1.37,2.29-1.71.71-.35,1.44-.52,2.19-.52,1.07,0,1.91.28,2.5.85.59.57.89,1.31.89,2.24,0,.46-.13,1.29-.39,2.51l-1.6,7.65h-2.21l1.65-7.85c.24-1.14.35-1.86.35-2.15,0-.42-.15-.77-.44-1.04s-.72-.4-1.27-.4c-.8,0-1.56.21-2.28.63-.72.42-1.29.99-1.7,1.72-.41.73-.79,1.9-1.13,3.52l-1.16,5.57h-2.21Z"/>
        <path class="cls-3" d="M60.96,117.34c-.77.66-1.5,1.14-2.21,1.45-.71.31-1.46.46-2.27.46-1.2,0-2.16-.35-2.89-1.06s-1.1-1.61-1.1-2.7c0-.72.17-1.37.49-1.92.33-.56.77-1,1.31-1.34.54-.34,1.21-.58,2-.73.5-.1,1.44-.17,2.83-.23,1.39-.06,2.38-.2,2.98-.44.17-.6.26-1.1.26-1.5,0-.51-.19-.92-.56-1.21-.51-.41-1.26-.61-2.25-.61-.93,0-1.69.21-2.28.62-.59.41-1.02,1-1.29,1.75l-2.23-.2c.46-1.29,1.18-2.27,2.17-2.95.99-.68,2.24-1.03,3.74-1.03,1.6,0,2.87.38,3.81,1.15.72.57,1.07,1.31,1.07,2.22,0,.69-.1,1.49-.31,2.41l-.72,3.22c-.23,1.03-.34,1.86-.34,2.5,0,.41.09.99.27,1.76h-2.23c-.12-.42-.21-.96-.26-1.61ZM61.78,112.38c-.31.12-.64.22-.99.28-.35.07-.95.13-1.78.21-1.29.11-2.19.26-2.72.43-.53.17-.93.45-1.2.84s-.4.81-.4,1.27c0,.62.21,1.13.64,1.53.43.4,1.04.6,1.83.6.73,0,1.44-.19,2.11-.58.68-.39,1.21-.93,1.6-1.62s.7-1.68.92-2.95Z"/>
        <path class="cls-3" d="M66.12,118.95l3.74-17.9h2.21l-1.33,6.4c.7-.64,1.33-1.1,1.9-1.36.57-.26,1.16-.4,1.78-.4,1.21,0,2.22.45,3.03,1.35.81.9,1.21,2.22,1.21,3.94,0,1.15-.16,2.2-.49,3.15-.33.95-.73,1.75-1.21,2.4-.48.65-.98,1.16-1.49,1.55s-1.04.68-1.57.87c-.54.19-1.05.29-1.55.29-.85,0-1.61-.23-2.26-.68-.65-.45-1.16-1.14-1.53-2.07l-.51,2.45h-1.94ZM69.4,113.63v.42c-.01,1.11.25,1.95.78,2.53.53.58,1.19.87,1.98.87s1.48-.27,2.13-.81c.65-.54,1.18-1.39,1.59-2.53s.62-2.21.62-3.17c0-1.09-.26-1.94-.79-2.54-.53-.6-1.17-.9-1.95-.9s-1.53.31-2.2.92c-.67.61-1.23,1.56-1.67,2.84-.33.95-.5,1.75-.5,2.39Z"/>
        <path class="cls-3" d="M89.55,114.54l2.15.22c-.31,1.07-1.02,2.08-2.13,3.04-1.11.96-2.44,1.44-3.97,1.44-.96,0-1.84-.22-2.64-.67-.8-.44-1.41-1.09-1.83-1.93-.42-.85-.63-1.81-.63-2.89,0-1.42.33-2.79.98-4.12.66-1.33,1.5-2.32,2.55-2.97,1.04-.65,2.17-.97,3.38-.97,1.55,0,2.78.48,3.71,1.44.92.96,1.39,2.27,1.39,3.93,0,.63-.06,1.29-.17,1.95h-9.55c-.03.25-.05.48-.05.68,0,1.21.28,2.14.84,2.78.56.64,1.24.96,2.04.96.76,0,1.5-.25,2.23-.74.73-.5,1.3-1.21,1.71-2.15ZM83.13,111.33h7.28c0-.23.01-.39.01-.49,0-1.11-.28-1.96-.83-2.54-.55-.59-1.27-.88-2.14-.88-.94,0-1.8.33-2.58.98-.78.65-1.36,1.63-1.74,2.94Z"/>
        <path class="cls-3" d="M102.67,117.34c-.77.66-1.5,1.14-2.21,1.45-.71.31-1.46.46-2.27.46-1.2,0-2.16-.35-2.89-1.06s-1.1-1.61-1.1-2.7c0-.72.17-1.37.49-1.92.33-.56.77-1,1.31-1.34.54-.34,1.21-.58,2-.73.5-.1,1.44-.17,2.83-.23,1.39-.06,2.38-.2,2.98-.44.17-.6.26-1.1.26-1.5,0-.51-.19-.92-.56-1.21-.51-.41-1.26-.61-2.25-.61-.93,0-1.69.21-2.28.62-.59.41-1.02,1-1.29,1.75l-2.23-.2c.46-1.29,1.18-2.27,2.17-2.95.99-.68,2.24-1.03,3.74-1.03,1.6,0,2.87.38,3.81,1.15.72.57,1.07,1.31,1.07,2.22,0,.69-.1,1.49-.31,2.41l-.72,3.22c-.23,1.03-.34,1.86-.34,2.5,0,.41.09.99.27,1.76h-2.23c-.12-.42-.21-.96-.26-1.61ZM103.49,112.38c-.31.12-.64.22-.99.28-.35.07-.95.13-1.78.21-1.29.11-2.19.26-2.72.43-.53.17-.93.45-1.2.84s-.4.81-.4,1.27c0,.62.21,1.13.64,1.53.43.4,1.04.6,1.83.6.73,0,1.44-.19,2.11-.58.68-.39,1.21-.93,1.6-1.62s.7-1.68.92-2.95Z"/>
        <path class="cls-3" d="M108.04,114.52l2.21-.13c0,.63.1,1.18.29,1.62.2.45.56.81,1.08,1.1.53.29,1.14.43,1.84.43.98,0,1.71-.2,2.2-.59s.73-.85.73-1.38c0-.38-.15-.75-.44-1.09-.3-.34-1.04-.76-2.2-1.26-1.17-.5-1.91-.85-2.24-1.06-.55-.33-.96-.73-1.23-1.18-.28-.45-.42-.97-.42-1.56,0-1.03.41-1.9,1.22-2.64.81-.73,1.95-1.1,3.42-1.1,1.63,0,2.87.38,3.72,1.13.85.75,1.29,1.74,1.32,2.97l-2.16.15c-.03-.78-.31-1.4-.83-1.86-.52-.46-1.26-.68-2.21-.68-.77,0-1.36.17-1.78.52-.42.35-.63.73-.63,1.14s.18.76.55,1.07c.24.21.87.54,1.89.98,1.69.73,2.76,1.31,3.2,1.73.7.68,1.05,1.5,1.05,2.47,0,.64-.2,1.27-.59,1.89-.39.62-1,1.11-1.81,1.48-.81.37-1.76.56-2.86.56-1.5,0-2.77-.37-3.82-1.11-1.05-.74-1.55-1.94-1.49-3.61Z"/>
        <path class="cls-3" d="M136.23,114.22l2.21.23c-.55,1.62-1.34,2.82-2.36,3.61-1.02.79-2.18,1.18-3.48,1.18-1.41,0-2.55-.46-3.42-1.37-.87-.91-1.31-2.19-1.31-3.82,0-1.42.28-2.81.84-4.18s1.37-2.41,2.41-3.12c1.05-.71,2.24-1.07,3.58-1.07s2.49.39,3.31,1.18c.81.79,1.22,1.83,1.22,3.12l-2.17.15c0-.82-.25-1.46-.71-1.93-.47-.46-1.08-.7-1.85-.7-.89,0-1.66.28-2.31.84-.65.56-1.16,1.41-1.53,2.56-.37,1.14-.56,2.24-.56,3.3s.24,1.94.73,2.49,1.09.83,1.81.83,1.4-.27,2.06-.82c.66-.54,1.17-1.38,1.54-2.49Z"/>
        <path class="cls-3" d="M140.17,114.03c0-2.53.74-4.63,2.23-6.29,1.23-1.37,2.84-2.05,4.83-2.05,1.56,0,2.82.49,3.78,1.46.96.98,1.43,2.29,1.43,3.96,0,1.49-.3,2.88-.9,4.16-.6,1.28-1.46,2.26-2.57,2.95-1.11.68-2.28,1.03-3.51,1.03-1.01,0-1.93-.22-2.75-.65-.83-.43-1.46-1.04-1.89-1.83-.44-.79-.65-1.7-.65-2.73ZM142.38,113.81c0,1.22.29,2.15.88,2.78.59.63,1.33.95,2.23.95.47,0,.94-.1,1.4-.29.46-.19.9-.48,1.29-.87.4-.39.74-.84,1.02-1.34.28-.5.51-1.04.68-1.62.25-.81.38-1.58.38-2.32,0-1.17-.29-2.08-.89-2.73-.59-.65-1.33-.97-2.23-.97-.69,0-1.32.17-1.89.49-.57.33-1.08.81-1.54,1.45-.46.63-.8,1.37-1.01,2.22-.22.84-.32,1.59-.32,2.25Z"/>
        <path class="cls-3" d="M153.69,118.95l2.71-12.96h1.95l-.55,2.65c.67-1,1.32-1.74,1.96-2.22.64-.48,1.29-.72,1.96-.72.44,0,.98.16,1.62.48l-.9,2.05c-.38-.28-.8-.41-1.26-.41-.77,0-1.57.43-2.38,1.29-.81.86-1.45,2.41-1.92,4.65l-1.1,5.2h-2.1Z"/>
        <path class="cls-3" d="M160.92,123.92l3.75-17.93h2.04l-.38,1.81c.76-.79,1.43-1.34,2.03-1.64.6-.31,1.23-.46,1.9-.46,1.24,0,2.26.45,3.08,1.35.81.9,1.22,2.19,1.22,3.86,0,1.35-.22,2.58-.67,3.69-.45,1.11-1,2-1.65,2.68-.65.67-1.31,1.17-1.98,1.49-.67.32-1.35.48-2.05.48-1.55,0-2.76-.79-3.61-2.37l-1.46,7.04h-2.21ZM165.29,113.65c0,.97.07,1.64.21,2.01.2.53.54.96,1,1.28s1,.49,1.61.49c1.27,0,2.29-.71,3.08-2.14.78-1.43,1.17-2.89,1.17-4.38,0-1.1-.26-1.95-.79-2.54-.53-.6-1.18-.9-1.96-.9-.56,0-1.08.15-1.56.45-.48.3-.93.74-1.34,1.33-.41.59-.75,1.31-1.02,2.17-.27.85-.4,1.6-.4,2.23Z"/>
        <path class="cls-3" d="M184.77,116.6c-1.55,1.76-3.15,2.64-4.77,2.64-1,0-1.81-.29-2.42-.86-.61-.57-.92-1.28-.92-2.11,0-.54.14-1.48.42-2.81l1.56-7.48h2.21l-1.73,8.29c-.15.69-.22,1.23-.22,1.61,0,.49.15.87.45,1.14.3.27.73.41,1.31.41.62,0,1.22-.15,1.81-.45.59-.3,1.1-.71,1.53-1.22.43-.51.78-1.12,1.04-1.82.18-.45.39-1.23.62-2.36l1.17-5.6h2.21l-2.71,12.96h-2.04l.49-2.34Z"/>
        <path class="cls-3" d="M190.03,114.52l2.21-.13c0,.63.1,1.18.29,1.62.2.45.56.81,1.08,1.1.53.29,1.14.43,1.84.43.98,0,1.71-.2,2.2-.59s.73-.85.73-1.38c0-.38-.15-.75-.44-1.09-.3-.34-1.04-.76-2.2-1.26-1.17-.5-1.91-.85-2.24-1.06-.55-.33-.96-.73-1.23-1.18-.28-.45-.42-.97-.42-1.56,0-1.03.41-1.9,1.22-2.64.81-.73,1.95-1.1,3.42-1.1,1.63,0,2.87.38,3.72,1.13.85.75,1.29,1.74,1.32,2.97l-2.16.15c-.03-.78-.31-1.4-.83-1.86-.52-.46-1.26-.68-2.21-.68-.77,0-1.36.17-1.78.52-.42.35-.63.73-.63,1.14s.18.76.55,1.07c.24.21.87.54,1.89.98,1.69.73,2.76,1.31,3.2,1.73.7.68,1.05,1.5,1.05,2.47,0,.64-.2,1.27-.59,1.89-.39.62-1,1.11-1.81,1.48-.81.37-1.76.56-2.86.56-1.5,0-2.77-.37-3.82-1.11-1.05-.74-1.55-1.94-1.49-3.61Z"/>
        <path class="cls-3" d="M220.39,113.75h-12.79v-2.25h12.79v2.25Z"/>
        <path class="cls-3" d="M229.9,104.15c-.46,0-.86-.14-1.19-.43-.33-.28-.49-.69-.49-1.21,0-.47.17-.86.51-1.17.34-.3.73-.46,1.18-.46s.81.14,1.15.42c.33.28.5.68.5,1.21s-.16.91-.49,1.2c-.33.29-.71.43-1.16.43ZM231.54,107.6v9.63c0,.67-.16,1.17-.48,1.51s-.72.51-1.21.51-.88-.17-1.19-.52c-.3-.35-.46-.85-.46-1.5v-9.53c0-.66.15-1.16.46-1.49.31-.33.7-.5,1.19-.5s.89.17,1.21.5.48.8.48,1.39Z"/>
        <path class="cls-3" d="M238.01,107.55v.4c.59-.77,1.23-1.34,1.92-1.7.7-.36,1.5-.54,2.4-.54s1.66.19,2.36.57c.69.38,1.21.92,1.55,1.62.22.41.36.85.43,1.32.06.47.1,1.07.1,1.81v6.2c0,.67-.15,1.17-.46,1.51-.3.34-.7.51-1.19.51s-.9-.17-1.21-.52c-.31-.35-.46-.85-.46-1.5v-5.55c0-1.1-.15-1.94-.46-2.52-.3-.58-.91-.87-1.82-.87-.59,0-1.14.18-1.62.53-.49.35-.85.84-1.07,1.46-.16.5-.24,1.42-.24,2.78v4.18c0,.67-.16,1.18-.47,1.52-.31.34-.72.51-1.21.51s-.88-.17-1.18-.52c-.31-.35-.46-.85-.46-1.5v-9.63c0-.63.14-1.11.42-1.42.28-.31.65-.47,1.14-.47.29,0,.56.07.79.21.24.14.43.35.57.62.14.28.21.61.21,1.01Z"/>
        <path class="cls-3" d="M259.22,117.35v-.33c-.45.51-.89.93-1.32,1.25-.44.32-.91.57-1.42.73-.51.17-1.06.25-1.67.25-.8,0-1.54-.17-2.22-.51-.68-.34-1.27-.82-1.76-1.45-.5-.63-.87-1.36-1.13-2.21-.26-.85-.38-1.76-.38-2.75,0-2.08.51-3.71,1.53-4.87,1.02-1.16,2.36-1.75,4.02-1.75.96,0,1.77.17,2.43.5.66.33,1.3.84,1.93,1.52v-4.92c0-.68.14-1.2.41-1.55.27-.35.66-.53,1.17-.53s.89.16,1.17.48c.27.32.41.8.41,1.42v14.7c0,.63-.15,1.11-.44,1.43s-.67.48-1.14.48-.83-.16-1.13-.49c-.3-.33-.45-.8-.45-1.41ZM252.66,112.45c0,.9.14,1.67.42,2.31.28.63.67,1.11,1.15,1.43.49.32,1.02.48,1.6.48s1.12-.15,1.61-.46c.48-.3.87-.77,1.16-1.4.29-.63.43-1.42.43-2.36,0-.89-.14-1.65-.43-2.29-.29-.64-.68-1.13-1.17-1.46-.49-.34-1.03-.51-1.62-.51s-1.16.17-1.64.52c-.48.35-.85.84-1.12,1.49-.26.65-.4,1.4-.4,2.25Z"/>
        <path class="cls-3" d="M267.4,104.15c-.46,0-.86-.14-1.19-.43-.33-.28-.49-.69-.49-1.21,0-.47.17-.86.51-1.17.34-.3.73-.46,1.18-.46s.81.14,1.15.42c.33.28.5.68.5,1.21s-.16.91-.49,1.2c-.33.29-.71.43-1.16.43ZM269.04,107.6v9.63c0,.67-.16,1.17-.48,1.51s-.72.51-1.21.51-.88-.17-1.19-.52c-.3-.35-.46-.85-.46-1.5v-9.53c0-.66.15-1.16.46-1.49.31-.33.7-.5,1.19-.5s.89.17,1.21.5.48.8.48,1.39Z"/>
        <path class="cls-3" d="M284.44,115.13c0,.41-.12.86-.37,1.33-.25.47-.63.92-1.14,1.35-.51.43-1.15.77-1.92,1.03-.77.26-1.64.39-2.61.39-2.06,0-3.67-.6-4.82-1.8-1.16-1.2-1.73-2.81-1.73-4.83,0-1.37.26-2.58.79-3.62.53-1.05,1.29-1.86,2.29-2.44,1-.57,2.2-.86,3.59-.86.86,0,1.65.13,2.37.38.72.25,1.33.58,1.83.98.5.4.88.82,1.15,1.28.26.45.4.87.4,1.26s-.15.74-.45,1.01c-.3.28-.66.41-1.08.41-.28,0-.51-.07-.69-.21-.18-.14-.39-.37-.62-.69-.41-.62-.83-1.08-1.28-1.39-.44-.31-1.01-.46-1.69-.46-.98,0-1.78.38-2.38,1.15-.6.77-.9,1.82-.9,3.16,0,.63.08,1.2.23,1.73.15.52.38.97.67,1.34s.65.65,1.06.84c.42.19.87.29,1.37.29.67,0,1.24-.15,1.72-.46.48-.31.9-.78,1.26-1.42.2-.37.42-.67.66-.88.24-.21.52-.32.87-.32.41,0,.74.15,1.01.46s.4.64.4.99Z"/>
        <path class="cls-3" d="M289.03,104.15c-.46,0-.86-.14-1.19-.43-.33-.28-.49-.69-.49-1.21,0-.47.17-.86.51-1.17.34-.3.73-.46,1.18-.46s.81.14,1.15.42c.33.28.5.68.5,1.21s-.16.91-.49,1.2c-.33.29-.71.43-1.16.43ZM290.67,107.6v9.63c0,.67-.16,1.17-.48,1.51s-.72.51-1.21.51-.88-.17-1.19-.52c-.3-.35-.46-.85-.46-1.5v-9.53c0-.66.15-1.16.46-1.49.31-.33.7-.5,1.19-.5s.89.17,1.21.5.48.8.48,1.39Z"/>
        <path class="cls-3" d="M302.54,117.37c-.81.63-1.58,1.1-2.34,1.41-.75.31-1.6.47-2.53.47-.85,0-1.61-.17-2.25-.51-.65-.34-1.15-.8-1.5-1.37-.35-.58-.52-1.21-.52-1.88,0-.91.29-1.69.87-2.33.58-.64,1.37-1.07,2.38-1.29.21-.05.74-.16,1.57-.33.84-.17,1.56-.33,2.15-.47.6-.14,1.25-.32,1.95-.52-.04-.88-.22-1.52-.53-1.93-.31-.41-.96-.62-1.95-.62-.85,0-1.48.12-1.91.35-.43.24-.79.59-1.1,1.06-.31.47-.52.78-.65.93-.13.15-.4.23-.81.23-.37,0-.7-.12-.97-.36-.27-.24-.41-.55-.41-.92,0-.59.21-1.16.62-1.71.42-.55,1.06-1.01,1.94-1.37.88-.36,1.97-.54,3.28-.54,1.46,0,2.62.17,3.45.52.84.35,1.43.89,1.78,1.64.35.75.52,1.74.52,2.98,0,.78,0,1.44,0,1.99,0,.55-.01,1.15-.02,1.82,0,.63.1,1.28.31,1.96.21.68.31,1.12.31,1.31,0,.34-.16.65-.48.93-.32.28-.69.42-1.09.42-.34,0-.68-.16-1.01-.48-.33-.32-.69-.79-1.06-1.4ZM302.32,112.55c-.49.18-1.2.37-2.13.57-.93.2-1.58.35-1.93.44-.36.09-.7.28-1.03.55-.33.27-.49.65-.49,1.14s.19.93.57,1.29c.38.35.88.53,1.5.53.66,0,1.27-.14,1.83-.43.56-.29.97-.66,1.23-1.12.3-.5.45-1.33.45-2.49v-.48Z"/>
        <path class="cls-3" d="M312.28,114.44v2.78c0,.67-.16,1.18-.48,1.52-.32.34-.72.51-1.21.51s-.88-.17-1.18-.51c-.31-.34-.46-.85-.46-1.51v-9.28c0-1.5.54-2.25,1.62-2.25.55,0,.95.17,1.2.52s.38.87.4,1.55c.4-.68.81-1.2,1.23-1.55.42-.35.98-.52,1.68-.52s1.38.17,2.04.52.99.81.99,1.39c0,.41-.14.74-.42,1.01-.28.26-.58.4-.91.4-.12,0-.42-.08-.88-.23-.47-.15-.88-.23-1.24-.23-.49,0-.89.13-1.2.38-.31.26-.55.64-.72,1.14-.17.5-.29,1.1-.35,1.8-.07.7-.1,1.54-.1,2.55Z"/>
        <path class="cls-3" d="M337.1,113.75h-12.79v-2.25h12.79v2.25Z"/>
        <path class="cls-3" d="M344.92,117.23v-14.45c0-.67.15-1.17.45-1.51.3-.34.7-.51,1.2-.51s.91.17,1.22.51c.31.34.46.84.46,1.52v14.45c0,.67-.16,1.18-.47,1.52-.31.34-.72.51-1.21.51s-.88-.17-1.19-.52c-.3-.35-.46-.85-.46-1.5Z"/>
        <path class="cls-3" d="M361,113.3h-6.52c0,.76.16,1.42.46,2,.3.58.69,1.01,1.18,1.31.49.29,1.04.44,1.63.44.4,0,.76-.05,1.09-.14.33-.09.65-.24.96-.44.31-.2.59-.41.85-.64.26-.23.6-.54,1.01-.93.17-.15.42-.22.73-.22.34,0,.62.09.83.28.21.19.32.45.32.79,0,.3-.12.65-.35,1.06-.24.4-.59.79-1.07,1.16-.48.37-1.07.68-1.79.92-.72.24-1.55.37-2.48.37-2.14,0-3.8-.61-4.99-1.83-1.19-1.22-1.78-2.88-1.78-4.97,0-.98.15-1.9.44-2.74.29-.84.72-1.56,1.28-2.17s1.25-1.06,2.08-1.39c.82-.32,1.73-.48,2.73-.48,1.3,0,2.42.28,3.35.82.93.55,1.63,1.26,2.09,2.13.46.87.7,1.76.7,2.66,0,.84-.24,1.38-.72,1.63-.48.25-1.16.37-2.03.37ZM354.48,111.4h6.04c-.08-1.14-.39-1.99-.92-2.56-.53-.57-1.23-.85-2.11-.85s-1.51.29-2.04.86c-.53.57-.86,1.42-.97,2.54Z"/>
        <path class="cls-3" d="M368.24,104.15c-.46,0-.86-.14-1.19-.43-.33-.28-.49-.69-.49-1.21,0-.47.17-.86.51-1.17.34-.3.73-.46,1.18-.46s.81.14,1.15.42c.33.28.5.68.5,1.21s-.16.91-.49,1.2c-.33.29-.71.43-1.16.43ZM369.89,107.6v9.63c0,.67-.16,1.17-.48,1.51s-.72.51-1.21.51-.88-.17-1.19-.52c-.3-.35-.46-.85-.46-1.5v-9.53c0-.66.15-1.16.46-1.49.31-.33.7-.5,1.19-.5s.89.17,1.21.5.48.8.48,1.39Z"/>
        <path class="cls-3" d="M390.5,113.75h-12.79v-2.25h12.79v2.25Z"/>
        <path class="cls-3" d="M401.35,107.55v.4c.59-.77,1.23-1.34,1.92-1.7.7-.36,1.5-.54,2.4-.54s1.66.19,2.36.57c.69.38,1.21.92,1.55,1.62.22.41.36.85.43,1.32.06.47.1,1.07.1,1.81v6.2c0,.67-.15,1.17-.46,1.51-.3.34-.7.51-1.19.51s-.9-.17-1.21-.52c-.31-.35-.46-.85-.46-1.5v-5.55c0-1.1-.15-1.94-.46-2.52-.3-.58-.91-.87-1.82-.87-.59,0-1.14.18-1.62.53-.49.35-.85.84-1.07,1.46-.16.5-.24,1.42-.24,2.78v4.18c0,.67-.16,1.18-.47,1.52-.31.34-.72.51-1.21.51s-.88-.17-1.18-.52c-.31-.35-.46-.85-.46-1.5v-9.63c0-.63.14-1.11.42-1.42.28-.31.65-.47,1.14-.47.29,0,.56.07.79.21.24.14.43.35.57.62.14.28.21.61.21,1.01Z"/>
        <path class="cls-3" d="M425.9,112.48c0,.99-.15,1.91-.46,2.75-.31.84-.76,1.56-1.34,2.16s-1.29,1.06-2.1,1.39c-.81.32-1.73.48-2.75.48s-1.92-.16-2.72-.49c-.81-.33-1.5-.79-2.09-1.4-.59-.61-1.04-1.32-1.34-2.15-.31-.83-.46-1.74-.46-2.74s.15-1.93.46-2.77c.31-.84.75-1.55,1.33-2.15.58-.59,1.28-1.05,2.1-1.37.82-.32,1.73-.48,2.72-.48s1.92.16,2.75.49c.82.33,1.53.79,2.11,1.39.59.6,1.03,1.32,1.34,2.15.3.83.46,1.75.46,2.75ZM422.56,112.48c0-1.36-.3-2.42-.9-3.17-.6-.76-1.4-1.14-2.41-1.14-.65,0-1.23.17-1.72.51-.5.34-.88.84-1.15,1.5-.27.66-.4,1.43-.4,2.31s.13,1.63.4,2.28c.26.65.64,1.15,1.14,1.5.49.35,1.07.52,1.74.52,1.01,0,1.81-.38,2.41-1.14.6-.76.9-1.81.9-3.16Z"/>
        <path class="cls-3" d="M428.71,106h.37v-2c0-.54.01-.96.04-1.26.03-.31.11-.57.24-.79.13-.23.32-.41.56-.56s.52-.21.82-.21c.42,0,.81.16,1.15.48.23.21.37.47.43.77.06.31.09.74.09,1.3v2.27h1.22c.47,0,.83.11,1.08.33.25.22.37.51.37.86,0,.45-.18.76-.53.94-.35.18-.86.27-1.52.27h-.62v6.13c0,.52.02.92.06,1.2.04.28.13.51.29.68.16.18.42.26.77.26.2,0,.46-.03.79-.1.33-.07.59-.1.78-.1.27,0,.51.11.73.32s.32.48.32.8c0,.54-.29.95-.88,1.23s-1.43.43-2.53.43c-1.04,0-1.83-.17-2.37-.52s-.89-.83-1.06-1.45c-.17-.62-.25-1.45-.25-2.48v-6.4h-.44c-.48,0-.85-.11-1.1-.34-.25-.23-.38-.52-.38-.87s.13-.64.4-.86c.26-.22.65-.33,1.15-.33Z"/>
        <path class="cls-3" d="M439.06,104.15c-.46,0-.86-.14-1.19-.43-.33-.28-.49-.69-.49-1.21,0-.47.17-.86.51-1.17.34-.3.73-.46,1.18-.46s.81.14,1.15.42c.33.28.5.68.5,1.21s-.16.91-.49,1.2c-.33.29-.71.43-1.16.43ZM440.71,107.6v9.63c0,.67-.16,1.17-.48,1.51s-.72.51-1.21.51-.88-.17-1.19-.52c-.3-.35-.46-.85-.46-1.5v-9.53c0-.66.15-1.16.46-1.49.31-.33.7-.5,1.19-.5s.89.17,1.21.5.48.8.48,1.39Z"/>
        <path class="cls-3" d="M443.88,106h.79v-1c0-1.04.13-1.87.4-2.48s.71-1.06,1.34-1.34c.63-.28,1.5-.42,2.59-.42,1.95,0,2.92.48,2.92,1.43,0,.31-.1.57-.3.79-.2.22-.44.33-.72.33-.13,0-.35-.02-.67-.07-.32-.05-.59-.07-.8-.07-.6,0-.99.18-1.16.53-.17.35-.26.86-.26,1.52v.79h.82c1.27,0,1.9.38,1.9,1.15,0,.55-.17.89-.51,1.04s-.8.22-1.4.22h-.82v8.83c0,.66-.16,1.16-.47,1.51-.31.35-.72.52-1.21.52s-.86-.17-1.18-.52c-.31-.35-.47-.85-.47-1.51v-8.83h-.92c-.5,0-.88-.11-1.15-.34-.27-.22-.4-.51-.4-.87,0-.8.56-1.2,1.67-1.2Z"/>
        <path class="cls-3" d="M454.47,104.15c-.46,0-.86-.14-1.19-.43-.33-.28-.5-.69-.5-1.21,0-.47.17-.86.51-1.17.34-.3.73-.46,1.18-.46s.81.14,1.15.42c.33.28.5.68.5,1.21s-.16.91-.49,1.2c-.33.29-.71.43-1.16.43ZM456.12,107.6v9.63c0,.67-.16,1.17-.48,1.51s-.72.51-1.21.51-.88-.17-1.19-.52-.46-.85-.46-1.5v-9.53c0-.66.15-1.16.46-1.49s.7-.5,1.19-.5.89.17,1.21.5.48.8.48,1.39Z"/>
        <path class="cls-3" d="M471.51,115.13c0,.41-.12.86-.37,1.33-.25.47-.63.92-1.14,1.35-.51.43-1.15.77-1.92,1.03-.77.26-1.64.39-2.61.39-2.06,0-3.67-.6-4.82-1.8s-1.73-2.81-1.73-4.83c0-1.37.26-2.58.79-3.62.53-1.05,1.29-1.86,2.29-2.44,1-.57,2.2-.86,3.59-.86.86,0,1.65.13,2.37.38.72.25,1.33.58,1.83.98.5.4.88.82,1.15,1.28.26.45.4.87.4,1.26s-.15.74-.45,1.01c-.3.28-.66.41-1.08.41-.28,0-.51-.07-.69-.21-.18-.14-.39-.37-.62-.69-.41-.62-.83-1.08-1.28-1.39-.44-.31-1.01-.46-1.69-.46-.99,0-1.78.38-2.38,1.15-.6.77-.9,1.82-.9,3.16,0,.63.08,1.2.23,1.73.15.52.38.97.67,1.34s.65.65,1.06.84c.41.19.87.29,1.37.29.67,0,1.24-.15,1.71-.46.48-.31.9-.78,1.26-1.42.2-.37.42-.67.66-.88s.53-.32.87-.32c.41,0,.74.15,1.01.46.27.31.4.64.4.99Z"/>
        <path class="cls-3" d="M482.84,117.37c-.81.63-1.58,1.1-2.34,1.41-.75.31-1.6.47-2.53.47-.85,0-1.61-.17-2.25-.51-.65-.34-1.15-.8-1.5-1.37-.35-.58-.52-1.21-.52-1.88,0-.91.29-1.69.87-2.33.58-.64,1.37-1.07,2.38-1.29.21-.05.74-.16,1.58-.33.84-.17,1.56-.33,2.16-.47.6-.14,1.25-.32,1.95-.52-.04-.88-.22-1.52-.53-1.93-.31-.41-.96-.62-1.95-.62-.85,0-1.48.12-1.91.35-.43.24-.79.59-1.1,1.06-.3.47-.52.78-.65.93-.13.15-.4.23-.81.23-.37,0-.7-.12-.97-.36-.27-.24-.41-.55-.41-.92,0-.59.21-1.16.62-1.71.41-.55,1.06-1.01,1.94-1.37.88-.36,1.97-.54,3.28-.54,1.46,0,2.62.17,3.45.52.84.35,1.43.89,1.78,1.64s.52,1.74.52,2.98c0,.78,0,1.44,0,1.99,0,.55,0,1.15-.02,1.82,0,.63.1,1.28.31,1.96.21.68.31,1.12.31,1.31,0,.34-.16.65-.48.93-.32.28-.69.42-1.09.42-.34,0-.68-.16-1.01-.48-.33-.32-.69-.79-1.06-1.4ZM482.62,112.55c-.49.18-1.2.37-2.13.57-.93.2-1.58.35-1.94.44-.36.09-.7.28-1.03.55-.33.27-.49.65-.49,1.14s.19.93.57,1.29c.38.35.88.53,1.5.53.66,0,1.27-.14,1.82-.43.56-.29.97-.66,1.23-1.12.3-.5.45-1.33.45-2.49v-.48Z"/>
        <path class="cls-3" d="M495.54,119.25l-.05.24c.86.07,1.5.29,1.92.65s.63.83.63,1.4c0,.48-.16.9-.47,1.26-.31.36-.78.64-1.39.84-.61.2-1.35.3-2.22.3-1.5,0-2.25-.29-2.25-.85,0-.15.06-.29.17-.4.11-.11.25-.17.4-.17.03,0,.21.02.54.05.32.03.62.05.89.05,1.46,0,2.2-.35,2.2-1.05,0-.25-.11-.47-.34-.64-.22-.17-.5-.26-.84-.26-.13,0-.32.02-.56.06-.24.04-.42.05-.54.05-.2,0-.36-.08-.48-.23-.12-.15-.18-.31-.18-.48,0-.39.58-.67,1.73-.84-1.97-.11-3.48-.75-4.53-1.95-1.05-1.19-1.58-2.75-1.58-4.68,0-1.37.26-2.58.79-3.62.53-1.05,1.29-1.86,2.29-2.44,1-.57,2.2-.86,3.59-.86.86,0,1.65.13,2.38.38.72.25,1.33.58,1.83.98.5.4.88.82,1.15,1.28.26.45.4.87.4,1.26s-.15.74-.45,1.01c-.3.28-.66.41-1.08.41s-.8-.21-1.1-.62c-.5-.73-.97-1.27-1.39-1.62-.42-.35-1.02-.52-1.78-.52-.98,0-1.78.38-2.38,1.15-.6.77-.9,1.82-.9,3.16,0,.63.08,1.2.23,1.73.15.52.38.97.67,1.34s.65.65,1.06.84c.42.19.87.29,1.37.29.7,0,1.25-.13,1.65-.4.4-.27.79-.68,1.15-1.22.36-.55.64-.92.84-1.14s.48-.32.87-.32.73.15,1.01.45c.27.3.41.63.41,1,0,.54-.22,1.13-.65,1.76-.44.63-1.08,1.17-1.95,1.62-.86.45-1.89.7-3.08.75Z"/>
        <path class="cls-3" d="M512.55,117.37c-.81.63-1.58,1.1-2.34,1.41-.75.31-1.6.47-2.53.47-.86,0-1.61-.17-2.25-.51-.65-.34-1.15-.8-1.5-1.37-.35-.58-.53-1.21-.53-1.88,0-.91.29-1.69.87-2.33s1.37-1.07,2.38-1.29c.21-.05.74-.16,1.57-.33.84-.17,1.56-.33,2.15-.47.6-.14,1.25-.32,1.95-.52-.04-.88-.22-1.52-.53-1.93-.31-.41-.96-.62-1.95-.62-.85,0-1.48.12-1.91.35s-.79.59-1.1,1.06c-.31.47-.52.78-.65.93-.12.15-.4.23-.81.23-.38,0-.7-.12-.97-.36-.27-.24-.41-.55-.41-.92,0-.59.21-1.16.62-1.71.42-.55,1.06-1.01,1.94-1.37.88-.36,1.97-.54,3.28-.54,1.46,0,2.62.17,3.46.52s1.43.89,1.78,1.64c.35.75.52,1.74.52,2.98,0,.78,0,1.44,0,1.99,0,.55-.01,1.15-.02,1.82,0,.63.1,1.28.31,1.96.21.68.31,1.12.31,1.31,0,.34-.16.65-.48.93-.32.28-.69.42-1.09.42-.34,0-.68-.16-1.01-.48s-.69-.79-1.06-1.4ZM507.4,102.94c-.42,0-.7.28-.84.83-.15.48-.37.72-.66.72-.18,0-.34-.08-.48-.25-.14-.17-.21-.4-.21-.7,0-.41.09-.8.27-1.18.18-.38.43-.68.75-.9.32-.22.67-.34,1.03-.34s.71.05,1.02.16c.31.11.73.28,1.26.52.52.24.88.39,1.08.46s.41.1.65.1.42-.06.55-.18c.13-.12.24-.33.31-.64.13-.47.35-.71.66-.71.19,0,.35.09.49.26s.21.4.21.7c0,.46-.17.97-.52,1.54-.35.57-.88.86-1.61.86-.28,0-.56-.05-.85-.14-.29-.09-.7-.25-1.21-.48-.51-.23-.9-.39-1.15-.49s-.5-.15-.74-.15ZM512.33,112.55c-.49.18-1.2.37-2.13.57-.93.2-1.58.35-1.93.44-.36.09-.7.28-1.03.55-.33.27-.49.65-.49,1.14s.19.93.57,1.29c.38.35.88.53,1.5.53.66,0,1.27-.14,1.83-.43.56-.29.96-.66,1.23-1.12.3-.5.45-1.33.45-2.49v-.48Z"/>
        <path class="cls-3" d="M531.46,112.48c0,.99-.16,1.91-.46,2.75-.31.84-.76,1.56-1.34,2.16s-1.29,1.06-2.1,1.39c-.81.32-1.73.48-2.75.48s-1.92-.16-2.72-.49c-.81-.33-1.5-.79-2.09-1.4-.59-.61-1.04-1.32-1.34-2.15-.31-.83-.46-1.74-.46-2.74s.15-1.93.46-2.77c.31-.84.75-1.55,1.33-2.15.58-.59,1.28-1.05,2.1-1.37.82-.32,1.73-.48,2.72-.48s1.92.16,2.75.49c.82.33,1.53.79,2.11,1.39.59.6,1.03,1.32,1.34,2.15.3.83.46,1.75.46,2.75ZM528.11,112.48c0-1.36-.3-2.42-.9-3.17-.6-.76-1.4-1.14-2.41-1.14-.65,0-1.23.17-1.72.51-.5.34-.88.84-1.15,1.5-.27.66-.4,1.43-.4,2.31s.13,1.63.4,2.28c.26.65.64,1.15,1.14,1.5s1.07.52,1.74.52c1.01,0,1.81-.38,2.41-1.14.6-.76.9-1.81.9-3.16Z"/>
        <path class="cls-3" d="M551.26,113.75h-12.79v-2.25h12.79v2.25Z"/>
        <path class="cls-3" d="M562.16,107.57v.4c.63-.77,1.28-1.34,1.95-1.7.67-.36,1.44-.54,2.29-.54,1.03,0,1.97.26,2.83.79s1.54,1.3,2.04,2.32c.5,1.02.75,2.22.75,3.61,0,1.03-.14,1.97-.43,2.83s-.69,1.58-1.19,2.16c-.5.58-1.1,1.03-1.79,1.34-.69.31-1.43.47-2.22.47-.95,0-1.75-.19-2.4-.57-.65-.38-1.26-.94-1.85-1.68v5c0,1.46-.53,2.2-1.6,2.2-.63,0-1.04-.19-1.25-.57-.2-.38-.3-.93-.3-1.65v-14.38c0-.63.14-1.11.42-1.42s.66-.47,1.14-.47.86.16,1.15.48c.3.32.45.78.45,1.39ZM568.69,112.42c0-.88-.13-1.63-.4-2.26s-.64-1.12-1.12-1.45c-.48-.34-1-.51-1.58-.51-.92,0-1.7.36-2.33,1.09s-.95,1.79-.95,3.2c0,1.33.31,2.36.94,3.09s1.4,1.1,2.33,1.1c.55,0,1.07-.16,1.54-.48.47-.32.85-.8,1.14-1.45.28-.64.43-1.42.43-2.33Z"/>
        <path class="cls-3" d="M584.01,113.3h-6.52c0,.76.16,1.42.46,2,.3.58.69,1.01,1.18,1.31s1.04.44,1.63.44c.4,0,.76-.05,1.09-.14.33-.09.65-.24.96-.44.31-.2.59-.41.85-.64.26-.23.6-.54,1.01-.93.17-.15.41-.22.73-.22.34,0,.62.09.83.28.21.19.32.45.32.79,0,.3-.12.65-.35,1.06-.24.4-.59.79-1.07,1.16s-1.07.68-1.79.92c-.72.24-1.55.37-2.48.37-2.14,0-3.8-.61-4.99-1.83-1.19-1.22-1.78-2.88-1.78-4.97,0-.98.15-1.9.44-2.74.29-.84.72-1.56,1.28-2.17s1.25-1.06,2.08-1.39c.82-.32,1.73-.48,2.73-.48,1.3,0,2.42.28,3.35.82.93.55,1.63,1.26,2.09,2.13.46.87.7,1.76.7,2.66,0,.84-.24,1.38-.72,1.63-.48.25-1.16.37-2.03.37ZM577.49,111.4h6.04c-.08-1.14-.39-1.99-.92-2.56-.53-.57-1.23-.85-2.11-.85s-1.51.29-2.04.86c-.53.57-.86,1.42-.97,2.54Z"/>
        <path class="cls-3" d="M600.29,114.9c0,.92-.22,1.71-.67,2.36-.45.66-1.11,1.15-1.98,1.49-.88.34-1.94.51-3.19.51s-2.22-.18-3.08-.55c-.86-.37-1.49-.82-1.89-1.37-.41-.55-.61-1.1-.61-1.65,0-.37.13-.68.39-.94.26-.26.59-.39.99-.39.35,0,.62.08.8.26s.37.41.54.72c.34.59.75,1.04,1.23,1.33.48.29,1.12.44,1.95.44.67,0,1.21-.15,1.64-.45.43-.3.64-.64.64-1.02,0-.59-.22-1.01-.67-1.28-.44-.27-1.17-.53-2.19-.77-1.15-.29-2.08-.58-2.8-.9-.72-.31-1.3-.73-1.73-1.24-.43-.51-.65-1.14-.65-1.89,0-.67.2-1.3.6-1.89.4-.59.99-1.07,1.76-1.42.78-.35,1.71-.53,2.81-.53.86,0,1.64.09,2.33.27.69.18,1.26.42,1.72.72s.81.63,1.05,1,.36.72.36,1.07c0,.38-.13.7-.38.94-.26.24-.62.37-1.09.37-.34,0-.63-.1-.87-.29s-.51-.49-.82-.88c-.25-.33-.55-.59-.89-.78s-.81-.29-1.39-.29-1.1.13-1.5.38c-.4.26-.6.58-.6.96,0,.35.15.64.44.86s.69.41,1.18.56c.5.15,1.18.33,2.05.54,1.03.25,1.88.55,2.53.9.66.35,1.15.76,1.49,1.24.34.48.51,1.02.51,1.63Z"/>
        <path class="cls-3" d="M613.84,114.9c0,.92-.22,1.71-.67,2.36s-1.11,1.15-1.98,1.49c-.87.34-1.94.51-3.19.51s-2.22-.18-3.08-.55c-.85-.37-1.48-.82-1.89-1.37-.41-.55-.61-1.1-.61-1.65,0-.37.13-.68.39-.94.26-.26.59-.39.99-.39.35,0,.62.08.81.26.19.17.37.41.54.72.34.59.75,1.04,1.23,1.33.48.29,1.12.44,1.95.44.67,0,1.21-.15,1.64-.45.43-.3.64-.64.64-1.02,0-.59-.22-1.01-.67-1.28-.44-.27-1.17-.53-2.19-.77-1.15-.29-2.08-.58-2.8-.9-.72-.31-1.3-.73-1.73-1.24-.43-.51-.65-1.14-.65-1.89,0-.67.2-1.3.6-1.89.4-.59.99-1.07,1.76-1.42.78-.35,1.71-.53,2.81-.53.86,0,1.64.09,2.33.27.69.18,1.26.42,1.72.72.46.3.81.63,1.05,1,.24.37.36.72.36,1.07,0,.38-.13.7-.38.94-.26.24-.62.37-1.09.37-.34,0-.63-.1-.87-.29-.24-.2-.51-.49-.82-.88-.25-.33-.55-.59-.89-.78s-.81-.29-1.39-.29-1.1.13-1.5.38c-.4.26-.6.58-.6.96,0,.35.15.64.44.86s.69.41,1.18.56,1.18.33,2.05.54c1.03.25,1.88.55,2.53.9.66.35,1.15.76,1.49,1.24.34.48.51,1.02.51,1.63Z"/>
        <path class="cls-3" d="M629.14,112.48c0,.99-.15,1.91-.46,2.75-.31.84-.76,1.56-1.34,2.16s-1.29,1.06-2.1,1.39c-.81.32-1.73.48-2.75.48s-1.92-.16-2.72-.49c-.8-.33-1.5-.79-2.09-1.4-.59-.61-1.04-1.32-1.34-2.15-.31-.83-.46-1.74-.46-2.74s.15-1.93.46-2.77c.31-.84.75-1.55,1.33-2.15.58-.59,1.28-1.05,2.1-1.37.82-.32,1.73-.48,2.72-.48s1.92.16,2.75.49c.82.33,1.53.79,2.11,1.39.59.6,1.03,1.32,1.34,2.15.3.83.46,1.75.46,2.75ZM625.79,112.48c0-1.36-.3-2.42-.9-3.17-.6-.76-1.4-1.14-2.41-1.14-.65,0-1.22.17-1.72.51-.5.34-.88.84-1.15,1.5-.27.66-.4,1.43-.4,2.31s.13,1.63.4,2.28c.26.65.64,1.15,1.14,1.5.49.35,1.07.52,1.74.52,1.01,0,1.81-.38,2.41-1.14.6-.76.9-1.81.9-3.16Z"/>
        <path class="cls-3" d="M640.19,117.37c-.81.63-1.58,1.1-2.34,1.41-.75.31-1.6.47-2.53.47-.86,0-1.61-.17-2.25-.51-.65-.34-1.15-.8-1.5-1.37-.35-.58-.53-1.21-.53-1.88,0-.91.29-1.69.87-2.33s1.37-1.07,2.38-1.29c.21-.05.74-.16,1.57-.33.84-.17,1.56-.33,2.15-.47.6-.14,1.25-.32,1.95-.52-.04-.88-.22-1.52-.53-1.93-.31-.41-.96-.62-1.95-.62-.85,0-1.48.12-1.91.35s-.79.59-1.1,1.06c-.31.47-.52.78-.65.93-.12.15-.4.23-.81.23-.38,0-.7-.12-.97-.36-.27-.24-.41-.55-.41-.92,0-.59.21-1.16.62-1.71.42-.55,1.06-1.01,1.94-1.37.88-.36,1.97-.54,3.28-.54,1.46,0,2.62.17,3.46.52s1.43.89,1.78,1.64c.35.75.52,1.74.52,2.98,0,.78,0,1.44,0,1.99,0,.55-.01,1.15-.02,1.82,0,.63.1,1.28.31,1.96.21.68.31,1.12.31,1.31,0,.34-.16.65-.48.93-.32.28-.69.42-1.09.42-.34,0-.68-.16-1.01-.48s-.69-.79-1.06-1.4ZM639.97,112.55c-.49.18-1.2.37-2.13.57-.93.2-1.58.35-1.93.44-.36.09-.7.28-1.03.55-.33.27-.49.65-.49,1.14s.19.93.57,1.29c.38.35.88.53,1.5.53.66,0,1.27-.14,1.83-.43.56-.29.96-.66,1.23-1.12.3-.5.45-1.33.45-2.49v-.48Z"/>
        <path class="cls-3" d="M656.13,102.77v4.94c.42-.49.84-.88,1.24-1.16.4-.28.85-.5,1.34-.64.49-.14,1.01-.21,1.57-.21.85,0,1.6.18,2.25.54.66.36,1.17.88,1.54,1.56.24.4.39.84.48,1.34.08.49.12,1.06.12,1.7v6.38c0,.67-.15,1.17-.46,1.51-.3.34-.71.51-1.21.51-1.1,0-1.65-.67-1.65-2.03v-5.63c0-1.07-.16-1.89-.48-2.46-.32-.57-.92-.86-1.81-.86-.59,0-1.13.17-1.6.51-.48.34-.83.8-1.07,1.38-.18.5-.27,1.38-.27,2.65v4.41c0,.66-.15,1.16-.45,1.51s-.71.52-1.24.52c-1.1,0-1.65-.67-1.65-2.03v-14.45c0-.68.14-1.18.43-1.52.29-.34.69-.51,1.21-.51s.94.17,1.24.51.45.85.45,1.51Z"/>
        <path class="cls-3" d="M676.62,117.37v-.43c-.4.5-.82.93-1.26,1.27s-.92.6-1.44.76c-.52.17-1.12.25-1.78.25-.81,0-1.53-.17-2.17-.5-.64-.33-1.13-.79-1.48-1.38-.41-.71-.62-1.72-.62-3.05v-6.6c0-.67.15-1.17.45-1.5.3-.33.7-.49,1.2-.49s.91.17,1.22.5c.31.33.46.83.46,1.49v5.33c0,.77.06,1.42.2,1.95.13.53.36.94.7,1.23s.79.45,1.37.45,1.09-.17,1.59-.5c.5-.33.86-.77,1.09-1.31.19-.47.28-1.51.28-3.1v-4.05c0-.66.15-1.16.46-1.49.31-.33.71-.5,1.21-.5s.89.16,1.2.49c.3.33.45.83.45,1.5v9.66c0,.63-.14,1.11-.43,1.43s-.66.48-1.12.48-.83-.16-1.13-.49c-.3-.33-.45-.79-.45-1.38Z"/>
        <path class="cls-3" d="M694.15,112.72v4.43c0,.7-.16,1.23-.48,1.58s-.74.52-1.26.52-.91-.17-1.23-.52-.47-.88-.47-1.58v-5.31c0-.84-.03-1.49-.09-1.95-.06-.46-.21-.84-.46-1.14-.25-.3-.65-.45-1.2-.45-1.09,0-1.81.37-2.15,1.12s-.52,1.82-.52,3.22v4.5c0,.69-.16,1.21-.47,1.57-.31.35-.73.53-1.24.53s-.92-.18-1.24-.53c-.32-.35-.48-.88-.48-1.57v-9.53c0-.63.14-1.1.43-1.43.29-.33.67-.49,1.14-.49s.84.15,1.14.46c.3.31.46.73.46,1.26v.32c.58-.69,1.2-1.2,1.86-1.53.66-.33,1.39-.49,2.2-.49s1.56.17,2.16.5,1.1.84,1.49,1.51c.56-.68,1.16-1.19,1.81-1.52.64-.33,1.36-.5,2.14-.5.91,0,1.7.18,2.36.54.66.36,1.15.87,1.48,1.54.29.6.43,1.55.43,2.84v6.51c0,.7-.16,1.23-.48,1.58-.32.35-.74.52-1.26.52s-.92-.18-1.24-.53c-.32-.35-.48-.88-.48-1.57v-5.6c0-.72-.03-1.29-.09-1.72-.06-.43-.23-.79-.5-1.09-.27-.29-.67-.44-1.22-.44-.44,0-.86.13-1.25.39s-.7.61-.92,1.05c-.24.56-.37,1.55-.37,2.98Z"/>
        <path class="cls-3" d="M713.61,117.37c-.81.63-1.59,1.1-2.34,1.41-.75.31-1.6.47-2.53.47-.85,0-1.61-.17-2.25-.51-.65-.34-1.15-.8-1.5-1.37-.35-.58-.52-1.21-.52-1.88,0-.91.29-1.69.87-2.33.58-.64,1.37-1.07,2.38-1.29.21-.05.74-.16,1.57-.33.84-.17,1.56-.33,2.16-.47.6-.14,1.25-.32,1.95-.52-.04-.88-.22-1.52-.53-1.93-.31-.41-.96-.62-1.95-.62-.85,0-1.48.12-1.91.35-.43.24-.79.59-1.1,1.06-.31.47-.52.78-.65.93s-.4.23-.81.23c-.37,0-.7-.12-.97-.36-.27-.24-.41-.55-.41-.92,0-.59.21-1.16.62-1.71.42-.55,1.06-1.01,1.94-1.37.88-.36,1.97-.54,3.28-.54,1.46,0,2.62.17,3.45.52.84.35,1.43.89,1.78,1.64s.52,1.74.52,2.98c0,.78,0,1.44,0,1.99,0,.55,0,1.15-.02,1.82,0,.63.1,1.28.31,1.96.21.68.31,1.12.31,1.31,0,.34-.16.65-.48.93-.32.28-.69.42-1.09.42-.34,0-.68-.16-1.01-.48s-.69-.79-1.06-1.4ZM713.39,112.55c-.49.18-1.2.37-2.13.57-.93.2-1.58.35-1.93.44-.36.09-.7.28-1.03.55s-.49.65-.49,1.14.19.93.57,1.29c.38.35.88.53,1.5.53.66,0,1.27-.14,1.83-.43.56-.29.97-.66,1.23-1.12.3-.5.45-1.33.45-2.49v-.48Z"/>
        <path class="cls-3" d="M723.07,107.55v.4c.59-.77,1.23-1.34,1.92-1.7.7-.36,1.5-.54,2.4-.54s1.66.19,2.36.57,1.21.92,1.55,1.62c.22.41.36.85.43,1.32.07.47.1,1.07.1,1.81v6.2c0,.67-.15,1.17-.46,1.51-.3.34-.7.51-1.19.51s-.9-.17-1.21-.52-.46-.85-.46-1.5v-5.55c0-1.1-.15-1.94-.46-2.52-.3-.58-.91-.87-1.82-.87-.59,0-1.14.18-1.62.53-.49.35-.85.84-1.07,1.46-.16.5-.24,1.42-.24,2.78v4.18c0,.67-.16,1.18-.47,1.52-.31.34-.72.51-1.21.51s-.88-.17-1.18-.52c-.31-.35-.46-.85-.46-1.5v-9.63c0-.63.14-1.11.42-1.42.28-.31.65-.47,1.13-.47.29,0,.56.07.79.21.24.14.43.35.57.62.14.28.21.61.21,1.01Z"/>
        <path class="cls-3" d="M743.57,117.37c-.81.63-1.59,1.1-2.34,1.41-.75.31-1.6.47-2.53.47-.85,0-1.61-.17-2.25-.51-.65-.34-1.15-.8-1.5-1.37-.35-.58-.52-1.21-.52-1.88,0-.91.29-1.69.87-2.33.58-.64,1.37-1.07,2.38-1.29.21-.05.74-.16,1.57-.33.84-.17,1.56-.33,2.16-.47.6-.14,1.25-.32,1.95-.52-.04-.88-.22-1.52-.53-1.93-.31-.41-.96-.62-1.95-.62-.85,0-1.48.12-1.91.35-.43.24-.79.59-1.1,1.06-.31.47-.52.78-.65.93s-.4.23-.81.23c-.37,0-.7-.12-.97-.36-.27-.24-.41-.55-.41-.92,0-.59.21-1.16.62-1.71.42-.55,1.06-1.01,1.94-1.37.88-.36,1.97-.54,3.28-.54,1.46,0,2.62.17,3.45.52.84.35,1.43.89,1.78,1.64s.52,1.74.52,2.98c0,.78,0,1.44,0,1.99,0,.55,0,1.15-.02,1.82,0,.63.1,1.28.31,1.96.21.68.31,1.12.31,1.31,0,.34-.16.65-.48.93-.32.28-.69.42-1.09.42-.34,0-.68-.16-1.01-.48s-.69-.79-1.06-1.4ZM743.34,112.55c-.49.18-1.2.37-2.13.57-.93.2-1.58.35-1.93.44-.36.09-.7.28-1.03.55s-.49.65-.49,1.14.19.93.57,1.29c.38.35.88.53,1.5.53.66,0,1.27-.14,1.83-.43.56-.29.97-.66,1.23-1.12.3-.5.45-1.33.45-2.49v-.48Z"/>
        <path class="cls-3" d="M767.17,113.75h-12.79v-2.25h12.79v2.25Z"/>
        <path class="cls-3" d="M778.31,114.44v2.78c0,.67-.16,1.18-.48,1.52-.32.34-.72.51-1.21.51s-.88-.17-1.18-.51c-.31-.34-.46-.85-.46-1.51v-9.28c0-1.5.54-2.25,1.62-2.25.55,0,.95.17,1.2.52s.38.87.4,1.55c.4-.68.81-1.2,1.23-1.55.42-.35.98-.52,1.68-.52s1.38.17,2.04.52.99.81.99,1.39c0,.41-.14.74-.42,1.01-.28.26-.58.4-.91.4-.12,0-.42-.08-.88-.23-.47-.15-.88-.23-1.24-.23-.49,0-.89.13-1.2.38-.31.26-.55.64-.72,1.14-.17.5-.29,1.1-.35,1.8-.07.7-.1,1.54-.1,2.55Z"/>
        <path class="cls-3" d="M794.63,113.3h-6.52c0,.76.16,1.42.46,2,.3.58.69,1.01,1.18,1.31.49.29,1.04.44,1.63.44.4,0,.76-.05,1.09-.14.33-.09.65-.24.96-.44.31-.2.59-.41.86-.64.26-.23.6-.54,1.01-.93.17-.15.42-.22.73-.22.34,0,.62.09.83.28.21.19.32.45.32.79,0,.3-.12.65-.35,1.06-.24.4-.59.79-1.07,1.16-.48.37-1.07.68-1.79.92-.72.24-1.55.37-2.48.37-2.14,0-3.8-.61-4.99-1.83s-1.78-2.88-1.78-4.97c0-.98.15-1.9.44-2.74.29-.84.72-1.56,1.28-2.17.56-.6,1.25-1.06,2.07-1.39.82-.32,1.73-.48,2.73-.48,1.3,0,2.42.28,3.35.82.93.55,1.63,1.26,2.09,2.13.46.87.7,1.76.7,2.66,0,.84-.24,1.38-.72,1.63-.48.25-1.16.37-2.03.37ZM788.11,111.4h6.04c-.08-1.14-.39-1.99-.92-2.56-.53-.57-1.23-.85-2.11-.85s-1.51.29-2.04.86c-.53.57-.86,1.42-.97,2.54Z"/>
        <path class="cls-3" d="M799.91,106h.79v-1c0-1.04.13-1.87.4-2.48s.71-1.06,1.34-1.34c.63-.28,1.5-.42,2.59-.42,1.94,0,2.92.48,2.92,1.43,0,.31-.1.57-.31.79-.2.22-.44.33-.72.33-.13,0-.35-.02-.67-.07-.32-.05-.59-.07-.81-.07-.6,0-.99.18-1.16.53-.17.35-.26.86-.26,1.52v.79h.82c1.27,0,1.9.38,1.9,1.15,0,.55-.17.89-.51,1.04s-.8.22-1.4.22h-.82v8.83c0,.66-.16,1.16-.47,1.51s-.72.52-1.21.52-.87-.17-1.18-.52-.47-.85-.47-1.51v-8.83h-.92c-.5,0-.88-.11-1.15-.34-.27-.22-.4-.51-.4-.87,0-.8.56-1.2,1.67-1.2Z"/>
        <path class="cls-3" d="M812.89,113.92h-3.86c-.59,0-1.03-.14-1.34-.41-.3-.27-.46-.62-.46-1.06s.15-.79.45-1.07c.3-.27.75-.41,1.35-.41h3.86c.6,0,1.05.14,1.35.41.3.27.45.63.45,1.07s-.15.78-.44,1.06c-.29.27-.75.41-1.36.41Z"/>
        <path class="cls-3" d="M283.43,148.3h-6.52c0,.76.16,1.42.46,2,.3.58.69,1.01,1.18,1.31.49.29,1.04.44,1.63.44.4,0,.76-.05,1.09-.14.33-.09.65-.24.96-.44.31-.2.59-.41.85-.64.26-.23.6-.54,1.01-.93.17-.15.42-.22.73-.22.34,0,.62.09.83.28.21.19.32.45.32.79,0,.3-.12.65-.35,1.06-.24.4-.59.79-1.07,1.16-.48.37-1.07.68-1.79.92-.72.24-1.55.37-2.48.37-2.14,0-3.8-.61-4.99-1.83-1.19-1.22-1.78-2.88-1.78-4.97,0-.98.15-1.9.44-2.74.29-.84.72-1.56,1.28-2.17s1.25-1.06,2.08-1.39c.82-.32,1.73-.48,2.73-.48,1.3,0,2.42.28,3.35.82.93.55,1.63,1.26,2.09,2.13.46.87.7,1.76.7,2.66,0,.84-.24,1.38-.72,1.63-.48.25-1.16.37-2.03.37ZM276.91,146.4h6.04c-.08-1.14-.39-1.99-.92-2.56-.53-.57-1.23-.85-2.11-.85s-1.51.29-2.04.86c-.53.57-.86,1.42-.97,2.54Z"/>
        <path class="cls-3" d="M292.29,149.44v2.78c0,.67-.16,1.18-.48,1.52-.32.34-.72.51-1.21.51s-.88-.17-1.18-.51c-.31-.34-.46-.85-.46-1.51v-9.28c0-1.5.54-2.25,1.62-2.25.55,0,.95.17,1.2.52s.38.87.4,1.55c.4-.68.81-1.2,1.23-1.55.42-.35.98-.52,1.68-.52s1.38.17,2.04.52.99.81.99,1.39c0,.41-.14.74-.42,1.01-.28.26-.58.4-.91.4-.12,0-.42-.08-.88-.23-.47-.15-.88-.23-1.24-.23-.49,0-.89.13-1.2.38-.31.26-.55.64-.72,1.14-.17.5-.29,1.1-.35,1.8-.07.7-.1,1.54-.1,2.55Z"/>
        <path class="cls-3" d="M308.61,148.3h-6.52c0,.76.16,1.42.46,2,.3.58.69,1.01,1.18,1.31.49.29,1.04.44,1.63.44.4,0,.76-.05,1.09-.14.33-.09.65-.24.96-.44.31-.2.59-.41.85-.64.26-.23.6-.54,1.01-.93.17-.15.42-.22.73-.22.34,0,.62.09.83.28.21.19.32.45.32.79,0,.3-.12.65-.35,1.06-.24.4-.59.79-1.07,1.16-.48.37-1.07.68-1.79.92-.72.24-1.55.37-2.48.37-2.14,0-3.8-.61-4.99-1.83-1.19-1.22-1.78-2.88-1.78-4.97,0-.98.15-1.9.44-2.74.29-.84.72-1.56,1.28-2.17s1.25-1.06,2.08-1.39c.82-.32,1.73-.48,2.73-.48,1.3,0,2.42.28,3.35.82.93.55,1.63,1.26,2.09,2.13.46.87.7,1.76.7,2.66,0,.84-.24,1.38-.72,1.63-.48.25-1.16.37-2.03.37ZM302.09,146.4h6.04c-.08-1.14-.39-1.99-.92-2.56-.53-.57-1.23-.85-2.11-.85s-1.51.29-2.04.86c-.53.57-.86,1.42-.97,2.54Z"/>
        <path class="cls-3" d="M317.19,142.55v.4c.59-.77,1.23-1.34,1.92-1.7.7-.36,1.5-.54,2.4-.54s1.66.19,2.36.57c.69.38,1.21.92,1.55,1.62.22.41.36.85.43,1.32.06.47.1,1.07.1,1.81v6.2c0,.67-.15,1.17-.46,1.51-.3.34-.7.51-1.19.51s-.9-.17-1.21-.52c-.31-.35-.46-.85-.46-1.5v-5.55c0-1.1-.15-1.94-.46-2.52-.3-.58-.91-.87-1.82-.87-.59,0-1.14.18-1.62.53-.49.35-.85.84-1.07,1.46-.16.5-.24,1.42-.24,2.78v4.18c0,.67-.16,1.18-.47,1.52-.31.34-.72.51-1.21.51s-.88-.17-1.18-.52c-.31-.35-.46-.85-.46-1.5v-9.63c0-.63.14-1.11.42-1.42.28-.31.65-.47,1.14-.47.29,0,.56.07.79.21.24.14.43.35.57.62.14.28.21.61.21,1.01Z"/>
        <path class="cls-3" d="M338.4,152.35v-.33c-.45.51-.89.93-1.32,1.25-.44.32-.91.57-1.42.73-.51.17-1.06.25-1.67.25-.8,0-1.54-.17-2.22-.51-.68-.34-1.27-.82-1.76-1.45-.5-.63-.87-1.36-1.13-2.21-.26-.85-.38-1.76-.38-2.75,0-2.08.51-3.71,1.53-4.87,1.02-1.16,2.36-1.75,4.02-1.75.96,0,1.77.17,2.43.5.66.33,1.3.84,1.93,1.52v-4.92c0-.68.14-1.2.41-1.55.27-.35.66-.53,1.17-.53s.89.16,1.17.48c.27.32.41.8.41,1.42v14.7c0,.63-.15,1.11-.44,1.43s-.67.48-1.14.48-.83-.16-1.13-.49c-.3-.33-.45-.8-.45-1.41ZM331.84,147.45c0,.9.14,1.67.42,2.31.28.63.67,1.11,1.15,1.43.49.32,1.02.48,1.6.48s1.12-.15,1.61-.46c.48-.3.87-.77,1.16-1.4.29-.63.43-1.42.43-2.36,0-.89-.14-1.65-.43-2.29-.29-.64-.68-1.13-1.17-1.46-.49-.34-1.03-.51-1.62-.51s-1.16.17-1.64.52c-.48.35-.85.84-1.12,1.49-.26.65-.4,1.4-.4,2.25Z"/>
        <path class="cls-3" d="M357.37,147.48c0,.99-.15,1.91-.46,2.75-.31.84-.76,1.56-1.34,2.16s-1.29,1.06-2.1,1.39c-.81.32-1.73.48-2.75.48s-1.92-.16-2.72-.49c-.81-.33-1.5-.79-2.09-1.4-.59-.61-1.04-1.32-1.34-2.15-.31-.83-.46-1.74-.46-2.74s.15-1.93.46-2.77c.31-.84.75-1.55,1.33-2.15.58-.59,1.28-1.05,2.1-1.37.82-.32,1.73-.48,2.72-.48s1.92.16,2.75.49c.82.33,1.53.79,2.11,1.39.59.6,1.03,1.32,1.34,2.15.3.83.46,1.75.46,2.75ZM354.02,147.48c0-1.36-.3-2.42-.9-3.17-.6-.76-1.4-1.14-2.41-1.14-.65,0-1.23.17-1.72.51-.5.34-.88.84-1.15,1.5-.27.66-.4,1.43-.4,2.31s.13,1.63.4,2.28c.26.65.64,1.15,1.14,1.5.49.35,1.07.52,1.74.52,1.01,0,1.81-.38,2.41-1.14.6-.76.9-1.81.9-3.16Z"/>
        <path class="cls-3" d="M377.17,148.75h-12.79v-2.25h12.79v2.25Z"/>
        <path class="cls-3" d="M396.94,150.13c0,.41-.12.86-.37,1.33-.25.47-.63.92-1.14,1.35-.51.43-1.15.77-1.92,1.03-.77.26-1.64.39-2.61.39-2.06,0-3.67-.6-4.82-1.8-1.16-1.2-1.73-2.81-1.73-4.83,0-1.37.26-2.58.79-3.62.53-1.05,1.29-1.86,2.29-2.44,1-.57,2.2-.86,3.59-.86.86,0,1.65.13,2.37.38.72.25,1.33.58,1.83.98.5.4.88.82,1.15,1.28.26.45.4.87.4,1.26s-.15.74-.45,1.01c-.3.28-.66.41-1.08.41-.28,0-.51-.07-.69-.21-.18-.14-.39-.37-.62-.69-.41-.62-.83-1.08-1.28-1.39-.44-.31-1.01-.46-1.69-.46-.98,0-1.78.38-2.38,1.15-.6.77-.9,1.82-.9,3.16,0,.63.08,1.2.23,1.73.15.52.38.97.67,1.34s.65.65,1.06.84c.42.19.87.29,1.37.29.67,0,1.24-.15,1.72-.46.48-.31.9-.78,1.26-1.42.2-.37.42-.67.66-.88.24-.21.52-.32.87-.32.41,0,.74.15,1.01.46s.4.64.4.99Z"/>
        <path class="cls-3" d="M412.32,147.48c0,.99-.15,1.91-.46,2.75-.31.84-.76,1.56-1.34,2.16s-1.29,1.06-2.1,1.39c-.81.32-1.73.48-2.75.48s-1.92-.16-2.72-.49c-.81-.33-1.5-.79-2.09-1.4-.59-.61-1.04-1.32-1.34-2.15-.31-.83-.46-1.74-.46-2.74s.15-1.93.46-2.77c.31-.84.75-1.55,1.33-2.15.58-.59,1.28-1.05,2.1-1.37.82-.32,1.73-.48,2.72-.48s1.92.16,2.75.49c.82.33,1.53.79,2.11,1.39.59.6,1.03,1.32,1.34,2.15.3.83.46,1.75.46,2.75ZM408.98,147.48c0-1.36-.3-2.42-.9-3.17-.6-.76-1.4-1.14-2.41-1.14-.65,0-1.23.17-1.72.51-.5.34-.88.84-1.15,1.5-.27.66-.4,1.43-.4,2.31s.13,1.63.4,2.28c.26.65.64,1.15,1.14,1.5.49.35,1.07.52,1.74.52,1.01,0,1.81-.38,2.41-1.14.6-.76.9-1.81.9-3.16Z"/>
        <path class="cls-3" d="M417.97,142.55v.4c.59-.77,1.23-1.34,1.92-1.7.7-.36,1.5-.54,2.4-.54s1.66.19,2.36.57c.69.38,1.21.92,1.55,1.62.22.41.36.85.43,1.32.06.47.1,1.07.1,1.81v6.2c0,.67-.15,1.17-.46,1.51-.3.34-.7.51-1.19.51s-.9-.17-1.21-.52c-.31-.35-.46-.85-.46-1.5v-5.55c0-1.1-.15-1.94-.46-2.52-.3-.58-.91-.87-1.82-.87-.59,0-1.14.18-1.62.53-.49.35-.85.84-1.07,1.46-.16.5-.24,1.42-.24,2.78v4.18c0,.67-.16,1.18-.47,1.52-.31.34-.72.51-1.21.51s-.88-.17-1.18-.52c-.31-.35-.46-.85-.46-1.5v-9.63c0-.63.14-1.11.42-1.42.28-.31.65-.47,1.14-.47.29,0,.56.07.79.21.24.14.43.35.57.62.14.28.21.61.21,1.01Z"/>
        <path class="cls-3" d="M440.78,149.9c0,.92-.22,1.71-.67,2.36-.45.66-1.11,1.15-1.98,1.49-.88.34-1.94.51-3.19.51s-2.22-.18-3.08-.55c-.86-.37-1.49-.82-1.89-1.37-.41-.55-.61-1.1-.61-1.65,0-.37.13-.68.39-.94.26-.26.59-.39.99-.39.35,0,.62.08.8.26s.37.41.54.72c.34.59.75,1.04,1.23,1.33.48.29,1.12.44,1.95.44.67,0,1.21-.15,1.64-.45.43-.3.64-.64.64-1.02,0-.59-.22-1.01-.67-1.28-.44-.27-1.17-.53-2.19-.77-1.15-.29-2.08-.58-2.8-.9-.72-.31-1.3-.73-1.73-1.24-.43-.51-.65-1.14-.65-1.89,0-.67.2-1.3.6-1.89.4-.59.99-1.07,1.76-1.42.78-.35,1.71-.53,2.81-.53.86,0,1.64.09,2.33.27.69.18,1.26.42,1.72.72s.81.63,1.05,1,.36.72.36,1.07c0,.38-.13.7-.38.94-.26.24-.62.37-1.09.37-.34,0-.63-.1-.87-.29s-.51-.49-.82-.88c-.25-.33-.55-.59-.89-.78s-.81-.29-1.39-.29-1.1.13-1.5.38c-.4.26-.6.58-.6.96,0,.35.15.64.44.86s.69.41,1.18.56c.5.15,1.18.33,2.05.54,1.03.25,1.88.55,2.53.9.66.35,1.15.76,1.49,1.24.34.48.51,1.02.51,1.63Z"/>
        <path class="cls-3" d="M452.9,148.3h-6.52c0,.76.16,1.42.46,2,.3.58.69,1.01,1.18,1.31s1.04.44,1.63.44c.4,0,.76-.05,1.09-.14.33-.09.65-.24.96-.44.31-.2.59-.41.86-.64.26-.23.6-.54,1.01-.93.17-.15.42-.22.73-.22.34,0,.62.09.83.28.21.19.32.45.32.79,0,.3-.12.65-.35,1.06-.24.4-.59.79-1.07,1.16-.48.37-1.07.68-1.79.92-.72.24-1.55.37-2.48.37-2.14,0-3.8-.61-4.99-1.83-1.19-1.22-1.78-2.88-1.78-4.97,0-.98.15-1.9.44-2.74.29-.84.72-1.56,1.28-2.17.56-.6,1.25-1.06,2.07-1.39.82-.32,1.73-.48,2.73-.48,1.3,0,2.42.28,3.35.82.93.55,1.63,1.26,2.09,2.13.46.87.7,1.76.7,2.66,0,.84-.24,1.38-.72,1.63-.48.25-1.16.37-2.03.37ZM446.38,146.4h6.04c-.08-1.14-.39-1.99-.92-2.56-.53-.57-1.23-.85-2.11-.85s-1.51.29-2.04.86c-.53.57-.86,1.42-.97,2.54Z"/>
        <path class="cls-3" d="M458.45,152.23v-14.45c0-.67.15-1.17.45-1.51.3-.34.7-.51,1.2-.51s.91.17,1.22.51c.31.34.46.84.46,1.52v14.45c0,.67-.16,1.18-.47,1.52-.31.34-.72.51-1.21.51s-.88-.17-1.19-.52-.46-.85-.46-1.5Z"/>
        <path class="cls-3" d="M468.49,137.77v4.94c.42-.49.84-.88,1.24-1.16.4-.28.85-.5,1.34-.64.49-.14,1.01-.21,1.57-.21.85,0,1.6.18,2.25.54.66.36,1.17.88,1.54,1.56.24.4.39.84.48,1.34.08.49.12,1.06.12,1.7v6.38c0,.67-.15,1.17-.46,1.51-.3.34-.71.51-1.21.51-1.1,0-1.65-.67-1.65-2.03v-5.63c0-1.07-.16-1.89-.48-2.46-.32-.57-.92-.86-1.81-.86-.59,0-1.13.17-1.6.51-.48.34-.83.8-1.07,1.38-.18.5-.27,1.38-.27,2.65v4.41c0,.66-.15,1.16-.45,1.51s-.71.52-1.24.52c-1.1,0-1.65-.67-1.65-2.03v-14.45c0-.68.14-1.18.43-1.52.29-.34.69-.51,1.21-.51s.94.17,1.24.51.45.85.45,1.51Z"/>
        <path class="cls-3" d="M492.8,147.48c0,.99-.15,1.91-.46,2.75-.31.84-.76,1.56-1.34,2.16s-1.29,1.06-2.1,1.39c-.81.32-1.73.48-2.75.48s-1.92-.16-2.72-.49c-.81-.33-1.5-.79-2.09-1.4-.59-.61-1.04-1.32-1.34-2.15-.31-.83-.46-1.74-.46-2.74s.15-1.93.46-2.77c.31-.84.75-1.55,1.33-2.15.58-.59,1.28-1.05,2.1-1.37.82-.32,1.73-.48,2.72-.48s1.92.16,2.75.49c.82.33,1.53.79,2.11,1.39.59.6,1.03,1.32,1.34,2.15.3.83.46,1.75.46,2.75ZM489.46,147.48c0-1.36-.3-2.42-.9-3.17s-1.4-1.14-2.41-1.14c-.65,0-1.23.17-1.72.51-.5.34-.88.84-1.15,1.5-.27.66-.4,1.43-.4,2.31s.13,1.63.4,2.28c.26.65.64,1.15,1.13,1.5s1.07.52,1.74.52c1.01,0,1.81-.38,2.41-1.14.6-.76.9-1.81.9-3.16Z"/>
        <path class="cls-3" d="M501.86,141h.37v-2c0-.54.01-.96.04-1.26.03-.31.11-.57.24-.79.13-.23.32-.41.56-.56s.52-.21.82-.21c.42,0,.81.16,1.15.48.23.21.37.47.43.77.06.31.09.74.09,1.3v2.27h1.22c.47,0,.83.11,1.08.33.25.22.37.51.37.86,0,.45-.18.76-.53.94-.35.18-.86.27-1.52.27h-.62v6.13c0,.52.02.92.06,1.2.04.28.13.51.29.68.16.18.42.26.77.26.2,0,.46-.03.79-.1.33-.07.59-.1.78-.1.27,0,.51.11.73.32s.32.48.32.8c0,.54-.29.95-.88,1.23s-1.43.43-2.53.43c-1.04,0-1.83-.17-2.37-.52s-.89-.83-1.06-1.45c-.17-.62-.25-1.45-.25-2.48v-6.4h-.44c-.48,0-.85-.11-1.1-.34-.25-.23-.38-.52-.38-.87s.13-.64.4-.86c.26-.22.65-.33,1.15-.33Z"/>
        <path class="cls-3" d="M519.18,152.37v-.43c-.4.5-.82.93-1.26,1.27s-.92.6-1.44.76c-.52.17-1.12.25-1.78.25-.81,0-1.53-.17-2.17-.5s-1.13-.79-1.48-1.38c-.42-.71-.62-1.72-.62-3.05v-6.6c0-.67.15-1.17.45-1.5.3-.33.7-.49,1.2-.49s.91.17,1.22.5c.31.33.46.83.46,1.49v5.33c0,.77.07,1.42.2,1.95.13.53.37.94.7,1.23.34.3.79.45,1.37.45s1.09-.17,1.59-.5c.5-.33.86-.77,1.09-1.31.19-.47.28-1.51.28-3.1v-4.05c0-.66.15-1.16.46-1.49.31-.33.71-.5,1.21-.5s.9.16,1.2.49c.3.33.45.83.45,1.5v9.66c0,.63-.14,1.11-.43,1.43-.29.32-.66.48-1.12.48s-.83-.16-1.13-.49c-.3-.33-.45-.79-.45-1.38Z"/>
        <path class="cls-3" d="M525.81,141h.37v-2c0-.54.01-.96.04-1.26.03-.31.11-.57.24-.79.13-.23.32-.41.56-.56s.52-.21.82-.21c.42,0,.81.16,1.15.48.23.21.37.47.43.77.06.31.09.74.09,1.3v2.27h1.22c.47,0,.83.11,1.08.33.25.22.37.51.37.86,0,.45-.18.76-.53.94-.35.18-.86.27-1.52.27h-.62v6.13c0,.52.02.92.05,1.2.04.28.13.51.29.68.16.18.42.26.78.26.2,0,.46-.03.79-.1s.59-.1.78-.1c.27,0,.51.11.73.32.21.22.32.48.32.8,0,.54-.29.95-.88,1.23s-1.43.43-2.53.43-1.83-.17-2.37-.52-.89-.83-1.06-1.45c-.17-.62-.25-1.45-.25-2.48v-6.4h-.44c-.48,0-.85-.11-1.1-.34s-.38-.52-.38-.87.13-.64.4-.86c.26-.22.65-.33,1.15-.33Z"/>
        <path class="cls-3" d="M543.78,148.3h-6.52c0,.76.16,1.42.46,2,.3.58.69,1.01,1.18,1.31s1.04.44,1.63.44c.4,0,.76-.05,1.09-.14.33-.09.65-.24.96-.44.31-.2.59-.41.85-.64.26-.23.6-.54,1.01-.93.17-.15.41-.22.73-.22.34,0,.62.09.83.28.21.19.32.45.32.79,0,.3-.12.65-.35,1.06-.24.4-.59.79-1.07,1.16s-1.07.68-1.79.92c-.72.24-1.55.37-2.48.37-2.14,0-3.8-.61-4.99-1.83-1.19-1.22-1.78-2.88-1.78-4.97,0-.98.15-1.9.44-2.74.29-.84.72-1.56,1.28-2.17s1.25-1.06,2.08-1.39c.82-.32,1.73-.48,2.73-.48,1.3,0,2.42.28,3.35.82.93.55,1.63,1.26,2.09,2.13.46.87.7,1.76.7,2.66,0,.84-.24,1.38-.72,1.63-.48.25-1.16.37-2.03.37ZM537.26,146.4h6.04c-.08-1.14-.39-1.99-.92-2.56-.53-.57-1.23-.85-2.11-.85s-1.51.29-2.04.86c-.53.57-.86,1.42-.97,2.54Z"/>
        <path class="cls-3" d="M549.33,152.23v-14.45c0-.67.15-1.17.45-1.51s.7-.51,1.2-.51.91.17,1.22.51c.31.34.46.84.46,1.52v14.45c0,.67-.16,1.18-.47,1.52-.31.34-.72.51-1.21.51s-.88-.17-1.19-.52c-.3-.35-.46-.85-.46-1.5Z"/>
        <path class="cls-3" d="M564.53,152.37c-.81.63-1.58,1.1-2.34,1.41-.75.31-1.6.47-2.53.47-.85,0-1.61-.17-2.25-.51-.65-.34-1.15-.8-1.5-1.37-.35-.58-.52-1.21-.52-1.88,0-.91.29-1.69.87-2.33.58-.64,1.37-1.07,2.38-1.29.21-.05.74-.16,1.58-.33.84-.17,1.56-.33,2.16-.47.6-.14,1.25-.32,1.95-.52-.04-.88-.22-1.52-.53-1.93-.31-.41-.96-.62-1.95-.62-.85,0-1.48.12-1.91.35-.43.24-.79.59-1.1,1.06-.3.47-.52.78-.65.93-.13.15-.4.23-.81.23-.37,0-.7-.12-.97-.36-.27-.24-.41-.55-.41-.92,0-.59.21-1.16.62-1.71.41-.55,1.06-1.01,1.94-1.37.88-.36,1.97-.54,3.28-.54,1.46,0,2.62.17,3.45.52.84.35,1.43.89,1.78,1.64s.52,1.74.52,2.98c0,.78,0,1.44,0,1.99,0,.55,0,1.15-.02,1.82,0,.63.1,1.28.31,1.96.21.68.31,1.12.31,1.31,0,.34-.16.65-.48.93-.32.28-.69.42-1.09.42-.34,0-.68-.16-1.01-.48-.33-.32-.69-.79-1.06-1.4ZM564.31,147.55c-.49.18-1.2.37-2.13.57-.93.2-1.58.35-1.94.44-.36.09-.7.28-1.03.55-.33.27-.49.65-.49,1.14s.19.93.57,1.29c.38.35.88.53,1.5.53.66,0,1.27-.14,1.82-.43.56-.29.97-.66,1.23-1.12.3-.5.45-1.33.45-2.49v-.48Z"/>
        <path class="cls-3" d="M574.27,149.44v2.78c0,.67-.16,1.18-.48,1.52-.32.34-.72.51-1.21.51s-.88-.17-1.18-.51c-.31-.34-.46-.85-.46-1.51v-9.28c0-1.5.54-2.25,1.62-2.25.55,0,.95.17,1.2.52s.38.87.4,1.55c.4-.68.81-1.2,1.23-1.55s.98-.52,1.68-.52,1.38.17,2.04.52.99.81.99,1.39c0,.41-.14.74-.42,1.01-.28.26-.58.4-.91.4-.12,0-.42-.08-.88-.23-.47-.15-.88-.23-1.24-.23-.49,0-.89.13-1.2.38-.31.26-.55.64-.72,1.14-.17.5-.29,1.1-.35,1.8-.07.7-.1,1.54-.1,2.55Z"/>
      </g>
      <rect class="cls-2" x="306" width="241" height="40" rx="7.39" ry="7.39"/>
      <g>
        <path class="cls-3" d="M390.2,14.45h-6.53v3.52h6.02c.44,0,.77.1.99.3.22.2.33.46.33.79s-.11.59-.32.79-.55.31-1,.31h-6.02v4.07h6.76c.46,0,.8.11,1.03.32.23.21.35.49.35.85s-.12.61-.35.82c-.23.21-.57.32-1.03.32h-7.88c-.63,0-1.08-.14-1.36-.42-.28-.28-.42-.73-.42-1.36v-10.76c0-.42.06-.76.19-1.02.12-.26.32-.46.58-.58.26-.12.6-.18,1.01-.18h7.66c.46,0,.81.1,1.03.31s.34.47.34.81-.11.61-.34.81-.57.31-1.03.31Z"/>
        <path class="cls-3" d="M399.7,25.67l-1.93-2.84-1.98,2.84c-.29.4-.53.68-.73.85-.2.17-.45.25-.76.25-.34,0-.63-.11-.86-.32-.24-.21-.36-.45-.36-.73s.18-.68.55-1.2l2.41-3.46-2.14-2.88c-.37-.48-.56-.89-.56-1.24,0-.27.11-.51.33-.71.22-.2.51-.3.87-.3.31,0,.57.09.78.26s.44.45.72.83l1.73,2.36,1.68-2.36c.28-.39.52-.67.73-.84.21-.17.46-.25.77-.25.35,0,.64.1.87.3.23.2.35.44.35.72,0,.2-.05.39-.14.58-.09.19-.24.41-.43.66l-2.14,2.88,2.41,3.46c.38.54.57.95.57,1.22s-.12.52-.35.72c-.23.2-.52.3-.87.3-.31,0-.56-.09-.78-.26-.21-.18-.45-.46-.73-.84Z"/>
        <path class="cls-3" d="M411.51,22.01h-5.21c0,.61.13,1.14.37,1.6.24.46.55.81.95,1.04.39.23.83.35,1.3.35.32,0,.61-.04.87-.11.26-.07.52-.19.77-.35.25-.16.48-.33.68-.51.21-.18.48-.43.81-.74.14-.12.33-.18.59-.18.27,0,.5.07.66.22.17.15.25.36.25.63,0,.24-.09.52-.28.84-.19.32-.47.63-.85.93-.38.3-.86.54-1.44.74s-1.24.29-1.99.29c-1.71,0-3.04-.49-3.99-1.46-.95-.98-1.43-2.3-1.43-3.97,0-.79.12-1.52.35-2.19s.58-1.25,1.03-1.73c.45-.48,1-.85,1.66-1.11.66-.26,1.39-.38,2.19-.38,1.04,0,1.94.22,2.68.66.75.44,1.3,1.01,1.67,1.71.37.7.56,1.41.56,2.13,0,.67-.19,1.11-.58,1.3-.38.2-.92.3-1.62.3ZM406.3,20.5h4.83c-.06-.91-.31-1.59-.74-2.05-.43-.45-.99-.68-1.68-.68s-1.21.23-1.64.69c-.43.46-.68,1.14-.78,2.04Z"/>
        <path class="cls-3" d="M424.83,21.55v3.54c0,.56-.13.98-.38,1.26-.25.28-.59.42-1.01.42s-.73-.14-.98-.42c-.25-.28-.38-.7-.38-1.26v-4.25c0-.67-.02-1.19-.07-1.56-.04-.37-.17-.68-.37-.91-.2-.24-.52-.36-.96-.36-.87,0-1.45.3-1.72.9-.28.6-.42,1.46-.42,2.58v3.6c0,.55-.12.97-.38,1.25-.25.28-.58.43-.99.43s-.73-.14-.99-.43c-.26-.28-.39-.7-.39-1.25v-7.63c0-.5.12-.88.35-1.14.23-.26.54-.39.91-.39s.67.12.91.37.37.58.37,1.01v.25c.46-.55.96-.96,1.48-1.22.53-.26,1.11-.39,1.76-.39s1.25.13,1.73.4c.48.27.88.67,1.19,1.21.45-.55.93-.95,1.45-1.22.51-.26,1.08-.39,1.71-.39.73,0,1.36.14,1.88.43.53.29.92.7,1.18,1.23.23.48.34,1.24.34,2.28v5.21c0,.56-.13.98-.38,1.26-.25.28-.59.42-1.01.42s-.73-.14-.99-.43c-.26-.28-.39-.7-.39-1.25v-4.48c0-.57-.02-1.03-.07-1.38-.05-.35-.18-.63-.4-.87s-.54-.35-.98-.35c-.35,0-.68.1-1,.31-.32.21-.56.49-.74.84-.2.45-.29,1.24-.29,2.38Z"/>
        <path class="cls-3" d="M436.11,17.43v.32c.5-.62,1.02-1.07,1.56-1.36.54-.29,1.15-.43,1.84-.43.82,0,1.58.21,2.27.63.69.42,1.24,1.04,1.64,1.86.4.81.6,1.78.6,2.89,0,.82-.12,1.57-.35,2.26-.23.69-.55,1.26-.95,1.73-.4.47-.88.82-1.43,1.07-.55.25-1.14.38-1.77.38-.76,0-1.4-.15-1.92-.46-.52-.31-1.01-.76-1.48-1.35v4c0,1.17-.43,1.76-1.28,1.76-.5,0-.83-.15-1-.46-.16-.3-.24-.74-.24-1.32v-11.5c0-.51.11-.89.33-1.14.22-.25.52-.38.91-.38s.69.13.92.38c.24.26.36.63.36,1.11ZM441.34,21.31c0-.7-.11-1.31-.32-1.81-.21-.5-.51-.89-.89-1.16-.38-.27-.8-.4-1.26-.4-.74,0-1.36.29-1.86.87-.5.58-.76,1.43-.76,2.56,0,1.06.25,1.89.75,2.47.5.59,1.12.88,1.87.88.44,0,.85-.13,1.23-.39.38-.26.68-.64.91-1.16.23-.52.34-1.14.34-1.87Z"/>
        <path class="cls-3" d="M446.15,25.15v-11.56c0-.54.12-.94.36-1.21.24-.27.56-.41.96-.41s.73.13.98.4c.25.27.37.68.37,1.22v11.56c0,.54-.12.95-.38,1.21-.25.27-.57.41-.97.41s-.71-.14-.95-.42c-.24-.28-.37-.68-.37-1.2Z"/>
        <path class="cls-3" d="M461.55,21.36c0,.79-.12,1.53-.37,2.2-.25.67-.61,1.25-1.07,1.73-.47.48-1.03.85-1.68,1.11-.65.26-1.38.39-2.2.39s-1.53-.13-2.18-.39c-.64-.26-1.2-.63-1.67-1.12-.47-.48-.83-1.06-1.07-1.72-.24-.66-.37-1.39-.37-2.19s.12-1.55.37-2.22c.25-.67.6-1.24,1.06-1.72.46-.48,1.02-.84,1.68-1.1.66-.26,1.38-.38,2.18-.38s1.54.13,2.2.39c.66.26,1.22.63,1.69,1.11.47.48.83,1.05,1.07,1.72s.37,1.4.37,2.2ZM458.88,21.36c0-1.09-.24-1.93-.72-2.54s-1.12-.91-1.93-.91c-.52,0-.98.13-1.38.4-.4.27-.7.67-.92,1.2s-.32,1.14-.32,1.85.11,1.3.32,1.83c.21.52.51.92.91,1.2.39.28.86.42,1.39.42.81,0,1.45-.3,1.93-.91.48-.61.72-1.45.72-2.52Z"/>
        <path class="cls-3" d="M472.24,23.29c0,.73-.18,1.37-.54,1.89-.36.53-.89.92-1.59,1.19-.7.27-1.55.41-2.55.41s-1.78-.15-2.46-.44-1.19-.66-1.51-1.1c-.33-.44-.49-.88-.49-1.32,0-.29.1-.54.31-.75.21-.21.47-.31.79-.31.28,0,.5.07.64.21.15.14.29.33.43.58.27.47.6.83.98,1.06s.9.35,1.56.35c.53,0,.97-.12,1.31-.36.34-.24.51-.51.51-.81,0-.47-.18-.81-.53-1.03-.35-.21-.94-.42-1.75-.62-.92-.23-1.67-.47-2.24-.72-.58-.25-1.04-.58-1.38-.99-.34-.41-.52-.92-.52-1.51,0-.54.16-1.04.48-1.51.32-.48.79-.86,1.41-1.14.62-.28,1.37-.42,2.25-.42.69,0,1.31.07,1.86.21.55.14,1.01.33,1.38.58.37.24.65.51.84.8.19.29.29.58.29.86,0,.3-.1.56-.31.75s-.5.29-.87.29c-.27,0-.51-.08-.7-.23-.19-.16-.41-.39-.66-.7-.2-.26-.44-.47-.71-.62s-.64-.23-1.11-.23-.88.1-1.2.31c-.32.21-.48.46-.48.77,0,.28.12.51.35.69.23.18.55.33.95.45.4.12.94.26,1.64.43.83.2,1.5.44,2.03.72.52.28.92.61,1.19.99.27.38.41.82.41,1.3Z"/>
      </g>
    </g>
  </g>
</svg>