<?xml version="1.0" encoding="UTF-8"?>
<svg id="Layer_2" data-name="Layer 2" xmlns="http://www.w3.org/2000/svg" xmlns:xlink="http://www.w3.org/1999/xlink" viewBox="0 0 1025 92.8">
  <defs>
    <style>
      .cls-1 {
        fill: url(#linear-gradient);
      }

      .cls-1, .cls-2, .cls-3, .cls-4, .cls-5, .cls-6, .cls-7, .cls-8 {
        stroke-width: 0px;
      }

      .cls-2 {
        fill: #ff6700;
      }

      .cls-3 {
        fill: url(#linear-gradient-6);
      }

      .cls-4 {
        fill: url(#linear-gradient-5);
      }

      .cls-5 {
        fill: #fff;
      }

      .cls-6 {
        fill: url(#linear-gradient-2);
      }

      .cls-7 {
        fill: url(#linear-gradient-3);
      }

      .cls-8 {
        fill: url(#linear-gradient-4);
      }
    </style>
    <linearGradient id="linear-gradient" x1="113.37" y1="24.08" x2="5.22" y2="20.52" gradientUnits="userSpaceOnUse">
      <stop offset="0" stop-color="#7699ff"/>
      <stop offset="1" stop-color="#6100ff"/>
    </linearGradient>
    <linearGradient id="linear-gradient-2" x1="112.28" y1="57.25" x2="4.13" y2="53.7" xlink:href="#linear-gradient"/>
    <linearGradient id="linear-gradient-3" x1="113.24" y1="27.9" x2="5.1" y2="24.34" xlink:href="#linear-gradient"/>
    <linearGradient id="linear-gradient-4" x1="110.71" y1="47.5" x2="46.21" y2="45.38" gradientTransform="translate(-.21 3.98) rotate(-2.4)" xlink:href="#linear-gradient"/>
    <linearGradient id="linear-gradient-5" x1="4.74" y1="57.93" x2="26.57" y2="57.93" xlink:href="#linear-gradient"/>
    <linearGradient id="linear-gradient-6" x1="485.5" y1="57.89" x2="1025" y2="57.89" gradientTransform="translate(1510.5 115.77) rotate(-180)" gradientUnits="userSpaceOnUse">
      <stop offset="0" stop-color="#fff" stop-opacity="0"/>
      <stop offset=".28" stop-color="#ffcca9" stop-opacity=".34"/>
      <stop offset=".54" stop-color="#ffa060" stop-opacity=".62"/>
      <stop offset=".75" stop-color="#ff812c" stop-opacity=".83"/>
      <stop offset=".91" stop-color="#ff6e0c" stop-opacity=".95"/>
      <stop offset="1" stop-color="#ff6700"/>
    </linearGradient>
  </defs>
  <g id="Vocabulário_Técnico" data-name="Vocabulário Técnico">
    <g>
      <g>
        <path class="cls-2" d="M499.84,61.89c-.49,1.06-1.21,1.98-2.14,2.67l-17.08,12.6-17.08,12.6c-.38.28-.76.48-1.15.64-2.38,1.51-5.19,2.4-8.21,2.4H0V22.98h454.18c3.02,0,5.83.89,8.21,2.4.39.16.77.37,1.15.64l17.08,12.6,17.08,12.6c.93.69,1.65,1.61,2.14,2.67,1.16,2.44,1.16,5.56,0,8Z"/>
        <g>
          <path class="cls-1" d="M59.76,18.31c2.55,1.51,2.5,5.21-.08,6.66l-15.18,8.53-15.18,8.53c-2.58,1.45-5.76-.44-5.73-3.4l.21-17.41.21-17.41c.04-2.96,3.26-4.77,5.81-3.26l14.97,8.88,14.97,8.88Z"/>
          <path class="cls-6" d="M70.1,52.77c2.85,1.7,2.69,5.26-.3,6.69l-9.47,4.52-8.37,4c-3.25,1.55-7.32-.54-7.18-3.68l.42-9.31.42-9.31c.14-3.14,4.39-4.85,7.48-3.01l7.98,4.74,9.02,5.36Z"/>
          <path class="cls-7" d="M91.69,25.25c1.56.98,1.46,3.28-.17,4.12l-6.68,3.43-6.77,3.48c-1.62.83-3.53-.39-3.45-2.21l.31-7.46.31-7.46c.08-1.82,2.08-2.88,3.63-1.91l6.46,4.03,6.37,3.98Z"/>
          <path class="cls-8" d="M99.49,45.76c.95.54.95,1.92,0,2.46l-3.9,2.21-3.95,2.24c-.94.54-2.11-.15-2.11-1.23v-4.46s0-4.46,0-4.46c0-1.08,1.17-1.77,2.11-1.23l3.95,2.24,3.9,2.21Z"/>
        </g>
        <path class="cls-4" d="M25.26,65.28L0,79.86v-43.85l25.26,14.58c5.65,3.26,5.65,11.43,0,14.69Z"/>
        <g>
          <path class="cls-5" d="M133.78,46.2c-.19-.33-.45-.59-.79-.79-.34-.19-.7-.29-1.1-.29-.53,0-.96.12-1.27.38-.31.25-.53.54-.67.85-.13.32-.33.88-.6,1.69l-5.18,15.38-5.16-15.27c-.34-1.06-.67-1.83-1-2.31-.32-.48-.88-.72-1.67-.72-.64,0-1.17.21-1.6.65-.42.43-.63.92-.63,1.44,0,.21.03.46.1.77.06.3.15.58.25.83.09.26.19.53.28.8l5.42,14.76c.2.57.4,1.1.59,1.61.2.51.43.96.7,1.36.26.4.61.72,1.04.96.43.25.95.37,1.57.37s1.15-.13,1.58-.37c.43-.25.78-.57,1.03-.96.26-.39.49-.84.69-1.35.19-.51.39-1.05.59-1.62l5.51-14.89c.1-.27.19-.53.28-.78.1-.26.17-.51.24-.78.06-.26.09-.51.09-.74,0-.33-.1-.66-.29-.98Z"/>
          <path class="cls-5" d="M150.95,56.55c-.39-1.06-.96-1.97-1.7-2.73-.75-.77-1.64-1.36-2.69-1.77-1.05-.42-2.21-.63-3.5-.63s-2.41.21-3.46.62c-1.05.41-1.94.99-2.67,1.75-.74.75-1.3,1.66-1.7,2.73-.39,1.07-.59,2.24-.59,3.53s.2,2.43.59,3.48c.39,1.06.95,1.97,1.71,2.74.75.77,1.63,1.36,2.66,1.78,1.03.41,2.18.62,3.46.62s2.46-.21,3.5-.61c1.04-.41,1.93-1,2.67-1.77.75-.76,1.32-1.68,1.71-2.75.39-1.06.59-2.23.59-3.49s-.19-2.44-.58-3.5ZM146.13,64.06c-.76.97-1.78,1.46-3.07,1.46-.84,0-1.58-.22-2.21-.66-.63-.45-1.11-1.08-1.44-1.91-.34-.83-.51-1.8-.51-2.9s.17-2.1.51-2.94c.35-.84.83-1.47,1.46-1.9.64-.43,1.37-.65,2.19-.65,1.29,0,2.31.48,3.07,1.45.76.96,1.14,2.31,1.14,4.04s-.38,3.04-1.14,4.01Z"/>
          <path class="cls-5" d="M169.57,62.16c-.34-.39-.77-.59-1.29-.59-.44,0-.8.13-1.1.4s-.58.65-.84,1.12c-.47.81-1,1.41-1.61,1.8-.61.4-1.33.59-2.18.59-.63,0-1.21-.12-1.74-.36-.53-.24-.98-.6-1.35-1.07-.38-.47-.66-1.04-.86-1.71-.2-.67-.29-1.4-.29-2.2,0-1.7.38-3.04,1.15-4.02.76-.97,1.77-1.46,3.02-1.46.87,0,1.59.19,2.16.59.56.39,1.1.98,1.62,1.77.29.4.55.69.78.88.24.18.53.27.88.27.54,0,1-.18,1.38-.53.38-.35.56-.78.56-1.29s-.16-1.03-.5-1.61c-.34-.57-.82-1.11-1.46-1.62-.64-.51-1.41-.92-2.33-1.25-.92-.32-1.92-.48-3.02-.48-1.77,0-3.3.37-4.57,1.1-1.27.73-2.25,1.76-2.92,3.1-.67,1.33-1.01,2.87-1.01,4.61,0,2.57.73,4.62,2.2,6.15,1.48,1.52,3.52,2.29,6.14,2.29,1.23,0,2.34-.17,3.33-.5.98-.33,1.8-.77,2.44-1.31.65-.55,1.13-1.12,1.45-1.72.31-.6.47-1.16.47-1.69,0-.45-.17-.87-.51-1.26Z"/>
          <path class="cls-5" d="M188.75,65.27c-.27-.86-.4-1.69-.4-2.49.01-.85.02-1.62.03-2.31v-2.54c0-1.57-.22-2.83-.66-3.79-.44-.95-1.19-1.65-2.26-2.09-1.06-.44-2.53-.66-4.39-.66-1.67,0-3.06.23-4.18.69-1.12.45-1.94,1.03-2.47,1.74-.53.7-.8,1.43-.8,2.17,0,.48.18.87.53,1.17.34.31.75.46,1.23.46.53,0,.87-.09,1.03-.28.16-.2.44-.59.83-1.19.38-.6.85-1.05,1.39-1.35.55-.31,1.36-.45,2.44-.45,1.25,0,2.08.26,2.47.78.4.52.63,1.34.68,2.46-.89.26-1.72.48-2.48.66-.76.18-1.67.38-2.74.6-1.07.22-1.73.36-2,.42-1.29.28-2.3.83-3.03,1.65-.74.81-1.11,1.8-1.11,2.96,0,.86.23,1.66.67,2.4.45.73,1.08,1.32,1.9,1.74.83.43,1.78.65,2.87.65,1.19,0,2.27-.2,3.22-.6.96-.4,1.95-1,2.98-1.79.48.77.93,1.37,1.35,1.78.43.4.86.61,1.29.61.52,0,.98-.18,1.39-.54.41-.35.62-.75.62-1.19,0-.24-.14-.8-.4-1.67ZM184.22,60.75c0,1.47-.19,2.52-.57,3.17-.34.58-.86,1.05-1.57,1.42-.71.36-1.48.55-2.32.55-.79,0-1.42-.23-1.91-.68-.49-.45-.73-.99-.73-1.64s.21-1.1.62-1.45c.42-.35.85-.58,1.31-.7.45-.12,1.27-.3,2.46-.56,1.18-.25,2.09-.49,2.71-.72v.61Z"/>
          <path class="cls-5" d="M207.87,55.36c-.58-1.27-1.4-2.23-2.47-2.9-1.06-.67-2.29-1-3.7-1-1.22,0-2.25.22-3.08.66-.83.44-1.64,1.07-2.44,1.9v-6.48c0-.78-.17-1.37-.53-1.79-.35-.42-.85-.63-1.5-.63s-1.11.22-1.45.66c-.35.44-.52,1.09-.52,1.95v18.52c0,.79.17,1.4.53,1.81.36.4.84.61,1.44.61s1.08-.21,1.46-.61c.38-.41.57-1.02.57-1.81v-.42c.47.53.84.94,1.13,1.21.28.27.63.53,1.03.78.41.26.9.46,1.47.62.58.15,1.19.23,1.84.23,1.07,0,2.04-.22,2.93-.65.89-.42,1.64-1.03,2.26-1.82.62-.79,1.1-1.72,1.42-2.79.33-1.07.49-2.25.49-3.53,0-1.74-.29-3.25-.88-4.52ZM203.34,64c-.77.93-1.69,1.39-2.76,1.39-1.25,0-2.27-.45-3.04-1.36-.77-.9-1.15-2.2-1.15-3.89,0-1.15.18-2.14.54-2.98.36-.83.86-1.47,1.49-1.91s1.35-.66,2.16-.66,1.48.22,2.07.66c.59.44,1.04,1.07,1.36,1.88.32.8.49,1.77.49,2.89,0,1.73-.39,3.05-1.16,3.98Z"/>
          <path class="cls-5" d="M226.15,52.05c-.38-.42-.89-.63-1.52-.63s-1.14.22-1.54.64c-.39.43-.59,1.06-.59,1.9v5.15c0,2.04-.12,3.35-.36,3.95-.29.68-.75,1.24-1.38,1.66-.63.43-1.3.64-2.02.64s-1.32-.19-1.75-.57-.72-.9-.89-1.57c-.16-.66-.25-1.49-.25-2.47v-6.79c0-.84-.2-1.47-.59-1.9-.39-.42-.91-.64-1.55-.64s-1.14.21-1.52.63c-.39.42-.58,1.06-.58,1.91v8.4c0,1.69.26,2.98.79,3.89.45.74,1.08,1.33,1.89,1.75.81.43,1.73.64,2.76.64.85,0,1.6-.11,2.27-.32.66-.21,1.27-.54,1.83-.97.56-.44,1.09-.97,1.6-1.62v.55c0,.75.19,1.34.57,1.76.37.42.85.63,1.43.63s1.06-.2,1.43-.61c.36-.4.55-1.01.55-1.81v-12.29c0-.85-.19-1.49-.58-1.91Z"/>
          <path class="cls-5" d="M234.6,45.76c-.39-.43-.91-.64-1.55-.64s-1.15.21-1.53.65c-.38.43-.57,1.08-.57,1.93v18.39c0,.83.2,1.47.59,1.91.38.45.89.67,1.51.67s1.15-.22,1.55-.65c.39-.42.59-1.07.59-1.93v-18.39c0-.86-.19-1.51-.59-1.94Z"/>
          <path class="cls-5" d="M254.54,65.27c-.26-.86-.39-1.69-.39-2.49,0-.85.02-1.62.02-2.31.01-.7.01-1.54.01-2.54,0-1.57-.22-2.83-.66-3.79-.44-.95-1.2-1.65-2.26-2.09-1.07-.44-2.53-.66-4.4-.66-1.67,0-3.06.23-4.18.69-1.12.45-1.94,1.03-2.47,1.74-.53.7-.79,1.43-.79,2.17,0,.48.17.87.52,1.17.35.31.76.46,1.24.46.52,0,.87-.09,1.03-.28.16-.2.43-.59.82-1.19.39-.6.86-1.05,1.4-1.35.54-.31,1.35-.45,2.43-.45,1.25,0,2.08.26,2.48.78.4.52.62,1.34.68,2.46-.9.26-1.72.48-2.48.66-.76.18-1.68.38-2.74.6-1.07.22-1.74.36-2.01.42-1.28.28-2.29.83-3.03,1.65-.73.81-1.1,1.8-1.1,2.96,0,.86.22,1.66.67,2.4.44.73,1.08,1.32,1.9,1.74.82.43,1.78.65,2.87.65,1.19,0,2.26-.2,3.22-.6.96-.4,1.95-1,2.97-1.79.48.77.93,1.37,1.36,1.78.42.4.85.61,1.29.61.51,0,.98-.18,1.39-.54.41-.35.61-.75.61-1.19,0-.24-.13-.8-.4-1.67ZM250.02,60.75c0,1.47-.2,2.52-.58,3.17-.33.58-.85,1.05-1.56,1.42-.71.36-1.48.55-2.32.55-.79,0-1.43-.23-1.91-.68-.49-.45-.73-.99-.73-1.64s.2-1.1.62-1.45c.41-.35.85-.58,1.3-.7.46-.12,1.28-.3,2.46-.56,1.19-.25,2.09-.49,2.72-.72v.61ZM249.56,45.33h-2.09c-.61,0-1.07.11-1.37.32-.3.2-.65.68-1.06,1.44l-.7,1.3c-.27.44-.4.75-.4.92,0,.26.22.39.67.39.67,0,1.3-.15,1.89-.45.23-.11.64-.44,1.23-.98.59-.54,1.18-1.1,1.76-1.69.58-.59.87-.93.87-1.01,0-.16-.27-.24-.8-.24Z"/>
          <path class="cls-5" d="M268.85,52.09c-.84-.44-1.71-.67-2.6-.67s-1.6.23-2.14.67c-.53.45-1.05,1.1-1.56,1.97-.03-.87-.2-1.52-.51-1.97-.31-.44-.82-.67-1.52-.67-1.38,0-2.07.96-2.07,2.86v11.81c0,.85.2,1.49.59,1.93.4.43.9.65,1.51.65s1.13-.22,1.54-.65c.4-.42.6-1.07.6-1.93v-3.54c0-1.28.04-2.36.13-3.24.08-.89.23-1.65.45-2.29.22-.65.52-1.13.92-1.46.39-.32.9-.49,1.52-.49.45,0,.98.1,1.57.29.6.19.98.29,1.13.29.41,0,.8-.17,1.16-.5.36-.34.53-.77.53-1.29,0-.73-.41-1.32-1.25-1.77Z"/>
          <path class="cls-5" d="M276.02,45.83c-.42-.35-.91-.53-1.46-.53s-1.07.2-1.5.59c-.43.38-.64.88-.64,1.48,0,.66.21,1.17.63,1.54.42.36.92.54,1.51.54s1.06-.18,1.48-.55c.41-.37.62-.88.62-1.53s-.21-1.19-.64-1.54ZM276.05,52.06c-.4-.42-.91-.64-1.53-.64s-1.13.22-1.52.64c-.39.43-.58,1.06-.58,1.9v12.13c0,.83.19,1.47.58,1.91.39.45.9.67,1.52.67s1.13-.22,1.53-.65c.41-.44.61-1.08.61-1.93v-12.26c0-.75-.2-1.34-.61-1.77Z"/>
          <path class="cls-5" d="M296.34,56.55c-.39-1.06-.96-1.97-1.7-2.73-.75-.77-1.65-1.36-2.69-1.77-1.05-.42-2.21-.63-3.5-.63s-2.42.21-3.46.62c-1.05.41-1.94.99-2.67,1.75-.74.75-1.3,1.66-1.7,2.73-.39,1.07-.59,2.24-.59,3.53s.2,2.43.58,3.48c.39,1.06.96,1.97,1.71,2.74s1.64,1.36,2.67,1.78c1.02.41,2.18.62,3.46.62s2.46-.21,3.5-.61c1.03-.41,1.92-1,2.67-1.77.75-.76,1.32-1.68,1.71-2.75.39-1.06.59-2.23.59-3.49s-.19-2.44-.58-3.5ZM291.52,64.06c-.76.97-1.78,1.46-3.07,1.46-.85,0-1.59-.22-2.21-.66-.63-.45-1.11-1.08-1.45-1.91-.33-.83-.5-1.8-.5-2.9s.17-2.1.51-2.94c.34-.84.83-1.47,1.46-1.9s1.36-.65,2.19-.65c1.29,0,2.31.48,3.07,1.45.76.96,1.14,2.31,1.14,4.04s-.38,3.04-1.14,4.01Z"/>
          <path class="cls-5" d="M317.51,65.54c-.27-.28-.58-.41-.92-.41-.24,0-.57.04-1,.13-.42.09-.76.13-1.01.13-.45,0-.78-.11-.98-.33-.2-.23-.33-.52-.38-.87-.04-.36-.07-.87-.07-1.53v-7.8h.8c.84,0,1.48-.12,1.93-.34.45-.23.68-.63.68-1.2,0-.45-.16-.81-.48-1.1-.31-.28-.77-.42-1.37-.42h-1.56v-2.89c0-.72-.04-1.27-.11-1.66-.08-.39-.26-.71-.55-.98-.44-.41-.93-.61-1.46-.61-.39,0-.73.09-1.05.27-.31.18-.54.42-.71.71-.17.28-.27.61-.3,1-.04.39-.06.92-.06,1.61v2.55h-.46c-.65,0-1.14.14-1.47.42-.34.29-.51.65-.51,1.1s.16.81.49,1.1c.32.29.78.44,1.39.44h.56v8.14c0,1.31.11,2.37.32,3.15.21.79.66,1.41,1.34,1.85.69.45,1.69.67,3.02.67,1.4,0,2.47-.18,3.22-.54.74-.37,1.11-.89,1.11-1.57,0-.41-.13-.75-.41-1.02Z"/>
          <path class="cls-5" d="M333.1,62.84c-.4,0-.71.1-.93.28-.53.5-.96.89-1.29,1.18-.33.29-.69.57-1.09.82-.39.25-.8.44-1.22.56-.42.12-.88.18-1.39.18-.75,0-1.44-.19-2.07-.56s-1.13-.93-1.51-1.66c-.38-.74-.57-1.59-.58-2.55h8.3c1.1,0,1.96-.16,2.58-.48.61-.31.91-1,.91-2.07,0-1.15-.29-2.28-.88-3.39-.59-1.11-1.48-2.01-2.67-2.71-1.18-.7-2.61-1.05-4.26-1.05-1.28,0-2.44.21-3.48.62-1.05.41-1.93.99-2.64,1.76-.72.77-1.26,1.69-1.64,2.76-.37,1.07-.55,2.23-.55,3.49,0,2.66.75,4.76,2.26,6.32,1.52,1.55,3.63,2.33,6.36,2.33,1.19,0,2.24-.16,3.16-.47.92-.31,1.68-.7,2.28-1.17.61-.47,1.06-.96,1.36-1.48.3-.51.45-.96.45-1.34,0-.44-.13-.77-.4-1.01-.27-.24-.62-.36-1.06-.36ZM324.25,55.44c.68-.73,1.55-1.09,2.61-1.09s2,.35,2.68,1.07c.68.73,1.07,1.81,1.17,3.26h-7.69c.14-1.43.56-2.51,1.23-3.24ZM329.47,45.33h-2.1c-.61,0-1.07.11-1.37.32-.3.2-.65.68-1.05,1.44l-.7,1.3c-.27.44-.41.75-.41.92,0,.26.23.39.67.39.67,0,1.31-.15,1.9-.45.22-.11.63-.44,1.22-.98.59-.54,1.18-1.1,1.76-1.69.58-.59.87-.93.87-1.01,0-.16-.26-.24-.79-.24Z"/>
          <path class="cls-5" d="M353.08,62.16c-.34-.39-.77-.59-1.29-.59-.43,0-.8.13-1.1.4s-.58.65-.84,1.12c-.46.81-1,1.41-1.61,1.8-.6.4-1.33.59-2.18.59-.63,0-1.21-.12-1.74-.36-.53-.24-.98-.6-1.35-1.07-.37-.47-.66-1.04-.86-1.71-.19-.67-.29-1.4-.29-2.2,0-1.7.38-3.04,1.15-4.02.76-.97,1.77-1.46,3.03-1.46.87,0,1.59.19,2.15.59.56.39,1.11.98,1.62,1.77.29.4.55.69.79.88.23.18.52.27.88.27.53,0,.99-.18,1.37-.53.38-.35.57-.78.57-1.29s-.17-1.03-.51-1.61c-.33-.57-.82-1.11-1.46-1.62-.63-.51-1.41-.92-2.33-1.25-.91-.32-1.92-.48-3.02-.48-1.77,0-3.29.37-4.57,1.1-1.27.73-2.25,1.76-2.92,3.1-.67,1.33-1.01,2.87-1.01,4.61,0,2.57.74,4.62,2.21,6.15,1.47,1.52,3.51,2.29,6.13,2.29,1.24,0,2.35-.17,3.33-.5.98-.33,1.8-.77,2.45-1.31.64-.55,1.13-1.12,1.44-1.72.32-.6.48-1.16.48-1.69,0-.45-.18-.87-.52-1.26Z"/>
          <path class="cls-5" d="M372.16,55.9c-.08-.6-.26-1.16-.54-1.68-.44-.89-1.1-1.58-1.98-2.07-.88-.48-1.88-.73-2.99-.73s-2.17.23-3.06.7c-.88.46-1.7,1.18-2.44,2.16v-.51c0-.51-.09-.94-.28-1.29-.18-.35-.42-.62-.72-.79-.3-.18-.64-.27-1.01-.27-.61,0-1.09.2-1.44.6-.36.4-.53,1-.53,1.81v12.26c0,.83.19,1.47.59,1.91.39.45.89.67,1.51.67s1.14-.22,1.54-.65c.4-.42.6-1.07.6-1.93v-5.31c0-1.73.1-2.91.31-3.55.29-.78.75-1.4,1.37-1.85.62-.45,1.31-.68,2.06-.68,1.16,0,1.94.37,2.33,1.11.38.74.58,1.81.58,3.21v7.07c0,.83.2,1.47.59,1.91.39.45.91.67,1.54.67s1.12-.22,1.51-.65c.39-.44.58-1.08.58-1.93v-7.89c0-.93-.04-1.7-.12-2.3Z"/>
          <path class="cls-5" d="M380.11,45.83c-.42-.35-.91-.53-1.46-.53s-1.07.2-1.5.59c-.42.38-.64.88-.64,1.48,0,.66.21,1.17.63,1.54.42.36.92.54,1.51.54s1.07-.18,1.48-.55c.41-.37.62-.88.62-1.53s-.21-1.19-.64-1.54ZM380.15,52.06c-.41-.42-.92-.64-1.54-.64s-1.13.22-1.52.64c-.39.43-.58,1.06-.58,1.9v12.13c0,.83.19,1.47.58,1.91.39.45.9.67,1.52.67s1.13-.22,1.54-.65c.4-.44.6-1.08.6-1.93v-12.26c0-.75-.2-1.34-.6-1.77Z"/>
          <path class="cls-5" d="M399.83,62.16c-.34-.39-.77-.59-1.29-.59-.43,0-.8.13-1.1.4s-.58.65-.84,1.12c-.47.81-1,1.41-1.61,1.8-.6.4-1.33.59-2.18.59-.63,0-1.21-.12-1.74-.36-.53-.24-.98-.6-1.35-1.07-.38-.47-.66-1.04-.86-1.71-.19-.67-.29-1.4-.29-2.2,0-1.7.38-3.04,1.15-4.02.76-.97,1.77-1.46,3.03-1.46.87,0,1.58.19,2.15.59.56.39,1.1.98,1.62,1.77.29.4.55.69.79.88.23.18.52.27.87.27.54,0,1-.18,1.38-.53.38-.35.57-.78.57-1.29s-.17-1.03-.51-1.61c-.34-.57-.82-1.11-1.46-1.62-.64-.51-1.41-.92-2.33-1.25-.92-.32-1.92-.48-3.02-.48-1.77,0-3.29.37-4.57,1.1-1.27.73-2.25,1.76-2.92,3.1-.67,1.33-1.01,2.87-1.01,4.61,0,2.57.74,4.62,2.21,6.15,1.47,1.52,3.51,2.29,6.13,2.29,1.24,0,2.34-.17,3.33-.5.98-.33,1.8-.77,2.44-1.31.65-.55,1.13-1.12,1.45-1.72.32-.6.47-1.16.47-1.69,0-.45-.17-.87-.51-1.26Z"/>
          <path class="cls-5" d="M419.34,56.55c-.39-1.06-.96-1.97-1.7-2.73-.75-.77-1.65-1.36-2.69-1.77-1.05-.42-2.21-.63-3.5-.63s-2.42.21-3.46.62c-1.05.41-1.94.99-2.68,1.75-.73.75-1.29,1.66-1.69,2.73-.39,1.07-.59,2.24-.59,3.53s.2,2.43.58,3.48c.39,1.06.96,1.97,1.71,2.74s1.64,1.36,2.67,1.78c1.02.41,2.18.62,3.46.62s2.46-.21,3.5-.61c1.03-.41,1.92-1,2.67-1.77.74-.76,1.31-1.68,1.71-2.75.39-1.06.59-2.23.59-3.49s-.2-2.44-.58-3.5ZM414.52,64.06c-.76.97-1.78,1.46-3.07,1.46-.85,0-1.59-.22-2.21-.66-.63-.45-1.11-1.08-1.45-1.91-.33-.83-.5-1.8-.5-2.9s.17-2.1.51-2.94c.34-.84.83-1.47,1.46-1.9s1.36-.65,2.19-.65c1.29,0,2.31.48,3.07,1.45.76.96,1.14,2.31,1.14,4.04s-.38,3.04-1.14,4.01Z"/>
        </g>
      </g>
      <rect class="cls-3" x="485.5" y="53.89" width="539.5" height="8"/>
    </g>
  </g>
</svg>