<?xml version="1.0" encoding="UTF-8"?>
<svg id="Layer_2" data-name="Layer 2" xmlns="http://www.w3.org/2000/svg" xmlns:xlink="http://www.w3.org/1999/xlink" viewBox="0 0 1025 92.8">
  <defs>
    <style>
      .cls-1 {
        fill: url(#linear-gradient);
      }

      .cls-1, .cls-2, .cls-3, .cls-4, .cls-5, .cls-6, .cls-7, .cls-8 {
        stroke-width: 0px;
      }

      .cls-2 {
        fill: #ff6700;
      }

      .cls-3 {
        fill: url(#linear-gradient-6);
      }

      .cls-4 {
        fill: url(#linear-gradient-5);
      }

      .cls-5 {
        fill: #fff;
      }

      .cls-6 {
        fill: url(#linear-gradient-2);
      }

      .cls-7 {
        fill: url(#linear-gradient-3);
      }

      .cls-8 {
        fill: url(#linear-gradient-4);
      }
    </style>
    <linearGradient id="linear-gradient" x1="-8077.63" y1="-11908.46" x2="-8185.78" y2="-11912.02" gradientTransform="translate(8191 11932.54)" gradientUnits="userSpaceOnUse">
      <stop offset="0" stop-color="#7699ff"/>
      <stop offset="1" stop-color="#6100ff"/>
    </linearGradient>
    <linearGradient id="linear-gradient-2" x1="-8078.72" y1="-11875.29" x2="-8186.87" y2="-11878.85" xlink:href="#linear-gradient"/>
    <linearGradient id="linear-gradient-3" x1="-8077.76" y1="-11904.65" x2="-8185.9" y2="-11908.2" xlink:href="#linear-gradient"/>
    <linearGradient id="linear-gradient-4" x1="-7742.98" y1="-12220.85" x2="-7807.48" y2="-12222.97" gradientTransform="translate(8359.91 11932.98) rotate(-2.4)" xlink:href="#linear-gradient"/>
    <linearGradient id="linear-gradient-5" x1="4.74" y1="57.93" x2="26.57" y2="57.93" gradientTransform="matrix(1,0,0,1,0,0)" xlink:href="#linear-gradient"/>
    <linearGradient id="linear-gradient-6" x1="481.5" y1="57.89" x2="1025" y2="57.89" gradientTransform="translate(1506.5 115.77) rotate(-180)" gradientUnits="userSpaceOnUse">
      <stop offset="0" stop-color="#fff" stop-opacity="0"/>
      <stop offset=".28" stop-color="#ffcca9" stop-opacity=".34"/>
      <stop offset=".54" stop-color="#ffa060" stop-opacity=".62"/>
      <stop offset=".75" stop-color="#ff812c" stop-opacity=".83"/>
      <stop offset=".91" stop-color="#ff6e0c" stop-opacity=".95"/>
      <stop offset="1" stop-color="#ff6700"/>
    </linearGradient>
  </defs>
  <g id="Concisão">
    <g>
      <g>
        <path class="cls-2" d="M499.84,61.89c-.49,1.06-1.21,1.98-2.14,2.67l-17.08,12.6-17.08,12.6c-.38.28-.76.48-1.15.64-2.38,1.51-5.19,2.4-8.21,2.4H0V22.98h454.18c3.02,0,5.83.89,8.21,2.4.39.16.77.37,1.15.64l17.08,12.6,17.08,12.6c.93.69,1.65,1.61,2.14,2.67,1.16,2.44,1.16,5.56,0,8Z"/>
        <g>
          <path class="cls-1" d="M59.76,18.31c2.55,1.51,2.5,5.21-.08,6.66l-15.18,8.53-15.18,8.53c-2.58,1.45-5.76-.44-5.73-3.4l.21-17.41.21-17.41c.04-2.96,3.26-4.77,5.81-3.26l14.97,8.88,14.97,8.88Z"/>
          <path class="cls-6" d="M70.1,52.77c2.85,1.7,2.69,5.26-.3,6.69l-9.47,4.52-8.37,4c-3.25,1.55-7.32-.54-7.18-3.68l.42-9.31.42-9.31c.14-3.14,4.39-4.85,7.48-3.01l7.98,4.74,9.02,5.36Z"/>
          <path class="cls-7" d="M91.69,25.25c1.56.98,1.46,3.28-.17,4.12l-6.68,3.43-6.77,3.48c-1.62.83-3.53-.39-3.45-2.21l.31-7.46.31-7.46c.08-1.82,2.08-2.88,3.63-1.91l6.46,4.03,6.37,3.98Z"/>
          <path class="cls-8" d="M99.49,45.76c.95.54.95,1.92,0,2.46l-3.9,2.21-3.95,2.24c-.94.54-2.11-.15-2.11-1.23v-4.46s0-4.46,0-4.46c0-1.08,1.17-1.77,2.11-1.23l3.95,2.24,3.9,2.21Z"/>
        </g>
        <path class="cls-4" d="M25.26,65.28L0,79.86v-43.85l25.26,14.58c5.65,3.26,5.65,11.43,0,14.69Z"/>
        <g>
          <path class="cls-5" d="M180.86,56.66c-.4-.39-.87-.58-1.42-.58-.64,0-1.11.19-1.4.57-.29.38-.53.87-.73,1.47-.46,1.27-1.15,2.24-2.07,2.9-.92.65-2.04.98-3.36.98-1.23,0-2.29-.29-3.21-.87-.91-.58-1.61-1.45-2.11-2.63s-.74-2.65-.74-4.42c0-2.65.56-4.7,1.68-6.14,1.13-1.44,2.64-2.16,4.53-2.16,1.19,0,2.19.28,3.01.84.81.56,1.52,1.41,2.12,2.53.36.69.69,1.17.98,1.45.3.28.74.42,1.33.42.53,0,.98-.2,1.35-.61.38-.4.56-.87.56-1.4,0-.96-.38-1.98-1.15-3.06-.76-1.09-1.87-2-3.31-2.73-1.44-.74-3.08-1.1-4.92-1.1-1.51,0-2.94.27-4.27.8-1.34.54-2.5,1.33-3.5,2.36-.99,1.03-1.76,2.27-2.29,3.72-.53,1.45-.8,3.09-.8,4.92,0,1.13.11,2.2.32,3.2.21,1.01.53,1.95.95,2.84.43.89.94,1.69,1.54,2.4.67.79,1.41,1.42,2.22,1.9.8.48,1.69.84,2.68,1.07.98.23,2.07.34,3.27.34,1.59,0,2.98-.25,4.17-.76,1.19-.51,2.17-1.17,2.93-1.98.77-.82,1.33-1.64,1.69-2.49.36-.84.54-1.63.54-2.35,0-.57-.2-1.05-.59-1.43Z"/>
          <path class="cls-5" d="M200.59,53.55c-.38-1.06-.95-1.97-1.7-2.73-.74-.77-1.64-1.36-2.68-1.77-1.05-.42-2.22-.63-3.5-.63s-2.42.21-3.47.62c-1.04.41-1.93.99-2.67,1.75-.73.75-1.3,1.66-1.69,2.73-.39,1.07-.59,2.24-.59,3.53s.19,2.43.58,3.48c.39,1.06.96,1.97,1.71,2.74s1.64,1.36,2.66,1.78c1.03.41,2.18.62,3.47.62s2.46-.21,3.5-.61c1.03-.41,1.92-1,2.67-1.77.74-.76,1.31-1.68,1.71-2.75.39-1.06.59-2.23.59-3.49s-.2-2.44-.59-3.5ZM195.78,61.06c-.76.97-1.79,1.46-3.07,1.46-.85,0-1.59-.22-2.21-.66-.63-.45-1.11-1.08-1.45-1.91-.34-.83-.5-1.8-.5-2.9s.17-2.1.51-2.94.83-1.47,1.46-1.9,1.36-.65,2.19-.65c1.28,0,2.31.48,3.07,1.45.76.96,1.14,2.31,1.14,4.04s-.38,3.04-1.14,4.01Z"/>
          <path class="cls-5" d="M219.38,52.9c-.08-.6-.26-1.16-.54-1.68-.43-.89-1.09-1.58-1.97-2.07-.88-.48-1.88-.73-3-.73s-2.17.23-3.05.7c-.89.46-1.7,1.18-2.45,2.16v-.51c0-.51-.09-.94-.27-1.29-.18-.35-.42-.62-.72-.79-.31-.18-.64-.27-1.01-.27-.62,0-1.1.2-1.45.6-.35.4-.53,1-.53,1.81v12.26c0,.83.2,1.47.59,1.91.4.45.9.67,1.51.67s1.15-.22,1.55-.65c.39-.42.59-1.07.59-1.93v-5.31c0-1.73.11-2.91.31-3.55.29-.78.75-1.4,1.37-1.85.62-.45,1.31-.68,2.07-.68,1.16,0,1.93.37,2.32,1.11.39.74.58,1.81.58,3.21v7.07c0,.83.2,1.47.59,1.91.4.45.91.67,1.54.67s1.13-.22,1.52-.65c.38-.44.58-1.08.58-1.93v-7.89c0-.93-.04-1.7-.13-2.3Z"/>
          <path class="cls-5" d="M238.43,59.16c-.34-.39-.77-.59-1.29-.59-.43,0-.8.13-1.1.4-.3.27-.58.65-.84,1.12-.47.81-1,1.41-1.61,1.8-.6.4-1.33.59-2.18.59-.63,0-1.21-.12-1.74-.36-.53-.24-.98-.6-1.35-1.07-.37-.47-.66-1.04-.86-1.71-.19-.67-.29-1.4-.29-2.2,0-1.7.38-3.04,1.15-4.02.76-.97,1.77-1.46,3.03-1.46.87,0,1.59.19,2.15.59.56.39,1.1.98,1.62,1.77.29.4.55.69.79.88.23.18.52.27.88.27.53,0,.99-.18,1.37-.53.38-.35.57-.78.57-1.29s-.17-1.03-.51-1.61c-.33-.57-.82-1.11-1.46-1.62-.63-.51-1.41-.92-2.33-1.25-.91-.32-1.92-.48-3.02-.48-1.77,0-3.29.37-4.57,1.1-1.27.73-2.25,1.76-2.92,3.1-.67,1.33-1.01,2.87-1.01,4.61,0,2.57.74,4.62,2.21,6.15,1.47,1.52,3.51,2.29,6.13,2.29,1.24,0,2.35-.17,3.33-.5.98-.33,1.8-.77,2.45-1.31.64-.55,1.12-1.12,1.44-1.72.32-.6.47-1.16.47-1.69,0-.45-.17-.87-.51-1.26Z"/>
          <path class="cls-5" d="M246.25,42.83c-.43-.35-.91-.53-1.46-.53s-1.07.2-1.5.59c-.43.38-.65.88-.65,1.48,0,.66.21,1.17.63,1.54.42.36.93.54,1.52.54s1.06-.18,1.47-.55c.42-.37.62-.88.62-1.53s-.21-1.19-.63-1.54ZM246.28,49.06c-.41-.42-.92-.64-1.54-.64s-1.13.22-1.51.64c-.39.43-.59,1.06-.59,1.9v12.13c0,.83.2,1.47.59,1.91.38.45.89.67,1.51.67s1.13-.22,1.54-.65c.4-.44.6-1.08.6-1.93v-12.26c0-.75-.2-1.34-.6-1.77Z"/>
          <path class="cls-5" d="M264.28,58.05c-.43-.61-1.06-1.13-1.9-1.58-.83-.44-1.91-.83-3.22-1.15-1.11-.27-1.98-.5-2.61-.68-.63-.19-1.14-.42-1.51-.71-.37-.28-.56-.65-.56-1.09,0-.49.25-.9.76-1.22.51-.33,1.15-.49,1.91-.49s1.34.12,1.77.37c.44.25.82.58,1.14.99.39.5.74.87,1.05,1.12.3.25.67.38,1.11.38.6,0,1.06-.16,1.39-.47.33-.31.49-.71.49-1.2,0-.44-.16-.9-.46-1.36-.31-.47-.75-.89-1.34-1.28-.58-.38-1.31-.69-2.19-.91-.87-.23-1.86-.35-2.96-.35-1.39,0-2.59.23-3.58.68-.99.45-1.74,1.05-2.24,1.81-.51.76-.76,1.56-.76,2.41,0,.95.27,1.75.82,2.41.55.65,1.28,1.17,2.2,1.57.91.4,2.1.78,3.56,1.14,1.3.32,2.23.64,2.79.98.57.35.85.89.85,1.64,0,.48-.27.91-.82,1.29-.54.38-1.24.57-2.09.57-1.04,0-1.87-.19-2.47-.56-.61-.37-1.13-.94-1.57-1.69-.21-.4-.44-.7-.68-.92-.24-.22-.58-.33-1.02-.33-.51,0-.93.17-1.26.5s-.5.73-.5,1.2c0,.7.26,1.4.78,2.1.51.7,1.32,1.28,2.4,1.75,1.09.47,2.4.7,3.92.7s2.95-.22,4.06-.65c1.12-.42,1.96-1.06,2.53-1.89s.85-1.84.85-3.01c0-.77-.21-1.47-.64-2.07Z"/>
          <path class="cls-5" d="M283.48,62.27c-.26-.86-.4-1.69-.4-2.49.01-.85.02-1.62.03-2.31v-2.54c0-1.57-.22-2.83-.66-3.79-.44-.95-1.19-1.65-2.26-2.09-1.06-.44-2.53-.66-4.39-.66-1.67,0-3.06.23-4.18.69-1.12.45-1.94,1.03-2.47,1.74-.53.7-.8,1.43-.8,2.17,0,.48.18.87.53,1.17.34.31.75.46,1.23.46.53,0,.87-.09,1.03-.28.16-.2.44-.59.83-1.19.39-.6.85-1.05,1.4-1.35.54-.31,1.35-.45,2.43-.45,1.25,0,2.08.26,2.47.78.4.52.63,1.34.68,2.46-.89.26-1.72.48-2.48.66-.76.18-1.67.38-2.74.6-1.07.22-1.73.36-2,.42-1.29.28-2.3.83-3.03,1.65-.74.81-1.11,1.8-1.11,2.96,0,.86.23,1.66.67,2.4.45.73,1.08,1.32,1.9,1.74.83.43,1.78.65,2.87.65,1.19,0,2.27-.2,3.23-.6.95-.4,1.94-1,2.97-1.79.48.77.93,1.37,1.35,1.78.43.4.86.61,1.29.61.52,0,.98-.18,1.39-.54.41-.35.62-.75.62-1.19,0-.24-.14-.8-.4-1.67ZM278.95,57.75c0,1.47-.19,2.52-.57,3.17-.34.58-.86,1.05-1.57,1.42-.71.36-1.48.55-2.32.55-.79,0-1.42-.23-1.91-.68s-.73-.99-.73-1.64.21-1.1.62-1.45c.42-.35.85-.58,1.31-.7.45-.12,1.27-.3,2.46-.56,1.19-.25,2.09-.49,2.71-.72v.61ZM280.15,42.57c-.18-.22-.39-.33-.62-.33-.4,0-.68.3-.84.9-.1.4-.23.67-.4.82-.17.15-.41.22-.71.22s-.57-.04-.82-.13c-.25-.09-.71-.28-1.37-.59-.67-.31-1.21-.52-1.61-.66-.39-.13-.83-.2-1.29-.2s-.91.14-1.31.42c-.41.29-.73.67-.96,1.16-.23.48-.34.98-.34,1.49,0,.39.09.69.27.9.18.21.39.32.61.32.38,0,.66-.31.84-.92.19-.7.55-1.06,1.07-1.06.31,0,.63.07.95.19s.81.33,1.46.62c.65.29,1.17.5,1.54.61.37.12.74.18,1.09.18.92,0,1.6-.36,2.04-1.09s.66-1.39.66-1.97c0-.37-.09-.67-.26-.88Z"/>
          <path class="cls-5" d="M302.71,53.55c-.39-1.06-.95-1.97-1.7-2.73-.74-.77-1.64-1.36-2.69-1.77-1.04-.42-2.21-.63-3.49-.63s-2.42.21-3.47.62c-1.04.41-1.93.99-2.67,1.75-.73.75-1.3,1.66-1.69,2.73-.4,1.07-.59,2.24-.59,3.53s.19,2.43.58,3.48c.39,1.06.96,1.97,1.71,2.74s1.64,1.36,2.66,1.78c1.03.41,2.18.62,3.47.62s2.46-.21,3.49-.61c1.04-.41,1.93-1,2.68-1.77.74-.76,1.31-1.68,1.71-2.75.39-1.06.59-2.23.59-3.49s-.2-2.44-.59-3.5ZM297.9,61.06c-.76.97-1.79,1.46-3.07,1.46-.85,0-1.59-.22-2.22-.66-.62-.45-1.1-1.08-1.44-1.91-.34-.83-.51-1.8-.51-2.9s.18-2.1.52-2.94c.34-.84.83-1.47,1.46-1.9s1.36-.65,2.19-.65c1.28,0,2.31.48,3.07,1.45.76.96,1.14,2.31,1.14,4.04s-.38,3.04-1.14,4.01Z"/>
        </g>
      </g>
      <rect class="cls-3" x="481.5" y="53.89" width="543.5" height="8"/>
    </g>
  </g>
</svg>