<?xml version="1.0" encoding="UTF-8"?>
<svg id="Layer_2" data-name="Layer 2" xmlns="http://www.w3.org/2000/svg" xmlns:xlink="http://www.w3.org/1999/xlink" viewBox="0 0 2397 97.04">
  <defs>
    <style>
      .cls-1 {
        fill: url(#linear-gradient);
      }

      .cls-1, .cls-2, .cls-3, .cls-4, .cls-5, .cls-6, .cls-7, .cls-8 {
        stroke-width: 0px;
      }

      .cls-2 {
        fill: #ff6700;
      }

      .cls-3 {
        fill: url(#linear-gradient-6);
      }

      .cls-4 {
        fill: url(#linear-gradient-5);
      }

      .cls-5 {
        fill: #fff;
      }

      .cls-6 {
        fill: url(#linear-gradient-2);
      }

      .cls-7 {
        fill: url(#linear-gradient-3);
      }

      .cls-8 {
        fill: url(#linear-gradient-4);
      }
    </style>
    <linearGradient id="linear-gradient" x1="-7395.13" y1="-11908.46" x2="-7503.28" y2="-11912.02" gradientTransform="translate(8191 11932.54)" gradientUnits="userSpaceOnUse">
      <stop offset="0" stop-color="#7699ff"/>
      <stop offset="1" stop-color="#6100ff"/>
    </linearGradient>
    <linearGradient id="linear-gradient-2" x1="-7396.22" y1="-11875.29" x2="-7504.37" y2="-11878.85" xlink:href="#linear-gradient"/>
    <linearGradient id="linear-gradient-3" x1="-7395.26" y1="-11904.65" x2="-7503.4" y2="-11908.2" xlink:href="#linear-gradient"/>
    <linearGradient id="linear-gradient-4" x1="-7065" y1="-12102.61" x2="-7129.51" y2="-12104.73" gradientTransform="translate(8360.08 11843.21) rotate(-2.4)" xlink:href="#linear-gradient"/>
    <linearGradient id="linear-gradient-5" x1="-8076.6" y1="-11874.61" x2="-7549.67" y2="-11874.61" xlink:href="#linear-gradient"/>
    <linearGradient id="linear-gradient-6" x1="-4490" y1="-318.11" x2="-3257" y2="-318.11" gradientTransform="translate(-2093 -260.23) rotate(-180)" gradientUnits="userSpaceOnUse">
      <stop offset="0" stop-color="#fff" stop-opacity="0"/>
      <stop offset=".28" stop-color="#ffcca9" stop-opacity=".34"/>
      <stop offset=".54" stop-color="#ffa060" stop-opacity=".62"/>
      <stop offset=".75" stop-color="#ff812c" stop-opacity=".83"/>
      <stop offset=".91" stop-color="#ff6e0c" stop-opacity=".95"/>
      <stop offset="1" stop-color="#ff6700"/>
    </linearGradient>
  </defs>
  <g id="Concisão">
    <g>
      <g>
        <path class="cls-2" d="M1180.2,51.22l-17.08-12.6-17.08-12.6c-.38-.28-.76-.48-1.15-.64-2.37-1.51-5.19-2.4-8.21-2.4h-486.68v69.82h486.68c3.02,0,5.84-.89,8.21-2.4.39-.16.78-.37,1.15-.64l17.08-12.6,17.08-12.6c4.02-2.96,4.02-10.37,0-13.34Z"/>
        <g>
          <path class="cls-1" d="M742.26,18.31c2.55,1.51,2.5,5.21-.08,6.66l-15.18,8.53-15.18,8.53c-2.58,1.45-5.76-.44-5.73-3.4l.21-17.41.21-17.41c.04-2.96,3.26-4.77,5.81-3.26l14.97,8.88,14.97,8.88Z"/>
          <path class="cls-6" d="M752.6,52.77c2.85,1.7,2.69,5.26-.3,6.69l-9.47,4.52-8.37,4c-3.25,1.55-7.32-.54-7.18-3.68l.42-9.31.42-9.31c.14-3.14,4.39-4.85,7.48-3.01l7.98,4.74,9.02,5.36Z"/>
          <path class="cls-7" d="M774.19,25.25c1.56.98,1.46,3.28-.17,4.12l-6.68,3.43-6.77,3.48c-1.62.83-3.53-.39-3.45-2.21l.31-7.46.31-7.46c.08-1.82,2.08-2.88,3.63-1.91l6.46,4.03,6.37,3.98Z"/>
          <path class="cls-8" d="M781.99,45.76c.95.54.95,1.92,0,2.46l-3.9,2.21-3.95,2.24c-.94.54-2.11-.15-2.11-1.23v-4.46s0-4.46,0-4.46c0-1.08,1.17-1.77,2.11-1.23l3.95,2.24,3.9,2.21Z"/>
        </g>
        <path class="cls-4" d="M707.76,50.59l-26.52-15.31-26.52-15.31c-1.8-1.04-3.75-1.33-5.57-1.03H0v78h649.15c1.82.3,3.76,0,5.57-1.03l26.52-15.31,26.52-15.31c5.65-3.26,5.65-11.43,0-14.69Z"/>
        <g>
          <path class="cls-5" d="M863.95,58.08c0,.73-.18,1.51-.54,2.35-.36.84-.92,1.67-1.69,2.49-.77.81-1.75,1.47-2.94,1.98-1.19.51-2.58.76-4.16.76-1.2,0-2.29-.11-3.28-.34s-1.88-.58-2.68-1.06c-.8-.48-1.54-1.12-2.21-1.9-.6-.71-1.11-1.51-1.54-2.4-.43-.89-.74-1.83-.96-2.83-.21-1-.32-2.07-.32-3.2,0-1.83.27-3.48.8-4.93.53-1.45,1.3-2.69,2.29-3.72.99-1.03,2.16-1.81,3.5-2.35,1.34-.54,2.76-.81,4.27-.81,1.84,0,3.49.37,4.93,1.1,1.44.74,2.54,1.64,3.31,2.73.77,1.08,1.15,2.11,1.15,3.07,0,.53-.19.99-.56,1.4s-.82.61-1.35.61c-.59,0-1.03-.14-1.33-.42-.29-.28-.62-.76-.99-1.45-.6-1.13-1.31-1.97-2.12-2.53-.81-.56-1.82-.84-3.01-.84-1.9,0-3.41.72-4.53,2.16-1.12,1.44-1.69,3.49-1.69,6.14,0,1.77.25,3.24.75,4.42s1.2,2.05,2.11,2.63,1.98.87,3.2.87c1.33,0,2.45-.33,3.36-.99.92-.66,1.61-1.62,2.07-2.9.2-.6.44-1.09.73-1.47s.76-.57,1.4-.57c.55,0,1.02.19,1.41.57.39.38.59.86.59,1.43Z"/>
          <path class="cls-5" d="M883.68,57.04c0,1.26-.2,2.43-.59,3.5-.39,1.07-.96,1.98-1.71,2.75-.75.77-1.64,1.35-2.67,1.76-1.04.41-2.2.61-3.5.61s-2.44-.21-3.46-.62-1.91-1.01-2.66-1.78-1.32-1.68-1.71-2.73c-.39-1.05-.58-2.21-.58-3.49s.2-2.46.59-3.53.96-1.98,1.69-2.73,1.63-1.34,2.67-1.75c1.05-.41,2.2-.61,3.46-.61s2.45.21,3.5.62c1.05.41,1.94,1,2.69,1.77s1.31,1.68,1.7,2.73c.39,1.06.58,2.22.58,3.5ZM879.42,57.04c0-1.73-.38-3.08-1.14-4.04s-1.78-1.45-3.07-1.45c-.83,0-1.56.22-2.19.65s-1.12,1.06-1.46,1.9c-.34.84-.51,1.82-.51,2.94s.17,2.08.5,2.91c.34.83.82,1.46,1.44,1.9.63.44,1.36.66,2.21.66,1.28,0,2.31-.48,3.07-1.45s1.14-2.31,1.14-4.02Z"/>
          <path class="cls-5" d="M890.87,50.77v.51c.75-.98,1.56-1.71,2.45-2.17.89-.46,1.9-.69,3.05-.69s2.12.24,3,.73c.88.49,1.54,1.18,1.97,2.07.28.52.46,1.08.54,1.68s.12,1.37.12,2.3v7.89c0,.85-.19,1.49-.58,1.93-.39.43-.89.65-1.52.65s-1.14-.22-1.54-.67-.59-1.08-.59-1.91v-7.07c0-1.4-.19-2.47-.58-3.21-.39-.74-1.16-1.11-2.32-1.11-.76,0-1.44.22-2.07.68-.62.45-1.08,1.07-1.37,1.86-.21.63-.31,1.81-.31,3.54v5.31c0,.86-.2,1.5-.6,1.93-.4.43-.91.64-1.55.64s-1.11-.22-1.51-.67c-.39-.45-.59-1.08-.59-1.91v-12.26c0-.81.18-1.41.53-1.81.35-.4.83-.6,1.44-.6.37,0,.71.09,1.01.26.3.18.54.44.72.79.18.35.27.78.27,1.29Z"/>
          <path class="cls-5" d="M921.44,60.41c0,.53-.16,1.09-.47,1.69-.32.6-.8,1.17-1.45,1.72-.65.54-1.46.98-2.45,1.31-.98.33-2.09.5-3.33.5-2.62,0-4.67-.76-6.14-2.29-1.47-1.53-2.21-3.58-2.21-6.14,0-1.74.34-3.28,1.01-4.61.67-1.34,1.65-2.37,2.92-3.1,1.27-.73,2.8-1.09,4.57-1.09,1.1,0,2.11.16,3.02.48.92.32,1.69.74,2.33,1.24s1.12,1.05,1.46,1.62c.34.58.5,1.11.5,1.61s-.19.94-.57,1.29c-.38.35-.84.53-1.38.53-.35,0-.64-.09-.88-.27s-.5-.47-.79-.88c-.52-.79-1.06-1.38-1.62-1.77-.56-.39-1.28-.59-2.15-.59-1.25,0-2.26.49-3.03,1.47s-1.15,2.32-1.15,4.02c0,.8.1,1.53.29,2.2.2.67.48,1.24.85,1.71.37.47.82.83,1.35,1.07.53.24,1.11.36,1.74.36.85,0,1.58-.2,2.18-.59.61-.39,1.14-.99,1.61-1.8.26-.48.54-.85.84-1.12s.67-.4,1.1-.4c.52,0,.95.2,1.29.59s.51.81.51,1.26Z"/>
          <path class="cls-5" d="M927.29,46.45c-.59,0-1.1-.18-1.52-.54-.42-.36-.63-.88-.63-1.54,0-.6.21-1.09.64-1.48s.93-.58,1.5-.58,1.04.18,1.46.53c.42.35.64.87.64,1.54s-.21,1.16-.62,1.53c-.41.37-.91.55-1.48.55ZM929.38,50.83v12.26c0,.85-.2,1.49-.61,1.93-.4.43-.92.65-1.54.65s-1.13-.22-1.51-.67c-.39-.45-.58-1.08-.58-1.91v-12.13c0-.84.19-1.47.58-1.9.39-.42.89-.64,1.51-.64s1.13.21,1.54.64.61,1.02.61,1.77Z"/>
          <path class="cls-5" d="M947.42,60.12c0,1.17-.29,2.17-.85,3.01-.57.83-1.41,1.47-2.52,1.9-1.11.43-2.47.64-4.06.64s-2.83-.23-3.92-.7c-1.09-.47-1.89-1.05-2.41-1.75-.52-.7-.78-1.4-.78-2.11,0-.47.17-.86.5-1.2.33-.33.75-.5,1.26-.5.45,0,.79.11,1.03.33.24.22.47.52.68.92.44.76.96,1.32,1.56,1.69.61.37,1.43.56,2.48.56.85,0,1.55-.19,2.09-.57s.82-.81.82-1.3c0-.75-.28-1.29-.85-1.63s-1.49-.67-2.79-.98c-1.46-.36-2.65-.74-3.57-1.14-.92-.4-1.65-.92-2.2-1.58s-.82-1.46-.82-2.41c0-.85.25-1.65.76-2.41.51-.76,1.26-1.36,2.25-1.81.99-.45,2.18-.68,3.58-.68,1.1,0,2.08.11,2.96.34s1.61.53,2.19.92c.58.38,1.03.81,1.34,1.27.3.47.46.92.46,1.37,0,.49-.16.89-.49,1.2s-.79.47-1.39.47c-.43,0-.81-.12-1.11-.37-.31-.25-.66-.62-1.05-1.12-.32-.41-.7-.75-1.13-.99-.43-.25-1.03-.37-1.77-.37s-1.4.16-1.91.49c-.51.33-.76.73-.76,1.22,0,.45.19.81.56,1.09.37.29.88.52,1.51.71s1.5.42,2.61.68c1.32.32,2.39.71,3.22,1.15s1.47.97,1.9,1.58c.43.61.64,1.3.64,2.07Z"/>
          <path class="cls-5" d="M961.73,63.27c-1.03.8-2.02,1.4-2.97,1.79s-2.03.6-3.22.6c-1.09,0-2.04-.22-2.87-.64-.82-.43-1.46-1.01-1.9-1.75-.45-.74-.67-1.53-.67-2.39,0-1.16.37-2.15,1.1-2.97s1.75-1.37,3.03-1.65c.27-.06.94-.2,2-.42,1.07-.22,1.98-.42,2.74-.6.76-.18,1.59-.4,2.48-.66-.05-1.12-.28-1.94-.68-2.46-.4-.52-1.22-.78-2.48-.78-1.08,0-1.89.15-2.43.45s-1.01.75-1.4,1.35-.66,1-.82,1.19c-.16.19-.5.29-1.03.29-.48,0-.89-.15-1.24-.46s-.52-.7-.52-1.17c0-.75.26-1.47.79-2.17.53-.7,1.35-1.28,2.47-1.74s2.51-.68,4.18-.68c1.87,0,3.33.22,4.4.66,1.07.44,1.82,1.14,2.26,2.09.44.95.66,2.22.66,3.79,0,.99,0,1.84,0,2.53,0,.69-.01,1.47-.02,2.31,0,.8.13,1.63.4,2.49.26.86.4,1.42.4,1.67,0,.43-.2.83-.61,1.19s-.87.54-1.39.54c-.44,0-.87-.21-1.29-.61s-.88-1-1.35-1.78ZM955.17,44.91c-.53,0-.89.35-1.07,1.06-.19.61-.47.92-.84.92-.23,0-.43-.11-.61-.32-.18-.21-.27-.51-.27-.89,0-.52.11-1.02.34-1.5.23-.48.55-.87.96-1.15.41-.28.85-.43,1.31-.43s.9.07,1.3.2.93.35,1.6.66,1.13.5,1.38.59c.25.09.52.13.82.13s.54-.08.71-.23.3-.42.4-.82c.17-.6.44-.9.84-.9.24,0,.45.11.62.33s.26.51.26.89c0,.58-.22,1.24-.66,1.96-.44.73-1.12,1.1-2.04,1.1-.35,0-.71-.06-1.09-.18-.37-.12-.89-.32-1.54-.61s-1.14-.5-1.46-.62-.64-.19-.95-.19ZM961.45,57.14c-.62.23-1.53.47-2.71.72-1.19.25-2.01.44-2.46.56s-.89.35-1.3.7c-.41.35-.62.83-.62,1.45s.24,1.19.73,1.64c.49.45,1.12.68,1.91.68.84,0,1.61-.18,2.32-.55.71-.37,1.23-.84,1.56-1.42.38-.64.58-1.7.58-3.17v-.61Z"/>
          <path class="cls-5" d="M985.8,57.04c0,1.26-.2,2.43-.59,3.5-.39,1.07-.96,1.98-1.71,2.75-.75.77-1.64,1.35-2.67,1.76-1.04.41-2.2.61-3.5.61s-2.44-.21-3.46-.62-1.91-1.01-2.66-1.78-1.32-1.68-1.71-2.73c-.39-1.05-.58-2.21-.58-3.49s.2-2.46.59-3.53c.39-1.07.96-1.98,1.69-2.73s1.63-1.34,2.67-1.75,2.2-.61,3.46-.61,2.45.21,3.5.62,1.94,1,2.69,1.77c.75.77,1.31,1.68,1.7,2.73.39,1.06.58,2.22.58,3.5ZM981.54,57.04c0-1.73-.38-3.08-1.14-4.04-.76-.96-1.78-1.45-3.07-1.45-.83,0-1.56.22-2.19.65-.63.43-1.12,1.06-1.46,1.9-.34.84-.51,1.82-.51,2.94s.17,2.08.5,2.91c.34.83.82,1.46,1.45,1.9.63.44,1.36.66,2.21.66,1.28,0,2.31-.48,3.07-1.45.76-.97,1.14-2.31,1.14-4.02Z"/>
        </g>
      </g>
      <rect class="cls-3" x="1164" y="53.89" width="1233" height="8"/>
    </g>
  </g>
</svg>